M48
;DRILL file {KiCad (5.0.0)} date 08/26/18 00:23:18
;FORMAT={-:-/ absolute / inch / decimal}
FMAT,2
INCH,TZ
T1C0.0157
T2C0.0320
T3C0.0394
T4C0.0433
T5C0.0551
T6C0.0591
T7C0.0598
%
G90
G05
M72
T1
X-0.95Y-0.2981
X-0.375Y-1.625
X-0.35Y-1.5
T2
X0.575Y-1.35
X0.575Y-1.45
X0.675Y-1.35
X0.675Y-1.45
X0.775Y-1.35
X0.775Y-1.45
T3
X0.425Y1.5719
X0.425Y1.375
X1.1Y1.1719
X1.1Y0.975
X0.675Y1.1719
X0.675Y0.975
X-0.2Y0.75
X-0.2Y0.07
X1.3748Y0.75
X1.3748Y0.07
T4
X-1.175Y0.125
X-1.175Y0.025
X-1.175Y-0.075
X-0.85Y0.75
X-0.75Y0.75
X-0.65Y0.75
T5
X-0.925Y-0.775
X-0.525Y-0.775
X0.675Y-0.175
X0.675Y-0.575
X-0.75Y1.4
X-0.35Y1.4
X-0.575Y0.125
X-0.575Y-0.275
T6
X-1.43Y0.365
X-1.43Y0.025
X-1.43Y-0.315
X-1.09Y1.005
X-0.75Y1.005
X-0.41Y1.005
T7
X0.575Y-1.025
X0.775Y-1.025
X0.975Y-1.025
X0.25Y-0.475
X0.45Y-0.475
X-0.4Y-0.475
X-0.2Y-0.475
X0.Y-0.475
T0
M30
