G04 #@! TF.GenerationSoftware,KiCad,Pcbnew,(5.0.0)*
G04 #@! TF.CreationDate,2018-08-26T00:23:22+09:00*
G04 #@! TF.ProjectId,power-supply,706F7765722D737570706C792E6B6963,rev?*
G04 #@! TF.SameCoordinates,Original*
G04 #@! TF.FileFunction,Legend,Bot*
G04 #@! TF.FilePolarity,Positive*
%FSLAX46Y46*%
G04 Gerber Fmt 4.6, Leading zero omitted, Abs format (unit mm)*
G04 Created by KiCad (PCBNEW (5.0.0)) date 08/26/18 00:23:22*
%MOMM*%
%LPD*%
G01*
G04 APERTURE LIST*
%ADD10C,0.200000*%
%ADD11C,0.300000*%
%ADD12C,0.400000*%
G04 APERTURE END LIST*
D10*
X3000000Y28000000D02*
G75*
G03X3000000Y28000000I-3000000J0D01*
G01*
X-21248711Y-13999999D02*
G75*
G03X-21248711Y-13999999I-3000000J0D01*
G01*
X27248711Y-13999999D02*
G75*
G03X27248711Y-13999999I-3000000J0D01*
G01*
X-1000000Y-1000000D02*
X1000000Y1000000D01*
D11*
X41802857Y2035714D02*
X41874285Y1821428D01*
X41945714Y1750000D01*
X42088571Y1678571D01*
X42302857Y1678571D01*
X42445714Y1750000D01*
X42517142Y1821428D01*
X42588571Y1964285D01*
X42588571Y2535714D01*
X41088571Y2535714D01*
X41088571Y2035714D01*
X41160000Y1892857D01*
X41231428Y1821428D01*
X41374285Y1750000D01*
X41517142Y1750000D01*
X41660000Y1821428D01*
X41731428Y1892857D01*
X41802857Y2035714D01*
X41802857Y2535714D01*
X42160000Y1107142D02*
X42160000Y392857D01*
X42588571Y1250000D02*
X41088571Y750000D01*
X42588571Y249999D01*
X42445714Y-1107142D02*
X42517142Y-1035714D01*
X42588571Y-821428D01*
X42588571Y-678571D01*
X42517142Y-464285D01*
X42374285Y-321428D01*
X42231428Y-250000D01*
X41945714Y-178571D01*
X41731428Y-178571D01*
X41445714Y-249999D01*
X41302857Y-321428D01*
X41160000Y-464285D01*
X41088571Y-678571D01*
X41088571Y-821428D01*
X41160000Y-1035714D01*
X41231428Y-1107142D01*
X42588571Y-1750000D02*
X41088571Y-1750000D01*
X42588571Y-2607142D02*
X41731428Y-1964285D01*
X41088571Y-2607142D02*
X41945714Y-1750000D01*
X25907857Y-31000000D02*
X26050714Y-30928571D01*
X26265000Y-30928571D01*
X26479285Y-31000000D01*
X26622142Y-31142857D01*
X26693571Y-31285714D01*
X26765000Y-31571428D01*
X26765000Y-31785714D01*
X26693571Y-32071428D01*
X26622142Y-32214285D01*
X26479285Y-32357142D01*
X26265000Y-32428571D01*
X26122142Y-32428571D01*
X25907857Y-32357142D01*
X25836428Y-32285714D01*
X25836428Y-31785714D01*
X26122142Y-31785714D01*
X25193571Y-32428571D02*
X25193571Y-30928571D01*
X24336428Y-32428571D01*
X24336428Y-30928571D01*
X23622142Y-32428571D02*
X23622142Y-30928571D01*
X23265000Y-30928571D01*
X23050714Y-31000000D01*
X22907857Y-31142857D01*
X22836428Y-31285714D01*
X22765000Y-31571428D01*
X22765000Y-31785714D01*
X22836428Y-32071428D01*
X22907857Y-32214285D01*
X23050714Y-32357142D01*
X23265000Y-32428571D01*
X23622142Y-32428571D01*
X21542142Y-30928571D02*
X20542142Y-30928571D01*
X21185000Y-32428571D01*
X20185000Y-30928571D02*
X19685000Y-32428571D01*
X19185000Y-30928571D01*
X18042142Y-31428571D02*
X18042142Y-32428571D01*
X18399285Y-30857142D02*
X18756428Y-31928571D01*
X17827857Y-31928571D01*
X16247857Y-32428571D02*
X17105000Y-32428571D01*
X16676428Y-32428571D02*
X16676428Y-30928571D01*
X16819285Y-31142857D01*
X16962142Y-31285714D01*
X17105000Y-31357142D01*
X14819285Y-32428571D02*
X15676428Y-32428571D01*
X15247857Y-32428571D02*
X15247857Y-30928571D01*
X15390714Y-31142857D01*
X15533571Y-31285714D01*
X15676428Y-31357142D01*
X14390714Y-30928571D02*
X13890714Y-32428571D01*
X13390714Y-30928571D01*
X12105000Y-32428571D02*
X12962142Y-32428571D01*
X12533571Y-32428571D02*
X12533571Y-30928571D01*
X12676428Y-31142857D01*
X12819285Y-31285714D01*
X12962142Y-31357142D01*
X12572857Y-17030000D02*
X12715714Y-16958571D01*
X12930000Y-16958571D01*
X13144285Y-17030000D01*
X13287142Y-17172857D01*
X13358571Y-17315714D01*
X13430000Y-17601428D01*
X13430000Y-17815714D01*
X13358571Y-18101428D01*
X13287142Y-18244285D01*
X13144285Y-18387142D01*
X12930000Y-18458571D01*
X12787142Y-18458571D01*
X12572857Y-18387142D01*
X12501428Y-18315714D01*
X12501428Y-17815714D01*
X12787142Y-17815714D01*
X11858571Y-18458571D02*
X11858571Y-16958571D01*
X11001428Y-18458571D01*
X11001428Y-16958571D01*
X10287142Y-18458571D02*
X10287142Y-16958571D01*
X9930000Y-16958571D01*
X9715714Y-17030000D01*
X9572857Y-17172857D01*
X9501428Y-17315714D01*
X9430000Y-17601428D01*
X9430000Y-17815714D01*
X9501428Y-18101428D01*
X9572857Y-18244285D01*
X9715714Y-18387142D01*
X9930000Y-18458571D01*
X10287142Y-18458571D01*
X6635714Y-16958571D02*
X7350000Y-16958571D01*
X7421428Y-17672857D01*
X7350000Y-17601428D01*
X7207142Y-17530000D01*
X6850000Y-17530000D01*
X6707142Y-17601428D01*
X6635714Y-17672857D01*
X6564285Y-17815714D01*
X6564285Y-18172857D01*
X6635714Y-18315714D01*
X6707142Y-18387142D01*
X6850000Y-18458571D01*
X7207142Y-18458571D01*
X7350000Y-18387142D01*
X7421428Y-18315714D01*
X6135714Y-16958571D02*
X5635714Y-18458571D01*
X5135714Y-16958571D01*
X1142857Y-17030000D02*
X1285714Y-16958571D01*
X1500000Y-16958571D01*
X1714285Y-17030000D01*
X1857142Y-17172857D01*
X1928571Y-17315714D01*
X2000000Y-17601428D01*
X2000000Y-17815714D01*
X1928571Y-18101428D01*
X1857142Y-18244285D01*
X1714285Y-18387142D01*
X1500000Y-18458571D01*
X1357142Y-18458571D01*
X1142857Y-18387142D01*
X1071428Y-18315714D01*
X1071428Y-17815714D01*
X1357142Y-17815714D01*
X428571Y-18458571D02*
X428571Y-16958571D01*
X-428571Y-18458571D01*
X-428571Y-16958571D01*
X-1142857Y-18458571D02*
X-1142857Y-16958571D01*
X-1500000Y-16958571D01*
X-1714285Y-17030000D01*
X-1857142Y-17172857D01*
X-1928571Y-17315714D01*
X-1999999Y-17601428D01*
X-1999999Y-17815714D01*
X-1928571Y-18101428D01*
X-1857142Y-18244285D01*
X-1714285Y-18387142D01*
X-1500000Y-18458571D01*
X-1142857Y-18458571D01*
X-4794285Y-16958571D02*
X-4080000Y-16958571D01*
X-4008571Y-17672857D01*
X-4080000Y-17601428D01*
X-4222857Y-17530000D01*
X-4580000Y-17530000D01*
X-4722857Y-17601428D01*
X-4794285Y-17672857D01*
X-4865714Y-17815714D01*
X-4865714Y-18172857D01*
X-4794285Y-18315714D01*
X-4722857Y-18387142D01*
X-4580000Y-18458571D01*
X-4222857Y-18458571D01*
X-4080000Y-18387142D01*
X-4008571Y-18315714D01*
X-5294285Y-16958571D02*
X-5794285Y-18458571D01*
X-6294285Y-16958571D01*
X-9231428Y-18458571D02*
X-9517142Y-18458571D01*
X-9660000Y-18387142D01*
X-9731428Y-18315714D01*
X-9874285Y-18101428D01*
X-9945714Y-17815714D01*
X-9945714Y-17244285D01*
X-9874285Y-17101428D01*
X-9802857Y-17030000D01*
X-9660000Y-16958571D01*
X-9374285Y-16958571D01*
X-9231428Y-17030000D01*
X-9160000Y-17101428D01*
X-9088571Y-17244285D01*
X-9088571Y-17601428D01*
X-9160000Y-17744285D01*
X-9231428Y-17815714D01*
X-9374285Y-17887142D01*
X-9660000Y-17887142D01*
X-9802857Y-17815714D01*
X-9874285Y-17744285D01*
X-9945714Y-17601428D01*
X-10374285Y-16958571D02*
X-10874285Y-18458571D01*
X-11374285Y-16958571D01*
D12*
X25780238Y-21224761D02*
X25780238Y-19224761D01*
X25018333Y-19224761D01*
X24827857Y-19320000D01*
X24732619Y-19415238D01*
X24637380Y-19605714D01*
X24637380Y-19891428D01*
X24732619Y-20081904D01*
X24827857Y-20177142D01*
X25018333Y-20272380D01*
X25780238Y-20272380D01*
X23494523Y-21224761D02*
X23685000Y-21129523D01*
X23780238Y-21034285D01*
X23875476Y-20843809D01*
X23875476Y-20272380D01*
X23780238Y-20081904D01*
X23685000Y-19986666D01*
X23494523Y-19891428D01*
X23208809Y-19891428D01*
X23018333Y-19986666D01*
X22923095Y-20081904D01*
X22827857Y-20272380D01*
X22827857Y-20843809D01*
X22923095Y-21034285D01*
X23018333Y-21129523D01*
X23208809Y-21224761D01*
X23494523Y-21224761D01*
X22161190Y-19891428D02*
X21780238Y-21224761D01*
X21399285Y-20272380D01*
X21018333Y-21224761D01*
X20637380Y-19891428D01*
X19113571Y-21129523D02*
X19304047Y-21224761D01*
X19685000Y-21224761D01*
X19875476Y-21129523D01*
X19970714Y-20939047D01*
X19970714Y-20177142D01*
X19875476Y-19986666D01*
X19685000Y-19891428D01*
X19304047Y-19891428D01*
X19113571Y-19986666D01*
X19018333Y-20177142D01*
X19018333Y-20367619D01*
X19970714Y-20558095D01*
X18161190Y-21224761D02*
X18161190Y-19891428D01*
X18161190Y-20272380D02*
X18065952Y-20081904D01*
X17970714Y-19986666D01*
X17780238Y-19891428D01*
X17589761Y-19891428D01*
X15399285Y-21224761D02*
X15399285Y-19224761D01*
X14446904Y-19891428D02*
X14446904Y-21224761D01*
X14446904Y-20081904D02*
X14351666Y-19986666D01*
X14161190Y-19891428D01*
X13875476Y-19891428D01*
X13685000Y-19986666D01*
X13589761Y-20177142D01*
X13589761Y-21224761D01*
D11*
X12354285Y-7028571D02*
X12354285Y-5528571D01*
X12354285Y-6242857D02*
X11497142Y-6242857D01*
X11497142Y-7028571D02*
X11497142Y-5528571D01*
X10782857Y-7028571D02*
X10782857Y-6028571D01*
X10782857Y-5528571D02*
X10854285Y-5600000D01*
X10782857Y-5671428D01*
X10711428Y-5600000D01*
X10782857Y-5528571D01*
X10782857Y-5671428D01*
X9425714Y-6028571D02*
X9425714Y-7242857D01*
X9497142Y-7385714D01*
X9568571Y-7457142D01*
X9711428Y-7528571D01*
X9925714Y-7528571D01*
X10068571Y-7457142D01*
X9425714Y-6957142D02*
X9568571Y-7028571D01*
X9854285Y-7028571D01*
X9997142Y-6957142D01*
X10068571Y-6885714D01*
X10140000Y-6742857D01*
X10140000Y-6314285D01*
X10068571Y-6171428D01*
X9997142Y-6100000D01*
X9854285Y-6028571D01*
X9568571Y-6028571D01*
X9425714Y-6100000D01*
X8711428Y-7028571D02*
X8711428Y-5528571D01*
X8068571Y-7028571D02*
X8068571Y-6242857D01*
X8140000Y-6100000D01*
X8282857Y-6028571D01*
X8497142Y-6028571D01*
X8640000Y-6100000D01*
X8711428Y-6171428D01*
X5354285Y-6885714D02*
X5425714Y-6957142D01*
X5640000Y-7028571D01*
X5782857Y-7028571D01*
X5997142Y-6957142D01*
X6140000Y-6814285D01*
X6211428Y-6671428D01*
X6282857Y-6385714D01*
X6282857Y-6171428D01*
X6211428Y-5885714D01*
X6140000Y-5742857D01*
X5997142Y-5600000D01*
X5782857Y-5528571D01*
X5640000Y-5528571D01*
X5425714Y-5600000D01*
X5354285Y-5671428D01*
X-722857Y-7028571D02*
X-222857Y-6314285D01*
X134285Y-7028571D02*
X134285Y-5528571D01*
X-437142Y-5528571D01*
X-580000Y-5600000D01*
X-651428Y-5671428D01*
X-722857Y-5814285D01*
X-722857Y-6028571D01*
X-651428Y-6171428D01*
X-580000Y-6242857D01*
X-437142Y-6314285D01*
X134285Y-6314285D01*
X-1937142Y-6957142D02*
X-1794285Y-7028571D01*
X-1508571Y-7028571D01*
X-1365714Y-6957142D01*
X-1294285Y-6814285D01*
X-1294285Y-6242857D01*
X-1365714Y-6100000D01*
X-1508571Y-6028571D01*
X-1794285Y-6028571D01*
X-1937142Y-6100000D01*
X-2008571Y-6242857D01*
X-2008571Y-6385714D01*
X-1294285Y-6528571D01*
X-3294285Y-6028571D02*
X-3294285Y-7242857D01*
X-3222857Y-7385714D01*
X-3151428Y-7457142D01*
X-3008571Y-7528571D01*
X-2794285Y-7528571D01*
X-2651428Y-7457142D01*
X-3294285Y-6957142D02*
X-3151428Y-7028571D01*
X-2865714Y-7028571D01*
X-2722857Y-6957142D01*
X-2651428Y-6885714D01*
X-2580000Y-6742857D01*
X-2580000Y-6314285D01*
X-2651428Y-6171428D01*
X-2722857Y-6100000D01*
X-2865714Y-6028571D01*
X-3151428Y-6028571D01*
X-3294285Y-6100000D01*
X-4651428Y-6028571D02*
X-4651428Y-7028571D01*
X-4008571Y-6028571D02*
X-4008571Y-6814285D01*
X-4080000Y-6957142D01*
X-4222857Y-7028571D01*
X-4437142Y-7028571D01*
X-4580000Y-6957142D01*
X-4651428Y-6885714D01*
X-5580000Y-7028571D02*
X-5437142Y-6957142D01*
X-5365714Y-6814285D01*
X-5365714Y-5528571D01*
X-6794285Y-7028571D02*
X-6794285Y-6242857D01*
X-6722857Y-6100000D01*
X-6580000Y-6028571D01*
X-6294285Y-6028571D01*
X-6151428Y-6100000D01*
X-6794285Y-6957142D02*
X-6651428Y-7028571D01*
X-6294285Y-7028571D01*
X-6151428Y-6957142D01*
X-6080000Y-6814285D01*
X-6080000Y-6671428D01*
X-6151428Y-6528571D01*
X-6294285Y-6457142D01*
X-6651428Y-6457142D01*
X-6794285Y-6385714D01*
X-7294285Y-6028571D02*
X-7865714Y-6028571D01*
X-7508571Y-5528571D02*
X-7508571Y-6814285D01*
X-7580000Y-6957142D01*
X-7722857Y-7028571D01*
X-7865714Y-7028571D01*
X-8937142Y-6957142D02*
X-8794285Y-7028571D01*
X-8508571Y-7028571D01*
X-8365714Y-6957142D01*
X-8294285Y-6814285D01*
X-8294285Y-6242857D01*
X-8365714Y-6100000D01*
X-8508571Y-6028571D01*
X-8794285Y-6028571D01*
X-8937142Y-6100000D01*
X-9008571Y-6242857D01*
X-9008571Y-6385714D01*
X-8294285Y-6528571D01*
X-10294285Y-7028571D02*
X-10294285Y-5528571D01*
X-10294285Y-6957142D02*
X-10151428Y-7028571D01*
X-9865714Y-7028571D01*
X-9722857Y-6957142D01*
X-9651428Y-6885714D01*
X-9580000Y-6742857D01*
X-9580000Y-6314285D01*
X-9651428Y-6171428D01*
X-9722857Y-6100000D01*
X-9865714Y-6028571D01*
X-10151428Y-6028571D01*
X-10294285Y-6100000D01*
D12*
X7238095Y-4079761D02*
X7238095Y-2079761D01*
X6476190Y-2079761D01*
X6285714Y-2175000D01*
X6190476Y-2270238D01*
X6095238Y-2460714D01*
X6095238Y-2746428D01*
X6190476Y-2936904D01*
X6285714Y-3032142D01*
X6476190Y-3127380D01*
X7238095Y-3127380D01*
X4952380Y-4079761D02*
X5142857Y-3984523D01*
X5238095Y-3889285D01*
X5333333Y-3698809D01*
X5333333Y-3127380D01*
X5238095Y-2936904D01*
X5142857Y-2841666D01*
X4952380Y-2746428D01*
X4666666Y-2746428D01*
X4476190Y-2841666D01*
X4380952Y-2936904D01*
X4285714Y-3127380D01*
X4285714Y-3698809D01*
X4380952Y-3889285D01*
X4476190Y-3984523D01*
X4666666Y-4079761D01*
X4952380Y-4079761D01*
X3619047Y-2746428D02*
X3238095Y-4079761D01*
X2857142Y-3127380D01*
X2476190Y-4079761D01*
X2095238Y-2746428D01*
X571428Y-3984523D02*
X761904Y-4079761D01*
X1142857Y-4079761D01*
X1333333Y-3984523D01*
X1428571Y-3794047D01*
X1428571Y-3032142D01*
X1333333Y-2841666D01*
X1142857Y-2746428D01*
X761904Y-2746428D01*
X571428Y-2841666D01*
X476190Y-3032142D01*
X476190Y-3222619D01*
X1428571Y-3413095D01*
X-380952Y-4079761D02*
X-380952Y-2746428D01*
X-380952Y-3127380D02*
X-476190Y-2936904D01*
X-571428Y-2841666D01*
X-761904Y-2746428D01*
X-952380Y-2746428D01*
X-3523809Y-2079761D02*
X-3904761Y-2079761D01*
X-4095238Y-2175000D01*
X-4285714Y-2365476D01*
X-4380952Y-2746428D01*
X-4380952Y-3413095D01*
X-4285714Y-3794047D01*
X-4095238Y-3984523D01*
X-3904761Y-4079761D01*
X-3523809Y-4079761D01*
X-3333333Y-3984523D01*
X-3142857Y-3794047D01*
X-3047619Y-3413095D01*
X-3047619Y-2746428D01*
X-3142857Y-2365476D01*
X-3333333Y-2175000D01*
X-3523809Y-2079761D01*
X-6095238Y-2746428D02*
X-6095238Y-4079761D01*
X-5238095Y-2746428D02*
X-5238095Y-3794047D01*
X-5333333Y-3984523D01*
X-5523809Y-4079761D01*
X-5809523Y-4079761D01*
X-6000000Y-3984523D01*
X-6095238Y-3889285D01*
X-6761904Y-2746428D02*
X-7523809Y-2746428D01*
X-7047619Y-2079761D02*
X-7047619Y-3794047D01*
X-7142857Y-3984523D01*
X-7333333Y-4079761D01*
X-7523809Y-4079761D01*
D10*
X1414214Y0D02*
G75*
G03X1414214Y0I-1414214J0D01*
G01*
X1000000Y-1000000D02*
X-1000000Y1000000D01*
M02*
