M48
;DRILL file {KiCad (5.0.0)} date 08/26/18 02:27:28
;FORMAT={-:-/ absolute / inch / decimal}
FMAT,2
INCH,TZ
T1C0.0157
T2C0.0315
T3C0.0320
T4C0.0394
T5C0.0551
T6C0.0598
%
G90
G05
M72
T1
X-1.525Y-0.2
X-1.525Y-0.325
X-1.525Y-0.45
X-1.4Y-0.2
X-1.4Y-0.325
X-1.4Y-0.45
X-1.025Y-0.15
X-0.95Y0.55
X-0.9449Y-0.3302
X-0.925Y-0.825
X-0.775Y-0.825
X-0.75Y0.9
X-0.7465Y-0.3
X-0.7Y-0.55
X-0.7Y-0.65
X-0.65Y1.3
X-0.65Y1.175
X-0.625Y-0.825
X-0.525Y1.3
X-0.525Y1.175
X-0.5Y0.8
X-0.45Y1.5
X-0.375Y0.925
X-0.375Y0.8
X-0.375Y-0.05
X-0.3Y1.65
X-0.3Y1.5
X-0.15Y-0.2
X-0.1Y-0.7
X0.Y0.
X0.025Y-0.65
X0.25Y-1.35
X0.275Y1.6
X0.275Y1.45
X0.325Y0.775
X0.325Y0.65
X0.325Y0.525
X0.3543Y0.9449
X0.45Y0.775
X0.45Y0.65
X0.45Y0.525
X0.5Y0.2
X0.5Y0.075
X0.525Y-0.65
X0.5445Y1.237
X0.5445Y1.087
X0.5945Y0.887
X0.625Y0.325
X0.625Y0.2
X0.625Y0.075
X0.65Y-0.525
X0.65Y-0.65
X0.6945Y0.637
X0.75Y0.65
X0.75Y0.325
X0.75Y0.2
X0.75Y0.075
X1.425Y-0.1
X1.425Y-0.225
X1.425Y-0.35
X1.55Y-0.1
X1.55Y-0.225
X1.55Y-0.35
T2
X0.1839Y0.7207
X0.1839Y0.6419
X0.1839Y0.5632
X0.1839Y0.4844
X0.1839Y0.4057
X0.1839Y0.327
X0.1839Y0.2482
X0.1839Y0.1695
X0.1839Y0.0907
X0.1839Y0.012
X1.05Y0.7207
X1.05Y0.6419
X1.05Y0.5632
X1.05Y0.4844
X1.05Y0.4057
X1.05Y0.327
X1.05Y0.2482
X1.05Y0.1695
X1.05Y0.0907
X1.05Y0.012
T3
X-0.325Y-0.4
X-0.325Y-0.5
X-0.225Y-0.4
X-0.225Y-0.5
X-0.125Y-0.4
X-0.125Y-0.5
X1.25Y0.25
X1.25Y0.15
X1.35Y0.25
X1.35Y0.15
X1.45Y0.25
X1.45Y0.15
X1.25Y0.5
X1.25Y0.4
X1.35Y0.5
X1.35Y0.4
X1.45Y0.5
X1.45Y0.4
X1.Y-0.95
X1.Y-1.05
X1.Y-1.15
X1.1Y-0.95
X1.1Y-1.05
X1.1Y-1.15
T4
X0.55Y-0.2856
X0.65Y-0.2856
X0.75Y-0.2856
X0.85Y-0.2856
X0.95Y-0.2856
X1.05Y-0.2856
X-1.15Y0.05
X-1.15Y-0.05
X-1.15Y-0.15
X-1.15Y-0.25
X-1.15Y-0.35
X-0.1Y0.475
X-0.1Y0.375
X-0.1Y0.275
X-0.5Y0.65
X-0.5Y0.55
X-0.5Y0.45
X-0.5Y0.35
X-0.5Y0.25
X-0.5Y0.15
X-0.5Y0.05
X-0.4Y0.65
X-0.4Y0.55
X-0.4Y0.45
X-0.4Y0.35
X-0.4Y0.25
X-0.4Y0.15
X-0.4Y0.05
X0.225Y1.3
X0.225Y1.2
X0.225Y1.1
X-0.85Y1.35
X-0.85Y1.25
X-0.85Y1.15
X-0.85Y1.05
X-0.85Y0.95
X-0.85Y0.85
X-0.85Y0.75
X-0.85Y0.65
X-0.85Y0.55
X-0.85Y0.45
X-0.85Y0.35
X-0.85Y0.25
X-0.85Y0.15
X-0.85Y0.05
X-0.85Y-0.05
X-0.85Y-0.15
X-0.85Y-0.25
X-0.25Y1.35
X-0.25Y1.25
X-0.25Y1.15
X-0.25Y1.05
X-0.25Y0.95
X-0.25Y0.85
X-0.25Y0.75
X-0.25Y0.65
X-0.25Y0.55
X-0.25Y0.45
X-0.25Y0.35
X-0.25Y0.25
X-0.25Y0.15
X-0.25Y0.05
X-0.25Y-0.05
X-0.25Y-0.15
X-0.25Y-0.25
X0.075Y-0.35
X0.075Y-0.45
X0.075Y-0.55
T5
X0.4945Y1.437
X0.6945Y1.437
T6
X-1.25Y0.5
X-1.25Y0.3
X0.55Y-1.05
X0.75Y-1.05
T0
M30
