G04 #@! TF.GenerationSoftware,KiCad,Pcbnew,(5.0.0)*
G04 #@! TF.CreationDate,2018-08-26T02:27:25+09:00*
G04 #@! TF.ProjectId,core,636F72652E6B696361645F7063620000,rev?*
G04 #@! TF.SameCoordinates,Original*
G04 #@! TF.FileFunction,Legend,Top*
G04 #@! TF.FilePolarity,Positive*
%FSLAX46Y46*%
G04 Gerber Fmt 4.6, Leading zero omitted, Abs format (unit mm)*
G04 Created by KiCad (PCBNEW (5.0.0)) date 08/26/18 02:27:25*
%MOMM*%
%LPD*%
G01*
G04 APERTURE LIST*
%ADD10C,0.200000*%
%ADD11C,0.300000*%
%ADD12C,0.150000*%
%ADD13C,0.120000*%
%ADD14C,0.010000*%
G04 APERTURE END LIST*
D10*
X-378095Y8120000D02*
X-473333Y8167619D01*
X-616190Y8167619D01*
X-759047Y8120000D01*
X-854285Y8024761D01*
X-901904Y7929523D01*
X-949523Y7739047D01*
X-949523Y7596190D01*
X-901904Y7405714D01*
X-854285Y7310476D01*
X-759047Y7215238D01*
X-616190Y7167619D01*
X-520952Y7167619D01*
X-378095Y7215238D01*
X-330476Y7262857D01*
X-330476Y7596190D01*
X-520952Y7596190D01*
X98095Y7167619D02*
X98095Y8167619D01*
X669523Y7167619D01*
X669523Y8167619D01*
X1145714Y7167619D02*
X1145714Y8167619D01*
X1383809Y8167619D01*
X1526666Y8120000D01*
X1621904Y8024761D01*
X1669523Y7929523D01*
X1717142Y7739047D01*
X1717142Y7596190D01*
X1669523Y7405714D01*
X1621904Y7310476D01*
X1526666Y7215238D01*
X1383809Y7167619D01*
X1145714Y7167619D01*
X-4159047Y4278333D02*
X-3682857Y4278333D01*
X-4254285Y3992619D02*
X-3920952Y4992619D01*
X-3587619Y3992619D01*
X-2682857Y3992619D02*
X-3016190Y4468809D01*
X-3254285Y3992619D02*
X-3254285Y4992619D01*
X-2873333Y4992619D01*
X-2778095Y4945000D01*
X-2730476Y4897380D01*
X-2682857Y4802142D01*
X-2682857Y4659285D01*
X-2730476Y4564047D01*
X-2778095Y4516428D01*
X-2873333Y4468809D01*
X-3254285Y4468809D01*
X-2254285Y4516428D02*
X-1920952Y4516428D01*
X-1778095Y3992619D02*
X-2254285Y3992619D01*
X-2254285Y4992619D01*
X-1778095Y4992619D01*
X-1016190Y4516428D02*
X-1349523Y4516428D01*
X-1349523Y3992619D02*
X-1349523Y4992619D01*
X-873333Y4992619D01*
X-901904Y10977619D02*
X-901904Y11977619D01*
X-330476Y10977619D01*
X-330476Y11977619D01*
X717142Y11072857D02*
X669523Y11025238D01*
X526666Y10977619D01*
X431428Y10977619D01*
X288571Y11025238D01*
X193333Y11120476D01*
X145714Y11215714D01*
X98095Y11406190D01*
X98095Y11549047D01*
X145714Y11739523D01*
X193333Y11834761D01*
X288571Y11930000D01*
X431428Y11977619D01*
X526666Y11977619D01*
X669523Y11930000D01*
X717142Y11882380D01*
D11*
X-30817857Y-9711428D02*
X-31317857Y-8211428D01*
X-31817857Y-9711428D01*
X-33032142Y-9711428D02*
X-32317857Y-9711428D01*
X-32246428Y-8997142D01*
X-32317857Y-9068571D01*
X-32460714Y-9140000D01*
X-32817857Y-9140000D01*
X-32960714Y-9068571D01*
X-33032142Y-8997142D01*
X-33103571Y-8854285D01*
X-33103571Y-8497142D01*
X-33032142Y-8354285D01*
X-32960714Y-8282857D01*
X-32817857Y-8211428D01*
X-32460714Y-8211428D01*
X-32317857Y-8282857D01*
X-32246428Y-8354285D01*
X-25991428Y-5274285D02*
X-27491428Y-5274285D01*
X-27348571Y-4631428D02*
X-27420000Y-4560000D01*
X-27491428Y-4417142D01*
X-27491428Y-4060000D01*
X-27420000Y-3917142D01*
X-27348571Y-3845714D01*
X-27205714Y-3774285D01*
X-27062857Y-3774285D01*
X-26848571Y-3845714D01*
X-25991428Y-4702857D01*
X-25991428Y-3774285D01*
X-26134285Y-2274285D02*
X-26062857Y-2345714D01*
X-25991428Y-2560000D01*
X-25991428Y-2702857D01*
X-26062857Y-2917142D01*
X-26205714Y-3060000D01*
X-26348571Y-3131428D01*
X-26634285Y-3202857D01*
X-26848571Y-3202857D01*
X-27134285Y-3131428D01*
X-27277142Y-3060000D01*
X-27420000Y-2917142D01*
X-27491428Y-2702857D01*
X-27491428Y-2560000D01*
X-27420000Y-2345714D01*
X-27348571Y-2274285D01*
D10*
X-10668000Y35814000D02*
X-12954000Y35814000D01*
X-10668000Y32258000D02*
X-10668000Y35814000D01*
X-12954000Y32258000D02*
X-10668000Y32258000D01*
X-12954000Y35814000D02*
X-12954000Y32258000D01*
X-10922000Y32766000D02*
G75*
G03X-10922000Y32766000I-254000J0D01*
G01*
X-12192000Y32766000D02*
G75*
G03X-12192000Y32766000I-254000J0D01*
G01*
X-10922000Y34036000D02*
G75*
G03X-10922000Y34036000I-254000J0D01*
G01*
X-12192000Y34036000D02*
G75*
G03X-12192000Y34036000I-254000J0D01*
G01*
X-10922000Y35306000D02*
G75*
G03X-10922000Y35306000I-254000J0D01*
G01*
X-12192000Y35306000D02*
G75*
G03X-12192000Y35306000I-254000J0D01*
G01*
X-12993523Y37377619D02*
X-12422095Y37377619D01*
X-12707809Y36377619D02*
X-12707809Y37377619D01*
X-11898285Y37377619D02*
X-11707809Y37377619D01*
X-11612571Y37330000D01*
X-11517333Y37234761D01*
X-11469714Y37044285D01*
X-11469714Y36710952D01*
X-11517333Y36520476D01*
X-11612571Y36425238D01*
X-11707809Y36377619D01*
X-11898285Y36377619D01*
X-11993523Y36425238D01*
X-12088761Y36520476D01*
X-12136380Y36710952D01*
X-12136380Y37044285D01*
X-12088761Y37234761D01*
X-11993523Y37330000D01*
X-11898285Y37377619D01*
X-11041142Y36377619D02*
X-11041142Y37377619D01*
X-10660190Y37377619D01*
X-10564952Y37330000D01*
X-10517333Y37282380D01*
X-10469714Y37187142D01*
X-10469714Y37044285D01*
X-10517333Y36949047D01*
X-10564952Y36901428D01*
X-10660190Y36853809D01*
X-11041142Y36853809D01*
D12*
X-9922880Y34944095D02*
X-10189547Y35325047D01*
X-10380023Y34944095D02*
X-10380023Y35744095D01*
X-10075261Y35744095D01*
X-9999071Y35706000D01*
X-9960976Y35667904D01*
X-9922880Y35591714D01*
X-9922880Y35477428D01*
X-9960976Y35401238D01*
X-9999071Y35363142D01*
X-10075261Y35325047D01*
X-10380023Y35325047D01*
X-9618119Y34982190D02*
X-9503833Y34944095D01*
X-9313357Y34944095D01*
X-9237166Y34982190D01*
X-9199071Y35020285D01*
X-9160976Y35096476D01*
X-9160976Y35172666D01*
X-9199071Y35248857D01*
X-9237166Y35286952D01*
X-9313357Y35325047D01*
X-9465738Y35363142D01*
X-9541928Y35401238D01*
X-9580023Y35439333D01*
X-9618119Y35515523D01*
X-9618119Y35591714D01*
X-9580023Y35667904D01*
X-9541928Y35706000D01*
X-9465738Y35744095D01*
X-9275261Y35744095D01*
X-9160976Y35706000D01*
X-8932404Y35744095D02*
X-8475261Y35744095D01*
X-8703833Y34944095D02*
X-8703833Y35744095D01*
X-10380023Y32404095D02*
X-10380023Y33204095D01*
X-10113357Y32632666D01*
X-9846690Y33204095D01*
X-9846690Y32404095D01*
X-9465738Y32404095D02*
X-9465738Y33204095D01*
X-9122880Y32442190D02*
X-9008595Y32404095D01*
X-8818119Y32404095D01*
X-8741928Y32442190D01*
X-8703833Y32480285D01*
X-8665738Y32556476D01*
X-8665738Y32632666D01*
X-8703833Y32708857D01*
X-8741928Y32746952D01*
X-8818119Y32785047D01*
X-8970500Y32823142D01*
X-9046690Y32861238D01*
X-9084785Y32899333D01*
X-9122880Y32975523D01*
X-9122880Y33051714D01*
X-9084785Y33127904D01*
X-9046690Y33166000D01*
X-8970500Y33204095D01*
X-8780023Y33204095D01*
X-8665738Y33166000D01*
X-8170500Y33204095D02*
X-8018119Y33204095D01*
X-7941928Y33166000D01*
X-7865738Y33089809D01*
X-7827642Y32937428D01*
X-7827642Y32670761D01*
X-7865738Y32518380D01*
X-7941928Y32442190D01*
X-8018119Y32404095D01*
X-8170500Y32404095D01*
X-8246690Y32442190D01*
X-8322880Y32518380D01*
X-8360976Y32670761D01*
X-8360976Y32937428D01*
X-8322880Y33089809D01*
X-8246690Y33166000D01*
X-8170500Y33204095D01*
X-10418119Y33712190D02*
X-10303833Y33674095D01*
X-10113357Y33674095D01*
X-10037166Y33712190D01*
X-9999071Y33750285D01*
X-9960976Y33826476D01*
X-9960976Y33902666D01*
X-9999071Y33978857D01*
X-10037166Y34016952D01*
X-10113357Y34055047D01*
X-10265738Y34093142D01*
X-10341928Y34131238D01*
X-10380023Y34169333D01*
X-10418119Y34245523D01*
X-10418119Y34321714D01*
X-10380023Y34397904D01*
X-10341928Y34436000D01*
X-10265738Y34474095D01*
X-10075261Y34474095D01*
X-9960976Y34436000D01*
X-9160976Y33750285D02*
X-9199071Y33712190D01*
X-9313357Y33674095D01*
X-9389547Y33674095D01*
X-9503833Y33712190D01*
X-9580023Y33788380D01*
X-9618119Y33864571D01*
X-9656214Y34016952D01*
X-9656214Y34131238D01*
X-9618119Y34283619D01*
X-9580023Y34359809D01*
X-9503833Y34436000D01*
X-9389547Y34474095D01*
X-9313357Y34474095D01*
X-9199071Y34436000D01*
X-9160976Y34397904D01*
X-8818119Y33674095D02*
X-8818119Y34474095D01*
X-8360976Y33674095D02*
X-8703833Y34131238D01*
X-8360976Y34474095D02*
X-8818119Y34016952D01*
X-13927690Y33204095D02*
X-14308642Y33204095D01*
X-14346738Y32823142D01*
X-14308642Y32861238D01*
X-14232452Y32899333D01*
X-14041976Y32899333D01*
X-13965785Y32861238D01*
X-13927690Y32823142D01*
X-13889595Y32746952D01*
X-13889595Y32556476D01*
X-13927690Y32480285D01*
X-13965785Y32442190D01*
X-14041976Y32404095D01*
X-14232452Y32404095D01*
X-14308642Y32442190D01*
X-14346738Y32480285D01*
X-13661023Y33204095D02*
X-13394357Y32404095D01*
X-13127690Y33204095D01*
X-15756261Y33674095D02*
X-15756261Y34474095D01*
X-15489595Y33902666D01*
X-15222928Y34474095D01*
X-15222928Y33674095D01*
X-14689595Y34474095D02*
X-14537214Y34474095D01*
X-14461023Y34436000D01*
X-14384833Y34359809D01*
X-14346738Y34207428D01*
X-14346738Y33940761D01*
X-14384833Y33788380D01*
X-14461023Y33712190D01*
X-14537214Y33674095D01*
X-14689595Y33674095D01*
X-14765785Y33712190D01*
X-14841976Y33788380D01*
X-14880071Y33940761D01*
X-14880071Y34207428D01*
X-14841976Y34359809D01*
X-14765785Y34436000D01*
X-14689595Y34474095D01*
X-14041976Y33712190D02*
X-13927690Y33674095D01*
X-13737214Y33674095D01*
X-13661023Y33712190D01*
X-13622928Y33750285D01*
X-13584833Y33826476D01*
X-13584833Y33902666D01*
X-13622928Y33978857D01*
X-13661023Y34016952D01*
X-13737214Y34055047D01*
X-13889595Y34093142D01*
X-13965785Y34131238D01*
X-14003880Y34169333D01*
X-14041976Y34245523D01*
X-14041976Y34321714D01*
X-14003880Y34397904D01*
X-13965785Y34436000D01*
X-13889595Y34474095D01*
X-13699119Y34474095D01*
X-13584833Y34436000D01*
X-13241976Y33674095D02*
X-13241976Y34474095D01*
X-14880071Y35706000D02*
X-14956261Y35744095D01*
X-15070547Y35744095D01*
X-15184833Y35706000D01*
X-15261023Y35629809D01*
X-15299119Y35553619D01*
X-15337214Y35401238D01*
X-15337214Y35286952D01*
X-15299119Y35134571D01*
X-15261023Y35058380D01*
X-15184833Y34982190D01*
X-15070547Y34944095D01*
X-14994357Y34944095D01*
X-14880071Y34982190D01*
X-14841976Y35020285D01*
X-14841976Y35286952D01*
X-14994357Y35286952D01*
X-14499119Y34944095D02*
X-14499119Y35744095D01*
X-14041976Y34944095D01*
X-14041976Y35744095D01*
X-13661023Y34944095D02*
X-13661023Y35744095D01*
X-13470547Y35744095D01*
X-13356261Y35706000D01*
X-13280071Y35629809D01*
X-13241976Y35553619D01*
X-13203880Y35401238D01*
X-13203880Y35286952D01*
X-13241976Y35134571D01*
X-13280071Y35058380D01*
X-13356261Y34982190D01*
X-13470547Y34944095D01*
X-13661023Y34944095D01*
D10*
X-39282619Y7286666D02*
X-39282619Y7953333D01*
X-38282619Y7524761D01*
X-39282619Y12890476D02*
X-39282619Y12700000D01*
X-39235000Y12604761D01*
X-39187380Y12557142D01*
X-39044523Y12461904D01*
X-38854047Y12414285D01*
X-38473095Y12414285D01*
X-38377857Y12461904D01*
X-38330238Y12509523D01*
X-38282619Y12604761D01*
X-38282619Y12795238D01*
X-38330238Y12890476D01*
X-38377857Y12938095D01*
X-38473095Y12985714D01*
X-38711190Y12985714D01*
X-38806428Y12938095D01*
X-38854047Y12890476D01*
X-38901666Y12795238D01*
X-38901666Y12604761D01*
X-38854047Y12509523D01*
X-38806428Y12461904D01*
X-38711190Y12414285D01*
X-21248711Y-13999999D02*
G75*
G03X-21248711Y-13999999I-3000000J0D01*
G01*
X27248711Y-13999999D02*
G75*
G03X27248711Y-13999999I-3000000J0D01*
G01*
X3000000Y28000000D02*
G75*
G03X3000000Y28000000I-3000000J0D01*
G01*
X4130571Y24871619D02*
X4130571Y25871619D01*
X4463904Y25157333D01*
X4797238Y25871619D01*
X4797238Y24871619D01*
X5273428Y24871619D02*
X5273428Y25871619D01*
X5702000Y24919238D02*
X5844857Y24871619D01*
X6082952Y24871619D01*
X6178190Y24919238D01*
X6225809Y24966857D01*
X6273428Y25062095D01*
X6273428Y25157333D01*
X6225809Y25252571D01*
X6178190Y25300190D01*
X6082952Y25347809D01*
X5892476Y25395428D01*
X5797238Y25443047D01*
X5749619Y25490666D01*
X5702000Y25585904D01*
X5702000Y25681142D01*
X5749619Y25776380D01*
X5797238Y25824000D01*
X5892476Y25871619D01*
X6130571Y25871619D01*
X6273428Y25824000D01*
X6892476Y25871619D02*
X7082952Y25871619D01*
X7178190Y25824000D01*
X7273428Y25728761D01*
X7321047Y25538285D01*
X7321047Y25204952D01*
X7273428Y25014476D01*
X7178190Y24919238D01*
X7082952Y24871619D01*
X6892476Y24871619D01*
X6797238Y24919238D01*
X6702000Y25014476D01*
X6654380Y25204952D01*
X6654380Y25538285D01*
X6702000Y25728761D01*
X6797238Y25824000D01*
X6892476Y25871619D01*
X333571Y31297619D02*
X333571Y32297619D01*
X666904Y31583333D01*
X1000238Y32297619D01*
X1000238Y31297619D01*
X1666904Y32297619D02*
X1857380Y32297619D01*
X1952619Y32250000D01*
X2047857Y32154761D01*
X2095476Y31964285D01*
X2095476Y31630952D01*
X2047857Y31440476D01*
X1952619Y31345238D01*
X1857380Y31297619D01*
X1666904Y31297619D01*
X1571666Y31345238D01*
X1476428Y31440476D01*
X1428809Y31630952D01*
X1428809Y31964285D01*
X1476428Y32154761D01*
X1571666Y32250000D01*
X1666904Y32297619D01*
X2476428Y31345238D02*
X2619285Y31297619D01*
X2857380Y31297619D01*
X2952619Y31345238D01*
X3000238Y31392857D01*
X3047857Y31488095D01*
X3047857Y31583333D01*
X3000238Y31678571D01*
X2952619Y31726190D01*
X2857380Y31773809D01*
X2666904Y31821428D01*
X2571666Y31869047D01*
X2524047Y31916666D01*
X2476428Y32011904D01*
X2476428Y32107142D01*
X2524047Y32202380D01*
X2571666Y32250000D01*
X2666904Y32297619D01*
X2905000Y32297619D01*
X3047857Y32250000D01*
X3476428Y31297619D02*
X3476428Y32297619D01*
X860285Y33250238D02*
X1003142Y33202619D01*
X1241238Y33202619D01*
X1336476Y33250238D01*
X1384095Y33297857D01*
X1431714Y33393095D01*
X1431714Y33488333D01*
X1384095Y33583571D01*
X1336476Y33631190D01*
X1241238Y33678809D01*
X1050761Y33726428D01*
X955523Y33774047D01*
X907904Y33821666D01*
X860285Y33916904D01*
X860285Y34012142D01*
X907904Y34107380D01*
X955523Y34155000D01*
X1050761Y34202619D01*
X1288857Y34202619D01*
X1431714Y34155000D01*
X2431714Y33297857D02*
X2384095Y33250238D01*
X2241238Y33202619D01*
X2146000Y33202619D01*
X2003142Y33250238D01*
X1907904Y33345476D01*
X1860285Y33440714D01*
X1812666Y33631190D01*
X1812666Y33774047D01*
X1860285Y33964523D01*
X1907904Y34059761D01*
X2003142Y34155000D01*
X2146000Y34202619D01*
X2241238Y34202619D01*
X2384095Y34155000D01*
X2431714Y34107380D01*
X2860285Y33202619D02*
X2860285Y34202619D01*
X3431714Y33202619D02*
X3003142Y33774047D01*
X3431714Y34202619D02*
X2860285Y33631190D01*
D11*
X20242857Y32630571D02*
X19242857Y34130571D01*
X19242857Y32630571D02*
X20242857Y34130571D01*
X18171428Y33344857D02*
X17957142Y33416285D01*
X17885714Y33487714D01*
X17814285Y33630571D01*
X17814285Y33844857D01*
X17885714Y33987714D01*
X17957142Y34059142D01*
X18100000Y34130571D01*
X18671428Y34130571D01*
X18671428Y32630571D01*
X18171428Y32630571D01*
X18028571Y32702000D01*
X17957142Y32773428D01*
X17885714Y32916285D01*
X17885714Y33059142D01*
X17957142Y33202000D01*
X18028571Y33273428D01*
X18171428Y33344857D01*
X18671428Y33344857D01*
X16600000Y34059142D02*
X16742857Y34130571D01*
X17028571Y34130571D01*
X17171428Y34059142D01*
X17242857Y33916285D01*
X17242857Y33344857D01*
X17171428Y33202000D01*
X17028571Y33130571D01*
X16742857Y33130571D01*
X16600000Y33202000D01*
X16528571Y33344857D01*
X16528571Y33487714D01*
X17242857Y33630571D01*
X15314285Y34059142D02*
X15457142Y34130571D01*
X15742857Y34130571D01*
X15885714Y34059142D01*
X15957142Y33916285D01*
X15957142Y33344857D01*
X15885714Y33202000D01*
X15742857Y33130571D01*
X15457142Y33130571D01*
X15314285Y33202000D01*
X15242857Y33344857D01*
X15242857Y33487714D01*
X15957142Y33630571D01*
X12600000Y34130571D02*
X13100000Y33416285D01*
X13457142Y34130571D02*
X13457142Y32630571D01*
X12885714Y32630571D01*
X12742857Y32702000D01*
X12671428Y32773428D01*
X12600000Y32916285D01*
X12600000Y33130571D01*
X12671428Y33273428D01*
X12742857Y33344857D01*
X12885714Y33416285D01*
X13457142Y33416285D01*
X12028571Y34059142D02*
X11814285Y34130571D01*
X11457142Y34130571D01*
X11314285Y34059142D01*
X11242857Y33987714D01*
X11171428Y33844857D01*
X11171428Y33702000D01*
X11242857Y33559142D01*
X11314285Y33487714D01*
X11457142Y33416285D01*
X11742857Y33344857D01*
X11885714Y33273428D01*
X11957142Y33202000D01*
X12028571Y33059142D01*
X12028571Y32916285D01*
X11957142Y32773428D01*
X11885714Y32702000D01*
X11742857Y32630571D01*
X11385714Y32630571D01*
X11171428Y32702000D01*
X10742857Y32630571D02*
X9885714Y32630571D01*
X10314285Y34130571D02*
X10314285Y32630571D01*
X-30960714Y-498243D02*
X-31175000Y-426814D01*
X-31532142Y-426814D01*
X-31675000Y-498243D01*
X-31746428Y-569671D01*
X-31817857Y-712528D01*
X-31817857Y-855385D01*
X-31746428Y-998243D01*
X-31675000Y-1069671D01*
X-31532142Y-1141100D01*
X-31246428Y-1212528D01*
X-31103571Y-1283957D01*
X-31032142Y-1355386D01*
X-30960714Y-1498243D01*
X-30960714Y-1641100D01*
X-31032142Y-1783957D01*
X-31103571Y-1855386D01*
X-31246428Y-1926814D01*
X-31603571Y-1926814D01*
X-31817857Y-1855386D01*
X-33317857Y-569671D02*
X-33246428Y-498243D01*
X-33032142Y-426814D01*
X-32889285Y-426814D01*
X-32675000Y-498243D01*
X-32532142Y-641100D01*
X-32460714Y-783957D01*
X-32389285Y-1069671D01*
X-32389285Y-1283957D01*
X-32460714Y-1569671D01*
X-32532142Y-1712528D01*
X-32675000Y-1855385D01*
X-32889285Y-1926814D01*
X-33032142Y-1926814D01*
X-33246428Y-1855385D01*
X-33317857Y-1783957D01*
X-34675000Y-426814D02*
X-33960714Y-426814D01*
X-33960714Y-1926814D01*
X-30817857Y-7006814D02*
X-31317857Y-5506814D01*
X-31817857Y-7006814D01*
X-32175000Y-7006814D02*
X-33103571Y-7006814D01*
X-32603571Y-6435386D01*
X-32817857Y-6435386D01*
X-32960714Y-6363957D01*
X-33032142Y-6292528D01*
X-33103571Y-6149671D01*
X-33103571Y-5792528D01*
X-33032142Y-5649671D01*
X-32960714Y-5578243D01*
X-32817857Y-5506814D01*
X-32389285Y-5506814D01*
X-32246428Y-5578243D01*
X-32175000Y-5649671D01*
X-33746428Y-5649671D02*
X-33817857Y-5578243D01*
X-33746428Y-5506814D01*
X-33675000Y-5578243D01*
X-33746428Y-5649671D01*
X-33746428Y-5506814D01*
X-34317857Y-7006814D02*
X-35246428Y-7006814D01*
X-34746428Y-6435385D01*
X-34960714Y-6435385D01*
X-35103571Y-6363957D01*
X-35175000Y-6292528D01*
X-35246428Y-6149671D01*
X-35246428Y-5792528D01*
X-35175000Y-5649671D01*
X-35103571Y-5578243D01*
X-34960714Y-5506814D01*
X-34532142Y-5506814D01*
X-34389285Y-5578243D01*
X-34317857Y-5649671D01*
X-30960714Y1877142D02*
X-31175000Y1948571D01*
X-31532142Y1948571D01*
X-31675000Y1877142D01*
X-31746428Y1805714D01*
X-31817857Y1662857D01*
X-31817857Y1520000D01*
X-31746428Y1377142D01*
X-31675000Y1305714D01*
X-31532142Y1234285D01*
X-31246428Y1162857D01*
X-31103571Y1091428D01*
X-31032142Y1020000D01*
X-30960714Y877142D01*
X-30960714Y734285D01*
X-31032142Y591428D01*
X-31103571Y520000D01*
X-31246428Y448571D01*
X-31603571Y448571D01*
X-31817857Y520000D01*
X-32460714Y1948571D02*
X-32460714Y448571D01*
X-32817857Y448571D01*
X-33032142Y520000D01*
X-33175000Y662857D01*
X-33246428Y805714D01*
X-33317857Y1091428D01*
X-33317857Y1305714D01*
X-33246428Y1591428D01*
X-33175000Y1734285D01*
X-33032142Y1877142D01*
X-32817857Y1948571D01*
X-32460714Y1948571D01*
X-33889285Y1520000D02*
X-34603571Y1520000D01*
X-33746428Y1948571D02*
X-34246428Y448571D01*
X-34746428Y1948571D01*
X-31817857Y-4395386D02*
X-31675000Y-4466814D01*
X-31460714Y-4466814D01*
X-31246428Y-4395386D01*
X-31103571Y-4252528D01*
X-31032142Y-4109671D01*
X-30960714Y-3823957D01*
X-30960714Y-3609671D01*
X-31032142Y-3323957D01*
X-31103571Y-3181100D01*
X-31246428Y-3038243D01*
X-31460714Y-2966814D01*
X-31603571Y-2966814D01*
X-31817857Y-3038243D01*
X-31889285Y-3109671D01*
X-31889285Y-3609671D01*
X-31603571Y-3609671D01*
X-32532142Y-2966814D02*
X-32532142Y-4466814D01*
X-33389285Y-2966814D01*
X-33389285Y-4466814D01*
X-34103571Y-2966814D02*
X-34103571Y-4466814D01*
X-34460714Y-4466814D01*
X-34675000Y-4395386D01*
X-34817857Y-4252528D01*
X-34889285Y-4109671D01*
X-34960714Y-3823957D01*
X-34960714Y-3609671D01*
X-34889285Y-3323957D01*
X-34817857Y-3181100D01*
X-34675000Y-3038243D01*
X-34460714Y-2966814D01*
X-34103571Y-2966814D01*
X-35914876Y11460547D02*
X-37414876Y11460547D01*
X-36343448Y11960547D01*
X-37414876Y12460547D01*
X-35914876Y12460547D01*
X-35914876Y13174832D02*
X-37414876Y13174832D01*
X-37414876Y13746261D01*
X-37343448Y13889118D01*
X-37272019Y13960547D01*
X-37129162Y14031975D01*
X-36914876Y14031975D01*
X-36772019Y13960547D01*
X-36700590Y13889118D01*
X-36629162Y13746261D01*
X-36629162Y13174832D01*
X-35914876Y6634666D02*
X-37414876Y6634666D01*
X-37414876Y6991809D01*
X-37343448Y7206095D01*
X-37200590Y7348952D01*
X-37057733Y7420381D01*
X-36772019Y7491809D01*
X-36557733Y7491809D01*
X-36272019Y7420381D01*
X-36129162Y7348952D01*
X-35986305Y7206095D01*
X-35914876Y6991809D01*
X-35914876Y6634666D01*
X-35914876Y8134666D02*
X-37414876Y8134666D01*
X-37414876Y8706095D01*
X-37343448Y8848952D01*
X-37272019Y8920381D01*
X-37129162Y8991809D01*
X-36914876Y8991809D01*
X-36772019Y8920381D01*
X-36700590Y8848952D01*
X-36629162Y8706095D01*
X-36629162Y8134666D01*
X-41040857Y2678571D02*
X-41040857Y3178571D01*
X-41826571Y3178571D02*
X-40326571Y3178571D01*
X-40326571Y2464285D01*
X-41826571Y1035714D02*
X-41112285Y1535714D01*
X-41826571Y1892857D02*
X-40326571Y1892857D01*
X-40326571Y1321428D01*
X-40398000Y1178571D01*
X-40469428Y1107142D01*
X-40612285Y1035714D01*
X-40826571Y1035714D01*
X-40969428Y1107142D01*
X-41040857Y1178571D01*
X-41112285Y1321428D01*
X-41112285Y1892857D01*
X-40326571Y107142D02*
X-40326571Y-178571D01*
X-40398000Y-321428D01*
X-40540857Y-464285D01*
X-40826571Y-535714D01*
X-41326571Y-535714D01*
X-41612285Y-464285D01*
X-41755142Y-321428D01*
X-41826571Y-178571D01*
X-41826571Y107142D01*
X-41755142Y250000D01*
X-41612285Y392857D01*
X-41326571Y464285D01*
X-40826571Y464285D01*
X-40540857Y392857D01*
X-40398000Y249999D01*
X-40326571Y107142D01*
X-41826571Y-1178571D02*
X-40326571Y-1178571D01*
X-41826571Y-2035714D01*
X-40326571Y-2035714D01*
X-40326571Y-2535714D02*
X-40326571Y-3392857D01*
X-41826571Y-2964285D02*
X-40326571Y-2964285D01*
D10*
X-10916190Y-34912380D02*
X-10916190Y-35626666D01*
X-10963809Y-35769523D01*
X-11059047Y-35864761D01*
X-11201904Y-35912380D01*
X-11297142Y-35912380D01*
X-10011428Y-35912380D02*
X-10011428Y-35388571D01*
X-10059047Y-35293333D01*
X-10154285Y-35245714D01*
X-10344761Y-35245714D01*
X-10440000Y-35293333D01*
X-10011428Y-35864761D02*
X-10106666Y-35912380D01*
X-10344761Y-35912380D01*
X-10440000Y-35864761D01*
X-10487619Y-35769523D01*
X-10487619Y-35674285D01*
X-10440000Y-35579047D01*
X-10344761Y-35531428D01*
X-10106666Y-35531428D01*
X-10011428Y-35483809D01*
X-9154285Y-35864761D02*
X-9249523Y-35912380D01*
X-9440000Y-35912380D01*
X-9535238Y-35864761D01*
X-9582857Y-35769523D01*
X-9582857Y-35388571D01*
X-9535238Y-35293333D01*
X-9440000Y-35245714D01*
X-9249523Y-35245714D01*
X-9154285Y-35293333D01*
X-9106666Y-35388571D01*
X-9106666Y-35483809D01*
X-9582857Y-35579047D01*
X-8678095Y-35912380D02*
X-8678095Y-35245714D01*
X-8678095Y-35436190D02*
X-8630476Y-35340952D01*
X-8582857Y-35293333D01*
X-8487619Y-35245714D01*
X-8392380Y-35245714D01*
X-8059047Y-35912380D02*
X-8059047Y-35245714D01*
X-8059047Y-34912380D02*
X-8106666Y-34960000D01*
X-8059047Y-35007619D01*
X-8011428Y-34960000D01*
X-8059047Y-34912380D01*
X-8059047Y-35007619D01*
X-7582857Y-35245714D02*
X-7582857Y-35912380D01*
X-7582857Y-35340952D02*
X-7535238Y-35293333D01*
X-7440000Y-35245714D01*
X-7297142Y-35245714D01*
X-7201904Y-35293333D01*
X-7154285Y-35388571D01*
X-7154285Y-35912380D01*
X-5440000Y-35912380D02*
X-5916190Y-35912380D01*
X-5916190Y-34912380D01*
X-4725714Y-35864761D02*
X-4820952Y-35912380D01*
X-5011428Y-35912380D01*
X-5106666Y-35864761D01*
X-5154285Y-35769523D01*
X-5154285Y-35388571D01*
X-5106666Y-35293333D01*
X-5011428Y-35245714D01*
X-4820952Y-35245714D01*
X-4725714Y-35293333D01*
X-4678095Y-35388571D01*
X-4678095Y-35483809D01*
X-5154285Y-35579047D01*
X-3868571Y-35864761D02*
X-3963809Y-35912380D01*
X-4154285Y-35912380D01*
X-4249523Y-35864761D01*
X-4297142Y-35769523D01*
X-4297142Y-35388571D01*
X-4249523Y-35293333D01*
X-4154285Y-35245714D01*
X-3963809Y-35245714D01*
X-3868571Y-35293333D01*
X-3820952Y-35388571D01*
X-3820952Y-35483809D01*
X-4297142Y-35579047D01*
X-11011428Y-37136190D02*
X-11011428Y-37612380D01*
X-11344761Y-36612380D02*
X-11011428Y-37136190D01*
X-10678095Y-36612380D01*
X-9963809Y-37564761D02*
X-10059047Y-37612380D01*
X-10249523Y-37612380D01*
X-10344761Y-37564761D01*
X-10392380Y-37469523D01*
X-10392380Y-37088571D01*
X-10344761Y-36993333D01*
X-10249523Y-36945714D01*
X-10059047Y-36945714D01*
X-9963809Y-36993333D01*
X-9916190Y-37088571D01*
X-9916190Y-37183809D01*
X-10392380Y-37279047D01*
X-9059047Y-37612380D02*
X-9059047Y-37088571D01*
X-9106666Y-36993333D01*
X-9201904Y-36945714D01*
X-9392380Y-36945714D01*
X-9487619Y-36993333D01*
X-9059047Y-37564761D02*
X-9154285Y-37612380D01*
X-9392380Y-37612380D01*
X-9487619Y-37564761D01*
X-9535238Y-37469523D01*
X-9535238Y-37374285D01*
X-9487619Y-37279047D01*
X-9392380Y-37231428D01*
X-9154285Y-37231428D01*
X-9059047Y-37183809D01*
X-8582857Y-36945714D02*
X-8582857Y-37802857D01*
X-8630476Y-37898095D01*
X-8725714Y-37945714D01*
X-8773333Y-37945714D01*
X-8582857Y-36612380D02*
X-8630476Y-36660000D01*
X-8582857Y-36707619D01*
X-8535238Y-36660000D01*
X-8582857Y-36612380D01*
X-8582857Y-36707619D01*
X-8106666Y-37612380D02*
X-8106666Y-36945714D01*
X-8106666Y-36612380D02*
X-8154285Y-36660000D01*
X-8106666Y-36707619D01*
X-8059047Y-36660000D01*
X-8106666Y-36612380D01*
X-8106666Y-36707619D01*
X-7630476Y-36945714D02*
X-7630476Y-37612380D01*
X-7630476Y-37040952D02*
X-7582857Y-36993333D01*
X-7487619Y-36945714D01*
X-7344761Y-36945714D01*
X-7249523Y-36993333D01*
X-7201904Y-37088571D01*
X-7201904Y-37612380D01*
X-5773333Y-37136190D02*
X-5773333Y-37612380D01*
X-6106666Y-36612380D02*
X-5773333Y-37136190D01*
X-5440000Y-36612380D01*
X-4678095Y-36945714D02*
X-4678095Y-37612380D01*
X-5106666Y-36945714D02*
X-5106666Y-37469523D01*
X-5059047Y-37564761D01*
X-4963809Y-37612380D01*
X-4820952Y-37612380D01*
X-4725714Y-37564761D01*
X-4678095Y-37517142D01*
X-11201904Y-39312380D02*
X-11201904Y-38312380D01*
X-10868571Y-39026666D01*
X-10535238Y-38312380D01*
X-10535238Y-39312380D01*
X-10059047Y-39312380D02*
X-10059047Y-38645714D01*
X-10059047Y-38312380D02*
X-10106666Y-38360000D01*
X-10059047Y-38407619D01*
X-10011428Y-38360000D01*
X-10059047Y-38312380D01*
X-10059047Y-38407619D01*
X-9582857Y-38645714D02*
X-9582857Y-39312380D01*
X-9582857Y-38740952D02*
X-9535238Y-38693333D01*
X-9440000Y-38645714D01*
X-9297142Y-38645714D01*
X-9201904Y-38693333D01*
X-9154285Y-38788571D01*
X-9154285Y-39312380D01*
X-8249523Y-38645714D02*
X-8249523Y-39455238D01*
X-8297142Y-39550476D01*
X-8344761Y-39598095D01*
X-8440000Y-39645714D01*
X-8582857Y-39645714D01*
X-8678095Y-39598095D01*
X-8249523Y-39264761D02*
X-8344761Y-39312380D01*
X-8535238Y-39312380D01*
X-8630476Y-39264761D01*
X-8678095Y-39217142D01*
X-8725714Y-39121904D01*
X-8725714Y-38836190D01*
X-8678095Y-38740952D01*
X-8630476Y-38693333D01*
X-8535238Y-38645714D01*
X-8344761Y-38645714D01*
X-8249523Y-38693333D01*
X-7868571Y-38645714D02*
X-7630476Y-39312380D01*
X-7392380Y-38645714D02*
X-7630476Y-39312380D01*
X-7725714Y-39550476D01*
X-7773333Y-39598095D01*
X-7868571Y-39645714D01*
X-6582857Y-38645714D02*
X-6582857Y-39312380D01*
X-7011428Y-38645714D02*
X-7011428Y-39169523D01*
X-6963809Y-39264761D01*
X-6868571Y-39312380D01*
X-6725714Y-39312380D01*
X-6630476Y-39264761D01*
X-6582857Y-39217142D01*
X-5344761Y-39312380D02*
X-5344761Y-38312380D01*
X-4963809Y-38312380D01*
X-4868571Y-38360000D01*
X-4820952Y-38407619D01*
X-4773333Y-38502857D01*
X-4773333Y-38645714D01*
X-4820952Y-38740952D01*
X-4868571Y-38788571D01*
X-4963809Y-38836190D01*
X-5344761Y-38836190D01*
X-3916190Y-39312380D02*
X-3916190Y-38788571D01*
X-3963809Y-38693333D01*
X-4059047Y-38645714D01*
X-4249523Y-38645714D01*
X-4344761Y-38693333D01*
X-3916190Y-39264761D02*
X-4011428Y-39312380D01*
X-4249523Y-39312380D01*
X-4344761Y-39264761D01*
X-4392380Y-39169523D01*
X-4392380Y-39074285D01*
X-4344761Y-38979047D01*
X-4249523Y-38931428D01*
X-4011428Y-38931428D01*
X-3916190Y-38883809D01*
X-3440000Y-39312380D02*
X-3440000Y-38645714D01*
X-3440000Y-38836190D02*
X-3392380Y-38740952D01*
X-3344761Y-38693333D01*
X-3249523Y-38645714D01*
X-3154285Y-38645714D01*
X-2820952Y-39312380D02*
X-2820952Y-38312380D01*
X-2725714Y-38931428D02*
X-2440000Y-39312380D01*
X-2440000Y-38645714D02*
X-2820952Y-39026666D01*
D11*
X-26141428Y-35079714D02*
X-26212857Y-35151142D01*
X-26427142Y-35222571D01*
X-26570000Y-35222571D01*
X-26784285Y-35151142D01*
X-26927142Y-35008285D01*
X-26998571Y-34865428D01*
X-27070000Y-34579714D01*
X-27070000Y-34365428D01*
X-26998571Y-34079714D01*
X-26927142Y-33936857D01*
X-26784285Y-33794000D01*
X-26570000Y-33722571D01*
X-26427142Y-33722571D01*
X-26212857Y-33794000D01*
X-26141428Y-33865428D01*
X-25284285Y-35222571D02*
X-25427142Y-35151142D01*
X-25498571Y-35079714D01*
X-25570000Y-34936857D01*
X-25570000Y-34508285D01*
X-25498571Y-34365428D01*
X-25427142Y-34294000D01*
X-25284285Y-34222571D01*
X-25070000Y-34222571D01*
X-24927142Y-34294000D01*
X-24855714Y-34365428D01*
X-24784285Y-34508285D01*
X-24784285Y-34936857D01*
X-24855714Y-35079714D01*
X-24927142Y-35151142D01*
X-25070000Y-35222571D01*
X-25284285Y-35222571D01*
X-24141428Y-35222571D02*
X-24141428Y-34222571D01*
X-24141428Y-34508285D02*
X-24070000Y-34365428D01*
X-23998571Y-34294000D01*
X-23855714Y-34222571D01*
X-23712857Y-34222571D01*
X-22641428Y-35151142D02*
X-22784285Y-35222571D01*
X-23070000Y-35222571D01*
X-23212857Y-35151142D01*
X-23284285Y-35008285D01*
X-23284285Y-34436857D01*
X-23212857Y-34294000D01*
X-23070000Y-34222571D01*
X-22784285Y-34222571D01*
X-22641428Y-34294000D01*
X-22570000Y-34436857D01*
X-22570000Y-34579714D01*
X-23284285Y-34722571D01*
X-20784285Y-35222571D02*
X-20784285Y-33722571D01*
X-20284285Y-34794000D01*
X-19784285Y-33722571D01*
X-19784285Y-35222571D01*
X-18855714Y-35222571D02*
X-18998571Y-35151142D01*
X-19070000Y-35079714D01*
X-19141428Y-34936857D01*
X-19141428Y-34508285D01*
X-19070000Y-34365428D01*
X-18998571Y-34294000D01*
X-18855714Y-34222571D01*
X-18641428Y-34222571D01*
X-18498571Y-34294000D01*
X-18427142Y-34365428D01*
X-18355714Y-34508285D01*
X-18355714Y-34936857D01*
X-18427142Y-35079714D01*
X-18498571Y-35151142D01*
X-18641428Y-35222571D01*
X-18855714Y-35222571D01*
X-17070000Y-35222571D02*
X-17070000Y-33722571D01*
X-17070000Y-35151142D02*
X-17212857Y-35222571D01*
X-17498571Y-35222571D01*
X-17641428Y-35151142D01*
X-17712857Y-35079714D01*
X-17784285Y-34936857D01*
X-17784285Y-34508285D01*
X-17712857Y-34365428D01*
X-17641428Y-34294000D01*
X-17498571Y-34222571D01*
X-17212857Y-34222571D01*
X-17070000Y-34294000D01*
X-15712857Y-34222571D02*
X-15712857Y-35222571D01*
X-16355714Y-34222571D02*
X-16355714Y-35008285D01*
X-16284285Y-35151142D01*
X-16141428Y-35222571D01*
X-15927142Y-35222571D01*
X-15784285Y-35151142D01*
X-15712857Y-35079714D01*
X-14784285Y-35222571D02*
X-14927142Y-35151142D01*
X-14998571Y-35008285D01*
X-14998571Y-33722571D01*
X-13641428Y-35151142D02*
X-13784285Y-35222571D01*
X-14070000Y-35222571D01*
X-14212857Y-35151142D01*
X-14284285Y-35008285D01*
X-14284285Y-34436857D01*
X-14212857Y-34294000D01*
X-14070000Y-34222571D01*
X-13784285Y-34222571D01*
X-13641428Y-34294000D01*
X-13570000Y-34436857D01*
X-13570000Y-34579714D01*
X-14284285Y-34722571D01*
D10*
X-26248571Y-28812380D02*
X-26248571Y-27812380D01*
X-25343809Y-28812380D02*
X-25343809Y-27812380D01*
X-25343809Y-28764761D02*
X-25439047Y-28812380D01*
X-25629523Y-28812380D01*
X-25724761Y-28764761D01*
X-25772380Y-28717142D01*
X-25820000Y-28621904D01*
X-25820000Y-28336190D01*
X-25772380Y-28240952D01*
X-25724761Y-28193333D01*
X-25629523Y-28145714D01*
X-25439047Y-28145714D01*
X-25343809Y-28193333D01*
X-24486666Y-28764761D02*
X-24581904Y-28812380D01*
X-24772380Y-28812380D01*
X-24867619Y-28764761D01*
X-24915238Y-28669523D01*
X-24915238Y-28288571D01*
X-24867619Y-28193333D01*
X-24772380Y-28145714D01*
X-24581904Y-28145714D01*
X-24486666Y-28193333D01*
X-24439047Y-28288571D01*
X-24439047Y-28383809D01*
X-24915238Y-28479047D01*
X-24010476Y-28145714D02*
X-24010476Y-28812380D01*
X-24010476Y-28240952D02*
X-23962857Y-28193333D01*
X-23867619Y-28145714D01*
X-23724761Y-28145714D01*
X-23629523Y-28193333D01*
X-23581904Y-28288571D01*
X-23581904Y-28812380D01*
X-23248571Y-28145714D02*
X-22867619Y-28145714D01*
X-23105714Y-27812380D02*
X-23105714Y-28669523D01*
X-23058095Y-28764761D01*
X-22962857Y-28812380D01*
X-22867619Y-28812380D01*
X-22534285Y-28812380D02*
X-22534285Y-28145714D01*
X-22534285Y-27812380D02*
X-22581904Y-27860000D01*
X-22534285Y-27907619D01*
X-22486666Y-27860000D01*
X-22534285Y-27812380D01*
X-22534285Y-27907619D01*
X-22200952Y-28145714D02*
X-21820000Y-28145714D01*
X-22058095Y-27812380D02*
X-22058095Y-28669523D01*
X-22010476Y-28764761D01*
X-21915238Y-28812380D01*
X-21820000Y-28812380D01*
X-21581904Y-28145714D02*
X-21343809Y-28812380D01*
X-21105714Y-28145714D02*
X-21343809Y-28812380D01*
X-21439047Y-29050476D01*
X-21486666Y-29098095D01*
X-21581904Y-29145714D01*
X-20010476Y-28526666D02*
X-19534285Y-28526666D01*
X-20105714Y-28812380D02*
X-19772380Y-27812380D01*
X-19439047Y-28812380D01*
X-19200952Y-28145714D02*
X-18962857Y-28812380D01*
X-18724761Y-28145714D01*
X-18343809Y-28812380D02*
X-18343809Y-28145714D01*
X-18343809Y-27812380D02*
X-18391428Y-27860000D01*
X-18343809Y-27907619D01*
X-18296190Y-27860000D01*
X-18343809Y-27812380D01*
X-18343809Y-27907619D01*
X-17724761Y-28812380D02*
X-17820000Y-28764761D01*
X-17867619Y-28717142D01*
X-17915238Y-28621904D01*
X-17915238Y-28336190D01*
X-17867619Y-28240952D01*
X-17820000Y-28193333D01*
X-17724761Y-28145714D01*
X-17581904Y-28145714D01*
X-17486666Y-28193333D01*
X-17439047Y-28240952D01*
X-17391428Y-28336190D01*
X-17391428Y-28621904D01*
X-17439047Y-28717142D01*
X-17486666Y-28764761D01*
X-17581904Y-28812380D01*
X-17724761Y-28812380D01*
X-16962857Y-28145714D02*
X-16962857Y-28812380D01*
X-16962857Y-28240952D02*
X-16915238Y-28193333D01*
X-16820000Y-28145714D01*
X-16677142Y-28145714D01*
X-16581904Y-28193333D01*
X-16534285Y-28288571D01*
X-16534285Y-28812380D01*
X-16058095Y-28812380D02*
X-16058095Y-28145714D01*
X-16058095Y-27812380D02*
X-16105714Y-27860000D01*
X-16058095Y-27907619D01*
X-16010476Y-27860000D01*
X-16058095Y-27812380D01*
X-16058095Y-27907619D01*
X-15153333Y-28764761D02*
X-15248571Y-28812380D01*
X-15439047Y-28812380D01*
X-15534285Y-28764761D01*
X-15581904Y-28717142D01*
X-15629523Y-28621904D01*
X-15629523Y-28336190D01*
X-15581904Y-28240952D01*
X-15534285Y-28193333D01*
X-15439047Y-28145714D01*
X-15248571Y-28145714D01*
X-15153333Y-28193333D01*
X-14772380Y-28764761D02*
X-14677142Y-28812380D01*
X-14486666Y-28812380D01*
X-14391428Y-28764761D01*
X-14343809Y-28669523D01*
X-14343809Y-28621904D01*
X-14391428Y-28526666D01*
X-14486666Y-28479047D01*
X-14629523Y-28479047D01*
X-14724761Y-28431428D01*
X-14772380Y-28336190D01*
X-14772380Y-28288571D01*
X-14724761Y-28193333D01*
X-14629523Y-28145714D01*
X-14486666Y-28145714D01*
X-14391428Y-28193333D01*
X-23796190Y-29512380D02*
X-23462857Y-30512380D01*
X-23129523Y-29512380D01*
X-22415238Y-30464761D02*
X-22510476Y-30512380D01*
X-22700952Y-30512380D01*
X-22796190Y-30464761D01*
X-22843809Y-30369523D01*
X-22843809Y-29988571D01*
X-22796190Y-29893333D01*
X-22700952Y-29845714D01*
X-22510476Y-29845714D01*
X-22415238Y-29893333D01*
X-22367619Y-29988571D01*
X-22367619Y-30083809D01*
X-22843809Y-30179047D01*
X-21939047Y-30512380D02*
X-21939047Y-29845714D01*
X-21939047Y-30036190D02*
X-21891428Y-29940952D01*
X-21843809Y-29893333D01*
X-21748571Y-29845714D01*
X-21653333Y-29845714D01*
X-21367619Y-30464761D02*
X-21272380Y-30512380D01*
X-21081904Y-30512380D01*
X-20986666Y-30464761D01*
X-20939047Y-30369523D01*
X-20939047Y-30321904D01*
X-20986666Y-30226666D01*
X-21081904Y-30179047D01*
X-21224761Y-30179047D01*
X-21320000Y-30131428D01*
X-21367619Y-30036190D01*
X-21367619Y-29988571D01*
X-21320000Y-29893333D01*
X-21224761Y-29845714D01*
X-21081904Y-29845714D01*
X-20986666Y-29893333D01*
X-20510476Y-30512380D02*
X-20510476Y-29845714D01*
X-20510476Y-29512380D02*
X-20558095Y-29560000D01*
X-20510476Y-29607619D01*
X-20462857Y-29560000D01*
X-20510476Y-29512380D01*
X-20510476Y-29607619D01*
X-19891428Y-30512380D02*
X-19986666Y-30464761D01*
X-20034285Y-30417142D01*
X-20081904Y-30321904D01*
X-20081904Y-30036190D01*
X-20034285Y-29940952D01*
X-19986666Y-29893333D01*
X-19891428Y-29845714D01*
X-19748571Y-29845714D01*
X-19653333Y-29893333D01*
X-19605714Y-29940952D01*
X-19558095Y-30036190D01*
X-19558095Y-30321904D01*
X-19605714Y-30417142D01*
X-19653333Y-30464761D01*
X-19748571Y-30512380D01*
X-19891428Y-30512380D01*
X-19129523Y-29845714D02*
X-19129523Y-30512380D01*
X-19129523Y-29940952D02*
X-19081904Y-29893333D01*
X-18986666Y-29845714D01*
X-18843809Y-29845714D01*
X-18748571Y-29893333D01*
X-18700952Y-29988571D01*
X-18700952Y-30512380D01*
X-17510476Y-29607619D02*
X-17462857Y-29560000D01*
X-17367619Y-29512380D01*
X-17129523Y-29512380D01*
X-17034285Y-29560000D01*
X-16986666Y-29607619D01*
X-16939047Y-29702857D01*
X-16939047Y-29798095D01*
X-16986666Y-29940952D01*
X-17558095Y-30512380D01*
X-16939047Y-30512380D01*
D11*
X3457285Y-12894571D02*
X4385857Y-12894571D01*
X3885857Y-13466000D01*
X4100142Y-13466000D01*
X4243000Y-13537428D01*
X4314428Y-13608857D01*
X4385857Y-13751714D01*
X4385857Y-14108857D01*
X4314428Y-14251714D01*
X4243000Y-14323142D01*
X4100142Y-14394571D01*
X3671571Y-14394571D01*
X3528714Y-14323142D01*
X3457285Y-14251714D01*
X5028714Y-14251714D02*
X5100142Y-14323142D01*
X5028714Y-14394571D01*
X4957285Y-14323142D01*
X5028714Y-14251714D01*
X5028714Y-14394571D01*
X5600142Y-12894571D02*
X6528714Y-12894571D01*
X6028714Y-13466000D01*
X6243000Y-13466000D01*
X6385857Y-13537428D01*
X6457285Y-13608857D01*
X6528714Y-13751714D01*
X6528714Y-14108857D01*
X6457285Y-14251714D01*
X6385857Y-14323142D01*
X6243000Y-14394571D01*
X5814428Y-14394571D01*
X5671571Y-14323142D01*
X5600142Y-14251714D01*
X4441428Y-8322571D02*
X3727142Y-8322571D01*
X3655714Y-9036857D01*
X3727142Y-8965428D01*
X3870000Y-8894000D01*
X4227142Y-8894000D01*
X4370000Y-8965428D01*
X4441428Y-9036857D01*
X4512857Y-9179714D01*
X4512857Y-9536857D01*
X4441428Y-9679714D01*
X4370000Y-9751142D01*
X4227142Y-9822571D01*
X3870000Y-9822571D01*
X3727142Y-9751142D01*
X3655714Y-9679714D01*
X635142Y-4280857D02*
X635142Y-5080857D01*
X-7714Y-4280857D02*
X-7714Y-4909428D01*
X63714Y-5023714D01*
X206571Y-5080857D01*
X420857Y-5080857D01*
X563714Y-5023714D01*
X635142Y-4966571D01*
X1278000Y-5023714D02*
X1492285Y-5080857D01*
X1849428Y-5080857D01*
X1992285Y-5023714D01*
X2063714Y-4966571D01*
X2135142Y-4852285D01*
X2135142Y-4738000D01*
X2063714Y-4623714D01*
X1992285Y-4566571D01*
X1849428Y-4509428D01*
X1563714Y-4452285D01*
X1420857Y-4395142D01*
X1349428Y-4338000D01*
X1278000Y-4223714D01*
X1278000Y-4109428D01*
X1349428Y-3995142D01*
X1420857Y-3938000D01*
X1563714Y-3880857D01*
X1920857Y-3880857D01*
X2135142Y-3938000D01*
X2778000Y-5080857D02*
X2778000Y-3880857D01*
X3135142Y-3880857D01*
X3349428Y-3938000D01*
X3492285Y-4052285D01*
X3563714Y-4166571D01*
X3635142Y-4395142D01*
X3635142Y-4566571D01*
X3563714Y-4795142D01*
X3492285Y-4909428D01*
X3349428Y-5023714D01*
X3135142Y-5080857D01*
X2778000Y-5080857D01*
X242285Y-5980857D02*
X742285Y-7180857D01*
X1242285Y-5980857D01*
X1742285Y-7180857D02*
X1742285Y-6380857D01*
X1742285Y-5980857D02*
X1670857Y-6038000D01*
X1742285Y-6095142D01*
X1813714Y-6038000D01*
X1742285Y-5980857D01*
X1742285Y-6095142D01*
X2456571Y-6380857D02*
X2456571Y-7180857D01*
X2456571Y-6495142D02*
X2528000Y-6438000D01*
X2670857Y-6380857D01*
X2885142Y-6380857D01*
X3028000Y-6438000D01*
X3099428Y-6552285D01*
X3099428Y-7180857D01*
X29908571Y-29317142D02*
X31051428Y-29317142D01*
X29908571Y-24237142D02*
X31051428Y-24237142D01*
X30480000Y-24808571D02*
X30480000Y-23665714D01*
X17907142Y-31000000D02*
X17764285Y-30928571D01*
X17550000Y-30928571D01*
X17335714Y-31000000D01*
X17192857Y-31142857D01*
X17121428Y-31285714D01*
X17050000Y-31571428D01*
X17050000Y-31785714D01*
X17121428Y-32071428D01*
X17192857Y-32214285D01*
X17335714Y-32357142D01*
X17550000Y-32428571D01*
X17692857Y-32428571D01*
X17907142Y-32357142D01*
X17978571Y-32285714D01*
X17978571Y-31785714D01*
X17692857Y-31785714D01*
X18621428Y-32428571D02*
X18621428Y-30928571D01*
X19478571Y-32428571D01*
X19478571Y-30928571D01*
X20192857Y-32428571D02*
X20192857Y-30928571D01*
X20550000Y-30928571D01*
X20764285Y-31000000D01*
X20907142Y-31142857D01*
X20978571Y-31285714D01*
X21050000Y-31571428D01*
X21050000Y-31785714D01*
X20978571Y-32071428D01*
X20907142Y-32214285D01*
X20764285Y-32357142D01*
X20550000Y-32428571D01*
X20192857Y-32428571D01*
X12005714Y-32428571D02*
X12291428Y-32428571D01*
X12434285Y-32357142D01*
X12505714Y-32285714D01*
X12648571Y-32071428D01*
X12720000Y-31785714D01*
X12720000Y-31214285D01*
X12648571Y-31071428D01*
X12577142Y-31000000D01*
X12434285Y-30928571D01*
X12148571Y-30928571D01*
X12005714Y-31000000D01*
X11934285Y-31071428D01*
X11862857Y-31214285D01*
X11862857Y-31571428D01*
X11934285Y-31714285D01*
X12005714Y-31785714D01*
X12148571Y-31857142D01*
X12434285Y-31857142D01*
X12577142Y-31785714D01*
X12648571Y-31714285D01*
X12720000Y-31571428D01*
X13148571Y-30928571D02*
X13648571Y-32428571D01*
X14148571Y-30928571D01*
X14648571Y-32428571D02*
X14648571Y-31428571D01*
X14648571Y-30928571D02*
X14577142Y-31000000D01*
X14648571Y-31071428D01*
X14720000Y-31000000D01*
X14648571Y-30928571D01*
X14648571Y-31071428D01*
X15362857Y-31428571D02*
X15362857Y-32428571D01*
X15362857Y-31571428D02*
X15434285Y-31500000D01*
X15577142Y-31428571D01*
X15791428Y-31428571D01*
X15934285Y-31500000D01*
X16005714Y-31642857D01*
X16005714Y-32428571D01*
X11938571Y-22268571D02*
X11938571Y-20768571D01*
X12510000Y-20768571D01*
X12652857Y-20840000D01*
X12724285Y-20911428D01*
X12795714Y-21054285D01*
X12795714Y-21268571D01*
X12724285Y-21411428D01*
X12652857Y-21482857D01*
X12510000Y-21554285D01*
X11938571Y-21554285D01*
X13652857Y-22268571D02*
X13510000Y-22197142D01*
X13438571Y-22125714D01*
X13367142Y-21982857D01*
X13367142Y-21554285D01*
X13438571Y-21411428D01*
X13510000Y-21340000D01*
X13652857Y-21268571D01*
X13867142Y-21268571D01*
X14010000Y-21340000D01*
X14081428Y-21411428D01*
X14152857Y-21554285D01*
X14152857Y-21982857D01*
X14081428Y-22125714D01*
X14010000Y-22197142D01*
X13867142Y-22268571D01*
X13652857Y-22268571D01*
X14652857Y-21268571D02*
X14938571Y-22268571D01*
X15224285Y-21554285D01*
X15510000Y-22268571D01*
X15795714Y-21268571D01*
X16938571Y-22197142D02*
X16795714Y-22268571D01*
X16510000Y-22268571D01*
X16367142Y-22197142D01*
X16295714Y-22054285D01*
X16295714Y-21482857D01*
X16367142Y-21340000D01*
X16510000Y-21268571D01*
X16795714Y-21268571D01*
X16938571Y-21340000D01*
X17010000Y-21482857D01*
X17010000Y-21625714D01*
X16295714Y-21768571D01*
X17652857Y-22268571D02*
X17652857Y-21268571D01*
X17652857Y-21554285D02*
X17724285Y-21411428D01*
X17795714Y-21340000D01*
X17938571Y-21268571D01*
X18081428Y-21268571D01*
X19724285Y-22268571D02*
X19724285Y-20768571D01*
X20438571Y-21268571D02*
X20438571Y-22268571D01*
X20438571Y-21411428D02*
X20510000Y-21340000D01*
X20652857Y-21268571D01*
X20867142Y-21268571D01*
X21010000Y-21340000D01*
X21081428Y-21482857D01*
X21081428Y-22268571D01*
D12*
X1414214Y0D02*
G75*
G03X1414214Y0I-1414214J0D01*
G01*
D13*
G04 #@! TO.C,J8*
X575000Y-7560000D02*
X1905000Y-7560000D01*
X575000Y-8890000D02*
X575000Y-7560000D01*
X575000Y-10160000D02*
X3235000Y-10160000D01*
X3235000Y-10160000D02*
X3235000Y-15300000D01*
X575000Y-10160000D02*
X575000Y-15300000D01*
X575000Y-15300000D02*
X3235000Y-15300000D01*
G04 #@! TO.C,J7*
X-3870000Y13395000D02*
X-2540000Y13395000D01*
X-3870000Y12065000D02*
X-3870000Y13395000D01*
X-3870000Y10795000D02*
X-1210000Y10795000D01*
X-1210000Y10795000D02*
X-1210000Y5655000D01*
X-3870000Y10795000D02*
X-3870000Y5655000D01*
X-3870000Y5655000D02*
X-1210000Y5655000D01*
D12*
G04 #@! TO.C,U1*
X-22860000Y38100000D02*
X-22860000Y-10160000D01*
X-22860000Y-10160000D02*
X-5080000Y-10160000D01*
X-5080000Y-10160000D02*
X-5080000Y38100000D01*
X-5080000Y38100000D02*
X-22860000Y38100000D01*
X-16510000Y-7620000D02*
X-11430000Y-7620000D01*
X-16510000Y-11430000D02*
X-11430000Y-11430000D01*
X-11430000Y-11430000D02*
X-11430000Y-7620000D01*
X-11430000Y-7620000D02*
X-16510000Y-7620000D01*
X-16510000Y-7620000D02*
X-16510000Y-11430000D01*
G04 #@! TO.C,U2*
X32970000Y30745000D02*
X32970000Y-9255000D01*
X7970000Y-9255000D02*
X7970000Y30745000D01*
X27940000Y-8525000D02*
X12700000Y-8525000D01*
X27940000Y-5985000D02*
X27940000Y-8525000D01*
X12700000Y-5985000D02*
X27940000Y-5985000D01*
X12700000Y-8525000D02*
X12700000Y-5985000D01*
X7970000Y-9255000D02*
X8970000Y-10255000D01*
X8970000Y31745000D02*
X7970000Y30745000D01*
X31970000Y31745000D02*
X8970000Y31745000D01*
X32970000Y30745000D02*
X31970000Y31745000D01*
X31970000Y-10255000D02*
X32970000Y-9255000D01*
X8970000Y-10255000D02*
X31970000Y-10255000D01*
D13*
G04 #@! TO.C,D1*
X-800000Y-41375000D02*
X1660000Y-41375000D01*
X1660000Y-41375000D02*
X1660000Y-39905000D01*
X1660000Y-39905000D02*
X-800000Y-39905000D01*
G04 #@! TO.C,J1*
X11430000Y-30480000D02*
X21590000Y-30480000D01*
X11430000Y-22860000D02*
X11430000Y-30480000D01*
X21590000Y-22860000D02*
X11430000Y-22860000D01*
X21590000Y-30480000D02*
X21590000Y-22860000D01*
X21590000Y-29210000D02*
X11430000Y-29210000D01*
G04 #@! TO.C,R1*
X8439564Y-41550000D02*
X7235436Y-41550000D01*
X8439564Y-39730000D02*
X7235436Y-39730000D01*
G04 #@! TO.C,SW2*
X29281120Y-22809200D02*
X29281120Y-30530800D01*
X24058880Y-30530800D02*
X24058880Y-22809200D01*
X24058880Y-22809200D02*
X29281120Y-22809200D01*
X24058880Y-30530800D02*
X29281120Y-30530800D01*
D12*
G04 #@! TO.C,U3*
X27670000Y-695000D02*
X25670000Y-695000D01*
X25670000Y-695000D02*
X25670000Y19305000D01*
X25670000Y19305000D02*
X27670000Y19305000D01*
X27670000Y19305000D02*
X27670000Y-695000D01*
X3670000Y-695000D02*
X3670000Y19305000D01*
X3670000Y19305000D02*
X5670000Y19305000D01*
X5670000Y19305000D02*
X5670000Y-695000D01*
X5670000Y-695000D02*
X3670000Y-695000D01*
D14*
G04 #@! TO.C,G\002A\002A\002A*
G36*
X-26569698Y-21094185D02*
X-26534107Y-21135023D01*
X-26506164Y-21234969D01*
X-26485300Y-21399572D01*
X-26470945Y-21634381D01*
X-26462530Y-21944945D01*
X-26460150Y-22161500D01*
X-26457764Y-22417679D01*
X-26453172Y-22604731D01*
X-26444377Y-22738198D01*
X-26429383Y-22833619D01*
X-26406195Y-22906534D01*
X-26372816Y-22972484D01*
X-26351396Y-23008167D01*
X-26277259Y-23137024D01*
X-26253494Y-23217827D01*
X-26288717Y-23261718D01*
X-26391543Y-23279839D01*
X-26564166Y-23283334D01*
X-26742498Y-23278310D01*
X-26845324Y-23262280D01*
X-26881260Y-23233807D01*
X-26881508Y-23230417D01*
X-26859922Y-23163531D01*
X-26806314Y-23061769D01*
X-26786258Y-23029334D01*
X-26752624Y-22972265D01*
X-26727974Y-22912218D01*
X-26710896Y-22835512D01*
X-26699974Y-22728462D01*
X-26693796Y-22577385D01*
X-26690947Y-22368598D01*
X-26690027Y-22098000D01*
X-26687080Y-21757486D01*
X-26678823Y-21494926D01*
X-26664465Y-21303728D01*
X-26643217Y-21177300D01*
X-26614287Y-21109049D01*
X-26576886Y-21092385D01*
X-26569698Y-21094185D01*
X-26569698Y-21094185D01*
G37*
X-26569698Y-21094185D02*
X-26534107Y-21135023D01*
X-26506164Y-21234969D01*
X-26485300Y-21399572D01*
X-26470945Y-21634381D01*
X-26462530Y-21944945D01*
X-26460150Y-22161500D01*
X-26457764Y-22417679D01*
X-26453172Y-22604731D01*
X-26444377Y-22738198D01*
X-26429383Y-22833619D01*
X-26406195Y-22906534D01*
X-26372816Y-22972484D01*
X-26351396Y-23008167D01*
X-26277259Y-23137024D01*
X-26253494Y-23217827D01*
X-26288717Y-23261718D01*
X-26391543Y-23279839D01*
X-26564166Y-23283334D01*
X-26742498Y-23278310D01*
X-26845324Y-23262280D01*
X-26881260Y-23233807D01*
X-26881508Y-23230417D01*
X-26859922Y-23163531D01*
X-26806314Y-23061769D01*
X-26786258Y-23029334D01*
X-26752624Y-22972265D01*
X-26727974Y-22912218D01*
X-26710896Y-22835512D01*
X-26699974Y-22728462D01*
X-26693796Y-22577385D01*
X-26690947Y-22368598D01*
X-26690027Y-22098000D01*
X-26687080Y-21757486D01*
X-26678823Y-21494926D01*
X-26664465Y-21303728D01*
X-26643217Y-21177300D01*
X-26614287Y-21109049D01*
X-26576886Y-21092385D01*
X-26569698Y-21094185D01*
G36*
X-16396208Y-22713107D02*
X-16239303Y-22719377D01*
X-16123181Y-22734314D01*
X-16025905Y-22761592D01*
X-15925540Y-22804881D01*
X-15857147Y-22838834D01*
X-15615958Y-23002838D01*
X-15445189Y-23211041D01*
X-15348013Y-23456194D01*
X-15327606Y-23731053D01*
X-15366407Y-23959132D01*
X-15444427Y-24129224D01*
X-15575944Y-24301408D01*
X-15736089Y-24445731D01*
X-15809525Y-24492860D01*
X-15839504Y-24513324D01*
X-15852237Y-24540002D01*
X-15841963Y-24581987D01*
X-15802925Y-24648375D01*
X-15729362Y-24748260D01*
X-15615515Y-24890739D01*
X-15455627Y-25084905D01*
X-15367000Y-25191712D01*
X-15199815Y-25392952D01*
X-15081524Y-25537735D01*
X-15007607Y-25635296D01*
X-14973546Y-25694872D01*
X-14974822Y-25725698D01*
X-15006916Y-25737010D01*
X-15065309Y-25738045D01*
X-15099918Y-25737613D01*
X-15186458Y-25731158D01*
X-15255503Y-25703517D01*
X-15326731Y-25640274D01*
X-15419819Y-25527017D01*
X-15461102Y-25473029D01*
X-15575793Y-25325560D01*
X-15688251Y-25187066D01*
X-15775077Y-25086328D01*
X-15778602Y-25082500D01*
X-15881785Y-24963852D01*
X-15990857Y-24828201D01*
X-16014738Y-24796750D01*
X-16133309Y-24638000D01*
X-16891000Y-24638000D01*
X-16891000Y-25738667D01*
X-17146069Y-25738667D01*
X-17134951Y-24225250D01*
X-17125855Y-22987000D01*
X-16891000Y-22987000D01*
X-16891000Y-24341667D01*
X-16473927Y-24341667D01*
X-16272836Y-24339254D01*
X-16134384Y-24329501D01*
X-16036617Y-24308633D01*
X-15957584Y-24272876D01*
X-15914018Y-24245409D01*
X-15725385Y-24075557D01*
X-15612688Y-23873543D01*
X-15578666Y-23664334D01*
X-15619024Y-23437405D01*
X-15738087Y-23237841D01*
X-15914018Y-23083258D01*
X-15992112Y-23037673D01*
X-16076832Y-23009060D01*
X-16190128Y-22993643D01*
X-16353955Y-22987648D01*
X-16473927Y-22987000D01*
X-16891000Y-22987000D01*
X-17125855Y-22987000D01*
X-17123833Y-22711834D01*
X-16615833Y-22711834D01*
X-16396208Y-22713107D01*
X-16396208Y-22713107D01*
G37*
X-16396208Y-22713107D02*
X-16239303Y-22719377D01*
X-16123181Y-22734314D01*
X-16025905Y-22761592D01*
X-15925540Y-22804881D01*
X-15857147Y-22838834D01*
X-15615958Y-23002838D01*
X-15445189Y-23211041D01*
X-15348013Y-23456194D01*
X-15327606Y-23731053D01*
X-15366407Y-23959132D01*
X-15444427Y-24129224D01*
X-15575944Y-24301408D01*
X-15736089Y-24445731D01*
X-15809525Y-24492860D01*
X-15839504Y-24513324D01*
X-15852237Y-24540002D01*
X-15841963Y-24581987D01*
X-15802925Y-24648375D01*
X-15729362Y-24748260D01*
X-15615515Y-24890739D01*
X-15455627Y-25084905D01*
X-15367000Y-25191712D01*
X-15199815Y-25392952D01*
X-15081524Y-25537735D01*
X-15007607Y-25635296D01*
X-14973546Y-25694872D01*
X-14974822Y-25725698D01*
X-15006916Y-25737010D01*
X-15065309Y-25738045D01*
X-15099918Y-25737613D01*
X-15186458Y-25731158D01*
X-15255503Y-25703517D01*
X-15326731Y-25640274D01*
X-15419819Y-25527017D01*
X-15461102Y-25473029D01*
X-15575793Y-25325560D01*
X-15688251Y-25187066D01*
X-15775077Y-25086328D01*
X-15778602Y-25082500D01*
X-15881785Y-24963852D01*
X-15990857Y-24828201D01*
X-16014738Y-24796750D01*
X-16133309Y-24638000D01*
X-16891000Y-24638000D01*
X-16891000Y-25738667D01*
X-17146069Y-25738667D01*
X-17134951Y-24225250D01*
X-17125855Y-22987000D01*
X-16891000Y-22987000D01*
X-16891000Y-24341667D01*
X-16473927Y-24341667D01*
X-16272836Y-24339254D01*
X-16134384Y-24329501D01*
X-16036617Y-24308633D01*
X-15957584Y-24272876D01*
X-15914018Y-24245409D01*
X-15725385Y-24075557D01*
X-15612688Y-23873543D01*
X-15578666Y-23664334D01*
X-15619024Y-23437405D01*
X-15738087Y-23237841D01*
X-15914018Y-23083258D01*
X-15992112Y-23037673D01*
X-16076832Y-23009060D01*
X-16190128Y-22993643D01*
X-16353955Y-22987648D01*
X-16473927Y-22987000D01*
X-16891000Y-22987000D01*
X-17125855Y-22987000D01*
X-17123833Y-22711834D01*
X-16615833Y-22711834D01*
X-16396208Y-22713107D01*
G36*
X-26305971Y-23327962D02*
X-26286668Y-23340932D01*
X-26272216Y-23373700D01*
X-26262060Y-23435392D01*
X-26255642Y-23535131D01*
X-26252405Y-23682041D01*
X-26251792Y-23885249D01*
X-26253246Y-24153877D01*
X-26256211Y-24497051D01*
X-26256601Y-24539239D01*
X-26260849Y-24911200D01*
X-26266479Y-25205895D01*
X-26274282Y-25430719D01*
X-26285053Y-25593071D01*
X-26299586Y-25700349D01*
X-26318673Y-25759949D01*
X-26343109Y-25779270D01*
X-26373688Y-25765708D01*
X-26386896Y-25753660D01*
X-26394408Y-25705374D01*
X-26401202Y-25583417D01*
X-26407015Y-25398784D01*
X-26411588Y-25162469D01*
X-26414660Y-24885467D01*
X-26415971Y-24578772D01*
X-26416000Y-24525111D01*
X-26415825Y-24175532D01*
X-26414866Y-23901441D01*
X-26412469Y-23693664D01*
X-26407981Y-23543023D01*
X-26400751Y-23440341D01*
X-26390126Y-23376441D01*
X-26375451Y-23342147D01*
X-26356076Y-23328281D01*
X-26331347Y-23325667D01*
X-26330684Y-23325667D01*
X-26305971Y-23327962D01*
X-26305971Y-23327962D01*
G37*
X-26305971Y-23327962D02*
X-26286668Y-23340932D01*
X-26272216Y-23373700D01*
X-26262060Y-23435392D01*
X-26255642Y-23535131D01*
X-26252405Y-23682041D01*
X-26251792Y-23885249D01*
X-26253246Y-24153877D01*
X-26256211Y-24497051D01*
X-26256601Y-24539239D01*
X-26260849Y-24911200D01*
X-26266479Y-25205895D01*
X-26274282Y-25430719D01*
X-26285053Y-25593071D01*
X-26299586Y-25700349D01*
X-26318673Y-25759949D01*
X-26343109Y-25779270D01*
X-26373688Y-25765708D01*
X-26386896Y-25753660D01*
X-26394408Y-25705374D01*
X-26401202Y-25583417D01*
X-26407015Y-25398784D01*
X-26411588Y-25162469D01*
X-26414660Y-24885467D01*
X-26415971Y-24578772D01*
X-26416000Y-24525111D01*
X-26415825Y-24175532D01*
X-26414866Y-23901441D01*
X-26412469Y-23693664D01*
X-26407981Y-23543023D01*
X-26400751Y-23440341D01*
X-26390126Y-23376441D01*
X-26375451Y-23342147D01*
X-26356076Y-23328281D01*
X-26331347Y-23325667D01*
X-26330684Y-23325667D01*
X-26305971Y-23327962D01*
G36*
X-26559971Y-23327962D02*
X-26540668Y-23340932D01*
X-26526216Y-23373700D01*
X-26516060Y-23435392D01*
X-26509642Y-23535131D01*
X-26506405Y-23682041D01*
X-26505792Y-23885249D01*
X-26507246Y-24153877D01*
X-26510211Y-24497051D01*
X-26510601Y-24539239D01*
X-26514849Y-24911200D01*
X-26520479Y-25205895D01*
X-26528282Y-25430719D01*
X-26539053Y-25593071D01*
X-26553586Y-25700349D01*
X-26572673Y-25759949D01*
X-26597109Y-25779270D01*
X-26627688Y-25765708D01*
X-26640896Y-25753660D01*
X-26648408Y-25705374D01*
X-26655202Y-25583417D01*
X-26661015Y-25398784D01*
X-26665588Y-25162469D01*
X-26668660Y-24885467D01*
X-26669971Y-24578772D01*
X-26670000Y-24525111D01*
X-26669825Y-24175532D01*
X-26668866Y-23901441D01*
X-26666469Y-23693664D01*
X-26661981Y-23543023D01*
X-26654751Y-23440341D01*
X-26644126Y-23376441D01*
X-26629451Y-23342147D01*
X-26610076Y-23328281D01*
X-26585347Y-23325667D01*
X-26584684Y-23325667D01*
X-26559971Y-23327962D01*
X-26559971Y-23327962D01*
G37*
X-26559971Y-23327962D02*
X-26540668Y-23340932D01*
X-26526216Y-23373700D01*
X-26516060Y-23435392D01*
X-26509642Y-23535131D01*
X-26506405Y-23682041D01*
X-26505792Y-23885249D01*
X-26507246Y-24153877D01*
X-26510211Y-24497051D01*
X-26510601Y-24539239D01*
X-26514849Y-24911200D01*
X-26520479Y-25205895D01*
X-26528282Y-25430719D01*
X-26539053Y-25593071D01*
X-26553586Y-25700349D01*
X-26572673Y-25759949D01*
X-26597109Y-25779270D01*
X-26627688Y-25765708D01*
X-26640896Y-25753660D01*
X-26648408Y-25705374D01*
X-26655202Y-25583417D01*
X-26661015Y-25398784D01*
X-26665588Y-25162469D01*
X-26668660Y-24885467D01*
X-26669971Y-24578772D01*
X-26670000Y-24525111D01*
X-26669825Y-24175532D01*
X-26668866Y-23901441D01*
X-26666469Y-23693664D01*
X-26661981Y-23543023D01*
X-26654751Y-23440341D01*
X-26644126Y-23376441D01*
X-26629451Y-23342147D01*
X-26610076Y-23328281D01*
X-26585347Y-23325667D01*
X-26584684Y-23325667D01*
X-26559971Y-23327962D01*
G36*
X-12801170Y-22735122D02*
X-12607583Y-22799620D01*
X-12279251Y-22972011D01*
X-12003865Y-23198940D01*
X-11788441Y-23470724D01*
X-11639993Y-23777675D01*
X-11565534Y-24110110D01*
X-11558035Y-24248837D01*
X-11575031Y-24466539D01*
X-11622626Y-24685219D01*
X-11692228Y-24870842D01*
X-11732767Y-24940869D01*
X-11786833Y-25025105D01*
X-11810920Y-25075644D01*
X-11811000Y-25076827D01*
X-11841729Y-25129750D01*
X-11921943Y-25217465D01*
X-12033683Y-25323582D01*
X-12158989Y-25431711D01*
X-12279901Y-25525462D01*
X-12361333Y-25579060D01*
X-12500077Y-25645082D01*
X-12676997Y-25710659D01*
X-12863730Y-25767253D01*
X-13031912Y-25806322D01*
X-13153180Y-25819327D01*
X-13158502Y-25819083D01*
X-13235616Y-25808103D01*
X-13364900Y-25783840D01*
X-13493158Y-25756976D01*
X-13699389Y-25704158D01*
X-13862829Y-25639210D01*
X-14013093Y-25546243D01*
X-14179794Y-25409366D01*
X-14236747Y-25357996D01*
X-14459609Y-25124345D01*
X-14612202Y-24888583D01*
X-14706829Y-24629874D01*
X-14729869Y-24522753D01*
X-14748774Y-24231510D01*
X-14478000Y-24231510D01*
X-14444745Y-24560268D01*
X-14342713Y-24844180D01*
X-14168500Y-25088757D01*
X-13918704Y-25299514D01*
X-13758333Y-25397283D01*
X-13628322Y-25463233D01*
X-13514529Y-25501979D01*
X-13384996Y-25520581D01*
X-13207768Y-25526097D01*
X-13174563Y-25526233D01*
X-12966888Y-25520611D01*
X-12814545Y-25499472D01*
X-12688879Y-25458016D01*
X-12645397Y-25437568D01*
X-12510653Y-25361027D01*
X-12351932Y-25258383D01*
X-12248440Y-25184857D01*
X-12054025Y-24994646D01*
X-11923444Y-24758930D01*
X-11853846Y-24471084D01*
X-11839885Y-24235834D01*
X-11867720Y-23938192D01*
X-11956497Y-23681932D01*
X-12113614Y-23453409D01*
X-12346467Y-23238980D01*
X-12403666Y-23195934D01*
X-12587706Y-23079344D01*
X-12770233Y-23008458D01*
X-12980864Y-22974766D01*
X-13193549Y-22968906D01*
X-13375782Y-22973913D01*
X-13504744Y-22990165D01*
X-13611757Y-23025356D01*
X-13728144Y-23087184D01*
X-13765049Y-23109327D01*
X-14050605Y-23310009D01*
X-14257974Y-23521825D01*
X-14393632Y-23754968D01*
X-14464052Y-24019628D01*
X-14478000Y-24231510D01*
X-14748774Y-24231510D01*
X-14752517Y-24173861D01*
X-14695613Y-23839717D01*
X-14564076Y-23529268D01*
X-14362820Y-23251464D01*
X-14096764Y-23015251D01*
X-13809163Y-22847115D01*
X-13468341Y-22726233D01*
X-13134106Y-22688972D01*
X-12801170Y-22735122D01*
X-12801170Y-22735122D01*
G37*
X-12801170Y-22735122D02*
X-12607583Y-22799620D01*
X-12279251Y-22972011D01*
X-12003865Y-23198940D01*
X-11788441Y-23470724D01*
X-11639993Y-23777675D01*
X-11565534Y-24110110D01*
X-11558035Y-24248837D01*
X-11575031Y-24466539D01*
X-11622626Y-24685219D01*
X-11692228Y-24870842D01*
X-11732767Y-24940869D01*
X-11786833Y-25025105D01*
X-11810920Y-25075644D01*
X-11811000Y-25076827D01*
X-11841729Y-25129750D01*
X-11921943Y-25217465D01*
X-12033683Y-25323582D01*
X-12158989Y-25431711D01*
X-12279901Y-25525462D01*
X-12361333Y-25579060D01*
X-12500077Y-25645082D01*
X-12676997Y-25710659D01*
X-12863730Y-25767253D01*
X-13031912Y-25806322D01*
X-13153180Y-25819327D01*
X-13158502Y-25819083D01*
X-13235616Y-25808103D01*
X-13364900Y-25783840D01*
X-13493158Y-25756976D01*
X-13699389Y-25704158D01*
X-13862829Y-25639210D01*
X-14013093Y-25546243D01*
X-14179794Y-25409366D01*
X-14236747Y-25357996D01*
X-14459609Y-25124345D01*
X-14612202Y-24888583D01*
X-14706829Y-24629874D01*
X-14729869Y-24522753D01*
X-14748774Y-24231510D01*
X-14478000Y-24231510D01*
X-14444745Y-24560268D01*
X-14342713Y-24844180D01*
X-14168500Y-25088757D01*
X-13918704Y-25299514D01*
X-13758333Y-25397283D01*
X-13628322Y-25463233D01*
X-13514529Y-25501979D01*
X-13384996Y-25520581D01*
X-13207768Y-25526097D01*
X-13174563Y-25526233D01*
X-12966888Y-25520611D01*
X-12814545Y-25499472D01*
X-12688879Y-25458016D01*
X-12645397Y-25437568D01*
X-12510653Y-25361027D01*
X-12351932Y-25258383D01*
X-12248440Y-25184857D01*
X-12054025Y-24994646D01*
X-11923444Y-24758930D01*
X-11853846Y-24471084D01*
X-11839885Y-24235834D01*
X-11867720Y-23938192D01*
X-11956497Y-23681932D01*
X-12113614Y-23453409D01*
X-12346467Y-23238980D01*
X-12403666Y-23195934D01*
X-12587706Y-23079344D01*
X-12770233Y-23008458D01*
X-12980864Y-22974766D01*
X-13193549Y-22968906D01*
X-13375782Y-22973913D01*
X-13504744Y-22990165D01*
X-13611757Y-23025356D01*
X-13728144Y-23087184D01*
X-13765049Y-23109327D01*
X-14050605Y-23310009D01*
X-14257974Y-23521825D01*
X-14393632Y-23754968D01*
X-14464052Y-24019628D01*
X-14478000Y-24231510D01*
X-14748774Y-24231510D01*
X-14752517Y-24173861D01*
X-14695613Y-23839717D01*
X-14564076Y-23529268D01*
X-14362820Y-23251464D01*
X-14096764Y-23015251D01*
X-13809163Y-22847115D01*
X-13468341Y-22726233D01*
X-13134106Y-22688972D01*
X-12801170Y-22735122D01*
G36*
X-18786427Y-22724018D02*
X-18769092Y-22762067D01*
X-18739545Y-22839201D01*
X-18684973Y-22974115D01*
X-18613740Y-23146787D01*
X-18534207Y-23337192D01*
X-18454739Y-23525306D01*
X-18383698Y-23691104D01*
X-18330376Y-23812500D01*
X-18285263Y-23917979D01*
X-18218566Y-24080371D01*
X-18139237Y-24277622D01*
X-18056232Y-24487679D01*
X-18055389Y-24489834D01*
X-17975816Y-24689593D01*
X-17902760Y-24866564D01*
X-17843920Y-25002515D01*
X-17806994Y-25079221D01*
X-17805067Y-25082500D01*
X-17764433Y-25165395D01*
X-17709091Y-25298378D01*
X-17655946Y-25439241D01*
X-17605705Y-25584138D01*
X-17583897Y-25671059D01*
X-17589093Y-25721256D01*
X-17619864Y-25755980D01*
X-17633938Y-25766607D01*
X-17723502Y-25793718D01*
X-17799373Y-25741122D01*
X-17846461Y-25639594D01*
X-17875894Y-25562856D01*
X-17932521Y-25431586D01*
X-18006805Y-25267532D01*
X-18053638Y-25167167D01*
X-18134107Y-24993541D01*
X-18202795Y-24839682D01*
X-18250002Y-24727601D01*
X-18263557Y-24690917D01*
X-18279599Y-24651875D01*
X-18308165Y-24625281D01*
X-18363655Y-24608750D01*
X-18460467Y-24599894D01*
X-18612999Y-24596329D01*
X-18835651Y-24595667D01*
X-18838333Y-24595667D01*
X-19061740Y-24596304D01*
X-19214837Y-24599805D01*
X-19311980Y-24608555D01*
X-19367526Y-24624942D01*
X-19395831Y-24651350D01*
X-19411250Y-24690166D01*
X-19411475Y-24690917D01*
X-19443911Y-24778766D01*
X-19499757Y-24911962D01*
X-19557125Y-25040167D01*
X-19640908Y-25227295D01*
X-19729298Y-25432944D01*
X-19776892Y-25547975D01*
X-19853466Y-25710187D01*
X-19924878Y-25796038D01*
X-19999669Y-25812719D01*
X-20059947Y-25786232D01*
X-20089672Y-25753257D01*
X-20094440Y-25698154D01*
X-20070827Y-25607321D01*
X-20015412Y-25467158D01*
X-19933207Y-25282523D01*
X-19872683Y-25147111D01*
X-19829235Y-25044625D01*
X-19812016Y-24996678D01*
X-19812000Y-24996312D01*
X-19795819Y-24948933D01*
X-19754823Y-24852413D01*
X-19729471Y-24796289D01*
X-19662424Y-24643878D01*
X-19590239Y-24470231D01*
X-19564375Y-24405167D01*
X-19535592Y-24331850D01*
X-19248381Y-24331850D01*
X-19237789Y-24359478D01*
X-19191957Y-24375075D01*
X-19096552Y-24382079D01*
X-18937243Y-24383931D01*
X-18841186Y-24384000D01*
X-18662826Y-24382492D01*
X-18521142Y-24378425D01*
X-18433996Y-24372483D01*
X-18415000Y-24367671D01*
X-18428817Y-24322467D01*
X-18465863Y-24216177D01*
X-18519527Y-24066951D01*
X-18583200Y-23892936D01*
X-18650272Y-23712284D01*
X-18714134Y-23543142D01*
X-18736665Y-23484417D01*
X-18784792Y-23370184D01*
X-18823227Y-23297409D01*
X-18836881Y-23283499D01*
X-18858551Y-23320279D01*
X-18902733Y-23418713D01*
X-18962371Y-23561122D01*
X-19030409Y-23729823D01*
X-19099791Y-23907137D01*
X-19163459Y-24075381D01*
X-19214359Y-24216876D01*
X-19238064Y-24288750D01*
X-19248381Y-24331850D01*
X-19535592Y-24331850D01*
X-19430493Y-24064140D01*
X-19325018Y-23800376D01*
X-19247061Y-23611701D01*
X-19195735Y-23495942D01*
X-19180549Y-23466088D01*
X-19145010Y-23391912D01*
X-19088958Y-23263419D01*
X-19022974Y-23105040D01*
X-19005166Y-23061160D01*
X-18924460Y-22871013D01*
X-18864320Y-22755518D01*
X-18819918Y-22708559D01*
X-18786427Y-22724018D01*
X-18786427Y-22724018D01*
G37*
X-18786427Y-22724018D02*
X-18769092Y-22762067D01*
X-18739545Y-22839201D01*
X-18684973Y-22974115D01*
X-18613740Y-23146787D01*
X-18534207Y-23337192D01*
X-18454739Y-23525306D01*
X-18383698Y-23691104D01*
X-18330376Y-23812500D01*
X-18285263Y-23917979D01*
X-18218566Y-24080371D01*
X-18139237Y-24277622D01*
X-18056232Y-24487679D01*
X-18055389Y-24489834D01*
X-17975816Y-24689593D01*
X-17902760Y-24866564D01*
X-17843920Y-25002515D01*
X-17806994Y-25079221D01*
X-17805067Y-25082500D01*
X-17764433Y-25165395D01*
X-17709091Y-25298378D01*
X-17655946Y-25439241D01*
X-17605705Y-25584138D01*
X-17583897Y-25671059D01*
X-17589093Y-25721256D01*
X-17619864Y-25755980D01*
X-17633938Y-25766607D01*
X-17723502Y-25793718D01*
X-17799373Y-25741122D01*
X-17846461Y-25639594D01*
X-17875894Y-25562856D01*
X-17932521Y-25431586D01*
X-18006805Y-25267532D01*
X-18053638Y-25167167D01*
X-18134107Y-24993541D01*
X-18202795Y-24839682D01*
X-18250002Y-24727601D01*
X-18263557Y-24690917D01*
X-18279599Y-24651875D01*
X-18308165Y-24625281D01*
X-18363655Y-24608750D01*
X-18460467Y-24599894D01*
X-18612999Y-24596329D01*
X-18835651Y-24595667D01*
X-18838333Y-24595667D01*
X-19061740Y-24596304D01*
X-19214837Y-24599805D01*
X-19311980Y-24608555D01*
X-19367526Y-24624942D01*
X-19395831Y-24651350D01*
X-19411250Y-24690166D01*
X-19411475Y-24690917D01*
X-19443911Y-24778766D01*
X-19499757Y-24911962D01*
X-19557125Y-25040167D01*
X-19640908Y-25227295D01*
X-19729298Y-25432944D01*
X-19776892Y-25547975D01*
X-19853466Y-25710187D01*
X-19924878Y-25796038D01*
X-19999669Y-25812719D01*
X-20059947Y-25786232D01*
X-20089672Y-25753257D01*
X-20094440Y-25698154D01*
X-20070827Y-25607321D01*
X-20015412Y-25467158D01*
X-19933207Y-25282523D01*
X-19872683Y-25147111D01*
X-19829235Y-25044625D01*
X-19812016Y-24996678D01*
X-19812000Y-24996312D01*
X-19795819Y-24948933D01*
X-19754823Y-24852413D01*
X-19729471Y-24796289D01*
X-19662424Y-24643878D01*
X-19590239Y-24470231D01*
X-19564375Y-24405167D01*
X-19535592Y-24331850D01*
X-19248381Y-24331850D01*
X-19237789Y-24359478D01*
X-19191957Y-24375075D01*
X-19096552Y-24382079D01*
X-18937243Y-24383931D01*
X-18841186Y-24384000D01*
X-18662826Y-24382492D01*
X-18521142Y-24378425D01*
X-18433996Y-24372483D01*
X-18415000Y-24367671D01*
X-18428817Y-24322467D01*
X-18465863Y-24216177D01*
X-18519527Y-24066951D01*
X-18583200Y-23892936D01*
X-18650272Y-23712284D01*
X-18714134Y-23543142D01*
X-18736665Y-23484417D01*
X-18784792Y-23370184D01*
X-18823227Y-23297409D01*
X-18836881Y-23283499D01*
X-18858551Y-23320279D01*
X-18902733Y-23418713D01*
X-18962371Y-23561122D01*
X-19030409Y-23729823D01*
X-19099791Y-23907137D01*
X-19163459Y-24075381D01*
X-19214359Y-24216876D01*
X-19238064Y-24288750D01*
X-19248381Y-24331850D01*
X-19535592Y-24331850D01*
X-19430493Y-24064140D01*
X-19325018Y-23800376D01*
X-19247061Y-23611701D01*
X-19195735Y-23495942D01*
X-19180549Y-23466088D01*
X-19145010Y-23391912D01*
X-19088958Y-23263419D01*
X-19022974Y-23105040D01*
X-19005166Y-23061160D01*
X-18924460Y-22871013D01*
X-18864320Y-22755518D01*
X-18819918Y-22708559D01*
X-18786427Y-22724018D01*
G36*
X-24486243Y-22877657D02*
X-24408629Y-23047372D01*
X-24329778Y-23235621D01*
X-24300674Y-23310634D01*
X-24246030Y-23449540D01*
X-24196192Y-23564404D01*
X-24173021Y-23610476D01*
X-24132864Y-23692482D01*
X-24071341Y-23832891D01*
X-23997012Y-24010905D01*
X-23918436Y-24205725D01*
X-23844172Y-24396552D01*
X-23793690Y-24532167D01*
X-23729953Y-24697455D01*
X-23652540Y-24883662D01*
X-23611565Y-24976667D01*
X-23533203Y-25151673D01*
X-23446077Y-25349371D01*
X-23396654Y-25463071D01*
X-23287295Y-25716642D01*
X-23380440Y-25766491D01*
X-23484693Y-25789566D01*
X-23562753Y-25732522D01*
X-23603835Y-25639594D01*
X-23635732Y-25554024D01*
X-23691342Y-25422636D01*
X-23749306Y-25294167D01*
X-23830651Y-25115814D01*
X-23914448Y-24927004D01*
X-23961545Y-24817917D01*
X-24055759Y-24595667D01*
X-25108351Y-24595667D01*
X-25214044Y-24839084D01*
X-25281550Y-24992872D01*
X-25345109Y-25134908D01*
X-25379348Y-25209500D01*
X-25429156Y-25318778D01*
X-25495254Y-25467757D01*
X-25544150Y-25579917D01*
X-25617291Y-25728527D01*
X-25682259Y-25804118D01*
X-25751317Y-25815833D01*
X-25818802Y-25784696D01*
X-25841150Y-25753483D01*
X-25838063Y-25693164D01*
X-25806025Y-25589328D01*
X-25741524Y-25427566D01*
X-25718302Y-25372594D01*
X-25644920Y-25198089D01*
X-25550187Y-24969803D01*
X-25444320Y-24712518D01*
X-25337538Y-24451012D01*
X-25293168Y-24341667D01*
X-25292482Y-24339980D01*
X-25019000Y-24339980D01*
X-24978151Y-24361509D01*
X-24861134Y-24376287D01*
X-24676240Y-24383451D01*
X-24595666Y-24384000D01*
X-24417971Y-24380364D01*
X-24277002Y-24370558D01*
X-24190679Y-24356240D01*
X-24172333Y-24344865D01*
X-24187169Y-24289516D01*
X-24226551Y-24177441D01*
X-24282793Y-24030203D01*
X-24299333Y-23988563D01*
X-24358682Y-23836041D01*
X-24403206Y-23713414D01*
X-24425236Y-23642066D01*
X-24426333Y-23634482D01*
X-24444141Y-23576224D01*
X-24488513Y-23476424D01*
X-24504951Y-23443365D01*
X-24583569Y-23289160D01*
X-24669606Y-23466164D01*
X-24737574Y-23620414D01*
X-24797784Y-23780011D01*
X-24808383Y-23812500D01*
X-24865259Y-23969363D01*
X-24933446Y-24125519D01*
X-24940062Y-24138897D01*
X-24989795Y-24247750D01*
X-25017163Y-24326894D01*
X-25019000Y-24339980D01*
X-25292482Y-24339980D01*
X-25124188Y-23926641D01*
X-24977943Y-23572872D01*
X-24846961Y-23262523D01*
X-24723769Y-22977755D01*
X-24681258Y-22881167D01*
X-24587696Y-22669500D01*
X-24486243Y-22877657D01*
X-24486243Y-22877657D01*
G37*
X-24486243Y-22877657D02*
X-24408629Y-23047372D01*
X-24329778Y-23235621D01*
X-24300674Y-23310634D01*
X-24246030Y-23449540D01*
X-24196192Y-23564404D01*
X-24173021Y-23610476D01*
X-24132864Y-23692482D01*
X-24071341Y-23832891D01*
X-23997012Y-24010905D01*
X-23918436Y-24205725D01*
X-23844172Y-24396552D01*
X-23793690Y-24532167D01*
X-23729953Y-24697455D01*
X-23652540Y-24883662D01*
X-23611565Y-24976667D01*
X-23533203Y-25151673D01*
X-23446077Y-25349371D01*
X-23396654Y-25463071D01*
X-23287295Y-25716642D01*
X-23380440Y-25766491D01*
X-23484693Y-25789566D01*
X-23562753Y-25732522D01*
X-23603835Y-25639594D01*
X-23635732Y-25554024D01*
X-23691342Y-25422636D01*
X-23749306Y-25294167D01*
X-23830651Y-25115814D01*
X-23914448Y-24927004D01*
X-23961545Y-24817917D01*
X-24055759Y-24595667D01*
X-25108351Y-24595667D01*
X-25214044Y-24839084D01*
X-25281550Y-24992872D01*
X-25345109Y-25134908D01*
X-25379348Y-25209500D01*
X-25429156Y-25318778D01*
X-25495254Y-25467757D01*
X-25544150Y-25579917D01*
X-25617291Y-25728527D01*
X-25682259Y-25804118D01*
X-25751317Y-25815833D01*
X-25818802Y-25784696D01*
X-25841150Y-25753483D01*
X-25838063Y-25693164D01*
X-25806025Y-25589328D01*
X-25741524Y-25427566D01*
X-25718302Y-25372594D01*
X-25644920Y-25198089D01*
X-25550187Y-24969803D01*
X-25444320Y-24712518D01*
X-25337538Y-24451012D01*
X-25293168Y-24341667D01*
X-25292482Y-24339980D01*
X-25019000Y-24339980D01*
X-24978151Y-24361509D01*
X-24861134Y-24376287D01*
X-24676240Y-24383451D01*
X-24595666Y-24384000D01*
X-24417971Y-24380364D01*
X-24277002Y-24370558D01*
X-24190679Y-24356240D01*
X-24172333Y-24344865D01*
X-24187169Y-24289516D01*
X-24226551Y-24177441D01*
X-24282793Y-24030203D01*
X-24299333Y-23988563D01*
X-24358682Y-23836041D01*
X-24403206Y-23713414D01*
X-24425236Y-23642066D01*
X-24426333Y-23634482D01*
X-24444141Y-23576224D01*
X-24488513Y-23476424D01*
X-24504951Y-23443365D01*
X-24583569Y-23289160D01*
X-24669606Y-23466164D01*
X-24737574Y-23620414D01*
X-24797784Y-23780011D01*
X-24808383Y-23812500D01*
X-24865259Y-23969363D01*
X-24933446Y-24125519D01*
X-24940062Y-24138897D01*
X-24989795Y-24247750D01*
X-25017163Y-24326894D01*
X-25019000Y-24339980D01*
X-25292482Y-24339980D01*
X-25124188Y-23926641D01*
X-24977943Y-23572872D01*
X-24846961Y-23262523D01*
X-24723769Y-22977755D01*
X-24681258Y-22881167D01*
X-24587696Y-22669500D01*
X-24486243Y-22877657D01*
G36*
X-28523245Y-23251584D02*
X-28511500Y-23854834D01*
X-26881666Y-23877828D01*
X-26881666Y-23601748D01*
X-26877451Y-23447111D01*
X-26862386Y-23361046D01*
X-26832838Y-23327766D01*
X-26818166Y-23325667D01*
X-26799633Y-23334861D01*
X-26785019Y-23368213D01*
X-26773879Y-23434377D01*
X-26765767Y-23542007D01*
X-26760236Y-23699757D01*
X-26756840Y-23916282D01*
X-26755132Y-24200234D01*
X-26754666Y-24556861D01*
X-26755404Y-24925823D01*
X-26757828Y-25217431D01*
X-26762257Y-25438989D01*
X-26769010Y-25597800D01*
X-26778405Y-25701165D01*
X-26790760Y-25756388D01*
X-26806394Y-25770772D01*
X-26807583Y-25770451D01*
X-26827635Y-25740037D01*
X-26843359Y-25658474D01*
X-26855363Y-25517907D01*
X-26864258Y-25310476D01*
X-26870654Y-25028325D01*
X-26872000Y-24940512D01*
X-26883501Y-24128178D01*
X-27697500Y-24139673D01*
X-28511500Y-24151167D01*
X-28532666Y-24976141D01*
X-28540946Y-25265070D01*
X-28549608Y-25479928D01*
X-28559749Y-25631308D01*
X-28572466Y-25729803D01*
X-28588856Y-25786007D01*
X-28610017Y-25810511D01*
X-28619397Y-25813688D01*
X-28694661Y-25808420D01*
X-28714647Y-25796575D01*
X-28721399Y-25748877D01*
X-28727611Y-25626090D01*
X-28733106Y-25437792D01*
X-28737705Y-25193558D01*
X-28741228Y-24902966D01*
X-28743497Y-24575593D01*
X-28744332Y-24221016D01*
X-28744333Y-24207611D01*
X-28744333Y-22648334D01*
X-28534991Y-22648334D01*
X-28523245Y-23251584D01*
X-28523245Y-23251584D01*
G37*
X-28523245Y-23251584D02*
X-28511500Y-23854834D01*
X-26881666Y-23877828D01*
X-26881666Y-23601748D01*
X-26877451Y-23447111D01*
X-26862386Y-23361046D01*
X-26832838Y-23327766D01*
X-26818166Y-23325667D01*
X-26799633Y-23334861D01*
X-26785019Y-23368213D01*
X-26773879Y-23434377D01*
X-26765767Y-23542007D01*
X-26760236Y-23699757D01*
X-26756840Y-23916282D01*
X-26755132Y-24200234D01*
X-26754666Y-24556861D01*
X-26755404Y-24925823D01*
X-26757828Y-25217431D01*
X-26762257Y-25438989D01*
X-26769010Y-25597800D01*
X-26778405Y-25701165D01*
X-26790760Y-25756388D01*
X-26806394Y-25770772D01*
X-26807583Y-25770451D01*
X-26827635Y-25740037D01*
X-26843359Y-25658474D01*
X-26855363Y-25517907D01*
X-26864258Y-25310476D01*
X-26870654Y-25028325D01*
X-26872000Y-24940512D01*
X-26883501Y-24128178D01*
X-27697500Y-24139673D01*
X-28511500Y-24151167D01*
X-28532666Y-24976141D01*
X-28540946Y-25265070D01*
X-28549608Y-25479928D01*
X-28559749Y-25631308D01*
X-28572466Y-25729803D01*
X-28588856Y-25786007D01*
X-28610017Y-25810511D01*
X-28619397Y-25813688D01*
X-28694661Y-25808420D01*
X-28714647Y-25796575D01*
X-28721399Y-25748877D01*
X-28727611Y-25626090D01*
X-28733106Y-25437792D01*
X-28737705Y-25193558D01*
X-28741228Y-24902966D01*
X-28743497Y-24575593D01*
X-28744332Y-24221016D01*
X-28744333Y-24207611D01*
X-28744333Y-22648334D01*
X-28534991Y-22648334D01*
X-28523245Y-23251584D01*
G36*
X-22833566Y-22641581D02*
X-22767465Y-22717584D01*
X-22664519Y-22844165D01*
X-22522299Y-23024421D01*
X-22338375Y-23261450D01*
X-22110318Y-23558352D01*
X-21835697Y-23918225D01*
X-21643162Y-24171459D01*
X-21450694Y-24424908D01*
X-21302470Y-24619923D01*
X-21191461Y-24765446D01*
X-21110636Y-24870416D01*
X-21052965Y-24943776D01*
X-21011417Y-24994466D01*
X-20978963Y-25031426D01*
X-20948572Y-25063598D01*
X-20913215Y-25099924D01*
X-20912666Y-25100488D01*
X-20806833Y-25209500D01*
X-20785666Y-23960667D01*
X-20764500Y-22711834D01*
X-20552833Y-22711834D01*
X-20541727Y-24296694D01*
X-20540055Y-24655150D01*
X-20540122Y-24986897D01*
X-20541805Y-25282423D01*
X-20544978Y-25532219D01*
X-20549517Y-25726775D01*
X-20555297Y-25856581D01*
X-20562195Y-25912126D01*
X-20562893Y-25913186D01*
X-20599687Y-25894848D01*
X-20673335Y-25820241D01*
X-20771945Y-25702320D01*
X-20849166Y-25601332D01*
X-20966837Y-25444863D01*
X-21074888Y-25305883D01*
X-21157732Y-25204225D01*
X-21187833Y-25170444D01*
X-21237401Y-25111823D01*
X-21328975Y-24996428D01*
X-21453960Y-24835369D01*
X-21603765Y-24639758D01*
X-21769795Y-24420704D01*
X-21845012Y-24320771D01*
X-22017709Y-24092201D01*
X-22180165Y-23879722D01*
X-22323232Y-23695103D01*
X-22437763Y-23550110D01*
X-22514609Y-23456510D01*
X-22532929Y-23435902D01*
X-22648333Y-23313304D01*
X-22648333Y-25738667D01*
X-22902333Y-25738667D01*
X-22902333Y-24168806D01*
X-22901370Y-23804691D01*
X-22898618Y-23473478D01*
X-22894282Y-23183799D01*
X-22888569Y-22944287D01*
X-22881684Y-22763573D01*
X-22873833Y-22650289D01*
X-22865253Y-22613056D01*
X-22833566Y-22641581D01*
X-22833566Y-22641581D01*
G37*
X-22833566Y-22641581D02*
X-22767465Y-22717584D01*
X-22664519Y-22844165D01*
X-22522299Y-23024421D01*
X-22338375Y-23261450D01*
X-22110318Y-23558352D01*
X-21835697Y-23918225D01*
X-21643162Y-24171459D01*
X-21450694Y-24424908D01*
X-21302470Y-24619923D01*
X-21191461Y-24765446D01*
X-21110636Y-24870416D01*
X-21052965Y-24943776D01*
X-21011417Y-24994466D01*
X-20978963Y-25031426D01*
X-20948572Y-25063598D01*
X-20913215Y-25099924D01*
X-20912666Y-25100488D01*
X-20806833Y-25209500D01*
X-20785666Y-23960667D01*
X-20764500Y-22711834D01*
X-20552833Y-22711834D01*
X-20541727Y-24296694D01*
X-20540055Y-24655150D01*
X-20540122Y-24986897D01*
X-20541805Y-25282423D01*
X-20544978Y-25532219D01*
X-20549517Y-25726775D01*
X-20555297Y-25856581D01*
X-20562195Y-25912126D01*
X-20562893Y-25913186D01*
X-20599687Y-25894848D01*
X-20673335Y-25820241D01*
X-20771945Y-25702320D01*
X-20849166Y-25601332D01*
X-20966837Y-25444863D01*
X-21074888Y-25305883D01*
X-21157732Y-25204225D01*
X-21187833Y-25170444D01*
X-21237401Y-25111823D01*
X-21328975Y-24996428D01*
X-21453960Y-24835369D01*
X-21603765Y-24639758D01*
X-21769795Y-24420704D01*
X-21845012Y-24320771D01*
X-22017709Y-24092201D01*
X-22180165Y-23879722D01*
X-22323232Y-23695103D01*
X-22437763Y-23550110D01*
X-22514609Y-23456510D01*
X-22532929Y-23435902D01*
X-22648333Y-23313304D01*
X-22648333Y-25738667D01*
X-22902333Y-25738667D01*
X-22902333Y-24168806D01*
X-22901370Y-23804691D01*
X-22898618Y-23473478D01*
X-22894282Y-23183799D01*
X-22888569Y-22944287D01*
X-22881684Y-22763573D01*
X-22873833Y-22650289D01*
X-22865253Y-22613056D01*
X-22833566Y-22641581D01*
G36*
X-20034054Y-26376108D02*
X-19833670Y-26381553D01*
X-19599106Y-26390624D01*
X-19317277Y-26403445D01*
X-18975099Y-26420138D01*
X-18626666Y-26437483D01*
X-18284761Y-26457796D01*
X-17926060Y-26484945D01*
X-17562874Y-26517479D01*
X-17207511Y-26553947D01*
X-16872280Y-26592898D01*
X-16569490Y-26632883D01*
X-16311450Y-26672449D01*
X-16110470Y-26710147D01*
X-15978857Y-26744525D01*
X-15959666Y-26751821D01*
X-15929568Y-26765151D01*
X-15915202Y-26775104D01*
X-15924406Y-26781383D01*
X-15965018Y-26783689D01*
X-16044875Y-26781725D01*
X-16171815Y-26775194D01*
X-16353676Y-26763798D01*
X-16598295Y-26747240D01*
X-16913511Y-26725222D01*
X-17208500Y-26704414D01*
X-17471177Y-26689115D01*
X-17793584Y-26675432D01*
X-18150789Y-26664119D01*
X-18517860Y-26655932D01*
X-18869864Y-26651626D01*
X-18965333Y-26651211D01*
X-19288661Y-26650730D01*
X-19538750Y-26651562D01*
X-19727029Y-26654619D01*
X-19864924Y-26660814D01*
X-19963864Y-26671059D01*
X-20035276Y-26686266D01*
X-20090587Y-26707347D01*
X-20141224Y-26735214D01*
X-20159640Y-26746541D01*
X-20316780Y-26844249D01*
X-20437683Y-26754861D01*
X-20568773Y-26690452D01*
X-20743474Y-26647517D01*
X-20788986Y-26641694D01*
X-20904924Y-26636798D01*
X-21090219Y-26637382D01*
X-21329783Y-26642753D01*
X-21608533Y-26652218D01*
X-21911381Y-26665084D01*
X-22223243Y-26680657D01*
X-22529032Y-26698245D01*
X-22813664Y-26717153D01*
X-23062053Y-26736688D01*
X-23245240Y-26754579D01*
X-23443574Y-26775758D01*
X-23688753Y-26800387D01*
X-23943258Y-26824754D01*
X-24087666Y-26837957D01*
X-24630735Y-26894619D01*
X-25158926Y-26967894D01*
X-25283583Y-26987684D01*
X-25367336Y-26989969D01*
X-25400000Y-26969804D01*
X-25390268Y-26943903D01*
X-25353843Y-26919916D01*
X-25279877Y-26895006D01*
X-25157522Y-26866337D01*
X-24975933Y-26831072D01*
X-24724262Y-26786376D01*
X-24648418Y-26773275D01*
X-23940044Y-26661206D01*
X-23231219Y-26569793D01*
X-22498529Y-26496551D01*
X-21718556Y-26438992D01*
X-21251333Y-26412630D01*
X-20981246Y-26398925D01*
X-20755489Y-26388102D01*
X-20560975Y-26380285D01*
X-20384622Y-26375597D01*
X-20213343Y-26374164D01*
X-20034054Y-26376108D01*
X-20034054Y-26376108D01*
G37*
X-20034054Y-26376108D02*
X-19833670Y-26381553D01*
X-19599106Y-26390624D01*
X-19317277Y-26403445D01*
X-18975099Y-26420138D01*
X-18626666Y-26437483D01*
X-18284761Y-26457796D01*
X-17926060Y-26484945D01*
X-17562874Y-26517479D01*
X-17207511Y-26553947D01*
X-16872280Y-26592898D01*
X-16569490Y-26632883D01*
X-16311450Y-26672449D01*
X-16110470Y-26710147D01*
X-15978857Y-26744525D01*
X-15959666Y-26751821D01*
X-15929568Y-26765151D01*
X-15915202Y-26775104D01*
X-15924406Y-26781383D01*
X-15965018Y-26783689D01*
X-16044875Y-26781725D01*
X-16171815Y-26775194D01*
X-16353676Y-26763798D01*
X-16598295Y-26747240D01*
X-16913511Y-26725222D01*
X-17208500Y-26704414D01*
X-17471177Y-26689115D01*
X-17793584Y-26675432D01*
X-18150789Y-26664119D01*
X-18517860Y-26655932D01*
X-18869864Y-26651626D01*
X-18965333Y-26651211D01*
X-19288661Y-26650730D01*
X-19538750Y-26651562D01*
X-19727029Y-26654619D01*
X-19864924Y-26660814D01*
X-19963864Y-26671059D01*
X-20035276Y-26686266D01*
X-20090587Y-26707347D01*
X-20141224Y-26735214D01*
X-20159640Y-26746541D01*
X-20316780Y-26844249D01*
X-20437683Y-26754861D01*
X-20568773Y-26690452D01*
X-20743474Y-26647517D01*
X-20788986Y-26641694D01*
X-20904924Y-26636798D01*
X-21090219Y-26637382D01*
X-21329783Y-26642753D01*
X-21608533Y-26652218D01*
X-21911381Y-26665084D01*
X-22223243Y-26680657D01*
X-22529032Y-26698245D01*
X-22813664Y-26717153D01*
X-23062053Y-26736688D01*
X-23245240Y-26754579D01*
X-23443574Y-26775758D01*
X-23688753Y-26800387D01*
X-23943258Y-26824754D01*
X-24087666Y-26837957D01*
X-24630735Y-26894619D01*
X-25158926Y-26967894D01*
X-25283583Y-26987684D01*
X-25367336Y-26989969D01*
X-25400000Y-26969804D01*
X-25390268Y-26943903D01*
X-25353843Y-26919916D01*
X-25279877Y-26895006D01*
X-25157522Y-26866337D01*
X-24975933Y-26831072D01*
X-24724262Y-26786376D01*
X-24648418Y-26773275D01*
X-23940044Y-26661206D01*
X-23231219Y-26569793D01*
X-22498529Y-26496551D01*
X-21718556Y-26438992D01*
X-21251333Y-26412630D01*
X-20981246Y-26398925D01*
X-20755489Y-26388102D01*
X-20560975Y-26380285D01*
X-20384622Y-26375597D01*
X-20213343Y-26374164D01*
X-20034054Y-26376108D01*
G36*
X-25538465Y-26983090D02*
X-25551091Y-27002331D01*
X-25594028Y-27005325D01*
X-25639199Y-26994986D01*
X-25619604Y-26979748D01*
X-25553442Y-26974702D01*
X-25538465Y-26983090D01*
X-25538465Y-26983090D01*
G37*
X-25538465Y-26983090D02*
X-25551091Y-27002331D01*
X-25594028Y-27005325D01*
X-25639199Y-26994986D01*
X-25619604Y-26979748D01*
X-25553442Y-26974702D01*
X-25538465Y-26983090D01*
G36*
X-11320431Y-32000418D02*
X-11308155Y-32102396D01*
X-11303027Y-32246191D01*
X-11303000Y-32258000D01*
X-11306734Y-32419003D01*
X-11320162Y-32511150D01*
X-11346620Y-32550013D01*
X-11366500Y-32554334D01*
X-11409893Y-32527412D01*
X-11428423Y-32437374D01*
X-11430000Y-32378439D01*
X-11432611Y-32270284D01*
X-11447286Y-32232861D01*
X-11484286Y-32252255D01*
X-11507795Y-32272948D01*
X-11568717Y-32317548D01*
X-11616921Y-32303853D01*
X-11666545Y-32253380D01*
X-11747500Y-32163408D01*
X-11768666Y-32362876D01*
X-11786693Y-32471844D01*
X-11809230Y-32528827D01*
X-11821583Y-32530116D01*
X-11839467Y-32471318D01*
X-11849860Y-32359159D01*
X-11852576Y-32224320D01*
X-11847429Y-32097483D01*
X-11834232Y-32009328D01*
X-11824869Y-31989647D01*
X-11783323Y-32000911D01*
X-11712987Y-32063121D01*
X-11683703Y-32096180D01*
X-11571002Y-32231177D01*
X-11471373Y-32096422D01*
X-11400084Y-32010690D01*
X-11346157Y-31964340D01*
X-11337372Y-31961667D01*
X-11320431Y-32000418D01*
X-11320431Y-32000418D01*
G37*
X-11320431Y-32000418D02*
X-11308155Y-32102396D01*
X-11303027Y-32246191D01*
X-11303000Y-32258000D01*
X-11306734Y-32419003D01*
X-11320162Y-32511150D01*
X-11346620Y-32550013D01*
X-11366500Y-32554334D01*
X-11409893Y-32527412D01*
X-11428423Y-32437374D01*
X-11430000Y-32378439D01*
X-11432611Y-32270284D01*
X-11447286Y-32232861D01*
X-11484286Y-32252255D01*
X-11507795Y-32272948D01*
X-11568717Y-32317548D01*
X-11616921Y-32303853D01*
X-11666545Y-32253380D01*
X-11747500Y-32163408D01*
X-11768666Y-32362876D01*
X-11786693Y-32471844D01*
X-11809230Y-32528827D01*
X-11821583Y-32530116D01*
X-11839467Y-32471318D01*
X-11849860Y-32359159D01*
X-11852576Y-32224320D01*
X-11847429Y-32097483D01*
X-11834232Y-32009328D01*
X-11824869Y-31989647D01*
X-11783323Y-32000911D01*
X-11712987Y-32063121D01*
X-11683703Y-32096180D01*
X-11571002Y-32231177D01*
X-11471373Y-32096422D01*
X-11400084Y-32010690D01*
X-11346157Y-31964340D01*
X-11337372Y-31961667D01*
X-11320431Y-32000418D01*
G36*
X-12122069Y-32027541D02*
X-12081206Y-32103664D01*
X-12018943Y-32240620D01*
X-11931350Y-32446661D01*
X-11908565Y-32501417D01*
X-11901143Y-32551822D01*
X-11931077Y-32550866D01*
X-11977686Y-32508835D01*
X-12014964Y-32448500D01*
X-12084113Y-32364629D01*
X-12149807Y-32342667D01*
X-12235192Y-32381494D01*
X-12276666Y-32448500D01*
X-12308858Y-32509800D01*
X-12361545Y-32541500D01*
X-12459301Y-32553088D01*
X-12550785Y-32554334D01*
X-12784666Y-32554334D01*
X-12784666Y-32004000D01*
X-12583583Y-32010775D01*
X-12478016Y-32016065D01*
X-12453381Y-32022946D01*
X-12505944Y-32032819D01*
X-12520083Y-32034624D01*
X-12619727Y-32066200D01*
X-12656299Y-32115838D01*
X-12624346Y-32164066D01*
X-12562416Y-32185791D01*
X-12467166Y-32204137D01*
X-12562416Y-32209902D01*
X-12627673Y-32228235D01*
X-12654062Y-32288952D01*
X-12657666Y-32363834D01*
X-12650975Y-32463189D01*
X-12614372Y-32503939D01*
X-12523066Y-32511991D01*
X-12515871Y-32512000D01*
X-12436822Y-32506481D01*
X-12382941Y-32477864D01*
X-12336943Y-32408058D01*
X-12281541Y-32278971D01*
X-12273187Y-32258000D01*
X-12255131Y-32215667D01*
X-12170833Y-32215667D01*
X-12167477Y-32254676D01*
X-12152165Y-32258000D01*
X-12109056Y-32227270D01*
X-12107333Y-32215667D01*
X-12121777Y-32174434D01*
X-12126001Y-32173334D01*
X-12162144Y-32202998D01*
X-12170833Y-32215667D01*
X-12255131Y-32215667D01*
X-12217646Y-32127787D01*
X-12171273Y-32036175D01*
X-12145460Y-32004000D01*
X-12122069Y-32027541D01*
X-12122069Y-32027541D01*
G37*
X-12122069Y-32027541D02*
X-12081206Y-32103664D01*
X-12018943Y-32240620D01*
X-11931350Y-32446661D01*
X-11908565Y-32501417D01*
X-11901143Y-32551822D01*
X-11931077Y-32550866D01*
X-11977686Y-32508835D01*
X-12014964Y-32448500D01*
X-12084113Y-32364629D01*
X-12149807Y-32342667D01*
X-12235192Y-32381494D01*
X-12276666Y-32448500D01*
X-12308858Y-32509800D01*
X-12361545Y-32541500D01*
X-12459301Y-32553088D01*
X-12550785Y-32554334D01*
X-12784666Y-32554334D01*
X-12784666Y-32004000D01*
X-12583583Y-32010775D01*
X-12478016Y-32016065D01*
X-12453381Y-32022946D01*
X-12505944Y-32032819D01*
X-12520083Y-32034624D01*
X-12619727Y-32066200D01*
X-12656299Y-32115838D01*
X-12624346Y-32164066D01*
X-12562416Y-32185791D01*
X-12467166Y-32204137D01*
X-12562416Y-32209902D01*
X-12627673Y-32228235D01*
X-12654062Y-32288952D01*
X-12657666Y-32363834D01*
X-12650975Y-32463189D01*
X-12614372Y-32503939D01*
X-12523066Y-32511991D01*
X-12515871Y-32512000D01*
X-12436822Y-32506481D01*
X-12382941Y-32477864D01*
X-12336943Y-32408058D01*
X-12281541Y-32278971D01*
X-12273187Y-32258000D01*
X-12255131Y-32215667D01*
X-12170833Y-32215667D01*
X-12167477Y-32254676D01*
X-12152165Y-32258000D01*
X-12109056Y-32227270D01*
X-12107333Y-32215667D01*
X-12121777Y-32174434D01*
X-12126001Y-32173334D01*
X-12162144Y-32202998D01*
X-12170833Y-32215667D01*
X-12255131Y-32215667D01*
X-12217646Y-32127787D01*
X-12171273Y-32036175D01*
X-12145460Y-32004000D01*
X-12122069Y-32027541D01*
G36*
X-12965468Y-31850026D02*
X-12888022Y-31854863D01*
X-12880277Y-31861840D01*
X-12901083Y-31865291D01*
X-13038666Y-31882365D01*
X-13038666Y-32218349D01*
X-13041697Y-32391328D01*
X-13052685Y-32494863D01*
X-13074481Y-32544025D01*
X-13102166Y-32554334D01*
X-13134859Y-32538301D01*
X-13154427Y-32480159D01*
X-13163718Y-32364837D01*
X-13165666Y-32218349D01*
X-13165666Y-31882365D01*
X-13303250Y-31865291D01*
X-13328815Y-31857664D01*
X-13280167Y-31851794D01*
X-13167758Y-31848569D01*
X-13102166Y-31848217D01*
X-12965468Y-31850026D01*
X-12965468Y-31850026D01*
G37*
X-12965468Y-31850026D02*
X-12888022Y-31854863D01*
X-12880277Y-31861840D01*
X-12901083Y-31865291D01*
X-13038666Y-31882365D01*
X-13038666Y-32218349D01*
X-13041697Y-32391328D01*
X-13052685Y-32494863D01*
X-13074481Y-32544025D01*
X-13102166Y-32554334D01*
X-13134859Y-32538301D01*
X-13154427Y-32480159D01*
X-13163718Y-32364837D01*
X-13165666Y-32218349D01*
X-13165666Y-31882365D01*
X-13303250Y-31865291D01*
X-13328815Y-31857664D01*
X-13280167Y-31851794D01*
X-13167758Y-31848569D01*
X-13102166Y-31848217D01*
X-12965468Y-31850026D01*
G36*
X-13977306Y-32018958D02*
X-13918754Y-32024945D01*
X-13932551Y-32033402D01*
X-13938250Y-32034322D01*
X-14003087Y-32049262D01*
X-14037892Y-32083291D01*
X-14051979Y-32157917D01*
X-14054664Y-32294651D01*
X-14054666Y-32303145D01*
X-14061157Y-32437290D01*
X-14078079Y-32528112D01*
X-14097000Y-32554334D01*
X-14119607Y-32515820D01*
X-14134914Y-32415415D01*
X-14139333Y-32303145D01*
X-14141706Y-32162889D01*
X-14155033Y-32085773D01*
X-14188630Y-32050288D01*
X-14251813Y-32034922D01*
X-14255750Y-32034322D01*
X-14277281Y-32025689D01*
X-14225360Y-32019403D01*
X-14111192Y-32016710D01*
X-14097000Y-32016686D01*
X-13977306Y-32018958D01*
X-13977306Y-32018958D01*
G37*
X-13977306Y-32018958D02*
X-13918754Y-32024945D01*
X-13932551Y-32033402D01*
X-13938250Y-32034322D01*
X-14003087Y-32049262D01*
X-14037892Y-32083291D01*
X-14051979Y-32157917D01*
X-14054664Y-32294651D01*
X-14054666Y-32303145D01*
X-14061157Y-32437290D01*
X-14078079Y-32528112D01*
X-14097000Y-32554334D01*
X-14119607Y-32515820D01*
X-14134914Y-32415415D01*
X-14139333Y-32303145D01*
X-14141706Y-32162889D01*
X-14155033Y-32085773D01*
X-14188630Y-32050288D01*
X-14251813Y-32034922D01*
X-14255750Y-32034322D01*
X-14277281Y-32025689D01*
X-14225360Y-32019403D01*
X-14111192Y-32016710D01*
X-14097000Y-32016686D01*
X-13977306Y-32018958D01*
G36*
X-14552083Y-32010775D02*
X-14450339Y-32015825D01*
X-14428861Y-32021827D01*
X-14483264Y-32031252D01*
X-14509750Y-32034624D01*
X-14609394Y-32066200D01*
X-14645966Y-32115838D01*
X-14614012Y-32164066D01*
X-14552083Y-32185791D01*
X-14456833Y-32204137D01*
X-14552083Y-32209902D01*
X-14617781Y-32228599D01*
X-14644008Y-32290351D01*
X-14647333Y-32361278D01*
X-14640355Y-32457473D01*
X-14602721Y-32502264D01*
X-14509385Y-32521245D01*
X-14488583Y-32523495D01*
X-14402253Y-32533538D01*
X-14389867Y-32539709D01*
X-14455572Y-32544334D01*
X-14530916Y-32547217D01*
X-14732000Y-32554334D01*
X-14732000Y-32004000D01*
X-14552083Y-32010775D01*
X-14552083Y-32010775D01*
G37*
X-14552083Y-32010775D02*
X-14450339Y-32015825D01*
X-14428861Y-32021827D01*
X-14483264Y-32031252D01*
X-14509750Y-32034624D01*
X-14609394Y-32066200D01*
X-14645966Y-32115838D01*
X-14614012Y-32164066D01*
X-14552083Y-32185791D01*
X-14456833Y-32204137D01*
X-14552083Y-32209902D01*
X-14617781Y-32228599D01*
X-14644008Y-32290351D01*
X-14647333Y-32361278D01*
X-14640355Y-32457473D01*
X-14602721Y-32502264D01*
X-14509385Y-32521245D01*
X-14488583Y-32523495D01*
X-14402253Y-32533538D01*
X-14389867Y-32539709D01*
X-14455572Y-32544334D01*
X-14530916Y-32547217D01*
X-14732000Y-32554334D01*
X-14732000Y-32004000D01*
X-14552083Y-32010775D01*
G36*
X-15120376Y-32037887D02*
X-15113000Y-32067500D01*
X-15096273Y-32124166D01*
X-15042099Y-32111354D01*
X-14978490Y-32060704D01*
X-14910828Y-32016522D01*
X-14875022Y-32016200D01*
X-14886769Y-32057042D01*
X-14948124Y-32126216D01*
X-14970205Y-32146049D01*
X-15091180Y-32250107D01*
X-14944226Y-32378412D01*
X-14863644Y-32460120D01*
X-14826235Y-32521584D01*
X-14828578Y-32538022D01*
X-14875298Y-32531567D01*
X-14954098Y-32477453D01*
X-14982903Y-32451467D01*
X-15105924Y-32333606D01*
X-15120045Y-32430070D01*
X-15151732Y-32512998D01*
X-15187083Y-32543962D01*
X-15217325Y-32528616D01*
X-15234248Y-32450861D01*
X-15239963Y-32300274D01*
X-15240000Y-32282695D01*
X-15235853Y-32127226D01*
X-15221017Y-32040365D01*
X-15191902Y-32006349D01*
X-15176500Y-32004000D01*
X-15120376Y-32037887D01*
X-15120376Y-32037887D01*
G37*
X-15120376Y-32037887D02*
X-15113000Y-32067500D01*
X-15096273Y-32124166D01*
X-15042099Y-32111354D01*
X-14978490Y-32060704D01*
X-14910828Y-32016522D01*
X-14875022Y-32016200D01*
X-14886769Y-32057042D01*
X-14948124Y-32126216D01*
X-14970205Y-32146049D01*
X-15091180Y-32250107D01*
X-14944226Y-32378412D01*
X-14863644Y-32460120D01*
X-14826235Y-32521584D01*
X-14828578Y-32538022D01*
X-14875298Y-32531567D01*
X-14954098Y-32477453D01*
X-14982903Y-32451467D01*
X-15105924Y-32333606D01*
X-15120045Y-32430070D01*
X-15151732Y-32512998D01*
X-15187083Y-32543962D01*
X-15217325Y-32528616D01*
X-15234248Y-32450861D01*
X-15239963Y-32300274D01*
X-15240000Y-32282695D01*
X-15235853Y-32127226D01*
X-15221017Y-32040365D01*
X-15191902Y-32006349D01*
X-15176500Y-32004000D01*
X-15120376Y-32037887D01*
G36*
X-15413428Y-32013460D02*
X-15343965Y-32049602D01*
X-15342017Y-32052508D01*
X-15344297Y-32082498D01*
X-15416363Y-32074780D01*
X-15425054Y-32072650D01*
X-15560553Y-32071299D01*
X-15657818Y-32129365D01*
X-15706300Y-32226254D01*
X-15695455Y-32341370D01*
X-15618632Y-32450643D01*
X-15543215Y-32502572D01*
X-15475797Y-32492877D01*
X-15445176Y-32475438D01*
X-15364333Y-32441599D01*
X-15328212Y-32458882D01*
X-15344092Y-32509184D01*
X-15411176Y-32547078D01*
X-15520526Y-32549926D01*
X-15638277Y-32519724D01*
X-15696247Y-32488433D01*
X-15767123Y-32393075D01*
X-15791191Y-32262583D01*
X-15766013Y-32133937D01*
X-15723809Y-32070524D01*
X-15639331Y-32025619D01*
X-15523877Y-32006032D01*
X-15413428Y-32013460D01*
X-15413428Y-32013460D01*
G37*
X-15413428Y-32013460D02*
X-15343965Y-32049602D01*
X-15342017Y-32052508D01*
X-15344297Y-32082498D01*
X-15416363Y-32074780D01*
X-15425054Y-32072650D01*
X-15560553Y-32071299D01*
X-15657818Y-32129365D01*
X-15706300Y-32226254D01*
X-15695455Y-32341370D01*
X-15618632Y-32450643D01*
X-15543215Y-32502572D01*
X-15475797Y-32492877D01*
X-15445176Y-32475438D01*
X-15364333Y-32441599D01*
X-15328212Y-32458882D01*
X-15344092Y-32509184D01*
X-15411176Y-32547078D01*
X-15520526Y-32549926D01*
X-15638277Y-32519724D01*
X-15696247Y-32488433D01*
X-15767123Y-32393075D01*
X-15791191Y-32262583D01*
X-15766013Y-32133937D01*
X-15723809Y-32070524D01*
X-15639331Y-32025619D01*
X-15523877Y-32006032D01*
X-15413428Y-32013460D01*
G36*
X-16036160Y-32022564D02*
X-15941597Y-32090284D01*
X-15920406Y-32115543D01*
X-15847931Y-32232583D01*
X-15846347Y-32328461D01*
X-15916961Y-32430249D01*
X-15936576Y-32450424D01*
X-16066919Y-32533802D01*
X-16207500Y-32549593D01*
X-16333046Y-32496688D01*
X-16362328Y-32469121D01*
X-16423334Y-32350928D01*
X-16429938Y-32276367D01*
X-16343099Y-32276367D01*
X-16325853Y-32389574D01*
X-16266583Y-32466276D01*
X-16197363Y-32503221D01*
X-16149418Y-32501286D01*
X-16084854Y-32468697D01*
X-15997262Y-32394974D01*
X-15959147Y-32341697D01*
X-15938681Y-32232375D01*
X-15982656Y-32138030D01*
X-16070878Y-32076024D01*
X-16183155Y-32063722D01*
X-16254401Y-32087811D01*
X-16318889Y-32163587D01*
X-16343099Y-32276367D01*
X-16429938Y-32276367D01*
X-16435810Y-32210085D01*
X-16397474Y-32087046D01*
X-16384872Y-32069756D01*
X-16302851Y-32023262D01*
X-16175395Y-32004039D01*
X-16169222Y-32004000D01*
X-16036160Y-32022564D01*
X-16036160Y-32022564D01*
G37*
X-16036160Y-32022564D02*
X-15941597Y-32090284D01*
X-15920406Y-32115543D01*
X-15847931Y-32232583D01*
X-15846347Y-32328461D01*
X-15916961Y-32430249D01*
X-15936576Y-32450424D01*
X-16066919Y-32533802D01*
X-16207500Y-32549593D01*
X-16333046Y-32496688D01*
X-16362328Y-32469121D01*
X-16423334Y-32350928D01*
X-16429938Y-32276367D01*
X-16343099Y-32276367D01*
X-16325853Y-32389574D01*
X-16266583Y-32466276D01*
X-16197363Y-32503221D01*
X-16149418Y-32501286D01*
X-16084854Y-32468697D01*
X-15997262Y-32394974D01*
X-15959147Y-32341697D01*
X-15938681Y-32232375D01*
X-15982656Y-32138030D01*
X-16070878Y-32076024D01*
X-16183155Y-32063722D01*
X-16254401Y-32087811D01*
X-16318889Y-32163587D01*
X-16343099Y-32276367D01*
X-16429938Y-32276367D01*
X-16435810Y-32210085D01*
X-16397474Y-32087046D01*
X-16384872Y-32069756D01*
X-16302851Y-32023262D01*
X-16175395Y-32004039D01*
X-16169222Y-32004000D01*
X-16036160Y-32022564D01*
G36*
X-16696273Y-31847304D02*
X-16611737Y-31878418D01*
X-16603133Y-31885467D01*
X-16560731Y-31976976D01*
X-16557346Y-32096121D01*
X-16593021Y-32195516D01*
X-16602843Y-32206910D01*
X-16625075Y-32258405D01*
X-16594101Y-32334025D01*
X-16556781Y-32388037D01*
X-16493097Y-32491608D01*
X-16486770Y-32540926D01*
X-16527491Y-32532627D01*
X-16604950Y-32463344D01*
X-16644757Y-32416750D01*
X-16754020Y-32300167D01*
X-16831678Y-32261701D01*
X-16877408Y-32301369D01*
X-16891000Y-32406167D01*
X-16901633Y-32504101D01*
X-16927777Y-32553054D01*
X-16933333Y-32554334D01*
X-16953949Y-32514538D01*
X-16968549Y-32405085D01*
X-16975378Y-32240877D01*
X-16975666Y-32194500D01*
X-16975666Y-32046334D01*
X-16891000Y-32046334D01*
X-16885823Y-32156993D01*
X-16862401Y-32204281D01*
X-16808894Y-32209249D01*
X-16800073Y-32208028D01*
X-16704414Y-32164240D01*
X-16662706Y-32120417D01*
X-16643153Y-32023309D01*
X-16691174Y-31936354D01*
X-16791286Y-31886127D01*
X-16800073Y-31884639D01*
X-16857897Y-31886012D01*
X-16884244Y-31927229D01*
X-16890952Y-32029342D01*
X-16891000Y-32046334D01*
X-16975666Y-32046334D01*
X-16975666Y-31834667D01*
X-16814800Y-31834667D01*
X-16696273Y-31847304D01*
X-16696273Y-31847304D01*
G37*
X-16696273Y-31847304D02*
X-16611737Y-31878418D01*
X-16603133Y-31885467D01*
X-16560731Y-31976976D01*
X-16557346Y-32096121D01*
X-16593021Y-32195516D01*
X-16602843Y-32206910D01*
X-16625075Y-32258405D01*
X-16594101Y-32334025D01*
X-16556781Y-32388037D01*
X-16493097Y-32491608D01*
X-16486770Y-32540926D01*
X-16527491Y-32532627D01*
X-16604950Y-32463344D01*
X-16644757Y-32416750D01*
X-16754020Y-32300167D01*
X-16831678Y-32261701D01*
X-16877408Y-32301369D01*
X-16891000Y-32406167D01*
X-16901633Y-32504101D01*
X-16927777Y-32553054D01*
X-16933333Y-32554334D01*
X-16953949Y-32514538D01*
X-16968549Y-32405085D01*
X-16975378Y-32240877D01*
X-16975666Y-32194500D01*
X-16975666Y-32046334D01*
X-16891000Y-32046334D01*
X-16885823Y-32156993D01*
X-16862401Y-32204281D01*
X-16808894Y-32209249D01*
X-16800073Y-32208028D01*
X-16704414Y-32164240D01*
X-16662706Y-32120417D01*
X-16643153Y-32023309D01*
X-16691174Y-31936354D01*
X-16791286Y-31886127D01*
X-16800073Y-31884639D01*
X-16857897Y-31886012D01*
X-16884244Y-31927229D01*
X-16890952Y-32029342D01*
X-16891000Y-32046334D01*
X-16975666Y-32046334D01*
X-16975666Y-31834667D01*
X-16814800Y-31834667D01*
X-16696273Y-31847304D01*
G36*
X-17377471Y-32007076D02*
X-17420828Y-32104140D01*
X-17456029Y-32163083D01*
X-17524335Y-32291583D01*
X-17568940Y-32413105D01*
X-17575501Y-32446311D01*
X-17594907Y-32519206D01*
X-17621250Y-32530173D01*
X-17644210Y-32468334D01*
X-17654346Y-32367361D01*
X-17675447Y-32244848D01*
X-17717846Y-32154659D01*
X-17766757Y-32068674D01*
X-17780000Y-32017076D01*
X-17755290Y-31967545D01*
X-17711688Y-31971860D01*
X-17693987Y-32014584D01*
X-17669045Y-32088086D01*
X-17631821Y-32147850D01*
X-17585665Y-32199772D01*
X-17556758Y-32183926D01*
X-17529946Y-32120212D01*
X-17482646Y-32028801D01*
X-17441128Y-31982707D01*
X-17384056Y-31964404D01*
X-17377471Y-32007076D01*
X-17377471Y-32007076D01*
G37*
X-17377471Y-32007076D02*
X-17420828Y-32104140D01*
X-17456029Y-32163083D01*
X-17524335Y-32291583D01*
X-17568940Y-32413105D01*
X-17575501Y-32446311D01*
X-17594907Y-32519206D01*
X-17621250Y-32530173D01*
X-17644210Y-32468334D01*
X-17654346Y-32367361D01*
X-17675447Y-32244848D01*
X-17717846Y-32154659D01*
X-17766757Y-32068674D01*
X-17780000Y-32017076D01*
X-17755290Y-31967545D01*
X-17711688Y-31971860D01*
X-17693987Y-32014584D01*
X-17669045Y-32088086D01*
X-17631821Y-32147850D01*
X-17585665Y-32199772D01*
X-17556758Y-32183926D01*
X-17529946Y-32120212D01*
X-17482646Y-32028801D01*
X-17441128Y-31982707D01*
X-17384056Y-31964404D01*
X-17377471Y-32007076D01*
G36*
X-17998972Y-32018958D02*
X-17940421Y-32024945D01*
X-17954218Y-32033402D01*
X-17959916Y-32034322D01*
X-18024754Y-32049262D01*
X-18059558Y-32083291D01*
X-18073646Y-32157917D01*
X-18076331Y-32294651D01*
X-18076333Y-32303145D01*
X-18082824Y-32437290D01*
X-18099745Y-32528112D01*
X-18118666Y-32554334D01*
X-18141274Y-32515820D01*
X-18156581Y-32415415D01*
X-18161000Y-32303145D01*
X-18163372Y-32162889D01*
X-18176700Y-32085773D01*
X-18210297Y-32050288D01*
X-18273480Y-32034922D01*
X-18277416Y-32034322D01*
X-18298948Y-32025689D01*
X-18247026Y-32019403D01*
X-18132858Y-32016710D01*
X-18118666Y-32016686D01*
X-17998972Y-32018958D01*
X-17998972Y-32018958D01*
G37*
X-17998972Y-32018958D02*
X-17940421Y-32024945D01*
X-17954218Y-32033402D01*
X-17959916Y-32034322D01*
X-18024754Y-32049262D01*
X-18059558Y-32083291D01*
X-18073646Y-32157917D01*
X-18076331Y-32294651D01*
X-18076333Y-32303145D01*
X-18082824Y-32437290D01*
X-18099745Y-32528112D01*
X-18118666Y-32554334D01*
X-18141274Y-32515820D01*
X-18156581Y-32415415D01*
X-18161000Y-32303145D01*
X-18163372Y-32162889D01*
X-18176700Y-32085773D01*
X-18210297Y-32050288D01*
X-18273480Y-32034922D01*
X-18277416Y-32034322D01*
X-18298948Y-32025689D01*
X-18247026Y-32019403D01*
X-18132858Y-32016710D01*
X-18118666Y-32016686D01*
X-17998972Y-32018958D01*
G36*
X-18477545Y-32042879D02*
X-18462399Y-32145870D01*
X-18457333Y-32279167D01*
X-18458683Y-32434478D01*
X-18464900Y-32519351D01*
X-18479231Y-32547996D01*
X-18504925Y-32534626D01*
X-18513778Y-32526111D01*
X-18532128Y-32469123D01*
X-18540907Y-32363358D01*
X-18540860Y-32236461D01*
X-18532736Y-32116073D01*
X-18517280Y-32029838D01*
X-18499666Y-32004000D01*
X-18477545Y-32042879D01*
X-18477545Y-32042879D01*
G37*
X-18477545Y-32042879D02*
X-18462399Y-32145870D01*
X-18457333Y-32279167D01*
X-18458683Y-32434478D01*
X-18464900Y-32519351D01*
X-18479231Y-32547996D01*
X-18504925Y-32534626D01*
X-18513778Y-32526111D01*
X-18532128Y-32469123D01*
X-18540907Y-32363358D01*
X-18540860Y-32236461D01*
X-18532736Y-32116073D01*
X-18517280Y-32029838D01*
X-18499666Y-32004000D01*
X-18477545Y-32042879D01*
G36*
X-18638681Y-32025380D02*
X-18626666Y-32047140D01*
X-18660986Y-32072165D01*
X-18721916Y-32067885D01*
X-18820593Y-32065613D01*
X-18892415Y-32098235D01*
X-18912042Y-32151792D01*
X-18904758Y-32168600D01*
X-18842063Y-32208723D01*
X-18796525Y-32215667D01*
X-18708894Y-32243220D01*
X-18626371Y-32306781D01*
X-18584856Y-32377698D01*
X-18584333Y-32385000D01*
X-18611227Y-32440990D01*
X-18650857Y-32487810D01*
X-18724965Y-32528522D01*
X-18827565Y-32550256D01*
X-18927994Y-32551327D01*
X-18995586Y-32530052D01*
X-19007666Y-32507411D01*
X-18972625Y-32479431D01*
X-18897784Y-32488067D01*
X-18790194Y-32488830D01*
X-18703264Y-32447287D01*
X-18669000Y-32381027D01*
X-18705360Y-32347062D01*
X-18793825Y-32312828D01*
X-18803097Y-32310340D01*
X-18931258Y-32254621D01*
X-18993974Y-32177574D01*
X-18982757Y-32091495D01*
X-18968278Y-32071049D01*
X-18901851Y-32030851D01*
X-18803776Y-32008371D01*
X-18705553Y-32005812D01*
X-18638681Y-32025380D01*
X-18638681Y-32025380D01*
G37*
X-18638681Y-32025380D02*
X-18626666Y-32047140D01*
X-18660986Y-32072165D01*
X-18721916Y-32067885D01*
X-18820593Y-32065613D01*
X-18892415Y-32098235D01*
X-18912042Y-32151792D01*
X-18904758Y-32168600D01*
X-18842063Y-32208723D01*
X-18796525Y-32215667D01*
X-18708894Y-32243220D01*
X-18626371Y-32306781D01*
X-18584856Y-32377698D01*
X-18584333Y-32385000D01*
X-18611227Y-32440990D01*
X-18650857Y-32487810D01*
X-18724965Y-32528522D01*
X-18827565Y-32550256D01*
X-18927994Y-32551327D01*
X-18995586Y-32530052D01*
X-19007666Y-32507411D01*
X-18972625Y-32479431D01*
X-18897784Y-32488067D01*
X-18790194Y-32488830D01*
X-18703264Y-32447287D01*
X-18669000Y-32381027D01*
X-18705360Y-32347062D01*
X-18793825Y-32312828D01*
X-18803097Y-32310340D01*
X-18931258Y-32254621D01*
X-18993974Y-32177574D01*
X-18982757Y-32091495D01*
X-18968278Y-32071049D01*
X-18901851Y-32030851D01*
X-18803776Y-32008371D01*
X-18705553Y-32005812D01*
X-18638681Y-32025380D01*
G36*
X-19189526Y-32028208D02*
X-19116043Y-32096802D01*
X-19114953Y-32203738D01*
X-19130036Y-32243576D01*
X-19157848Y-32336664D01*
X-19129198Y-32408324D01*
X-19108297Y-32433082D01*
X-19063710Y-32501937D01*
X-19063778Y-32539889D01*
X-19104887Y-32529203D01*
X-19169654Y-32467082D01*
X-19179480Y-32454963D01*
X-19270278Y-32366676D01*
X-19341958Y-32347548D01*
X-19383106Y-32397932D01*
X-19388666Y-32448500D01*
X-19394710Y-32509113D01*
X-19426655Y-32540674D01*
X-19505218Y-32552600D01*
X-19621500Y-32554334D01*
X-19854333Y-32554334D01*
X-19854333Y-32004000D01*
X-19674416Y-32011117D01*
X-19494500Y-32018233D01*
X-19653250Y-32034839D01*
X-19764913Y-32063565D01*
X-19810713Y-32109120D01*
X-19786143Y-32155476D01*
X-19695583Y-32185345D01*
X-19579166Y-32202981D01*
X-19695583Y-32209324D01*
X-19774259Y-32223811D01*
X-19806383Y-32273102D01*
X-19812000Y-32363834D01*
X-19806873Y-32458699D01*
X-19775221Y-32500858D01*
X-19692633Y-32511669D01*
X-19642666Y-32512000D01*
X-19473333Y-32512000D01*
X-19473333Y-32152167D01*
X-19388666Y-32152167D01*
X-19375611Y-32233052D01*
X-19322383Y-32253194D01*
X-19293416Y-32250361D01*
X-19213775Y-32208306D01*
X-19198166Y-32152167D01*
X-19232754Y-32076462D01*
X-19293416Y-32053973D01*
X-19363957Y-32059267D01*
X-19387574Y-32118346D01*
X-19388666Y-32152167D01*
X-19473333Y-32152167D01*
X-19473333Y-32004000D01*
X-19330350Y-32004000D01*
X-19189526Y-32028208D01*
X-19189526Y-32028208D01*
G37*
X-19189526Y-32028208D02*
X-19116043Y-32096802D01*
X-19114953Y-32203738D01*
X-19130036Y-32243576D01*
X-19157848Y-32336664D01*
X-19129198Y-32408324D01*
X-19108297Y-32433082D01*
X-19063710Y-32501937D01*
X-19063778Y-32539889D01*
X-19104887Y-32529203D01*
X-19169654Y-32467082D01*
X-19179480Y-32454963D01*
X-19270278Y-32366676D01*
X-19341958Y-32347548D01*
X-19383106Y-32397932D01*
X-19388666Y-32448500D01*
X-19394710Y-32509113D01*
X-19426655Y-32540674D01*
X-19505218Y-32552600D01*
X-19621500Y-32554334D01*
X-19854333Y-32554334D01*
X-19854333Y-32004000D01*
X-19674416Y-32011117D01*
X-19494500Y-32018233D01*
X-19653250Y-32034839D01*
X-19764913Y-32063565D01*
X-19810713Y-32109120D01*
X-19786143Y-32155476D01*
X-19695583Y-32185345D01*
X-19579166Y-32202981D01*
X-19695583Y-32209324D01*
X-19774259Y-32223811D01*
X-19806383Y-32273102D01*
X-19812000Y-32363834D01*
X-19806873Y-32458699D01*
X-19775221Y-32500858D01*
X-19692633Y-32511669D01*
X-19642666Y-32512000D01*
X-19473333Y-32512000D01*
X-19473333Y-32152167D01*
X-19388666Y-32152167D01*
X-19375611Y-32233052D01*
X-19322383Y-32253194D01*
X-19293416Y-32250361D01*
X-19213775Y-32208306D01*
X-19198166Y-32152167D01*
X-19232754Y-32076462D01*
X-19293416Y-32053973D01*
X-19363957Y-32059267D01*
X-19387574Y-32118346D01*
X-19388666Y-32152167D01*
X-19473333Y-32152167D01*
X-19473333Y-32004000D01*
X-19330350Y-32004000D01*
X-19189526Y-32028208D01*
G36*
X-19897782Y-32016401D02*
X-19896666Y-32020051D01*
X-19914259Y-32073596D01*
X-19958563Y-32174418D01*
X-20016867Y-32296530D01*
X-20076459Y-32413949D01*
X-20124628Y-32500688D01*
X-20146374Y-32530514D01*
X-20178317Y-32505707D01*
X-20229215Y-32421053D01*
X-20281224Y-32310282D01*
X-20337391Y-32178312D01*
X-20380028Y-32078190D01*
X-20397611Y-32036959D01*
X-20381211Y-32004937D01*
X-20372290Y-32004000D01*
X-20332504Y-32039089D01*
X-20278672Y-32127448D01*
X-20256500Y-32173334D01*
X-20204876Y-32275975D01*
X-20164299Y-32336122D01*
X-20154224Y-32342667D01*
X-20123271Y-32307578D01*
X-20075798Y-32219220D01*
X-20054945Y-32173334D01*
X-20001368Y-32070113D01*
X-19953094Y-32010138D01*
X-19939126Y-32004000D01*
X-19897782Y-32016401D01*
X-19897782Y-32016401D01*
G37*
X-19897782Y-32016401D02*
X-19896666Y-32020051D01*
X-19914259Y-32073596D01*
X-19958563Y-32174418D01*
X-20016867Y-32296530D01*
X-20076459Y-32413949D01*
X-20124628Y-32500688D01*
X-20146374Y-32530514D01*
X-20178317Y-32505707D01*
X-20229215Y-32421053D01*
X-20281224Y-32310282D01*
X-20337391Y-32178312D01*
X-20380028Y-32078190D01*
X-20397611Y-32036959D01*
X-20381211Y-32004937D01*
X-20372290Y-32004000D01*
X-20332504Y-32039089D01*
X-20278672Y-32127448D01*
X-20256500Y-32173334D01*
X-20204876Y-32275975D01*
X-20164299Y-32336122D01*
X-20154224Y-32342667D01*
X-20123271Y-32307578D01*
X-20075798Y-32219220D01*
X-20054945Y-32173334D01*
X-20001368Y-32070113D01*
X-19953094Y-32010138D01*
X-19939126Y-32004000D01*
X-19897782Y-32016401D01*
G36*
X-20517215Y-32022370D02*
X-20497418Y-32088011D01*
X-20489798Y-32216718D01*
X-20489333Y-32279167D01*
X-20495592Y-32445771D01*
X-20515987Y-32534589D01*
X-20552945Y-32551688D01*
X-20588111Y-32526111D01*
X-20603350Y-32471514D01*
X-20613597Y-32359441D01*
X-20616333Y-32250945D01*
X-20611206Y-32105792D01*
X-20593087Y-32028869D01*
X-20557869Y-32004208D01*
X-20552833Y-32004000D01*
X-20517215Y-32022370D01*
X-20517215Y-32022370D01*
G37*
X-20517215Y-32022370D02*
X-20497418Y-32088011D01*
X-20489798Y-32216718D01*
X-20489333Y-32279167D01*
X-20495592Y-32445771D01*
X-20515987Y-32534589D01*
X-20552945Y-32551688D01*
X-20588111Y-32526111D01*
X-20603350Y-32471514D01*
X-20613597Y-32359441D01*
X-20616333Y-32250945D01*
X-20611206Y-32105792D01*
X-20593087Y-32028869D01*
X-20557869Y-32004208D01*
X-20552833Y-32004000D01*
X-20517215Y-32022370D01*
G36*
X-21094328Y-31994919D02*
X-21022008Y-32076252D01*
X-20955000Y-32161349D01*
X-20806833Y-32358414D01*
X-20793930Y-32160040D01*
X-20777806Y-32024299D01*
X-20755699Y-31966729D01*
X-20732522Y-31981543D01*
X-20713185Y-32062949D01*
X-20702598Y-32205157D01*
X-20701871Y-32268584D01*
X-20702741Y-32575500D01*
X-20890744Y-32363834D01*
X-21078747Y-32152167D01*
X-21080373Y-32353250D01*
X-21089316Y-32470494D01*
X-21110239Y-32542962D01*
X-21124333Y-32554334D01*
X-21146049Y-32515179D01*
X-21161055Y-32410236D01*
X-21166666Y-32258288D01*
X-21166666Y-32258000D01*
X-21162518Y-32112175D01*
X-21151601Y-32006802D01*
X-21136205Y-31963166D01*
X-21134916Y-31962976D01*
X-21094328Y-31994919D01*
X-21094328Y-31994919D01*
G37*
X-21094328Y-31994919D02*
X-21022008Y-32076252D01*
X-20955000Y-32161349D01*
X-20806833Y-32358414D01*
X-20793930Y-32160040D01*
X-20777806Y-32024299D01*
X-20755699Y-31966729D01*
X-20732522Y-31981543D01*
X-20713185Y-32062949D01*
X-20702598Y-32205157D01*
X-20701871Y-32268584D01*
X-20702741Y-32575500D01*
X-20890744Y-32363834D01*
X-21078747Y-32152167D01*
X-21080373Y-32353250D01*
X-21089316Y-32470494D01*
X-21110239Y-32542962D01*
X-21124333Y-32554334D01*
X-21146049Y-32515179D01*
X-21161055Y-32410236D01*
X-21166666Y-32258288D01*
X-21166666Y-32258000D01*
X-21162518Y-32112175D01*
X-21151601Y-32006802D01*
X-21136205Y-31963166D01*
X-21134916Y-31962976D01*
X-21094328Y-31994919D01*
G36*
X-21314239Y-31873792D02*
X-21299218Y-31978527D01*
X-21293666Y-32128600D01*
X-21297142Y-32289370D01*
X-21311589Y-32388675D01*
X-21343035Y-32449568D01*
X-21387753Y-32488433D01*
X-21491722Y-32539136D01*
X-21568833Y-32554334D01*
X-21669921Y-32530410D01*
X-21749914Y-32488433D01*
X-21800400Y-32442342D01*
X-21828937Y-32377667D01*
X-21841474Y-32271486D01*
X-21844000Y-32126101D01*
X-21838527Y-31964087D01*
X-21822884Y-31872429D01*
X-21801666Y-31855834D01*
X-21778749Y-31909260D01*
X-21763376Y-32020284D01*
X-21759333Y-32126937D01*
X-21751797Y-32284223D01*
X-21724600Y-32383862D01*
X-21674255Y-32448872D01*
X-21600507Y-32499657D01*
X-21528795Y-32491440D01*
X-21483755Y-32469447D01*
X-21427496Y-32431806D01*
X-21395786Y-32379593D01*
X-21381709Y-32290131D01*
X-21378346Y-32140748D01*
X-21378333Y-32123847D01*
X-21372614Y-31974584D01*
X-21357344Y-31871759D01*
X-21336000Y-31834667D01*
X-21314239Y-31873792D01*
X-21314239Y-31873792D01*
G37*
X-21314239Y-31873792D02*
X-21299218Y-31978527D01*
X-21293666Y-32128600D01*
X-21297142Y-32289370D01*
X-21311589Y-32388675D01*
X-21343035Y-32449568D01*
X-21387753Y-32488433D01*
X-21491722Y-32539136D01*
X-21568833Y-32554334D01*
X-21669921Y-32530410D01*
X-21749914Y-32488433D01*
X-21800400Y-32442342D01*
X-21828937Y-32377667D01*
X-21841474Y-32271486D01*
X-21844000Y-32126101D01*
X-21838527Y-31964087D01*
X-21822884Y-31872429D01*
X-21801666Y-31855834D01*
X-21778749Y-31909260D01*
X-21763376Y-32020284D01*
X-21759333Y-32126937D01*
X-21751797Y-32284223D01*
X-21724600Y-32383862D01*
X-21674255Y-32448872D01*
X-21600507Y-32499657D01*
X-21528795Y-32491440D01*
X-21483755Y-32469447D01*
X-21427496Y-32431806D01*
X-21395786Y-32379593D01*
X-21381709Y-32290131D01*
X-21378346Y-32140748D01*
X-21378333Y-32123847D01*
X-21372614Y-31974584D01*
X-21357344Y-31871759D01*
X-21336000Y-31834667D01*
X-21314239Y-31873792D01*
G36*
X-22541064Y-32042518D02*
X-22525759Y-32142953D01*
X-22521333Y-32255445D01*
X-22521333Y-32506889D01*
X-22362583Y-32523495D01*
X-22276253Y-32533538D01*
X-22263867Y-32539709D01*
X-22329572Y-32544334D01*
X-22404916Y-32547217D01*
X-22606000Y-32554334D01*
X-22606000Y-32279167D01*
X-22600018Y-32135376D01*
X-22584174Y-32036929D01*
X-22563666Y-32004000D01*
X-22541064Y-32042518D01*
X-22541064Y-32042518D01*
G37*
X-22541064Y-32042518D02*
X-22525759Y-32142953D01*
X-22521333Y-32255445D01*
X-22521333Y-32506889D01*
X-22362583Y-32523495D01*
X-22276253Y-32533538D01*
X-22263867Y-32539709D01*
X-22329572Y-32544334D01*
X-22404916Y-32547217D01*
X-22606000Y-32554334D01*
X-22606000Y-32279167D01*
X-22600018Y-32135376D01*
X-22584174Y-32036929D01*
X-22563666Y-32004000D01*
X-22541064Y-32042518D01*
G36*
X-22913847Y-32039003D02*
X-22866627Y-32127674D01*
X-22809335Y-32245761D01*
X-22753351Y-32368949D01*
X-22710056Y-32472924D01*
X-22690828Y-32533374D01*
X-22690666Y-32535957D01*
X-22710543Y-32560107D01*
X-22755477Y-32530060D01*
X-22803425Y-32461975D01*
X-22809964Y-32448500D01*
X-22863234Y-32384306D01*
X-22936853Y-32344830D01*
X-23001868Y-32339522D01*
X-23029333Y-32376909D01*
X-23048058Y-32430590D01*
X-23089717Y-32490392D01*
X-23132539Y-32530904D01*
X-23154749Y-32526712D01*
X-23154987Y-32523567D01*
X-23140948Y-32456643D01*
X-23103912Y-32348061D01*
X-23054425Y-32223260D01*
X-23051049Y-32215667D01*
X-22965833Y-32215667D01*
X-22962477Y-32254676D01*
X-22947165Y-32258000D01*
X-22904056Y-32227270D01*
X-22902333Y-32215667D01*
X-22916777Y-32174434D01*
X-22921001Y-32173334D01*
X-22957144Y-32202998D01*
X-22965833Y-32215667D01*
X-23051049Y-32215667D01*
X-23003031Y-32107680D01*
X-22960279Y-32026757D01*
X-22939617Y-32004059D01*
X-22913847Y-32039003D01*
X-22913847Y-32039003D01*
G37*
X-22913847Y-32039003D02*
X-22866627Y-32127674D01*
X-22809335Y-32245761D01*
X-22753351Y-32368949D01*
X-22710056Y-32472924D01*
X-22690828Y-32533374D01*
X-22690666Y-32535957D01*
X-22710543Y-32560107D01*
X-22755477Y-32530060D01*
X-22803425Y-32461975D01*
X-22809964Y-32448500D01*
X-22863234Y-32384306D01*
X-22936853Y-32344830D01*
X-23001868Y-32339522D01*
X-23029333Y-32376909D01*
X-23048058Y-32430590D01*
X-23089717Y-32490392D01*
X-23132539Y-32530904D01*
X-23154749Y-32526712D01*
X-23154987Y-32523567D01*
X-23140948Y-32456643D01*
X-23103912Y-32348061D01*
X-23054425Y-32223260D01*
X-23051049Y-32215667D01*
X-22965833Y-32215667D01*
X-22962477Y-32254676D01*
X-22947165Y-32258000D01*
X-22904056Y-32227270D01*
X-22902333Y-32215667D01*
X-22916777Y-32174434D01*
X-22921001Y-32173334D01*
X-22957144Y-32202998D01*
X-22965833Y-32215667D01*
X-23051049Y-32215667D01*
X-23003031Y-32107680D01*
X-22960279Y-32026757D01*
X-22939617Y-32004059D01*
X-22913847Y-32039003D01*
G36*
X-23514269Y-32151008D02*
X-23325666Y-32361515D01*
X-23325666Y-32159093D01*
X-23317950Y-32036985D01*
X-23296639Y-31982343D01*
X-23283333Y-31982834D01*
X-23262990Y-32032507D01*
X-23249088Y-32135126D01*
X-23242115Y-32264476D01*
X-23242557Y-32394342D01*
X-23250902Y-32498509D01*
X-23267635Y-32550765D01*
X-23272750Y-32552682D01*
X-23313111Y-32520412D01*
X-23385028Y-32438523D01*
X-23452666Y-32351599D01*
X-23600833Y-32152167D01*
X-23613736Y-32353250D01*
X-23629782Y-32490177D01*
X-23651790Y-32548884D01*
X-23674822Y-32535112D01*
X-23693938Y-32454605D01*
X-23704200Y-32313103D01*
X-23704769Y-32247417D01*
X-23702872Y-31940500D01*
X-23514269Y-32151008D01*
X-23514269Y-32151008D01*
G37*
X-23514269Y-32151008D02*
X-23325666Y-32361515D01*
X-23325666Y-32159093D01*
X-23317950Y-32036985D01*
X-23296639Y-31982343D01*
X-23283333Y-31982834D01*
X-23262990Y-32032507D01*
X-23249088Y-32135126D01*
X-23242115Y-32264476D01*
X-23242557Y-32394342D01*
X-23250902Y-32498509D01*
X-23267635Y-32550765D01*
X-23272750Y-32552682D01*
X-23313111Y-32520412D01*
X-23385028Y-32438523D01*
X-23452666Y-32351599D01*
X-23600833Y-32152167D01*
X-23613736Y-32353250D01*
X-23629782Y-32490177D01*
X-23651790Y-32548884D01*
X-23674822Y-32535112D01*
X-23693938Y-32454605D01*
X-23704200Y-32313103D01*
X-23704769Y-32247417D01*
X-23702872Y-31940500D01*
X-23514269Y-32151008D01*
G36*
X-23955214Y-32021952D02*
X-23861394Y-32081417D01*
X-23800377Y-32202453D01*
X-23806504Y-32333094D01*
X-23868778Y-32450355D01*
X-23976202Y-32531248D01*
X-24087666Y-32554334D01*
X-24200865Y-32525682D01*
X-24291351Y-32468018D01*
X-24371008Y-32344245D01*
X-24370488Y-32261024D01*
X-24299333Y-32261024D01*
X-24272376Y-32342510D01*
X-24209147Y-32432451D01*
X-24136112Y-32498005D01*
X-24097086Y-32512000D01*
X-24041102Y-32489957D01*
X-23970086Y-32446100D01*
X-23896247Y-32352562D01*
X-23883483Y-32239609D01*
X-23923948Y-32133915D01*
X-24009796Y-32062153D01*
X-24087666Y-32046334D01*
X-24194333Y-32083228D01*
X-24274911Y-32172518D01*
X-24299333Y-32261024D01*
X-24370488Y-32261024D01*
X-24370130Y-32203960D01*
X-24318099Y-32098086D01*
X-24222562Y-32027141D01*
X-24089850Y-32001334D01*
X-23955214Y-32021952D01*
X-23955214Y-32021952D01*
G37*
X-23955214Y-32021952D02*
X-23861394Y-32081417D01*
X-23800377Y-32202453D01*
X-23806504Y-32333094D01*
X-23868778Y-32450355D01*
X-23976202Y-32531248D01*
X-24087666Y-32554334D01*
X-24200865Y-32525682D01*
X-24291351Y-32468018D01*
X-24371008Y-32344245D01*
X-24370488Y-32261024D01*
X-24299333Y-32261024D01*
X-24272376Y-32342510D01*
X-24209147Y-32432451D01*
X-24136112Y-32498005D01*
X-24097086Y-32512000D01*
X-24041102Y-32489957D01*
X-23970086Y-32446100D01*
X-23896247Y-32352562D01*
X-23883483Y-32239609D01*
X-23923948Y-32133915D01*
X-24009796Y-32062153D01*
X-24087666Y-32046334D01*
X-24194333Y-32083228D01*
X-24274911Y-32172518D01*
X-24299333Y-32261024D01*
X-24370488Y-32261024D01*
X-24370130Y-32203960D01*
X-24318099Y-32098086D01*
X-24222562Y-32027141D01*
X-24089850Y-32001334D01*
X-23955214Y-32021952D01*
G36*
X-24531211Y-32042879D02*
X-24516066Y-32145870D01*
X-24511000Y-32279167D01*
X-24512350Y-32434478D01*
X-24518566Y-32519351D01*
X-24532897Y-32547996D01*
X-24558592Y-32534626D01*
X-24567444Y-32526111D01*
X-24585795Y-32469123D01*
X-24594574Y-32363358D01*
X-24594527Y-32236461D01*
X-24586402Y-32116073D01*
X-24570947Y-32029838D01*
X-24553333Y-32004000D01*
X-24531211Y-32042879D01*
X-24531211Y-32042879D01*
G37*
X-24531211Y-32042879D02*
X-24516066Y-32145870D01*
X-24511000Y-32279167D01*
X-24512350Y-32434478D01*
X-24518566Y-32519351D01*
X-24532897Y-32547996D01*
X-24558592Y-32534626D01*
X-24567444Y-32526111D01*
X-24585795Y-32469123D01*
X-24594574Y-32363358D01*
X-24594527Y-32236461D01*
X-24586402Y-32116073D01*
X-24570947Y-32029838D01*
X-24553333Y-32004000D01*
X-24531211Y-32042879D01*
G36*
X-24754833Y-32018105D02*
X-24698327Y-32024843D01*
X-24712083Y-32033876D01*
X-24765561Y-32052629D01*
X-24794214Y-32096772D01*
X-24805593Y-32187656D01*
X-24807333Y-32303278D01*
X-24814473Y-32461624D01*
X-24837421Y-32541556D01*
X-24878466Y-32548241D01*
X-24906111Y-32526111D01*
X-24922058Y-32470918D01*
X-24932290Y-32360125D01*
X-24934333Y-32275056D01*
X-24938528Y-32143014D01*
X-24957093Y-32072753D01*
X-24998999Y-32041556D01*
X-25029583Y-32033876D01*
X-25042444Y-32024532D01*
X-24983470Y-32017924D01*
X-24870833Y-32015530D01*
X-24754833Y-32018105D01*
X-24754833Y-32018105D01*
G37*
X-24754833Y-32018105D02*
X-24698327Y-32024843D01*
X-24712083Y-32033876D01*
X-24765561Y-32052629D01*
X-24794214Y-32096772D01*
X-24805593Y-32187656D01*
X-24807333Y-32303278D01*
X-24814473Y-32461624D01*
X-24837421Y-32541556D01*
X-24878466Y-32548241D01*
X-24906111Y-32526111D01*
X-24922058Y-32470918D01*
X-24932290Y-32360125D01*
X-24934333Y-32275056D01*
X-24938528Y-32143014D01*
X-24957093Y-32072753D01*
X-24998999Y-32041556D01*
X-25029583Y-32033876D01*
X-25042444Y-32024532D01*
X-24983470Y-32017924D01*
X-24870833Y-32015530D01*
X-24754833Y-32018105D01*
G36*
X-25270038Y-32039076D02*
X-25222199Y-32127631D01*
X-25165828Y-32244655D01*
X-25112537Y-32365140D01*
X-25073935Y-32464077D01*
X-25061333Y-32513255D01*
X-25079894Y-32556205D01*
X-25120554Y-32540518D01*
X-25160784Y-32479502D01*
X-25170949Y-32448500D01*
X-25220544Y-32362700D01*
X-25294166Y-32342667D01*
X-25380237Y-32373392D01*
X-25417384Y-32448500D01*
X-25451836Y-32522776D01*
X-25494952Y-32556562D01*
X-25524202Y-32536559D01*
X-25527000Y-32513207D01*
X-25511139Y-32452893D01*
X-25471113Y-32349246D01*
X-25418259Y-32227443D01*
X-25412684Y-32215667D01*
X-25336500Y-32215667D01*
X-25333143Y-32254676D01*
X-25317832Y-32258000D01*
X-25274723Y-32227270D01*
X-25273000Y-32215667D01*
X-25287443Y-32174434D01*
X-25291668Y-32173334D01*
X-25327811Y-32202998D01*
X-25336500Y-32215667D01*
X-25412684Y-32215667D01*
X-25363910Y-32112661D01*
X-25319403Y-32030077D01*
X-25297737Y-32004000D01*
X-25270038Y-32039076D01*
X-25270038Y-32039076D01*
G37*
X-25270038Y-32039076D02*
X-25222199Y-32127631D01*
X-25165828Y-32244655D01*
X-25112537Y-32365140D01*
X-25073935Y-32464077D01*
X-25061333Y-32513255D01*
X-25079894Y-32556205D01*
X-25120554Y-32540518D01*
X-25160784Y-32479502D01*
X-25170949Y-32448500D01*
X-25220544Y-32362700D01*
X-25294166Y-32342667D01*
X-25380237Y-32373392D01*
X-25417384Y-32448500D01*
X-25451836Y-32522776D01*
X-25494952Y-32556562D01*
X-25524202Y-32536559D01*
X-25527000Y-32513207D01*
X-25511139Y-32452893D01*
X-25471113Y-32349246D01*
X-25418259Y-32227443D01*
X-25412684Y-32215667D01*
X-25336500Y-32215667D01*
X-25333143Y-32254676D01*
X-25317832Y-32258000D01*
X-25274723Y-32227270D01*
X-25273000Y-32215667D01*
X-25287443Y-32174434D01*
X-25291668Y-32173334D01*
X-25327811Y-32202998D01*
X-25336500Y-32215667D01*
X-25412684Y-32215667D01*
X-25363910Y-32112661D01*
X-25319403Y-32030077D01*
X-25297737Y-32004000D01*
X-25270038Y-32039076D01*
G36*
X-26859064Y-32042518D02*
X-26843759Y-32142953D01*
X-26839333Y-32255445D01*
X-26839333Y-32506889D01*
X-26680583Y-32523495D01*
X-26594253Y-32533538D01*
X-26581867Y-32539709D01*
X-26647572Y-32544334D01*
X-26722916Y-32547217D01*
X-26924000Y-32554334D01*
X-26924000Y-32279167D01*
X-26918018Y-32135376D01*
X-26902174Y-32036929D01*
X-26881666Y-32004000D01*
X-26859064Y-32042518D01*
X-26859064Y-32042518D01*
G37*
X-26859064Y-32042518D02*
X-26843759Y-32142953D01*
X-26839333Y-32255445D01*
X-26839333Y-32506889D01*
X-26680583Y-32523495D01*
X-26594253Y-32533538D01*
X-26581867Y-32539709D01*
X-26647572Y-32544334D01*
X-26722916Y-32547217D01*
X-26924000Y-32554334D01*
X-26924000Y-32279167D01*
X-26918018Y-32135376D01*
X-26902174Y-32036929D01*
X-26881666Y-32004000D01*
X-26859064Y-32042518D01*
G36*
X-27068773Y-32018100D02*
X-27053289Y-32073418D01*
X-27058140Y-32189479D01*
X-27060431Y-32214262D01*
X-27082770Y-32350790D01*
X-27116483Y-32458196D01*
X-27134501Y-32489429D01*
X-27230192Y-32546399D01*
X-27350700Y-32547768D01*
X-27459691Y-32496494D01*
X-27493099Y-32460247D01*
X-27529484Y-32374468D01*
X-27551737Y-32258290D01*
X-27558431Y-32139398D01*
X-27548134Y-32045474D01*
X-27519416Y-32004202D01*
X-27516666Y-32004000D01*
X-27491250Y-32041800D01*
X-27476148Y-32137279D01*
X-27474333Y-32191476D01*
X-27454419Y-32343125D01*
X-27401570Y-32450900D01*
X-27326123Y-32499158D01*
X-27274912Y-32493268D01*
X-27210041Y-32472146D01*
X-27195704Y-32469667D01*
X-27186006Y-32431366D01*
X-27179575Y-32332573D01*
X-27178000Y-32236834D01*
X-27173044Y-32098975D01*
X-27154642Y-32027469D01*
X-27117491Y-32004395D01*
X-27109114Y-32004000D01*
X-27068773Y-32018100D01*
X-27068773Y-32018100D01*
G37*
X-27068773Y-32018100D02*
X-27053289Y-32073418D01*
X-27058140Y-32189479D01*
X-27060431Y-32214262D01*
X-27082770Y-32350790D01*
X-27116483Y-32458196D01*
X-27134501Y-32489429D01*
X-27230192Y-32546399D01*
X-27350700Y-32547768D01*
X-27459691Y-32496494D01*
X-27493099Y-32460247D01*
X-27529484Y-32374468D01*
X-27551737Y-32258290D01*
X-27558431Y-32139398D01*
X-27548134Y-32045474D01*
X-27519416Y-32004202D01*
X-27516666Y-32004000D01*
X-27491250Y-32041800D01*
X-27476148Y-32137279D01*
X-27474333Y-32191476D01*
X-27454419Y-32343125D01*
X-27401570Y-32450900D01*
X-27326123Y-32499158D01*
X-27274912Y-32493268D01*
X-27210041Y-32472146D01*
X-27195704Y-32469667D01*
X-27186006Y-32431366D01*
X-27179575Y-32332573D01*
X-27178000Y-32236834D01*
X-27173044Y-32098975D01*
X-27154642Y-32027469D01*
X-27117491Y-32004395D01*
X-27109114Y-32004000D01*
X-27068773Y-32018100D01*
G36*
X-27784926Y-32035280D02*
X-27682118Y-32124355D01*
X-27643750Y-32264082D01*
X-27643666Y-32271917D01*
X-27678889Y-32407641D01*
X-27769438Y-32502092D01*
X-27892634Y-32546914D01*
X-28025797Y-32533752D01*
X-28144287Y-32456355D01*
X-28222407Y-32324996D01*
X-28224333Y-32261024D01*
X-28151666Y-32261024D01*
X-28124709Y-32342510D01*
X-28061480Y-32432451D01*
X-27988446Y-32498005D01*
X-27949419Y-32512000D01*
X-27893435Y-32489957D01*
X-27822419Y-32446100D01*
X-27748580Y-32352562D01*
X-27735816Y-32239609D01*
X-27776281Y-32133915D01*
X-27862130Y-32062153D01*
X-27940000Y-32046334D01*
X-28046666Y-32083228D01*
X-28127244Y-32172518D01*
X-28151666Y-32261024D01*
X-28224333Y-32261024D01*
X-28226316Y-32195208D01*
X-28164579Y-32086354D01*
X-28045762Y-32017792D01*
X-27944161Y-32004000D01*
X-27784926Y-32035280D01*
X-27784926Y-32035280D01*
G37*
X-27784926Y-32035280D02*
X-27682118Y-32124355D01*
X-27643750Y-32264082D01*
X-27643666Y-32271917D01*
X-27678889Y-32407641D01*
X-27769438Y-32502092D01*
X-27892634Y-32546914D01*
X-28025797Y-32533752D01*
X-28144287Y-32456355D01*
X-28222407Y-32324996D01*
X-28224333Y-32261024D01*
X-28151666Y-32261024D01*
X-28124709Y-32342510D01*
X-28061480Y-32432451D01*
X-27988446Y-32498005D01*
X-27949419Y-32512000D01*
X-27893435Y-32489957D01*
X-27822419Y-32446100D01*
X-27748580Y-32352562D01*
X-27735816Y-32239609D01*
X-27776281Y-32133915D01*
X-27862130Y-32062153D01*
X-27940000Y-32046334D01*
X-28046666Y-32083228D01*
X-28127244Y-32172518D01*
X-28151666Y-32261024D01*
X-28224333Y-32261024D01*
X-28226316Y-32195208D01*
X-28164579Y-32086354D01*
X-28045762Y-32017792D01*
X-27944161Y-32004000D01*
X-27784926Y-32035280D01*
G36*
X-28437416Y-32010775D02*
X-28335672Y-32015825D01*
X-28314194Y-32021827D01*
X-28368598Y-32031252D01*
X-28395083Y-32034624D01*
X-28494727Y-32066200D01*
X-28531299Y-32115838D01*
X-28499346Y-32164066D01*
X-28437416Y-32185791D01*
X-28342166Y-32204137D01*
X-28437416Y-32209902D01*
X-28503114Y-32228599D01*
X-28529341Y-32290351D01*
X-28532666Y-32361278D01*
X-28525688Y-32457473D01*
X-28488054Y-32502264D01*
X-28394718Y-32521245D01*
X-28373916Y-32523495D01*
X-28287587Y-32533538D01*
X-28275200Y-32539709D01*
X-28340906Y-32544334D01*
X-28416250Y-32547217D01*
X-28617333Y-32554334D01*
X-28617333Y-32004000D01*
X-28437416Y-32010775D01*
X-28437416Y-32010775D01*
G37*
X-28437416Y-32010775D02*
X-28335672Y-32015825D01*
X-28314194Y-32021827D01*
X-28368598Y-32031252D01*
X-28395083Y-32034624D01*
X-28494727Y-32066200D01*
X-28531299Y-32115838D01*
X-28499346Y-32164066D01*
X-28437416Y-32185791D01*
X-28342166Y-32204137D01*
X-28437416Y-32209902D01*
X-28503114Y-32228599D01*
X-28529341Y-32290351D01*
X-28532666Y-32361278D01*
X-28525688Y-32457473D01*
X-28488054Y-32502264D01*
X-28394718Y-32521245D01*
X-28373916Y-32523495D01*
X-28287587Y-32533538D01*
X-28275200Y-32539709D01*
X-28340906Y-32544334D01*
X-28416250Y-32547217D01*
X-28617333Y-32554334D01*
X-28617333Y-32004000D01*
X-28437416Y-32010775D01*
G36*
X-28772476Y-31850291D02*
X-28744333Y-31880364D01*
X-28780101Y-31907293D01*
X-28861574Y-31900310D01*
X-28980100Y-31899546D01*
X-29069874Y-31942667D01*
X-29108690Y-32015101D01*
X-29101941Y-32058034D01*
X-29041690Y-32116856D01*
X-28982057Y-32131000D01*
X-28866465Y-32158335D01*
X-28764585Y-32225500D01*
X-28706460Y-32310236D01*
X-28702000Y-32338506D01*
X-28731657Y-32424821D01*
X-28779417Y-32484272D01*
X-28868762Y-32529722D01*
X-28988717Y-32551476D01*
X-29105097Y-32547725D01*
X-29183719Y-32516659D01*
X-29192454Y-32506141D01*
X-29187525Y-32476842D01*
X-29112193Y-32478109D01*
X-29078536Y-32483559D01*
X-28938716Y-32484290D01*
X-28840394Y-32438348D01*
X-28799799Y-32356493D01*
X-28806846Y-32303442D01*
X-28862256Y-32233285D01*
X-28955829Y-32215667D01*
X-29089085Y-32187690D01*
X-29174859Y-32116284D01*
X-29201939Y-32020239D01*
X-29159113Y-31918343D01*
X-29143476Y-31901191D01*
X-29070813Y-31862567D01*
X-28965018Y-31840179D01*
X-28855702Y-31835572D01*
X-28772476Y-31850291D01*
X-28772476Y-31850291D01*
G37*
X-28772476Y-31850291D02*
X-28744333Y-31880364D01*
X-28780101Y-31907293D01*
X-28861574Y-31900310D01*
X-28980100Y-31899546D01*
X-29069874Y-31942667D01*
X-29108690Y-32015101D01*
X-29101941Y-32058034D01*
X-29041690Y-32116856D01*
X-28982057Y-32131000D01*
X-28866465Y-32158335D01*
X-28764585Y-32225500D01*
X-28706460Y-32310236D01*
X-28702000Y-32338506D01*
X-28731657Y-32424821D01*
X-28779417Y-32484272D01*
X-28868762Y-32529722D01*
X-28988717Y-32551476D01*
X-29105097Y-32547725D01*
X-29183719Y-32516659D01*
X-29192454Y-32506141D01*
X-29187525Y-32476842D01*
X-29112193Y-32478109D01*
X-29078536Y-32483559D01*
X-28938716Y-32484290D01*
X-28840394Y-32438348D01*
X-28799799Y-32356493D01*
X-28806846Y-32303442D01*
X-28862256Y-32233285D01*
X-28955829Y-32215667D01*
X-29089085Y-32187690D01*
X-29174859Y-32116284D01*
X-29201939Y-32020239D01*
X-29159113Y-31918343D01*
X-29143476Y-31901191D01*
X-29070813Y-31862567D01*
X-28965018Y-31840179D01*
X-28855702Y-31835572D01*
X-28772476Y-31850291D01*
G36*
X-25633715Y-31874630D02*
X-25619246Y-31985254D01*
X-25612135Y-32152642D01*
X-25611666Y-32215667D01*
X-25613697Y-32383458D01*
X-25619137Y-32513545D01*
X-25627007Y-32587038D01*
X-25631414Y-32596667D01*
X-25664193Y-32565298D01*
X-25734308Y-32481742D01*
X-25828670Y-32361823D01*
X-25864247Y-32315187D01*
X-26077333Y-32033707D01*
X-26077333Y-32294020D01*
X-26083620Y-32431880D01*
X-26100117Y-32525624D01*
X-26119666Y-32554334D01*
X-26140283Y-32514538D01*
X-26154882Y-32405085D01*
X-26161712Y-32240877D01*
X-26162000Y-32194500D01*
X-26159855Y-32031882D01*
X-26154130Y-31907516D01*
X-26145893Y-31840838D01*
X-26142252Y-31834667D01*
X-26109474Y-31866035D01*
X-26039358Y-31949592D01*
X-25944996Y-32069511D01*
X-25909419Y-32116147D01*
X-25696333Y-32397627D01*
X-25696333Y-32116147D01*
X-25690473Y-31969876D01*
X-25674892Y-31869450D01*
X-25654000Y-31834667D01*
X-25633715Y-31874630D01*
X-25633715Y-31874630D01*
G37*
X-25633715Y-31874630D02*
X-25619246Y-31985254D01*
X-25612135Y-32152642D01*
X-25611666Y-32215667D01*
X-25613697Y-32383458D01*
X-25619137Y-32513545D01*
X-25627007Y-32587038D01*
X-25631414Y-32596667D01*
X-25664193Y-32565298D01*
X-25734308Y-32481742D01*
X-25828670Y-32361823D01*
X-25864247Y-32315187D01*
X-26077333Y-32033707D01*
X-26077333Y-32294020D01*
X-26083620Y-32431880D01*
X-26100117Y-32525624D01*
X-26119666Y-32554334D01*
X-26140283Y-32514538D01*
X-26154882Y-32405085D01*
X-26161712Y-32240877D01*
X-26162000Y-32194500D01*
X-26159855Y-32031882D01*
X-26154130Y-31907516D01*
X-26145893Y-31840838D01*
X-26142252Y-31834667D01*
X-26109474Y-31866035D01*
X-26039358Y-31949592D01*
X-25944996Y-32069511D01*
X-25909419Y-32116147D01*
X-25696333Y-32397627D01*
X-25696333Y-32116147D01*
X-25690473Y-31969876D01*
X-25674892Y-31869450D01*
X-25654000Y-31834667D01*
X-25633715Y-31874630D01*
D13*
G04 #@! TO.C,J5*
X4385000Y26610000D02*
X7045000Y26610000D01*
X4385000Y31750000D02*
X4385000Y26610000D01*
X7045000Y31750000D02*
X7045000Y26610000D01*
X4385000Y31750000D02*
X7045000Y31750000D01*
X4385000Y33020000D02*
X4385000Y34350000D01*
X4385000Y34350000D02*
X5715000Y34350000D01*
G04 #@! TO.C,J8*
D12*
X1571666Y-16216380D02*
X1571666Y-16930666D01*
X1524047Y-17073523D01*
X1428809Y-17168761D01*
X1285952Y-17216380D01*
X1190714Y-17216380D01*
X2190714Y-16644952D02*
X2095476Y-16597333D01*
X2047857Y-16549714D01*
X2000238Y-16454476D01*
X2000238Y-16406857D01*
X2047857Y-16311619D01*
X2095476Y-16264000D01*
X2190714Y-16216380D01*
X2381190Y-16216380D01*
X2476428Y-16264000D01*
X2524047Y-16311619D01*
X2571666Y-16406857D01*
X2571666Y-16454476D01*
X2524047Y-16549714D01*
X2476428Y-16597333D01*
X2381190Y-16644952D01*
X2190714Y-16644952D01*
X2095476Y-16692571D01*
X2047857Y-16740190D01*
X2000238Y-16835428D01*
X2000238Y-17025904D01*
X2047857Y-17121142D01*
X2095476Y-17168761D01*
X2190714Y-17216380D01*
X2381190Y-17216380D01*
X2476428Y-17168761D01*
X2524047Y-17121142D01*
X2571666Y-17025904D01*
X2571666Y-16835428D01*
X2524047Y-16740190D01*
X2476428Y-16692571D01*
X2381190Y-16644952D01*
G04 #@! TO.C,J7*
X-2873333Y14942619D02*
X-2873333Y14228333D01*
X-2920952Y14085476D01*
X-3016190Y13990238D01*
X-3159047Y13942619D01*
X-3254285Y13942619D01*
X-2492380Y14942619D02*
X-1825714Y14942619D01*
X-2254285Y13942619D01*
G04 #@! TO.C,U1*
X-8381904Y-8342380D02*
X-8381904Y-9151904D01*
X-8334285Y-9247142D01*
X-8286666Y-9294761D01*
X-8191428Y-9342380D01*
X-8000952Y-9342380D01*
X-7905714Y-9294761D01*
X-7858095Y-9247142D01*
X-7810476Y-9151904D01*
X-7810476Y-8342380D01*
X-6810476Y-9342380D02*
X-7381904Y-9342380D01*
X-7096190Y-9342380D02*
X-7096190Y-8342380D01*
X-7191428Y-8485238D01*
X-7286666Y-8580476D01*
X-7381904Y-8628095D01*
X-18946190Y39203333D02*
X-18470000Y39203333D01*
X-19041428Y38917619D02*
X-18708095Y39917619D01*
X-18374761Y38917619D01*
X-18041428Y38917619D02*
X-18041428Y39584285D01*
X-18041428Y39393809D02*
X-17993809Y39489047D01*
X-17946190Y39536666D01*
X-17850952Y39584285D01*
X-17755714Y39584285D01*
X-16993809Y38917619D02*
X-16993809Y39917619D01*
X-16993809Y38965238D02*
X-17089047Y38917619D01*
X-17279523Y38917619D01*
X-17374761Y38965238D01*
X-17422380Y39012857D01*
X-17470000Y39108095D01*
X-17470000Y39393809D01*
X-17422380Y39489047D01*
X-17374761Y39536666D01*
X-17279523Y39584285D01*
X-17089047Y39584285D01*
X-16993809Y39536666D01*
X-16089047Y39584285D02*
X-16089047Y38917619D01*
X-16517619Y39584285D02*
X-16517619Y39060476D01*
X-16470000Y38965238D01*
X-16374761Y38917619D01*
X-16231904Y38917619D01*
X-16136666Y38965238D01*
X-16089047Y39012857D01*
X-15612857Y38917619D02*
X-15612857Y39584285D01*
X-15612857Y39917619D02*
X-15660476Y39870000D01*
X-15612857Y39822380D01*
X-15565238Y39870000D01*
X-15612857Y39917619D01*
X-15612857Y39822380D01*
X-15136666Y39584285D02*
X-15136666Y38917619D01*
X-15136666Y39489047D02*
X-15089047Y39536666D01*
X-14993809Y39584285D01*
X-14850952Y39584285D01*
X-14755714Y39536666D01*
X-14708095Y39441428D01*
X-14708095Y38917619D01*
X-14089047Y38917619D02*
X-14184285Y38965238D01*
X-14231904Y39012857D01*
X-14279523Y39108095D01*
X-14279523Y39393809D01*
X-14231904Y39489047D01*
X-14184285Y39536666D01*
X-14089047Y39584285D01*
X-13946190Y39584285D01*
X-13850952Y39536666D01*
X-13803333Y39489047D01*
X-13755714Y39393809D01*
X-13755714Y39108095D01*
X-13803333Y39012857D01*
X-13850952Y38965238D01*
X-13946190Y38917619D01*
X-14089047Y38917619D01*
X-12565238Y38917619D02*
X-12565238Y39917619D01*
X-12231904Y39203333D01*
X-11898571Y39917619D01*
X-11898571Y38917619D01*
X-11422380Y38917619D02*
X-11422380Y39584285D01*
X-11422380Y39917619D02*
X-11470000Y39870000D01*
X-11422380Y39822380D01*
X-11374761Y39870000D01*
X-11422380Y39917619D01*
X-11422380Y39822380D01*
X-10517619Y38965238D02*
X-10612857Y38917619D01*
X-10803333Y38917619D01*
X-10898571Y38965238D01*
X-10946190Y39012857D01*
X-10993809Y39108095D01*
X-10993809Y39393809D01*
X-10946190Y39489047D01*
X-10898571Y39536666D01*
X-10803333Y39584285D01*
X-10612857Y39584285D01*
X-10517619Y39536666D01*
X-10089047Y38917619D02*
X-10089047Y39584285D01*
X-10089047Y39393809D02*
X-10041428Y39489047D01*
X-9993809Y39536666D01*
X-9898571Y39584285D01*
X-9803333Y39584285D01*
X-9327142Y38917619D02*
X-9422380Y38965238D01*
X-9470000Y39012857D01*
X-9517619Y39108095D01*
X-9517619Y39393809D01*
X-9470000Y39489047D01*
X-9422380Y39536666D01*
X-9327142Y39584285D01*
X-9184285Y39584285D01*
X-9089047Y39536666D01*
X-9041428Y39489047D01*
X-8993809Y39393809D01*
X-8993809Y39108095D01*
X-9041428Y39012857D01*
X-9089047Y38965238D01*
X-9184285Y38917619D01*
X-9327142Y38917619D01*
G04 #@! TO.C,U2*
X31422380Y22983095D02*
X32231904Y22983095D01*
X32327142Y23030714D01*
X32374761Y23078333D01*
X32422380Y23173571D01*
X32422380Y23364047D01*
X32374761Y23459285D01*
X32327142Y23506904D01*
X32231904Y23554523D01*
X31422380Y23554523D01*
X31517619Y23983095D02*
X31470000Y24030714D01*
X31422380Y24125952D01*
X31422380Y24364047D01*
X31470000Y24459285D01*
X31517619Y24506904D01*
X31612857Y24554523D01*
X31708095Y24554523D01*
X31850952Y24506904D01*
X32422380Y23935476D01*
X32422380Y24554523D01*
X27027142Y-3611666D02*
X27074761Y-3659285D01*
X27122380Y-3802142D01*
X27122380Y-3897380D01*
X27074761Y-4040238D01*
X26979523Y-4135476D01*
X26884285Y-4183095D01*
X26693809Y-4230714D01*
X26550952Y-4230714D01*
X26360476Y-4183095D01*
X26265238Y-4135476D01*
X26170000Y-4040238D01*
X26122380Y-3897380D01*
X26122380Y-3802142D01*
X26170000Y-3659285D01*
X26217619Y-3611666D01*
X27074761Y-3230714D02*
X27122380Y-3087857D01*
X27122380Y-2849761D01*
X27074761Y-2754523D01*
X27027142Y-2706904D01*
X26931904Y-2659285D01*
X26836666Y-2659285D01*
X26741428Y-2706904D01*
X26693809Y-2754523D01*
X26646190Y-2849761D01*
X26598571Y-3040238D01*
X26550952Y-3135476D01*
X26503333Y-3183095D01*
X26408095Y-3230714D01*
X26312857Y-3230714D01*
X26217619Y-3183095D01*
X26170000Y-3135476D01*
X26122380Y-3040238D01*
X26122380Y-2802142D01*
X26170000Y-2659285D01*
X24534761Y-4730714D02*
X24582380Y-4587857D01*
X24582380Y-4349761D01*
X24534761Y-4254523D01*
X24487142Y-4206904D01*
X24391904Y-4159285D01*
X24296666Y-4159285D01*
X24201428Y-4206904D01*
X24153809Y-4254523D01*
X24106190Y-4349761D01*
X24058571Y-4540238D01*
X24010952Y-4635476D01*
X23963333Y-4683095D01*
X23868095Y-4730714D01*
X23772857Y-4730714D01*
X23677619Y-4683095D01*
X23630000Y-4635476D01*
X23582380Y-4540238D01*
X23582380Y-4302142D01*
X23630000Y-4159285D01*
X24487142Y-3159285D02*
X24534761Y-3206904D01*
X24582380Y-3349761D01*
X24582380Y-3445000D01*
X24534761Y-3587857D01*
X24439523Y-3683095D01*
X24344285Y-3730714D01*
X24153809Y-3778333D01*
X24010952Y-3778333D01*
X23820476Y-3730714D01*
X23725238Y-3683095D01*
X23630000Y-3587857D01*
X23582380Y-3445000D01*
X23582380Y-3349761D01*
X23630000Y-3206904D01*
X23677619Y-3159285D01*
X24582380Y-2730714D02*
X23582380Y-2730714D01*
X24582380Y-2159285D02*
X24010952Y-2587857D01*
X23582380Y-2159285D02*
X24153809Y-2730714D01*
X22042380Y-5016428D02*
X21042380Y-5016428D01*
X21756666Y-4683095D01*
X21042380Y-4349761D01*
X22042380Y-4349761D01*
X21042380Y-3683095D02*
X21042380Y-3492619D01*
X21090000Y-3397380D01*
X21185238Y-3302142D01*
X21375714Y-3254523D01*
X21709047Y-3254523D01*
X21899523Y-3302142D01*
X21994761Y-3397380D01*
X22042380Y-3492619D01*
X22042380Y-3683095D01*
X21994761Y-3778333D01*
X21899523Y-3873571D01*
X21709047Y-3921190D01*
X21375714Y-3921190D01*
X21185238Y-3873571D01*
X21090000Y-3778333D01*
X21042380Y-3683095D01*
X21994761Y-2873571D02*
X22042380Y-2730714D01*
X22042380Y-2492619D01*
X21994761Y-2397380D01*
X21947142Y-2349761D01*
X21851904Y-2302142D01*
X21756666Y-2302142D01*
X21661428Y-2349761D01*
X21613809Y-2397380D01*
X21566190Y-2492619D01*
X21518571Y-2683095D01*
X21470952Y-2778333D01*
X21423333Y-2825952D01*
X21328095Y-2873571D01*
X21232857Y-2873571D01*
X21137619Y-2825952D01*
X21090000Y-2778333D01*
X21042380Y-2683095D01*
X21042380Y-2445000D01*
X21090000Y-2302142D01*
X22042380Y-1873571D02*
X21042380Y-1873571D01*
X19502380Y-5016428D02*
X18502380Y-5016428D01*
X19216666Y-4683095D01*
X18502380Y-4349761D01*
X19502380Y-4349761D01*
X19502380Y-3873571D02*
X18502380Y-3873571D01*
X19454761Y-3445000D02*
X19502380Y-3302142D01*
X19502380Y-3064047D01*
X19454761Y-2968809D01*
X19407142Y-2921190D01*
X19311904Y-2873571D01*
X19216666Y-2873571D01*
X19121428Y-2921190D01*
X19073809Y-2968809D01*
X19026190Y-3064047D01*
X18978571Y-3254523D01*
X18930952Y-3349761D01*
X18883333Y-3397380D01*
X18788095Y-3445000D01*
X18692857Y-3445000D01*
X18597619Y-3397380D01*
X18550000Y-3349761D01*
X18502380Y-3254523D01*
X18502380Y-3016428D01*
X18550000Y-2873571D01*
X18502380Y-2254523D02*
X18502380Y-2064047D01*
X18550000Y-1968809D01*
X18645238Y-1873571D01*
X18835714Y-1825952D01*
X19169047Y-1825952D01*
X19359523Y-1873571D01*
X19454761Y-1968809D01*
X19502380Y-2064047D01*
X19502380Y-2254523D01*
X19454761Y-2349761D01*
X19359523Y-2445000D01*
X19169047Y-2492619D01*
X18835714Y-2492619D01*
X18645238Y-2445000D01*
X18550000Y-2349761D01*
X18502380Y-2254523D01*
X15962380Y-4778333D02*
X16962380Y-4445000D01*
X15962380Y-4111666D01*
X16867142Y-3206904D02*
X16914761Y-3254523D01*
X16962380Y-3397380D01*
X16962380Y-3492619D01*
X16914761Y-3635476D01*
X16819523Y-3730714D01*
X16724285Y-3778333D01*
X16533809Y-3825952D01*
X16390952Y-3825952D01*
X16200476Y-3778333D01*
X16105238Y-3730714D01*
X16010000Y-3635476D01*
X15962380Y-3492619D01*
X15962380Y-3397380D01*
X16010000Y-3254523D01*
X16057619Y-3206904D01*
X16867142Y-2206904D02*
X16914761Y-2254523D01*
X16962380Y-2397380D01*
X16962380Y-2492619D01*
X16914761Y-2635476D01*
X16819523Y-2730714D01*
X16724285Y-2778333D01*
X16533809Y-2825952D01*
X16390952Y-2825952D01*
X16200476Y-2778333D01*
X16105238Y-2730714D01*
X16010000Y-2635476D01*
X15962380Y-2492619D01*
X15962380Y-2397380D01*
X16010000Y-2254523D01*
X16057619Y-2206904D01*
X13470000Y-4206904D02*
X13422380Y-4302142D01*
X13422380Y-4445000D01*
X13470000Y-4587857D01*
X13565238Y-4683095D01*
X13660476Y-4730714D01*
X13850952Y-4778333D01*
X13993809Y-4778333D01*
X14184285Y-4730714D01*
X14279523Y-4683095D01*
X14374761Y-4587857D01*
X14422380Y-4445000D01*
X14422380Y-4349761D01*
X14374761Y-4206904D01*
X14327142Y-4159285D01*
X13993809Y-4159285D01*
X13993809Y-4349761D01*
X14422380Y-3730714D02*
X13422380Y-3730714D01*
X14422380Y-3159285D01*
X13422380Y-3159285D01*
X14422380Y-2683095D02*
X13422380Y-2683095D01*
X13422380Y-2445000D01*
X13470000Y-2302142D01*
X13565238Y-2206904D01*
X13660476Y-2159285D01*
X13850952Y-2111666D01*
X13993809Y-2111666D01*
X14184285Y-2159285D01*
X14279523Y-2206904D01*
X14374761Y-2302142D01*
X14422380Y-2445000D01*
X14422380Y-2683095D01*
X12391428Y-11707380D02*
X12391428Y-11040714D01*
X12391428Y-11135952D02*
X12439047Y-11088333D01*
X12534285Y-11040714D01*
X12677142Y-11040714D01*
X12772380Y-11088333D01*
X12820000Y-11183571D01*
X12820000Y-11707380D01*
X12820000Y-11183571D02*
X12867619Y-11088333D01*
X12962857Y-11040714D01*
X13105714Y-11040714D01*
X13200952Y-11088333D01*
X13248571Y-11183571D01*
X13248571Y-11707380D01*
X13724761Y-11707380D02*
X13724761Y-11040714D01*
X13724761Y-10707380D02*
X13677142Y-10755000D01*
X13724761Y-10802619D01*
X13772380Y-10755000D01*
X13724761Y-10707380D01*
X13724761Y-10802619D01*
X14629523Y-11659761D02*
X14534285Y-11707380D01*
X14343809Y-11707380D01*
X14248571Y-11659761D01*
X14200952Y-11612142D01*
X14153333Y-11516904D01*
X14153333Y-11231190D01*
X14200952Y-11135952D01*
X14248571Y-11088333D01*
X14343809Y-11040714D01*
X14534285Y-11040714D01*
X14629523Y-11088333D01*
X15058095Y-11707380D02*
X15058095Y-11040714D01*
X15058095Y-11231190D02*
X15105714Y-11135952D01*
X15153333Y-11088333D01*
X15248571Y-11040714D01*
X15343809Y-11040714D01*
X15820000Y-11707380D02*
X15724761Y-11659761D01*
X15677142Y-11612142D01*
X15629523Y-11516904D01*
X15629523Y-11231190D01*
X15677142Y-11135952D01*
X15724761Y-11088333D01*
X15820000Y-11040714D01*
X15962857Y-11040714D01*
X16058095Y-11088333D01*
X16105714Y-11135952D01*
X16153333Y-11231190D01*
X16153333Y-11516904D01*
X16105714Y-11612142D01*
X16058095Y-11659761D01*
X15962857Y-11707380D01*
X15820000Y-11707380D01*
X16534285Y-11659761D02*
X16677142Y-11707380D01*
X16915238Y-11707380D01*
X17010476Y-11659761D01*
X17058095Y-11612142D01*
X17105714Y-11516904D01*
X17105714Y-11421666D01*
X17058095Y-11326428D01*
X17010476Y-11278809D01*
X16915238Y-11231190D01*
X16724761Y-11183571D01*
X16629523Y-11135952D01*
X16581904Y-11088333D01*
X16534285Y-10993095D01*
X16534285Y-10897857D01*
X16581904Y-10802619D01*
X16629523Y-10755000D01*
X16724761Y-10707380D01*
X16962857Y-10707380D01*
X17105714Y-10755000D01*
X17534285Y-11707380D02*
X17534285Y-10707380D01*
X17772380Y-10707380D01*
X17915238Y-10755000D01*
X18010476Y-10850238D01*
X18058095Y-10945476D01*
X18105714Y-11135952D01*
X18105714Y-11278809D01*
X18058095Y-11469285D01*
X18010476Y-11564523D01*
X17915238Y-11659761D01*
X17772380Y-11707380D01*
X17534285Y-11707380D01*
X19867619Y-11612142D02*
X19820000Y-11659761D01*
X19677142Y-11707380D01*
X19581904Y-11707380D01*
X19439047Y-11659761D01*
X19343809Y-11564523D01*
X19296190Y-11469285D01*
X19248571Y-11278809D01*
X19248571Y-11135952D01*
X19296190Y-10945476D01*
X19343809Y-10850238D01*
X19439047Y-10755000D01*
X19581904Y-10707380D01*
X19677142Y-10707380D01*
X19820000Y-10755000D01*
X19867619Y-10802619D01*
X20724761Y-11707380D02*
X20724761Y-11183571D01*
X20677142Y-11088333D01*
X20581904Y-11040714D01*
X20391428Y-11040714D01*
X20296190Y-11088333D01*
X20724761Y-11659761D02*
X20629523Y-11707380D01*
X20391428Y-11707380D01*
X20296190Y-11659761D01*
X20248571Y-11564523D01*
X20248571Y-11469285D01*
X20296190Y-11374047D01*
X20391428Y-11326428D01*
X20629523Y-11326428D01*
X20724761Y-11278809D01*
X21200952Y-11707380D02*
X21200952Y-11040714D01*
X21200952Y-11231190D02*
X21248571Y-11135952D01*
X21296190Y-11088333D01*
X21391428Y-11040714D01*
X21486666Y-11040714D01*
X22248571Y-11707380D02*
X22248571Y-10707380D01*
X22248571Y-11659761D02*
X22153333Y-11707380D01*
X21962857Y-11707380D01*
X21867619Y-11659761D01*
X21820000Y-11612142D01*
X21772380Y-11516904D01*
X21772380Y-11231190D01*
X21820000Y-11135952D01*
X21867619Y-11088333D01*
X21962857Y-11040714D01*
X22153333Y-11040714D01*
X22248571Y-11088333D01*
X23486666Y-11707380D02*
X23486666Y-10707380D01*
X23820000Y-11421666D01*
X24153333Y-10707380D01*
X24153333Y-11707380D01*
X24772380Y-11707380D02*
X24677142Y-11659761D01*
X24629523Y-11612142D01*
X24581904Y-11516904D01*
X24581904Y-11231190D01*
X24629523Y-11135952D01*
X24677142Y-11088333D01*
X24772380Y-11040714D01*
X24915238Y-11040714D01*
X25010476Y-11088333D01*
X25058095Y-11135952D01*
X25105714Y-11231190D01*
X25105714Y-11516904D01*
X25058095Y-11612142D01*
X25010476Y-11659761D01*
X24915238Y-11707380D01*
X24772380Y-11707380D01*
X25962857Y-11707380D02*
X25962857Y-10707380D01*
X25962857Y-11659761D02*
X25867619Y-11707380D01*
X25677142Y-11707380D01*
X25581904Y-11659761D01*
X25534285Y-11612142D01*
X25486666Y-11516904D01*
X25486666Y-11231190D01*
X25534285Y-11135952D01*
X25581904Y-11088333D01*
X25677142Y-11040714D01*
X25867619Y-11040714D01*
X25962857Y-11088333D01*
X26867619Y-11040714D02*
X26867619Y-11707380D01*
X26439047Y-11040714D02*
X26439047Y-11564523D01*
X26486666Y-11659761D01*
X26581904Y-11707380D01*
X26724761Y-11707380D01*
X26820000Y-11659761D01*
X26867619Y-11612142D01*
X27486666Y-11707380D02*
X27391428Y-11659761D01*
X27343809Y-11564523D01*
X27343809Y-10707380D01*
X28248571Y-11659761D02*
X28153333Y-11707380D01*
X27962857Y-11707380D01*
X27867619Y-11659761D01*
X27820000Y-11564523D01*
X27820000Y-11183571D01*
X27867619Y-11088333D01*
X27962857Y-11040714D01*
X28153333Y-11040714D01*
X28248571Y-11088333D01*
X28296190Y-11183571D01*
X28296190Y-11278809D01*
X27820000Y-11374047D01*
G04 #@! TO.C,D1*
X-738095Y-42522380D02*
X-738095Y-41522380D01*
X-500000Y-41522380D01*
X-357142Y-41570000D01*
X-261904Y-41665238D01*
X-214285Y-41760476D01*
X-166666Y-41950952D01*
X-166666Y-42093809D01*
X-214285Y-42284285D01*
X-261904Y-42379523D01*
X-357142Y-42474761D01*
X-500000Y-42522380D01*
X-738095Y-42522380D01*
X785714Y-42522380D02*
X214285Y-42522380D01*
X499999Y-42522380D02*
X499999Y-41522380D01*
X404761Y-41665238D01*
X309523Y-41760476D01*
X214285Y-41808095D01*
G04 #@! TO.C,J1*
X22526666Y-23582380D02*
X22526666Y-24296666D01*
X22479047Y-24439523D01*
X22383809Y-24534761D01*
X22240952Y-24582380D01*
X22145714Y-24582380D01*
X23526666Y-24582380D02*
X22955238Y-24582380D01*
X23240952Y-24582380D02*
X23240952Y-23582380D01*
X23145714Y-23725238D01*
X23050476Y-23820476D01*
X22955238Y-23868095D01*
G04 #@! TO.C,R1*
X7670833Y-42912380D02*
X7337500Y-42436190D01*
X7099404Y-42912380D02*
X7099404Y-41912380D01*
X7480357Y-41912380D01*
X7575595Y-41960000D01*
X7623214Y-42007619D01*
X7670833Y-42102857D01*
X7670833Y-42245714D01*
X7623214Y-42340952D01*
X7575595Y-42388571D01*
X7480357Y-42436190D01*
X7099404Y-42436190D01*
X8623214Y-42912380D02*
X8051785Y-42912380D01*
X8337500Y-42912380D02*
X8337500Y-41912380D01*
X8242261Y-42055238D01*
X8147023Y-42150476D01*
X8051785Y-42198095D01*
G04 #@! TO.C,SW2*
X25336666Y-22334761D02*
X25479523Y-22382380D01*
X25717619Y-22382380D01*
X25812857Y-22334761D01*
X25860476Y-22287142D01*
X25908095Y-22191904D01*
X25908095Y-22096666D01*
X25860476Y-22001428D01*
X25812857Y-21953809D01*
X25717619Y-21906190D01*
X25527142Y-21858571D01*
X25431904Y-21810952D01*
X25384285Y-21763333D01*
X25336666Y-21668095D01*
X25336666Y-21572857D01*
X25384285Y-21477619D01*
X25431904Y-21430000D01*
X25527142Y-21382380D01*
X25765238Y-21382380D01*
X25908095Y-21430000D01*
X26241428Y-21382380D02*
X26479523Y-22382380D01*
X26670000Y-21668095D01*
X26860476Y-22382380D01*
X27098571Y-21382380D01*
X27431904Y-21477619D02*
X27479523Y-21430000D01*
X27574761Y-21382380D01*
X27812857Y-21382380D01*
X27908095Y-21430000D01*
X27955714Y-21477619D01*
X28003333Y-21572857D01*
X28003333Y-21668095D01*
X27955714Y-21810952D01*
X27384285Y-22382380D01*
X28003333Y-22382380D01*
G04 #@! TO.C,U3*
X7836736Y19158923D02*
X7884355Y19254161D01*
X7884355Y19397019D01*
X7836736Y19539876D01*
X7741497Y19635114D01*
X7646259Y19682733D01*
X7455783Y19730352D01*
X7312926Y19730352D01*
X7122450Y19682733D01*
X7027212Y19635114D01*
X6931974Y19539876D01*
X6884355Y19397019D01*
X6884355Y19301780D01*
X6931974Y19158923D01*
X6979593Y19111304D01*
X7312926Y19111304D01*
X7312926Y19301780D01*
X6884355Y18682733D02*
X7884355Y18682733D01*
X6884355Y18111304D01*
X7884355Y18111304D01*
X6884355Y17635114D02*
X7884355Y17635114D01*
X7884355Y17397019D01*
X7836736Y17254161D01*
X7741497Y17158923D01*
X7646259Y17111304D01*
X7455783Y17063685D01*
X7312926Y17063685D01*
X7122450Y17111304D01*
X7027212Y17158923D01*
X6931974Y17254161D01*
X6884355Y17397019D01*
X6884355Y17635114D01*
X6051021Y944638D02*
X6384355Y-55361D01*
X6717688Y944638D01*
X6955783Y944638D02*
X7574831Y944638D01*
X7241497Y563685D01*
X7384355Y563685D01*
X7479593Y516066D01*
X7527212Y468447D01*
X7574831Y373209D01*
X7574831Y135114D01*
X7527212Y39876D01*
X7479593Y-7742D01*
X7384355Y-55361D01*
X7098640Y-55361D01*
X7003402Y-7742D01*
X6955783Y39876D01*
X8003402Y39876D02*
X8051021Y-7742D01*
X8003402Y-55361D01*
X7955783Y-7742D01*
X8003402Y39876D01*
X8003402Y-55361D01*
X8384355Y944638D02*
X9003402Y944638D01*
X8670069Y563685D01*
X8812926Y563685D01*
X8908164Y516066D01*
X8955783Y468447D01*
X9003402Y373209D01*
X9003402Y135114D01*
X8955783Y39876D01*
X8908164Y-7742D01*
X8812926Y-55361D01*
X8527212Y-55361D01*
X8431974Y-7742D01*
X8384355Y39876D01*
X9431974Y-55361D02*
X9431974Y944638D01*
X9908164Y-55361D02*
X9908164Y944638D01*
X10479593Y-55361D01*
X10479593Y944638D01*
X6789116Y7944638D02*
X6455783Y8420828D01*
X6217688Y7944638D02*
X6217688Y8944638D01*
X6598640Y8944638D01*
X6693878Y8897019D01*
X6741497Y8849399D01*
X6789116Y8754161D01*
X6789116Y8611304D01*
X6741497Y8516066D01*
X6693878Y8468447D01*
X6598640Y8420828D01*
X6217688Y8420828D01*
X7170069Y7992257D02*
X7312926Y7944638D01*
X7551021Y7944638D01*
X7646259Y7992257D01*
X7693878Y8039876D01*
X7741497Y8135114D01*
X7741497Y8230352D01*
X7693878Y8325590D01*
X7646259Y8373209D01*
X7551021Y8420828D01*
X7360545Y8468447D01*
X7265307Y8516066D01*
X7217688Y8563685D01*
X7170069Y8658923D01*
X7170069Y8754161D01*
X7217688Y8849399D01*
X7265307Y8897019D01*
X7360545Y8944638D01*
X7598640Y8944638D01*
X7741497Y8897019D01*
X8027212Y8944638D02*
X8598640Y8944638D01*
X8312926Y7944638D02*
X8312926Y8944638D01*
X6289116Y1944638D02*
X6289116Y2944638D01*
X6527212Y2944638D01*
X6670069Y2897019D01*
X6765307Y2801780D01*
X6812926Y2706542D01*
X6860545Y2516066D01*
X6860545Y2373209D01*
X6812926Y2182733D01*
X6765307Y2087495D01*
X6670069Y1992257D01*
X6527212Y1944638D01*
X6289116Y1944638D01*
X7479593Y2944638D02*
X7670069Y2944638D01*
X7765307Y2897019D01*
X7860545Y2801780D01*
X7908164Y2611304D01*
X7908164Y2277971D01*
X7860545Y2087495D01*
X7765307Y1992257D01*
X7670069Y1944638D01*
X7479593Y1944638D01*
X7384355Y1992257D01*
X7289116Y2087495D01*
X7241497Y2277971D01*
X7241497Y2611304D01*
X7289116Y2801780D01*
X7384355Y2897019D01*
X7479593Y2944638D01*
X8336736Y2944638D02*
X8336736Y2135114D01*
X8384355Y2039876D01*
X8431974Y1992257D01*
X8527212Y1944638D01*
X8717688Y1944638D01*
X8812926Y1992257D01*
X8860545Y2039876D01*
X8908164Y2135114D01*
X8908164Y2944638D01*
X9241497Y2944638D02*
X9812926Y2944638D01*
X9527212Y1944638D02*
X9527212Y2944638D01*
X9908164Y1849399D02*
X10670069Y1849399D01*
X11479593Y1944638D02*
X11146259Y2420828D01*
X10908164Y1944638D02*
X10908164Y2944638D01*
X11289116Y2944638D01*
X11384355Y2897019D01*
X11431974Y2849399D01*
X11479593Y2754161D01*
X11479593Y2611304D01*
X11431974Y2516066D01*
X11384355Y2468447D01*
X11289116Y2420828D01*
X10908164Y2420828D01*
X11812926Y2944638D02*
X12479593Y1944638D01*
X12479593Y2944638D02*
X11812926Y1944638D01*
X6074831Y3944638D02*
X6074831Y4944638D01*
X6312926Y4944638D01*
X6455783Y4897019D01*
X6551021Y4801780D01*
X6598640Y4706542D01*
X6646259Y4516066D01*
X6646259Y4373209D01*
X6598640Y4182733D01*
X6551021Y4087495D01*
X6455783Y3992257D01*
X6312926Y3944638D01*
X6074831Y3944638D01*
X7074831Y3944638D02*
X7074831Y4944638D01*
X7551021Y3944638D02*
X7551021Y4944638D01*
X8122450Y3944638D01*
X8122450Y4944638D01*
X8360545Y3849399D02*
X9122450Y3849399D01*
X9217688Y4944638D02*
X9789116Y4944638D01*
X9503402Y3944638D02*
X9503402Y4944638D01*
X10027212Y4944638D02*
X10693878Y3944638D01*
X10693878Y4944638D02*
X10027212Y3944638D01*
G04 #@! TO.C,J5*
X5381666Y35897619D02*
X5381666Y35183333D01*
X5334047Y35040476D01*
X5238809Y34945238D01*
X5095952Y34897619D01*
X5000714Y34897619D01*
X6334047Y35897619D02*
X5857857Y35897619D01*
X5810238Y35421428D01*
X5857857Y35469047D01*
X5953095Y35516666D01*
X6191190Y35516666D01*
X6286428Y35469047D01*
X6334047Y35421428D01*
X6381666Y35326190D01*
X6381666Y35088095D01*
X6334047Y34992857D01*
X6286428Y34945238D01*
X6191190Y34897619D01*
X5953095Y34897619D01*
X5857857Y34945238D01*
X5810238Y34992857D01*
G04 #@! TD*
M02*
