G04 #@! TF.GenerationSoftware,KiCad,Pcbnew,(5.0.0)*
G04 #@! TF.CreationDate,2018-08-26T02:27:25+09:00*
G04 #@! TF.ProjectId,core,636F72652E6B696361645F7063620000,rev?*
G04 #@! TF.SameCoordinates,Original*
G04 #@! TF.FileFunction,Soldermask,Bot*
G04 #@! TF.FilePolarity,Negative*
%FSLAX46Y46*%
G04 Gerber Fmt 4.6, Leading zero omitted, Abs format (unit mm)*
G04 Created by KiCad (PCBNEW (5.0.0)) date 08/26/18 02:27:25*
%MOMM*%
%LPD*%
G01*
G04 APERTURE LIST*
%ADD10O,2.100000X2.100000*%
%ADD11R,2.100000X2.100000*%
%ADD12R,2.400000X2.400000*%
%ADD13C,2.400000*%
%ADD14C,2.900000*%
%ADD15C,3.400000*%
%ADD16R,3.400000X3.400000*%
%ADD17R,1.924000X1.924000*%
%ADD18C,1.924000*%
%ADD19R,2.000000X2.000000*%
%ADD20C,2.000000*%
%ADD21R,3.200000X3.200000*%
%ADD22O,3.200000X3.200000*%
G04 APERTURE END LIST*
D10*
G04 #@! TO.C,J8*
X1905000Y-13970000D03*
X1905000Y-11430000D03*
D11*
X1905000Y-8890000D03*
G04 #@! TD*
D10*
G04 #@! TO.C,J7*
X-2540000Y6985000D03*
X-2540000Y9525000D03*
D11*
X-2540000Y12065000D03*
G04 #@! TD*
D12*
G04 #@! TO.C,U1*
X-21590000Y34290000D03*
D13*
X-21590000Y31750000D03*
X-21590000Y29210000D03*
X-21590000Y26670000D03*
X-21590000Y24130000D03*
X-21590000Y21590000D03*
X-21590000Y19050000D03*
X-21590000Y16510000D03*
X-21590000Y13970000D03*
X-21590000Y11430000D03*
X-21590000Y8890000D03*
X-21590000Y6350000D03*
X-21590000Y3810000D03*
X-21590000Y1270000D03*
X-21590000Y-1270000D03*
X-21590000Y-3810000D03*
X-21590000Y-6350000D03*
X-6350000Y-6350000D03*
X-6350000Y-3810000D03*
X-6350000Y-1270000D03*
X-6350000Y1270000D03*
X-6350000Y3810000D03*
X-6350000Y6350000D03*
X-6350000Y8890000D03*
X-6350000Y11430000D03*
X-6350000Y13970000D03*
X-6350000Y16510000D03*
X-6350000Y19050000D03*
X-6350000Y21590000D03*
X-6350000Y24130000D03*
X-6350000Y26670000D03*
X-6350000Y29210000D03*
X-6350000Y31750000D03*
X-6350000Y34290000D03*
G04 #@! TD*
D14*
G04 #@! TO.C,U2*
X9970000Y29745000D03*
X30970000Y29745000D03*
X30970000Y-8255000D03*
X9970000Y-8255000D03*
D12*
X26670000Y-7255000D03*
D13*
X24130000Y-7255000D03*
X21590000Y-7255000D03*
X19050000Y-7255000D03*
X16510000Y-7255000D03*
X13970000Y-7255000D03*
G04 #@! TD*
D15*
G04 #@! TO.C,J1*
X19050000Y-26670000D03*
D16*
X13970000Y-26670000D03*
G04 #@! TD*
G04 #@! TO.C,J2*
X-31750000Y12700000D03*
D15*
X-31750000Y7620000D03*
G04 #@! TD*
D17*
G04 #@! TO.C,SW1*
X-3175000Y-12700000D03*
D18*
X-5715000Y-12700000D03*
X-8255000Y-12700000D03*
X-8255000Y-10160000D03*
X-5715000Y-10160000D03*
X-3175000Y-10160000D03*
G04 #@! TD*
G04 #@! TO.C,SW2*
X27940000Y-24130000D03*
X27940000Y-26670000D03*
X27940000Y-29210000D03*
X25400000Y-29210000D03*
X25400000Y-26670000D03*
D17*
X25400000Y-24130000D03*
G04 #@! TD*
G04 #@! TO.C,SW4*
X31750000Y12700000D03*
D18*
X34290000Y12700000D03*
X36830000Y12700000D03*
X36830000Y10160000D03*
X34290000Y10160000D03*
X31750000Y10160000D03*
G04 #@! TD*
G04 #@! TO.C,SW5*
X31750000Y3810000D03*
X34290000Y3810000D03*
X36830000Y3810000D03*
X36830000Y6350000D03*
X34290000Y6350000D03*
D17*
X31750000Y6350000D03*
G04 #@! TD*
D19*
G04 #@! TO.C,U3*
X4670000Y305000D03*
D20*
X4670000Y2305000D03*
X4670000Y4305000D03*
X4670000Y6305000D03*
X4670000Y8305000D03*
X4670000Y10305000D03*
X4670000Y12305000D03*
X4670000Y14305000D03*
X4670000Y16305000D03*
X4670000Y18305000D03*
X26670000Y18305000D03*
X26670000Y16305000D03*
X26670000Y14305000D03*
X26670000Y12305000D03*
X26670000Y10305000D03*
X26670000Y8305000D03*
X26670000Y6305000D03*
X26670000Y4305000D03*
X26670000Y2305000D03*
X26670000Y305000D03*
G04 #@! TD*
D21*
G04 #@! TO.C,SW3*
X12560000Y36500000D03*
D22*
X17640000Y36500000D03*
G04 #@! TD*
D10*
G04 #@! TO.C,J3*
X-29210000Y1270000D03*
X-29210000Y-1270000D03*
X-29210000Y-3810000D03*
X-29210000Y-6350000D03*
D11*
X-29210000Y-8890000D03*
G04 #@! TD*
D10*
G04 #@! TO.C,J4*
X-10160000Y16510000D03*
X-12700000Y16510000D03*
X-10160000Y13970000D03*
X-12700000Y13970000D03*
X-10160000Y11430000D03*
X-12700000Y11430000D03*
X-10160000Y8890000D03*
X-12700000Y8890000D03*
X-10160000Y6350000D03*
X-12700000Y6350000D03*
X-10160000Y3810000D03*
X-12700000Y3810000D03*
X-10160000Y1270000D03*
D11*
X-12700000Y1270000D03*
G04 #@! TD*
G04 #@! TO.C,J5*
X5715000Y33020000D03*
D10*
X5715000Y30480000D03*
X5715000Y27940000D03*
G04 #@! TD*
M02*
