G04 #@! TF.GenerationSoftware,KiCad,Pcbnew,(5.0.0)*
G04 #@! TF.CreationDate,2018-08-26T02:27:25+09:00*
G04 #@! TF.ProjectId,core,636F72652E6B696361645F7063620000,rev?*
G04 #@! TF.SameCoordinates,Original*
G04 #@! TF.FileFunction,Soldermask,Top*
G04 #@! TF.FilePolarity,Negative*
%FSLAX46Y46*%
G04 Gerber Fmt 4.6, Leading zero omitted, Abs format (unit mm)*
G04 Created by KiCad (PCBNEW (5.0.0)) date 08/26/18 02:27:25*
%MOMM*%
%LPD*%
G01*
G04 APERTURE LIST*
%ADD10O,2.100000X2.100000*%
%ADD11R,2.100000X2.100000*%
%ADD12R,2.400000X2.400000*%
%ADD13C,2.400000*%
%ADD14C,2.900000*%
%ADD15C,0.100000*%
%ADD16C,1.350000*%
%ADD17C,3.400000*%
%ADD18R,3.400000X3.400000*%
%ADD19C,1.825000*%
%ADD20R,1.924000X1.924000*%
%ADD21C,1.924000*%
%ADD22R,2.000000X2.000000*%
%ADD23C,2.000000*%
%ADD24R,3.200000X3.200000*%
%ADD25O,3.200000X3.200000*%
G04 APERTURE END LIST*
D10*
G04 #@! TO.C,J8*
X1905000Y-13970000D03*
X1905000Y-11430000D03*
D11*
X1905000Y-8890000D03*
G04 #@! TD*
D10*
G04 #@! TO.C,J7*
X-2540000Y6985000D03*
X-2540000Y9525000D03*
D11*
X-2540000Y12065000D03*
G04 #@! TD*
D12*
G04 #@! TO.C,U1*
X-21590000Y34290000D03*
D13*
X-21590000Y31750000D03*
X-21590000Y29210000D03*
X-21590000Y26670000D03*
X-21590000Y24130000D03*
X-21590000Y21590000D03*
X-21590000Y19050000D03*
X-21590000Y16510000D03*
X-21590000Y13970000D03*
X-21590000Y11430000D03*
X-21590000Y8890000D03*
X-21590000Y6350000D03*
X-21590000Y3810000D03*
X-21590000Y1270000D03*
X-21590000Y-1270000D03*
X-21590000Y-3810000D03*
X-21590000Y-6350000D03*
X-6350000Y-6350000D03*
X-6350000Y-3810000D03*
X-6350000Y-1270000D03*
X-6350000Y1270000D03*
X-6350000Y3810000D03*
X-6350000Y6350000D03*
X-6350000Y8890000D03*
X-6350000Y11430000D03*
X-6350000Y13970000D03*
X-6350000Y16510000D03*
X-6350000Y19050000D03*
X-6350000Y21590000D03*
X-6350000Y24130000D03*
X-6350000Y26670000D03*
X-6350000Y29210000D03*
X-6350000Y31750000D03*
X-6350000Y34290000D03*
G04 #@! TD*
D14*
G04 #@! TO.C,U2*
X9970000Y29745000D03*
X30970000Y29745000D03*
X30970000Y-8255000D03*
X9970000Y-8255000D03*
D12*
X26670000Y-7255000D03*
D13*
X24130000Y-7255000D03*
X21590000Y-7255000D03*
X19050000Y-7255000D03*
X16510000Y-7255000D03*
X13970000Y-7255000D03*
G04 #@! TD*
D15*
G04 #@! TO.C,D1*
G36*
X1295581Y-39966625D02*
X1328343Y-39971485D01*
X1360471Y-39979533D01*
X1391656Y-39990691D01*
X1421596Y-40004852D01*
X1450005Y-40021879D01*
X1476608Y-40041609D01*
X1501149Y-40063851D01*
X1523391Y-40088392D01*
X1543121Y-40114995D01*
X1560148Y-40143404D01*
X1574309Y-40173344D01*
X1585467Y-40204529D01*
X1593515Y-40236657D01*
X1598375Y-40269419D01*
X1600000Y-40302500D01*
X1600000Y-40977500D01*
X1598375Y-41010581D01*
X1593515Y-41043343D01*
X1585467Y-41075471D01*
X1574309Y-41106656D01*
X1560148Y-41136596D01*
X1543121Y-41165005D01*
X1523391Y-41191608D01*
X1501149Y-41216149D01*
X1476608Y-41238391D01*
X1450005Y-41258121D01*
X1421596Y-41275148D01*
X1391656Y-41289309D01*
X1360471Y-41300467D01*
X1328343Y-41308515D01*
X1295581Y-41313375D01*
X1262500Y-41315000D01*
X487500Y-41315000D01*
X454419Y-41313375D01*
X421657Y-41308515D01*
X389529Y-41300467D01*
X358344Y-41289309D01*
X328404Y-41275148D01*
X299995Y-41258121D01*
X273392Y-41238391D01*
X248851Y-41216149D01*
X226609Y-41191608D01*
X206879Y-41165005D01*
X189852Y-41136596D01*
X175691Y-41106656D01*
X164533Y-41075471D01*
X156485Y-41043343D01*
X151625Y-41010581D01*
X150000Y-40977500D01*
X150000Y-40302500D01*
X151625Y-40269419D01*
X156485Y-40236657D01*
X164533Y-40204529D01*
X175691Y-40173344D01*
X189852Y-40143404D01*
X206879Y-40114995D01*
X226609Y-40088392D01*
X248851Y-40063851D01*
X273392Y-40041609D01*
X299995Y-40021879D01*
X328404Y-40004852D01*
X358344Y-39990691D01*
X389529Y-39979533D01*
X421657Y-39971485D01*
X454419Y-39966625D01*
X487500Y-39965000D01*
X1262500Y-39965000D01*
X1295581Y-39966625D01*
X1295581Y-39966625D01*
G37*
D16*
X875000Y-40640000D03*
D15*
G36*
X-454419Y-39966625D02*
X-421657Y-39971485D01*
X-389529Y-39979533D01*
X-358344Y-39990691D01*
X-328404Y-40004852D01*
X-299995Y-40021879D01*
X-273392Y-40041609D01*
X-248851Y-40063851D01*
X-226609Y-40088392D01*
X-206879Y-40114995D01*
X-189852Y-40143404D01*
X-175691Y-40173344D01*
X-164533Y-40204529D01*
X-156485Y-40236657D01*
X-151625Y-40269419D01*
X-150000Y-40302500D01*
X-150000Y-40977500D01*
X-151625Y-41010581D01*
X-156485Y-41043343D01*
X-164533Y-41075471D01*
X-175691Y-41106656D01*
X-189852Y-41136596D01*
X-206879Y-41165005D01*
X-226609Y-41191608D01*
X-248851Y-41216149D01*
X-273392Y-41238391D01*
X-299995Y-41258121D01*
X-328404Y-41275148D01*
X-358344Y-41289309D01*
X-389529Y-41300467D01*
X-421657Y-41308515D01*
X-454419Y-41313375D01*
X-487500Y-41315000D01*
X-1262500Y-41315000D01*
X-1295581Y-41313375D01*
X-1328343Y-41308515D01*
X-1360471Y-41300467D01*
X-1391656Y-41289309D01*
X-1421596Y-41275148D01*
X-1450005Y-41258121D01*
X-1476608Y-41238391D01*
X-1501149Y-41216149D01*
X-1523391Y-41191608D01*
X-1543121Y-41165005D01*
X-1560148Y-41136596D01*
X-1574309Y-41106656D01*
X-1585467Y-41075471D01*
X-1593515Y-41043343D01*
X-1598375Y-41010581D01*
X-1600000Y-40977500D01*
X-1600000Y-40302500D01*
X-1598375Y-40269419D01*
X-1593515Y-40236657D01*
X-1585467Y-40204529D01*
X-1574309Y-40173344D01*
X-1560148Y-40143404D01*
X-1543121Y-40114995D01*
X-1523391Y-40088392D01*
X-1501149Y-40063851D01*
X-1476608Y-40041609D01*
X-1450005Y-40021879D01*
X-1421596Y-40004852D01*
X-1391656Y-39990691D01*
X-1360471Y-39979533D01*
X-1328343Y-39971485D01*
X-1295581Y-39966625D01*
X-1262500Y-39965000D01*
X-487500Y-39965000D01*
X-454419Y-39966625D01*
X-454419Y-39966625D01*
G37*
D16*
X-875000Y-40640000D03*
G04 #@! TD*
D17*
G04 #@! TO.C,J1*
X19050000Y-26670000D03*
D18*
X13970000Y-26670000D03*
G04 #@! TD*
G04 #@! TO.C,J2*
X-31750000Y12700000D03*
D17*
X-31750000Y7620000D03*
G04 #@! TD*
D15*
G04 #@! TO.C,R1*
G36*
X9948707Y-39566542D02*
X9979787Y-39571152D01*
X10010266Y-39578787D01*
X10039850Y-39589372D01*
X10068254Y-39602806D01*
X10095204Y-39618959D01*
X10120442Y-39637677D01*
X10143723Y-39658777D01*
X10164823Y-39682058D01*
X10183541Y-39707296D01*
X10199694Y-39734246D01*
X10213128Y-39762650D01*
X10223713Y-39792234D01*
X10231348Y-39822713D01*
X10235958Y-39853793D01*
X10237500Y-39885176D01*
X10237500Y-41394824D01*
X10235958Y-41426207D01*
X10231348Y-41457287D01*
X10223713Y-41487766D01*
X10213128Y-41517350D01*
X10199694Y-41545754D01*
X10183541Y-41572704D01*
X10164823Y-41597942D01*
X10143723Y-41621223D01*
X10120442Y-41642323D01*
X10095204Y-41661041D01*
X10068254Y-41677194D01*
X10039850Y-41690628D01*
X10010266Y-41701213D01*
X9979787Y-41708848D01*
X9948707Y-41713458D01*
X9917324Y-41715000D01*
X8732676Y-41715000D01*
X8701293Y-41713458D01*
X8670213Y-41708848D01*
X8639734Y-41701213D01*
X8610150Y-41690628D01*
X8581746Y-41677194D01*
X8554796Y-41661041D01*
X8529558Y-41642323D01*
X8506277Y-41621223D01*
X8485177Y-41597942D01*
X8466459Y-41572704D01*
X8450306Y-41545754D01*
X8436872Y-41517350D01*
X8426287Y-41487766D01*
X8418652Y-41457287D01*
X8414042Y-41426207D01*
X8412500Y-41394824D01*
X8412500Y-39885176D01*
X8414042Y-39853793D01*
X8418652Y-39822713D01*
X8426287Y-39792234D01*
X8436872Y-39762650D01*
X8450306Y-39734246D01*
X8466459Y-39707296D01*
X8485177Y-39682058D01*
X8506277Y-39658777D01*
X8529558Y-39637677D01*
X8554796Y-39618959D01*
X8581746Y-39602806D01*
X8610150Y-39589372D01*
X8639734Y-39578787D01*
X8670213Y-39571152D01*
X8701293Y-39566542D01*
X8732676Y-39565000D01*
X9917324Y-39565000D01*
X9948707Y-39566542D01*
X9948707Y-39566542D01*
G37*
D19*
X9325000Y-40640000D03*
D15*
G36*
X6973707Y-39566542D02*
X7004787Y-39571152D01*
X7035266Y-39578787D01*
X7064850Y-39589372D01*
X7093254Y-39602806D01*
X7120204Y-39618959D01*
X7145442Y-39637677D01*
X7168723Y-39658777D01*
X7189823Y-39682058D01*
X7208541Y-39707296D01*
X7224694Y-39734246D01*
X7238128Y-39762650D01*
X7248713Y-39792234D01*
X7256348Y-39822713D01*
X7260958Y-39853793D01*
X7262500Y-39885176D01*
X7262500Y-41394824D01*
X7260958Y-41426207D01*
X7256348Y-41457287D01*
X7248713Y-41487766D01*
X7238128Y-41517350D01*
X7224694Y-41545754D01*
X7208541Y-41572704D01*
X7189823Y-41597942D01*
X7168723Y-41621223D01*
X7145442Y-41642323D01*
X7120204Y-41661041D01*
X7093254Y-41677194D01*
X7064850Y-41690628D01*
X7035266Y-41701213D01*
X7004787Y-41708848D01*
X6973707Y-41713458D01*
X6942324Y-41715000D01*
X5757676Y-41715000D01*
X5726293Y-41713458D01*
X5695213Y-41708848D01*
X5664734Y-41701213D01*
X5635150Y-41690628D01*
X5606746Y-41677194D01*
X5579796Y-41661041D01*
X5554558Y-41642323D01*
X5531277Y-41621223D01*
X5510177Y-41597942D01*
X5491459Y-41572704D01*
X5475306Y-41545754D01*
X5461872Y-41517350D01*
X5451287Y-41487766D01*
X5443652Y-41457287D01*
X5439042Y-41426207D01*
X5437500Y-41394824D01*
X5437500Y-39885176D01*
X5439042Y-39853793D01*
X5443652Y-39822713D01*
X5451287Y-39792234D01*
X5461872Y-39762650D01*
X5475306Y-39734246D01*
X5491459Y-39707296D01*
X5510177Y-39682058D01*
X5531277Y-39658777D01*
X5554558Y-39637677D01*
X5579796Y-39618959D01*
X5606746Y-39602806D01*
X5635150Y-39589372D01*
X5664734Y-39578787D01*
X5695213Y-39571152D01*
X5726293Y-39566542D01*
X5757676Y-39565000D01*
X6942324Y-39565000D01*
X6973707Y-39566542D01*
X6973707Y-39566542D01*
G37*
D19*
X6350000Y-40640000D03*
G04 #@! TD*
D20*
G04 #@! TO.C,SW1*
X-3175000Y-12700000D03*
D21*
X-5715000Y-12700000D03*
X-8255000Y-12700000D03*
X-8255000Y-10160000D03*
X-5715000Y-10160000D03*
X-3175000Y-10160000D03*
G04 #@! TD*
G04 #@! TO.C,SW2*
X27940000Y-24130000D03*
X27940000Y-26670000D03*
X27940000Y-29210000D03*
X25400000Y-29210000D03*
X25400000Y-26670000D03*
D20*
X25400000Y-24130000D03*
G04 #@! TD*
G04 #@! TO.C,SW4*
X31750000Y12700000D03*
D21*
X34290000Y12700000D03*
X36830000Y12700000D03*
X36830000Y10160000D03*
X34290000Y10160000D03*
X31750000Y10160000D03*
G04 #@! TD*
G04 #@! TO.C,SW5*
X31750000Y3810000D03*
X34290000Y3810000D03*
X36830000Y3810000D03*
X36830000Y6350000D03*
X34290000Y6350000D03*
D20*
X31750000Y6350000D03*
G04 #@! TD*
D22*
G04 #@! TO.C,U3*
X4670000Y305000D03*
D23*
X4670000Y2305000D03*
X4670000Y4305000D03*
X4670000Y6305000D03*
X4670000Y8305000D03*
X4670000Y10305000D03*
X4670000Y12305000D03*
X4670000Y14305000D03*
X4670000Y16305000D03*
X4670000Y18305000D03*
X26670000Y18305000D03*
X26670000Y16305000D03*
X26670000Y14305000D03*
X26670000Y12305000D03*
X26670000Y10305000D03*
X26670000Y8305000D03*
X26670000Y6305000D03*
X26670000Y4305000D03*
X26670000Y2305000D03*
X26670000Y305000D03*
G04 #@! TD*
D24*
G04 #@! TO.C,SW3*
X12560000Y36500000D03*
D25*
X17640000Y36500000D03*
G04 #@! TD*
D10*
G04 #@! TO.C,J3*
X-29210000Y1270000D03*
X-29210000Y-1270000D03*
X-29210000Y-3810000D03*
X-29210000Y-6350000D03*
D11*
X-29210000Y-8890000D03*
G04 #@! TD*
D10*
G04 #@! TO.C,J4*
X-10160000Y16510000D03*
X-12700000Y16510000D03*
X-10160000Y13970000D03*
X-12700000Y13970000D03*
X-10160000Y11430000D03*
X-12700000Y11430000D03*
X-10160000Y8890000D03*
X-12700000Y8890000D03*
X-10160000Y6350000D03*
X-12700000Y6350000D03*
X-10160000Y3810000D03*
X-12700000Y3810000D03*
X-10160000Y1270000D03*
D11*
X-12700000Y1270000D03*
G04 #@! TD*
G04 #@! TO.C,J5*
X5715000Y33020000D03*
D10*
X5715000Y30480000D03*
X5715000Y27940000D03*
G04 #@! TD*
M02*
