G04 #@! TF.GenerationSoftware,KiCad,Pcbnew,(5.0.0)*
G04 #@! TF.CreationDate,2018-08-26T02:27:25+09:00*
G04 #@! TF.ProjectId,core,636F72652E6B696361645F7063620000,rev?*
G04 #@! TF.SameCoordinates,Original*
G04 #@! TF.FileFunction,Legend,Bot*
G04 #@! TF.FilePolarity,Positive*
%FSLAX46Y46*%
G04 Gerber Fmt 4.6, Leading zero omitted, Abs format (unit mm)*
G04 Created by KiCad (PCBNEW (5.0.0)) date 08/26/18 02:27:25*
%MOMM*%
%LPD*%
G01*
G04 APERTURE LIST*
%ADD10C,0.200000*%
%ADD11C,0.300000*%
%ADD12C,0.150000*%
%ADD13C,0.120000*%
G04 APERTURE END LIST*
D10*
X-14501904Y13517619D02*
X-14501904Y14517619D01*
X-14740000Y14517619D01*
X-14882857Y14470000D01*
X-14978095Y14374761D01*
X-15025714Y14279523D01*
X-15073333Y14089047D01*
X-15073333Y13946190D01*
X-15025714Y13755714D01*
X-14978095Y13660476D01*
X-14882857Y13565238D01*
X-14740000Y13517619D01*
X-14501904Y13517619D01*
X-15549523Y13517619D02*
X-15740000Y13517619D01*
X-15835238Y13565238D01*
X-15882857Y13612857D01*
X-15978095Y13755714D01*
X-16025714Y13946190D01*
X-16025714Y14327142D01*
X-15978095Y14422380D01*
X-15930476Y14470000D01*
X-15835238Y14517619D01*
X-15644761Y14517619D01*
X-15549523Y14470000D01*
X-15501904Y14422380D01*
X-15454285Y14327142D01*
X-15454285Y14089047D01*
X-15501904Y13993809D01*
X-15549523Y13946190D01*
X-15644761Y13898571D01*
X-15835238Y13898571D01*
X-15930476Y13946190D01*
X-15978095Y13993809D01*
X-16025714Y14089047D01*
X-14501904Y16057619D02*
X-14501904Y17057619D01*
X-14740000Y17057619D01*
X-14882857Y17010000D01*
X-14978095Y16914761D01*
X-15025714Y16819523D01*
X-15073333Y16629047D01*
X-15073333Y16486190D01*
X-15025714Y16295714D01*
X-14978095Y16200476D01*
X-14882857Y16105238D01*
X-14740000Y16057619D01*
X-14501904Y16057619D01*
X-15978095Y17057619D02*
X-15501904Y17057619D01*
X-15454285Y16581428D01*
X-15501904Y16629047D01*
X-15597142Y16676666D01*
X-15835238Y16676666D01*
X-15930476Y16629047D01*
X-15978095Y16581428D01*
X-16025714Y16486190D01*
X-16025714Y16248095D01*
X-15978095Y16152857D01*
X-15930476Y16105238D01*
X-15835238Y16057619D01*
X-15597142Y16057619D01*
X-15501904Y16105238D01*
X-15454285Y16152857D01*
X-17041904Y16057619D02*
X-17041904Y17057619D01*
X-17280000Y17057619D01*
X-17422857Y17010000D01*
X-17518095Y16914761D01*
X-17565714Y16819523D01*
X-17613333Y16629047D01*
X-17613333Y16486190D01*
X-17565714Y16295714D01*
X-17518095Y16200476D01*
X-17422857Y16105238D01*
X-17280000Y16057619D01*
X-17041904Y16057619D01*
X-18184761Y16629047D02*
X-18089523Y16676666D01*
X-18041904Y16724285D01*
X-17994285Y16819523D01*
X-17994285Y16867142D01*
X-18041904Y16962380D01*
X-18089523Y17010000D01*
X-18184761Y17057619D01*
X-18375238Y17057619D01*
X-18470476Y17010000D01*
X-18518095Y16962380D01*
X-18565714Y16867142D01*
X-18565714Y16819523D01*
X-18518095Y16724285D01*
X-18470476Y16676666D01*
X-18375238Y16629047D01*
X-18184761Y16629047D01*
X-18089523Y16581428D01*
X-18041904Y16533809D01*
X-17994285Y16438571D01*
X-17994285Y16248095D01*
X-18041904Y16152857D01*
X-18089523Y16105238D01*
X-18184761Y16057619D01*
X-18375238Y16057619D01*
X-18470476Y16105238D01*
X-18518095Y16152857D01*
X-18565714Y16248095D01*
X-18565714Y16438571D01*
X-18518095Y16533809D01*
X-18470476Y16581428D01*
X-18375238Y16629047D01*
X-14268571Y11068095D02*
X-14268571Y11868095D01*
X-14459047Y11868095D01*
X-14573333Y11830000D01*
X-14649523Y11753809D01*
X-14687619Y11677619D01*
X-14725714Y11525238D01*
X-14725714Y11410952D01*
X-14687619Y11258571D01*
X-14649523Y11182380D01*
X-14573333Y11106190D01*
X-14459047Y11068095D01*
X-14268571Y11068095D01*
X-15487619Y11068095D02*
X-15030476Y11068095D01*
X-15259047Y11068095D02*
X-15259047Y11868095D01*
X-15182857Y11753809D01*
X-15106666Y11677619D01*
X-15030476Y11639523D01*
X-15754285Y11868095D02*
X-16249523Y11868095D01*
X-15982857Y11563333D01*
X-16097142Y11563333D01*
X-16173333Y11525238D01*
X-16211428Y11487142D01*
X-16249523Y11410952D01*
X-16249523Y11220476D01*
X-16211428Y11144285D01*
X-16173333Y11106190D01*
X-16097142Y11068095D01*
X-15868571Y11068095D01*
X-15792380Y11106190D01*
X-15754285Y11144285D01*
X-14454285Y8437619D02*
X-14454285Y9437619D01*
X-15025714Y8437619D01*
X-15025714Y9437619D01*
X-16073333Y8532857D02*
X-16025714Y8485238D01*
X-15882857Y8437619D01*
X-15787619Y8437619D01*
X-15644761Y8485238D01*
X-15549523Y8580476D01*
X-15501904Y8675714D01*
X-15454285Y8866190D01*
X-15454285Y9009047D01*
X-15501904Y9199523D01*
X-15549523Y9294761D01*
X-15644761Y9390000D01*
X-15787619Y9437619D01*
X-15882857Y9437619D01*
X-16025714Y9390000D01*
X-16073333Y9342380D01*
X-16994285Y10977619D02*
X-16994285Y11977619D01*
X-17565714Y10977619D01*
X-17565714Y11977619D01*
X-18613333Y11072857D02*
X-18565714Y11025238D01*
X-18422857Y10977619D01*
X-18327619Y10977619D01*
X-18184761Y11025238D01*
X-18089523Y11120476D01*
X-18041904Y11215714D01*
X-17994285Y11406190D01*
X-17994285Y11549047D01*
X-18041904Y11739523D01*
X-18089523Y11834761D01*
X-18184761Y11930000D01*
X-18327619Y11977619D01*
X-18422857Y11977619D01*
X-18565714Y11930000D01*
X-18613333Y11882380D01*
X-16808571Y13608095D02*
X-16808571Y14408095D01*
X-16999047Y14408095D01*
X-17113333Y14370000D01*
X-17189523Y14293809D01*
X-17227619Y14217619D01*
X-17265714Y14065238D01*
X-17265714Y13950952D01*
X-17227619Y13798571D01*
X-17189523Y13722380D01*
X-17113333Y13646190D01*
X-16999047Y13608095D01*
X-16808571Y13608095D01*
X-18027619Y13608095D02*
X-17570476Y13608095D01*
X-17799047Y13608095D02*
X-17799047Y14408095D01*
X-17722857Y14293809D01*
X-17646666Y14217619D01*
X-17570476Y14179523D01*
X-18522857Y14408095D02*
X-18599047Y14408095D01*
X-18675238Y14370000D01*
X-18713333Y14331904D01*
X-18751428Y14255714D01*
X-18789523Y14103333D01*
X-18789523Y13912857D01*
X-18751428Y13760476D01*
X-18713333Y13684285D01*
X-18675238Y13646190D01*
X-18599047Y13608095D01*
X-18522857Y13608095D01*
X-18446666Y13646190D01*
X-18408571Y13684285D01*
X-18370476Y13760476D01*
X-18332380Y13912857D01*
X-18332380Y14103333D01*
X-18370476Y14255714D01*
X-18408571Y14331904D01*
X-18446666Y14370000D01*
X-18522857Y14408095D01*
X-16484761Y8756666D02*
X-16865714Y8756666D01*
X-16408571Y8528095D02*
X-16675238Y9328095D01*
X-16941904Y8528095D01*
X-17665714Y8528095D02*
X-17399047Y8909047D01*
X-17208571Y8528095D02*
X-17208571Y9328095D01*
X-17513333Y9328095D01*
X-17589523Y9290000D01*
X-17627619Y9251904D01*
X-17665714Y9175714D01*
X-17665714Y9061428D01*
X-17627619Y8985238D01*
X-17589523Y8947142D01*
X-17513333Y8909047D01*
X-17208571Y8909047D01*
X-18008571Y8947142D02*
X-18275238Y8947142D01*
X-18389523Y8528095D02*
X-18008571Y8528095D01*
X-18008571Y9328095D01*
X-18389523Y9328095D01*
X-18999047Y8947142D02*
X-18732380Y8947142D01*
X-18732380Y8528095D02*
X-18732380Y9328095D01*
X-19113333Y9328095D01*
D11*
X-25173571Y-8068571D02*
X-25673571Y-9568571D01*
X-26173571Y-8068571D01*
X-27387857Y-8068571D02*
X-26673571Y-8068571D01*
X-26602142Y-8782857D01*
X-26673571Y-8711428D01*
X-26816428Y-8640000D01*
X-27173571Y-8640000D01*
X-27316428Y-8711428D01*
X-27387857Y-8782857D01*
X-27459285Y-8925714D01*
X-27459285Y-9282857D01*
X-27387857Y-9425714D01*
X-27316428Y-9497142D01*
X-27173571Y-9568571D01*
X-26816428Y-9568571D01*
X-26673571Y-9497142D01*
X-26602142Y-9425714D01*
D10*
X-38187380Y12542808D02*
X-38187380Y12352332D01*
X-38235000Y12257093D01*
X-38282619Y12209474D01*
X-38425476Y12114236D01*
X-38615952Y12066617D01*
X-38996904Y12066617D01*
X-39092142Y12114236D01*
X-39139761Y12161855D01*
X-39187380Y12257093D01*
X-39187380Y12447570D01*
X-39139761Y12542808D01*
X-39092142Y12590427D01*
X-38996904Y12638046D01*
X-38758809Y12638046D01*
X-38663571Y12590427D01*
X-38615952Y12542808D01*
X-38568333Y12447570D01*
X-38568333Y12257093D01*
X-38615952Y12161855D01*
X-38663571Y12114236D01*
X-38758809Y12066617D01*
X-38187380Y7286666D02*
X-38187380Y7953333D01*
X-39187380Y7524761D01*
X3000000Y28000000D02*
G75*
G03X3000000Y28000000I-3000000J0D01*
G01*
X27248711Y-13999999D02*
G75*
G03X27248711Y-13999999I-3000000J0D01*
G01*
X-21248711Y-13999999D02*
G75*
G03X-21248711Y-13999999I-3000000J0D01*
G01*
X-14525714Y6183333D02*
X-15001904Y6183333D01*
X-14430476Y5897619D02*
X-14763809Y6897619D01*
X-15097142Y5897619D01*
X-15906666Y6897619D02*
X-15430476Y6897619D01*
X-15382857Y6421428D01*
X-15430476Y6469047D01*
X-15525714Y6516666D01*
X-15763809Y6516666D01*
X-15859047Y6469047D01*
X-15906666Y6421428D01*
X-15954285Y6326190D01*
X-15954285Y6088095D01*
X-15906666Y5992857D01*
X-15859047Y5945238D01*
X-15763809Y5897619D01*
X-15525714Y5897619D01*
X-15430476Y5945238D01*
X-15382857Y5992857D01*
X-17065714Y6183333D02*
X-17541904Y6183333D01*
X-16970476Y5897619D02*
X-17303809Y6897619D01*
X-17637142Y5897619D01*
X-18399047Y6564285D02*
X-18399047Y5897619D01*
X-18160952Y6945238D02*
X-17922857Y6230952D01*
X-18541904Y6230952D01*
X-17065714Y3643333D02*
X-17541904Y3643333D01*
X-16970476Y3357619D02*
X-17303809Y4357619D01*
X-17637142Y3357619D01*
X-17922857Y4262380D02*
X-17970476Y4310000D01*
X-18065714Y4357619D01*
X-18303809Y4357619D01*
X-18399047Y4310000D01*
X-18446666Y4262380D01*
X-18494285Y4167142D01*
X-18494285Y4071904D01*
X-18446666Y3929047D01*
X-17875238Y3357619D01*
X-18494285Y3357619D01*
X-14525714Y3643333D02*
X-15001904Y3643333D01*
X-14430476Y3357619D02*
X-14763809Y4357619D01*
X-15097142Y3357619D01*
X-15335238Y4357619D02*
X-15954285Y4357619D01*
X-15620952Y3976666D01*
X-15763809Y3976666D01*
X-15859047Y3929047D01*
X-15906666Y3881428D01*
X-15954285Y3786190D01*
X-15954285Y3548095D01*
X-15906666Y3452857D01*
X-15859047Y3405238D01*
X-15763809Y3357619D01*
X-15478095Y3357619D01*
X-15382857Y3405238D01*
X-15335238Y3452857D01*
X-14525714Y1103333D02*
X-15001904Y1103333D01*
X-14430476Y817619D02*
X-14763809Y1817619D01*
X-15097142Y817619D01*
X-15954285Y817619D02*
X-15382857Y817619D01*
X-15668571Y817619D02*
X-15668571Y1817619D01*
X-15573333Y1674761D01*
X-15478095Y1579523D01*
X-15382857Y1531904D01*
X-17065714Y1103333D02*
X-17541904Y1103333D01*
X-16970476Y817619D02*
X-17303809Y1817619D01*
X-17637142Y817619D01*
X-18160952Y1817619D02*
X-18256190Y1817619D01*
X-18351428Y1770000D01*
X-18399047Y1722380D01*
X-18446666Y1627142D01*
X-18494285Y1436666D01*
X-18494285Y1198571D01*
X-18446666Y1008095D01*
X-18399047Y912857D01*
X-18351428Y865238D01*
X-18256190Y817619D01*
X-18160952Y817619D01*
X-18065714Y865238D01*
X-18018095Y912857D01*
X-17970476Y1008095D01*
X-17922857Y1198571D01*
X-17922857Y1436666D01*
X-17970476Y1627142D01*
X-18018095Y1722380D01*
X-18065714Y1770000D01*
X-18160952Y1817619D01*
D11*
X-41040857Y-2035714D02*
X-41112285Y-1821428D01*
X-41183714Y-1750000D01*
X-41326571Y-1678571D01*
X-41540857Y-1678571D01*
X-41683714Y-1750000D01*
X-41755142Y-1821428D01*
X-41826571Y-1964285D01*
X-41826571Y-2535714D01*
X-40326571Y-2535714D01*
X-40326571Y-2035714D01*
X-40398000Y-1892857D01*
X-40469428Y-1821428D01*
X-40612285Y-1750000D01*
X-40755142Y-1750000D01*
X-40898000Y-1821428D01*
X-40969428Y-1892857D01*
X-41040857Y-2035714D01*
X-41040857Y-2535714D01*
X-41398000Y-1107142D02*
X-41398000Y-392857D01*
X-41826571Y-1249999D02*
X-40326571Y-750000D01*
X-41826571Y-249999D01*
X-41683714Y1107142D02*
X-41755142Y1035714D01*
X-41826571Y821428D01*
X-41826571Y678571D01*
X-41755142Y464285D01*
X-41612285Y321428D01*
X-41469428Y250000D01*
X-41183714Y178571D01*
X-40969428Y178571D01*
X-40683714Y249999D01*
X-40540857Y321428D01*
X-40398000Y464285D01*
X-40326571Y678571D01*
X-40326571Y821428D01*
X-40398000Y1035714D01*
X-40469428Y1107142D01*
X-41826571Y1750000D02*
X-40326571Y1749999D01*
X-41826571Y2607142D02*
X-40969428Y1964285D01*
X-40326571Y2607142D02*
X-41183714Y1750000D01*
X9957142Y32503571D02*
X10957142Y34003571D01*
X10957142Y32503571D02*
X9957142Y34003571D01*
X12028571Y33217857D02*
X12242857Y33289285D01*
X12314285Y33360714D01*
X12385714Y33503571D01*
X12385714Y33717857D01*
X12314285Y33860714D01*
X12242857Y33932142D01*
X12100000Y34003571D01*
X11528571Y34003571D01*
X11528571Y32503571D01*
X12028571Y32503571D01*
X12171428Y32575000D01*
X12242857Y32646428D01*
X12314285Y32789285D01*
X12314285Y32932142D01*
X12242857Y33075000D01*
X12171428Y33146428D01*
X12028571Y33217857D01*
X11528571Y33217857D01*
X13600000Y33932142D02*
X13457142Y34003571D01*
X13171428Y34003571D01*
X13028571Y33932142D01*
X12957142Y33789285D01*
X12957142Y33217857D01*
X13028571Y33075000D01*
X13171428Y33003571D01*
X13457142Y33003571D01*
X13600000Y33075000D01*
X13671428Y33217857D01*
X13671428Y33360714D01*
X12957142Y33503571D01*
X14885714Y33932142D02*
X14742857Y34003571D01*
X14457142Y34003571D01*
X14314285Y33932142D01*
X14242857Y33789285D01*
X14242857Y33217857D01*
X14314285Y33075000D01*
X14457142Y33003571D01*
X14742857Y33003571D01*
X14885714Y33075000D01*
X14957142Y33217857D01*
X14957142Y33360714D01*
X14242857Y33503571D01*
X17600000Y34003571D02*
X17100000Y33289285D01*
X16742857Y34003571D02*
X16742857Y32503571D01*
X17314285Y32503571D01*
X17457142Y32575000D01*
X17528571Y32646428D01*
X17600000Y32789285D01*
X17600000Y33003571D01*
X17528571Y33146428D01*
X17457142Y33217857D01*
X17314285Y33289285D01*
X16742857Y33289285D01*
X18171428Y33932142D02*
X18385714Y34003571D01*
X18742857Y34003571D01*
X18885714Y33932142D01*
X18957142Y33860714D01*
X19028571Y33717857D01*
X19028571Y33575000D01*
X18957142Y33432142D01*
X18885714Y33360714D01*
X18742857Y33289285D01*
X18457142Y33217857D01*
X18314285Y33146428D01*
X18242857Y33075000D01*
X18171428Y32932142D01*
X18171428Y32789285D01*
X18242857Y32646428D01*
X18314285Y32575000D01*
X18457142Y32503571D01*
X18814285Y32503571D01*
X19028571Y32575000D01*
X19457142Y32503571D02*
X20314285Y32503571D01*
X19885714Y34003571D02*
X19885714Y32503571D01*
X-10116428Y-5465714D02*
X-10116428Y-4608571D01*
X-10116428Y-5037142D02*
X-11616428Y-5037142D01*
X-11402142Y-4894285D01*
X-11259285Y-4751428D01*
X-11187857Y-4608571D01*
X-11473571Y-6037142D02*
X-11545000Y-6108571D01*
X-11616428Y-6251428D01*
X-11616428Y-6608571D01*
X-11545000Y-6751428D01*
X-11473571Y-6822857D01*
X-11330714Y-6894285D01*
X-11187857Y-6894285D01*
X-10973571Y-6822857D01*
X-10116428Y-5965714D01*
X-10116428Y-6894285D01*
X-10116428Y-9537142D02*
X-10830714Y-9037142D01*
X-10116428Y-8679999D02*
X-11616428Y-8679999D01*
X-11616428Y-9251428D01*
X-11545000Y-9394285D01*
X-11473571Y-9465714D01*
X-11330714Y-9537142D01*
X-11116428Y-9537142D01*
X-10973571Y-9465714D01*
X-10902142Y-9394285D01*
X-10830714Y-9251428D01*
X-10830714Y-8679999D01*
X-10116428Y-10037142D02*
X-11116428Y-10822857D01*
X-11116428Y-10037142D02*
X-10116428Y-10822857D01*
X-10116428Y-13322857D02*
X-10116428Y-12465714D01*
X-10116428Y-12894285D02*
X-11616428Y-12894285D01*
X-11402142Y-12751428D01*
X-11259285Y-12608571D01*
X-11187857Y-12465714D01*
X-10116428Y-14751428D02*
X-10116428Y-13894285D01*
X-10116428Y-14322857D02*
X-11616428Y-14322857D01*
X-11402142Y-14179999D01*
X-11259285Y-14037142D01*
X-11187857Y-13894285D01*
X-11616428Y-16322857D02*
X-11616428Y-17180000D01*
X-10116428Y-16751428D02*
X-11616428Y-16751428D01*
X-10116428Y-17537142D02*
X-11116428Y-18322857D01*
X-11116428Y-17537142D02*
X-10116428Y-18322857D01*
X-7647857Y-14589285D02*
X-7576428Y-14803571D01*
X-7576428Y-15160714D01*
X-7647857Y-15303571D01*
X-7719285Y-15375000D01*
X-7862142Y-15446428D01*
X-8005000Y-15446428D01*
X-8147857Y-15375000D01*
X-8219285Y-15303571D01*
X-8290714Y-15160714D01*
X-8362142Y-14875000D01*
X-8433571Y-14732142D01*
X-8505000Y-14660714D01*
X-8647857Y-14589285D01*
X-8790714Y-14589285D01*
X-8933571Y-14660714D01*
X-9005000Y-14732142D01*
X-9076428Y-14875000D01*
X-9076428Y-15232142D01*
X-9005000Y-15446428D01*
X-9076428Y-15946428D02*
X-7576428Y-16303571D01*
X-8647857Y-16589285D01*
X-7576428Y-16875000D01*
X-9076428Y-17232142D01*
X-2496428Y-14510000D02*
X-3996428Y-14510000D01*
X-3282142Y-14510000D02*
X-3282142Y-15367142D01*
X-2496428Y-15367142D02*
X-3996428Y-15367142D01*
X-3996428Y-15938571D02*
X-2496428Y-16295714D01*
X-3567857Y-16581428D01*
X-2496428Y-16867142D01*
X-3996428Y-17224285D01*
X-2496428Y-18581428D02*
X-2496428Y-17724285D01*
X-2496428Y-18152857D02*
X-3996428Y-18152857D01*
X-3782142Y-18010000D01*
X-3639285Y-17867142D01*
X-3567857Y-17724285D01*
X-1456428Y-6108571D02*
X43571Y-7108571D01*
X-1456428Y-7108571D02*
X43571Y-6108571D01*
X-742142Y-8179999D02*
X-670714Y-8394285D01*
X-599285Y-8465714D01*
X-456428Y-8537142D01*
X-242142Y-8537142D01*
X-99285Y-8465714D01*
X-27857Y-8394285D01*
X43571Y-8251428D01*
X43571Y-7679999D01*
X-1456428Y-7679999D01*
X-1456428Y-8179999D01*
X-1384999Y-8322857D01*
X-1313571Y-8394285D01*
X-1170714Y-8465714D01*
X-1027857Y-8465714D01*
X-884999Y-8394285D01*
X-813571Y-8322857D01*
X-742142Y-8179999D01*
X-742142Y-7679999D01*
X-27857Y-9751428D02*
X43571Y-9608571D01*
X43571Y-9322857D01*
X-27857Y-9180000D01*
X-170714Y-9108571D01*
X-742142Y-9108571D01*
X-884999Y-9180000D01*
X-956428Y-9322857D01*
X-956428Y-9608571D01*
X-884999Y-9751428D01*
X-742142Y-9822857D01*
X-599285Y-9822857D01*
X-456428Y-9108571D01*
X-27857Y-11037142D02*
X43571Y-10894285D01*
X43571Y-10608571D01*
X-27857Y-10465714D01*
X-170714Y-10394285D01*
X-742142Y-10394285D01*
X-885000Y-10465714D01*
X-956428Y-10608571D01*
X-956428Y-10894285D01*
X-885000Y-11037142D01*
X-742142Y-11108571D01*
X-599285Y-11108571D01*
X-456428Y-10394285D01*
X-27857Y-12822857D02*
X43571Y-13037142D01*
X43571Y-13394285D01*
X-27857Y-13537142D01*
X-99285Y-13608571D01*
X-242142Y-13680000D01*
X-385000Y-13680000D01*
X-527857Y-13608571D01*
X-599285Y-13537142D01*
X-670714Y-13394285D01*
X-742142Y-13108571D01*
X-813571Y-12965714D01*
X-885000Y-12894285D01*
X-1027857Y-12822857D01*
X-1170714Y-12822857D01*
X-1313571Y-12894285D01*
X-1385000Y-12965714D01*
X-1456428Y-13108571D01*
X-1456428Y-13465714D01*
X-1385000Y-13680000D01*
X43571Y-15179999D02*
X-670714Y-14679999D01*
X43571Y-14322857D02*
X-1456428Y-14322857D01*
X-1456428Y-14894285D01*
X-1385000Y-15037142D01*
X-1313571Y-15108571D01*
X-1170714Y-15179999D01*
X-956428Y-15179999D01*
X-813571Y-15108571D01*
X-742142Y-15037142D01*
X-670714Y-14894285D01*
X-670714Y-14322857D01*
X-99285Y-16679999D02*
X-27857Y-16608571D01*
X43571Y-16394285D01*
X43571Y-16251428D01*
X-27857Y-16037142D01*
X-170714Y-15894285D01*
X-313571Y-15822857D01*
X-599285Y-15751428D01*
X-813571Y-15751428D01*
X-1099285Y-15822857D01*
X-1242142Y-15894285D01*
X-1385000Y-16037142D01*
X-1456428Y-16251428D01*
X-1456428Y-16394285D01*
X-1385000Y-16608571D01*
X-1313571Y-16679999D01*
X31642857Y1250000D02*
X31714285Y1035714D01*
X31785714Y964285D01*
X31928571Y892857D01*
X32142857Y892857D01*
X32285714Y964285D01*
X32357142Y1035714D01*
X32428571Y1178571D01*
X32428571Y1750000D01*
X30928571Y1750000D01*
X30928571Y1250000D01*
X31000000Y1107142D01*
X31071428Y1035714D01*
X31214285Y964285D01*
X31357142Y964285D01*
X31500000Y1035714D01*
X31571428Y1107142D01*
X31642857Y1250000D01*
X31642857Y1750000D01*
X30928571Y-35714D02*
X30928571Y-321428D01*
X31000000Y-464285D01*
X31142857Y-607142D01*
X31428571Y-678571D01*
X31928571Y-678571D01*
X32214285Y-607142D01*
X32357142Y-464285D01*
X32428571Y-321428D01*
X32428571Y-35714D01*
X32357142Y107142D01*
X32214285Y249999D01*
X31928571Y321428D01*
X31428571Y321428D01*
X31142857Y250000D01*
X31000000Y107142D01*
X30928571Y-35714D01*
X30928571Y-1107142D02*
X30928571Y-1964285D01*
X32428571Y-1535714D02*
X30928571Y-1535714D01*
X36008571Y1964285D02*
X36008571Y1107142D01*
X37508571Y1535714D02*
X36008571Y1535714D01*
X36008571Y321428D02*
X36008571Y35714D01*
X36080000Y-107142D01*
X36222857Y-249999D01*
X36508571Y-321428D01*
X37008571Y-321428D01*
X37294285Y-250000D01*
X37437142Y-107142D01*
X37508571Y35714D01*
X37508571Y321428D01*
X37437142Y464285D01*
X37294285Y607142D01*
X37008571Y678571D01*
X36508571Y678571D01*
X36222857Y607142D01*
X36080000Y464285D01*
X36008571Y321428D01*
X37508571Y-964285D02*
X36008571Y-964285D01*
X36008571Y-1535714D01*
X36080000Y-1678571D01*
X36151428Y-1750000D01*
X36294285Y-1821428D01*
X36508571Y-1821428D01*
X36651428Y-1750000D01*
X36722857Y-1678571D01*
X36794285Y-1535714D01*
X36794285Y-964285D01*
X39048571Y12183571D02*
X40048571Y12183571D01*
X39048571Y12826428D02*
X39834285Y12826428D01*
X39977142Y12755000D01*
X40048571Y12612142D01*
X40048571Y12397857D01*
X39977142Y12255000D01*
X39905714Y12183571D01*
X39977142Y11540714D02*
X40048571Y11326428D01*
X40048571Y10969285D01*
X39977142Y10826428D01*
X39905714Y10755000D01*
X39762857Y10683571D01*
X39620000Y10683571D01*
X39477142Y10755000D01*
X39405714Y10826428D01*
X39334285Y10969285D01*
X39262857Y11255000D01*
X39191428Y11397857D01*
X39120000Y11469285D01*
X38977142Y11540714D01*
X38834285Y11540714D01*
X38691428Y11469285D01*
X38620000Y11397857D01*
X38548571Y11255000D01*
X38548571Y10897857D01*
X38620000Y10683571D01*
X40048571Y10040714D02*
X38548571Y10040714D01*
X38548571Y9683571D01*
X38620000Y9469285D01*
X38762857Y9326428D01*
X38905714Y9255000D01*
X39191428Y9183571D01*
X39405714Y9183571D01*
X39691428Y9255000D01*
X39834285Y9326428D01*
X39977142Y9469285D01*
X40048571Y9683571D01*
X40048571Y10040714D01*
X39977142Y7469285D02*
X40048571Y7255000D01*
X40048571Y6897857D01*
X39977142Y6755000D01*
X39905714Y6683571D01*
X39762857Y6612142D01*
X39620000Y6612142D01*
X39477142Y6683571D01*
X39405714Y6755000D01*
X39334285Y6897857D01*
X39262857Y7183571D01*
X39191428Y7326428D01*
X39120000Y7397857D01*
X38977142Y7469285D01*
X38834285Y7469285D01*
X38691428Y7397857D01*
X38620000Y7326428D01*
X38548571Y7183571D01*
X38548571Y6826428D01*
X38620000Y6612142D01*
X40048571Y5112142D02*
X39334285Y5612142D01*
X40048571Y5969285D02*
X38548571Y5969285D01*
X38548571Y5397857D01*
X38620000Y5255000D01*
X38691428Y5183571D01*
X38834285Y5112142D01*
X39048571Y5112142D01*
X39191428Y5183571D01*
X39262857Y5255000D01*
X39334285Y5397857D01*
X39334285Y5969285D01*
X39905714Y3612142D02*
X39977142Y3683571D01*
X40048571Y3897857D01*
X40048571Y4040714D01*
X39977142Y4255000D01*
X39834285Y4397857D01*
X39691428Y4469285D01*
X39405714Y4540714D01*
X39191428Y4540714D01*
X38905714Y4469285D01*
X38762857Y4397857D01*
X38620000Y4255000D01*
X38548571Y4040714D01*
X38548571Y3897857D01*
X38620000Y3683571D01*
X38691428Y3612142D01*
X-23816428Y662857D02*
X-24030714Y591428D01*
X-24387857Y591428D01*
X-24530714Y662857D01*
X-24602142Y734285D01*
X-24673571Y877142D01*
X-24673571Y1020000D01*
X-24602142Y1162857D01*
X-24530714Y1234285D01*
X-24387857Y1305714D01*
X-24102142Y1377142D01*
X-23959285Y1448571D01*
X-23887857Y1520000D01*
X-23816428Y1662857D01*
X-23816428Y1805714D01*
X-23887857Y1948571D01*
X-23959285Y2020000D01*
X-24102142Y2091428D01*
X-24459285Y2091428D01*
X-24673571Y2020000D01*
X-25316428Y591428D02*
X-25316428Y2091428D01*
X-25673571Y2091428D01*
X-25887857Y2020000D01*
X-26030714Y1877142D01*
X-26102142Y1734285D01*
X-26173571Y1448571D01*
X-26173571Y1234285D01*
X-26102142Y948571D01*
X-26030714Y805714D01*
X-25887857Y662857D01*
X-25673571Y591428D01*
X-25316428Y591428D01*
X-26745000Y1020000D02*
X-27459285Y1020000D01*
X-26602142Y591428D02*
X-27102142Y2091428D01*
X-27602142Y591428D01*
X-23887857Y-1877142D02*
X-24102142Y-1948571D01*
X-24459285Y-1948571D01*
X-24602142Y-1877142D01*
X-24673571Y-1805714D01*
X-24745000Y-1662857D01*
X-24745000Y-1520000D01*
X-24673571Y-1377142D01*
X-24602142Y-1305714D01*
X-24459285Y-1234285D01*
X-24173571Y-1162857D01*
X-24030714Y-1091428D01*
X-23959285Y-1020000D01*
X-23887857Y-877142D01*
X-23887857Y-734285D01*
X-23959285Y-591428D01*
X-24030714Y-520000D01*
X-24173571Y-448571D01*
X-24530714Y-448571D01*
X-24745000Y-520000D01*
X-26245000Y-1805714D02*
X-26173571Y-1877142D01*
X-25959285Y-1948571D01*
X-25816428Y-1948571D01*
X-25602142Y-1877142D01*
X-25459285Y-1734285D01*
X-25387857Y-1591428D01*
X-25316428Y-1305714D01*
X-25316428Y-1091428D01*
X-25387857Y-805714D01*
X-25459285Y-662857D01*
X-25602142Y-520000D01*
X-25816428Y-448571D01*
X-25959285Y-448571D01*
X-26173571Y-520000D01*
X-26245000Y-591428D01*
X-27602142Y-1948571D02*
X-26887857Y-1948571D01*
X-26887857Y-448571D01*
X-24316428Y-3060000D02*
X-24173571Y-2988571D01*
X-23959285Y-2988571D01*
X-23745000Y-3060000D01*
X-23602142Y-3202857D01*
X-23530714Y-3345714D01*
X-23459285Y-3631428D01*
X-23459285Y-3845714D01*
X-23530714Y-4131428D01*
X-23602142Y-4274285D01*
X-23745000Y-4417142D01*
X-23959285Y-4488571D01*
X-24102142Y-4488571D01*
X-24316428Y-4417142D01*
X-24387857Y-4345714D01*
X-24387857Y-3845714D01*
X-24102142Y-3845714D01*
X-25030714Y-4488571D02*
X-25030714Y-2988571D01*
X-25887857Y-4488571D01*
X-25887857Y-2988571D01*
X-26602142Y-4488571D02*
X-26602142Y-2988571D01*
X-26959285Y-2988571D01*
X-27173571Y-3060000D01*
X-27316428Y-3202857D01*
X-27387857Y-3345714D01*
X-27459285Y-3631428D01*
X-27459285Y-3845714D01*
X-27387857Y-4131428D01*
X-27316428Y-4274285D01*
X-27173571Y-4417142D01*
X-26959285Y-4488571D01*
X-26602142Y-4488571D01*
X-23030714Y-5528571D02*
X-23530714Y-7028571D01*
X-24030714Y-5528571D01*
X-24387857Y-5528571D02*
X-25316428Y-5528571D01*
X-24816428Y-6100000D01*
X-25030714Y-6100000D01*
X-25173571Y-6171428D01*
X-25245000Y-6242857D01*
X-25316428Y-6385714D01*
X-25316428Y-6742857D01*
X-25245000Y-6885714D01*
X-25173571Y-6957142D01*
X-25030714Y-7028571D01*
X-24602142Y-7028571D01*
X-24459285Y-6957142D01*
X-24387857Y-6885714D01*
X-25959285Y-6885714D02*
X-26030714Y-6957142D01*
X-25959285Y-7028571D01*
X-25887857Y-6957142D01*
X-25959285Y-6885714D01*
X-25959285Y-7028571D01*
X-26530714Y-5528571D02*
X-27459285Y-5528571D01*
X-26959285Y-6100000D01*
X-27173571Y-6100000D01*
X-27316428Y-6171428D01*
X-27387857Y-6242857D01*
X-27459285Y-6385714D01*
X-27459285Y-6742857D01*
X-27387857Y-6885714D01*
X-27316428Y-6957142D01*
X-27173571Y-7028571D01*
X-26745000Y-7028571D01*
X-26602142Y-6957142D01*
X-26530714Y-6885714D01*
X-31706428Y-1075714D02*
X-33206428Y-1075714D01*
X-33063571Y-1718571D02*
X-33135000Y-1790000D01*
X-33206428Y-1932857D01*
X-33206428Y-2290000D01*
X-33135000Y-2432857D01*
X-33063571Y-2504285D01*
X-32920714Y-2575714D01*
X-32777857Y-2575714D01*
X-32563571Y-2504285D01*
X-31706428Y-1647142D01*
X-31706428Y-2575714D01*
X-31849285Y-4075714D02*
X-31777857Y-4004285D01*
X-31706428Y-3790000D01*
X-31706428Y-3647142D01*
X-31777857Y-3432857D01*
X-31920714Y-3290000D01*
X-32063571Y-3218571D01*
X-32349285Y-3147142D01*
X-32563571Y-3147142D01*
X-32849285Y-3218571D01*
X-32992142Y-3290000D01*
X-33135000Y-3432857D01*
X-33206428Y-3647142D01*
X-33206428Y-3790000D01*
X-33135000Y-4004285D01*
X-33063571Y-4075714D01*
D12*
X1414214Y0D02*
G75*
G03X1414214Y0I-1414214J0D01*
G01*
D11*
X-27348571Y5624285D02*
X-25848571Y5624285D01*
X-25848571Y6195714D01*
X-25920000Y6338571D01*
X-25991428Y6410000D01*
X-26134285Y6481428D01*
X-26348571Y6481428D01*
X-26491428Y6410000D01*
X-26562857Y6338571D01*
X-26634285Y6195714D01*
X-26634285Y5624285D01*
X-27348571Y7767142D02*
X-26562857Y7767142D01*
X-26420000Y7695714D01*
X-26348571Y7552857D01*
X-26348571Y7267142D01*
X-26420000Y7124285D01*
X-27277142Y7767142D02*
X-27348571Y7624285D01*
X-27348571Y7267142D01*
X-27277142Y7124285D01*
X-27134285Y7052857D01*
X-26991428Y7052857D01*
X-26848571Y7124285D01*
X-26777142Y7267142D01*
X-26777142Y7624285D01*
X-26705714Y7767142D01*
X-27348571Y8481428D02*
X-26348571Y8481428D01*
X-26634285Y8481428D02*
X-26491428Y8552857D01*
X-26420000Y8624285D01*
X-26348571Y8767142D01*
X-26348571Y8910000D01*
X-27348571Y10052857D02*
X-26562857Y10052857D01*
X-26420000Y9981428D01*
X-26348571Y9838571D01*
X-26348571Y9552857D01*
X-26420000Y9410000D01*
X-27277142Y10052857D02*
X-27348571Y9910000D01*
X-27348571Y9552857D01*
X-27277142Y9410000D01*
X-27134285Y9338571D01*
X-26991428Y9338571D01*
X-26848571Y9410000D01*
X-26777142Y9552857D01*
X-26777142Y9910000D01*
X-26705714Y10052857D01*
X-27277142Y11838571D02*
X-27348571Y12052857D01*
X-27348571Y12410000D01*
X-27277142Y12552857D01*
X-27205714Y12624285D01*
X-27062857Y12695714D01*
X-26920000Y12695714D01*
X-26777142Y12624285D01*
X-26705714Y12552857D01*
X-26634285Y12410000D01*
X-26562857Y12124285D01*
X-26491428Y11981428D01*
X-26420000Y11910000D01*
X-26277142Y11838571D01*
X-26134285Y11838571D01*
X-25991428Y11910000D01*
X-25920000Y11981428D01*
X-25848571Y12124285D01*
X-25848571Y12481428D01*
X-25920000Y12695714D01*
X-27348571Y13338571D02*
X-26348571Y13338571D01*
X-25848571Y13338571D02*
X-25920000Y13267142D01*
X-25991428Y13338571D01*
X-25920000Y13410000D01*
X-25848571Y13338571D01*
X-25991428Y13338571D01*
X-26348571Y14695714D02*
X-27562857Y14695714D01*
X-27705714Y14624285D01*
X-27777142Y14552857D01*
X-27848571Y14410000D01*
X-27848571Y14195714D01*
X-27777142Y14052857D01*
X-27277142Y14695714D02*
X-27348571Y14552857D01*
X-27348571Y14267142D01*
X-27277142Y14124285D01*
X-27205714Y14052857D01*
X-27062857Y13981428D01*
X-26634285Y13981428D01*
X-26491428Y14052857D01*
X-26420000Y14124285D01*
X-26348571Y14267142D01*
X-26348571Y14552857D01*
X-26420000Y14695714D01*
X-37508571Y6477142D02*
X-36008571Y6477142D01*
X-36008571Y6834285D01*
X-36080000Y7048571D01*
X-36222857Y7191428D01*
X-36365714Y7262857D01*
X-36651428Y7334285D01*
X-36865714Y7334285D01*
X-37151428Y7262857D01*
X-37294285Y7191428D01*
X-37437142Y7048571D01*
X-37508571Y6834285D01*
X-37508571Y6477142D01*
X-37508571Y7977142D02*
X-36008571Y7977142D01*
X-36008571Y8548571D01*
X-36080000Y8691428D01*
X-36151428Y8762857D01*
X-36294285Y8834285D01*
X-36508571Y8834285D01*
X-36651428Y8762857D01*
X-36722857Y8691428D01*
X-36794285Y8548571D01*
X-36794285Y7977142D01*
X-37508571Y11450000D02*
X-36008571Y11450000D01*
X-37080000Y11950000D01*
X-36008571Y12450000D01*
X-37508571Y12450000D01*
X-37508571Y13164285D02*
X-36008571Y13164285D01*
X-36008571Y13735714D01*
X-36080000Y13878571D01*
X-36151428Y13950000D01*
X-36294285Y14021428D01*
X-36508571Y14021428D01*
X-36651428Y13950000D01*
X-36722857Y13878571D01*
X-36794285Y13735714D01*
X-36794285Y13164285D01*
D12*
G04 #@! TO.C,U1*
X-22860000Y35560000D02*
X-20320000Y35560000D01*
X-20320000Y35560000D02*
X-20320000Y-7620000D01*
X-20320000Y-7620000D02*
X-22860000Y-7620000D01*
X-22860000Y-7620000D02*
X-22860000Y35560000D01*
X-7620000Y35560000D02*
X-5080000Y35560000D01*
X-5080000Y35560000D02*
X-5080000Y-7620000D01*
X-5080000Y-7620000D02*
X-7620000Y-7620000D01*
X-7620000Y-7620000D02*
X-7620000Y35560000D01*
G04 #@! TO.C,U2*
X27940000Y-8525000D02*
X12700000Y-8525000D01*
X27940000Y-5985000D02*
X27940000Y-8525000D01*
X12700000Y-5985000D02*
X27940000Y-5985000D01*
X12700000Y-8525000D02*
X12700000Y-5985000D01*
D13*
G04 #@! TO.C,J2*
X-29210000Y5080000D02*
X-29210000Y15240000D01*
X-27940000Y5080000D02*
X-35560000Y5080000D01*
X-35560000Y5080000D02*
X-35560000Y15240000D01*
X-35560000Y15240000D02*
X-27940000Y15240000D01*
X-27940000Y15240000D02*
X-27940000Y5080000D01*
G04 #@! TO.C,SW1*
X-9575800Y-14041120D02*
X-9575800Y-8818880D01*
X-1854200Y-14041120D02*
X-1854200Y-8818880D01*
X-9575800Y-14041120D02*
X-1854200Y-14041120D01*
X-1854200Y-8818880D02*
X-9575800Y-8818880D01*
G04 #@! TO.C,SW4*
X38150800Y14041120D02*
X38150800Y8818880D01*
X30429200Y14041120D02*
X30429200Y8818880D01*
X38150800Y14041120D02*
X30429200Y14041120D01*
X30429200Y8818880D02*
X38150800Y8818880D01*
G04 #@! TO.C,SW5*
X30429200Y2468880D02*
X38150800Y2468880D01*
X38150800Y7691120D02*
X30429200Y7691120D01*
X30429200Y7691120D02*
X30429200Y2468880D01*
X38150800Y7691120D02*
X38150800Y2468880D01*
D12*
G04 #@! TO.C,U3*
X3670000Y-695000D02*
X3670000Y19305000D01*
X3670000Y19305000D02*
X3670000Y25305000D01*
X3670000Y25305000D02*
X27670000Y25305000D01*
X27670000Y25305000D02*
X27670000Y-695000D01*
X27670000Y-695000D02*
X20670000Y-7695000D01*
X20670000Y-7695000D02*
X11670000Y-7695000D01*
X11670000Y-7695000D02*
X10670000Y-7695000D01*
X10670000Y-7695000D02*
X3670000Y-695000D01*
X3670000Y-695000D02*
X5670000Y-695000D01*
X5670000Y-695000D02*
X5670000Y19305000D01*
X5670000Y19305000D02*
X3670000Y19305000D01*
X27670000Y-695000D02*
X25670000Y-695000D01*
X25670000Y-695000D02*
X25670000Y19305000D01*
X25670000Y19305000D02*
X27670000Y19305000D01*
D13*
G04 #@! TO.C,SW3*
X14734899Y36500000D02*
G75*
G03X14734899Y36500000I-2174899J0D01*
G01*
X14734899Y36500000D02*
X15940000Y36500000D01*
G04 #@! TO.C,J3*
X-30540000Y-10220000D02*
X-29210000Y-10220000D01*
X-30540000Y-8890000D02*
X-30540000Y-10220000D01*
X-30540000Y-7620000D02*
X-27880000Y-7620000D01*
X-27880000Y-7620000D02*
X-27880000Y2600000D01*
X-30540000Y-7620000D02*
X-30540000Y2600000D01*
X-30540000Y2600000D02*
X-27880000Y2600000D01*
G04 #@! TO.C,J4*
X-14030000Y-60000D02*
X-12700000Y-60000D01*
X-14030000Y1270000D02*
X-14030000Y-60000D01*
X-11430000Y-60000D02*
X-8830000Y-60000D01*
X-11430000Y2540000D02*
X-11430000Y-60000D01*
X-14030000Y2540000D02*
X-11430000Y2540000D01*
X-8830000Y-60000D02*
X-8830000Y17840000D01*
X-14030000Y2540000D02*
X-14030000Y17840000D01*
X-14030000Y17840000D02*
X-8830000Y17840000D01*
G04 #@! TO.C,U2*
D12*
X24534761Y-9425961D02*
X24582380Y-9568818D01*
X24582380Y-9806914D01*
X24534761Y-9902152D01*
X24487142Y-9949771D01*
X24391904Y-9997390D01*
X24296666Y-9997390D01*
X24201428Y-9949771D01*
X24153809Y-9902152D01*
X24106190Y-9806914D01*
X24058571Y-9616437D01*
X24010952Y-9521199D01*
X23963333Y-9473580D01*
X23868095Y-9425961D01*
X23772857Y-9425961D01*
X23677619Y-9473580D01*
X23630000Y-9521199D01*
X23582380Y-9616437D01*
X23582380Y-9854533D01*
X23630000Y-9997390D01*
X24487142Y-10997390D02*
X24534761Y-10949771D01*
X24582380Y-10806914D01*
X24582380Y-10711676D01*
X24534761Y-10568818D01*
X24439523Y-10473580D01*
X24344285Y-10425961D01*
X24153809Y-10378342D01*
X24010952Y-10378342D01*
X23820476Y-10425961D01*
X23725238Y-10473580D01*
X23630000Y-10568818D01*
X23582380Y-10711676D01*
X23582380Y-10806914D01*
X23630000Y-10949771D01*
X23677619Y-10997390D01*
X24582380Y-11425961D02*
X23582380Y-11425961D01*
X24582380Y-11997390D02*
X24010952Y-11568818D01*
X23582380Y-11997390D02*
X24153809Y-11425961D01*
X27027142Y-10545009D02*
X27074761Y-10497390D01*
X27122380Y-10354533D01*
X27122380Y-10259295D01*
X27074761Y-10116437D01*
X26979523Y-10021199D01*
X26884285Y-9973580D01*
X26693809Y-9925961D01*
X26550952Y-9925961D01*
X26360476Y-9973580D01*
X26265238Y-10021199D01*
X26170000Y-10116437D01*
X26122380Y-10259295D01*
X26122380Y-10354533D01*
X26170000Y-10497390D01*
X26217619Y-10545009D01*
X27074761Y-10925961D02*
X27122380Y-11068818D01*
X27122380Y-11306914D01*
X27074761Y-11402152D01*
X27027142Y-11449771D01*
X26931904Y-11497390D01*
X26836666Y-11497390D01*
X26741428Y-11449771D01*
X26693809Y-11402152D01*
X26646190Y-11306914D01*
X26598571Y-11116437D01*
X26550952Y-11021199D01*
X26503333Y-10973580D01*
X26408095Y-10925961D01*
X26312857Y-10925961D01*
X26217619Y-10973580D01*
X26170000Y-11021199D01*
X26122380Y-11116437D01*
X26122380Y-11354533D01*
X26170000Y-11497390D01*
X19502380Y-9140247D02*
X18502380Y-9140247D01*
X19216666Y-9473580D01*
X18502380Y-9806914D01*
X19502380Y-9806914D01*
X19502380Y-10283104D02*
X18502380Y-10283104D01*
X19454761Y-10711676D02*
X19502380Y-10854533D01*
X19502380Y-11092628D01*
X19454761Y-11187866D01*
X19407142Y-11235485D01*
X19311904Y-11283104D01*
X19216666Y-11283104D01*
X19121428Y-11235485D01*
X19073809Y-11187866D01*
X19026190Y-11092628D01*
X18978571Y-10902152D01*
X18930952Y-10806914D01*
X18883333Y-10759295D01*
X18788095Y-10711676D01*
X18692857Y-10711676D01*
X18597619Y-10759295D01*
X18550000Y-10806914D01*
X18502380Y-10902152D01*
X18502380Y-11140247D01*
X18550000Y-11283104D01*
X18502380Y-11902152D02*
X18502380Y-12092628D01*
X18550000Y-12187866D01*
X18645238Y-12283104D01*
X18835714Y-12330723D01*
X19169047Y-12330723D01*
X19359523Y-12283104D01*
X19454761Y-12187866D01*
X19502380Y-12092628D01*
X19502380Y-11902152D01*
X19454761Y-11806914D01*
X19359523Y-11711676D01*
X19169047Y-11664056D01*
X18835714Y-11664056D01*
X18645238Y-11711676D01*
X18550000Y-11806914D01*
X18502380Y-11902152D01*
X22042380Y-9140247D02*
X21042380Y-9140247D01*
X21756666Y-9473580D01*
X21042380Y-9806914D01*
X22042380Y-9806914D01*
X21042380Y-10473580D02*
X21042380Y-10664056D01*
X21090000Y-10759295D01*
X21185238Y-10854533D01*
X21375714Y-10902152D01*
X21709047Y-10902152D01*
X21899523Y-10854533D01*
X21994761Y-10759295D01*
X22042380Y-10664056D01*
X22042380Y-10473580D01*
X21994761Y-10378342D01*
X21899523Y-10283104D01*
X21709047Y-10235485D01*
X21375714Y-10235485D01*
X21185238Y-10283104D01*
X21090000Y-10378342D01*
X21042380Y-10473580D01*
X21994761Y-11283104D02*
X22042380Y-11425961D01*
X22042380Y-11664056D01*
X21994761Y-11759295D01*
X21947142Y-11806914D01*
X21851904Y-11854533D01*
X21756666Y-11854533D01*
X21661428Y-11806914D01*
X21613809Y-11759295D01*
X21566190Y-11664056D01*
X21518571Y-11473580D01*
X21470952Y-11378342D01*
X21423333Y-11330723D01*
X21328095Y-11283104D01*
X21232857Y-11283104D01*
X21137619Y-11330723D01*
X21090000Y-11378342D01*
X21042380Y-11473580D01*
X21042380Y-11711676D01*
X21090000Y-11854533D01*
X22042380Y-12283104D02*
X21042380Y-12283104D01*
X13470000Y-9949771D02*
X13422380Y-9854533D01*
X13422380Y-9711676D01*
X13470000Y-9568818D01*
X13565238Y-9473580D01*
X13660476Y-9425961D01*
X13850952Y-9378342D01*
X13993809Y-9378342D01*
X14184285Y-9425961D01*
X14279523Y-9473580D01*
X14374761Y-9568818D01*
X14422380Y-9711676D01*
X14422380Y-9806914D01*
X14374761Y-9949771D01*
X14327142Y-9997390D01*
X13993809Y-9997390D01*
X13993809Y-9806914D01*
X14422380Y-10425961D02*
X13422380Y-10425961D01*
X14422380Y-10997390D01*
X13422380Y-10997390D01*
X14422380Y-11473580D02*
X13422380Y-11473580D01*
X13422380Y-11711676D01*
X13470000Y-11854533D01*
X13565238Y-11949771D01*
X13660476Y-11997390D01*
X13850952Y-12045009D01*
X13993809Y-12045009D01*
X14184285Y-11997390D01*
X14279523Y-11949771D01*
X14374761Y-11854533D01*
X14422380Y-11711676D01*
X14422380Y-11473580D01*
X15962380Y-9378342D02*
X16962380Y-9711676D01*
X15962380Y-10045009D01*
X16867142Y-10949771D02*
X16914761Y-10902152D01*
X16962380Y-10759295D01*
X16962380Y-10664056D01*
X16914761Y-10521199D01*
X16819523Y-10425961D01*
X16724285Y-10378342D01*
X16533809Y-10330723D01*
X16390952Y-10330723D01*
X16200476Y-10378342D01*
X16105238Y-10425961D01*
X16010000Y-10521199D01*
X15962380Y-10664056D01*
X15962380Y-10759295D01*
X16010000Y-10902152D01*
X16057619Y-10949771D01*
X16867142Y-11949771D02*
X16914761Y-11902152D01*
X16962380Y-11759295D01*
X16962380Y-11664056D01*
X16914761Y-11521199D01*
X16819523Y-11425961D01*
X16724285Y-11378342D01*
X16533809Y-11330723D01*
X16390952Y-11330723D01*
X16200476Y-11378342D01*
X16105238Y-11425961D01*
X16010000Y-11521199D01*
X15962380Y-11664056D01*
X15962380Y-11759295D01*
X16010000Y-11902152D01*
X16057619Y-11949771D01*
G04 #@! TO.C,J2*
X-28487619Y16843333D02*
X-27773333Y16843333D01*
X-27630476Y16890952D01*
X-27535238Y16986190D01*
X-27487619Y17129047D01*
X-27487619Y17224285D01*
X-28392380Y16414761D02*
X-28440000Y16367142D01*
X-28487619Y16271904D01*
X-28487619Y16033809D01*
X-28440000Y15938571D01*
X-28392380Y15890952D01*
X-28297142Y15843333D01*
X-28201904Y15843333D01*
X-28059047Y15890952D01*
X-27487619Y16462380D01*
X-27487619Y15843333D01*
G04 #@! TO.C,SW1*
X-2770238Y-5651666D02*
X-2722619Y-5794523D01*
X-2722619Y-6032619D01*
X-2770238Y-6127857D01*
X-2817857Y-6175476D01*
X-2913095Y-6223095D01*
X-3008333Y-6223095D01*
X-3103571Y-6175476D01*
X-3151190Y-6127857D01*
X-3198809Y-6032619D01*
X-3246428Y-5842142D01*
X-3294047Y-5746904D01*
X-3341666Y-5699285D01*
X-3436904Y-5651666D01*
X-3532142Y-5651666D01*
X-3627380Y-5699285D01*
X-3675000Y-5746904D01*
X-3722619Y-5842142D01*
X-3722619Y-6080238D01*
X-3675000Y-6223095D01*
X-3722619Y-6556428D02*
X-2722619Y-6794523D01*
X-3436904Y-6985000D01*
X-2722619Y-7175476D01*
X-3722619Y-7413571D01*
X-2722619Y-8318333D02*
X-2722619Y-7746904D01*
X-2722619Y-8032619D02*
X-3722619Y-8032619D01*
X-3579761Y-7937380D01*
X-3484523Y-7842142D01*
X-3436904Y-7746904D01*
G04 #@! TO.C,SW4*
X39634761Y16878333D02*
X39682380Y16735476D01*
X39682380Y16497380D01*
X39634761Y16402142D01*
X39587142Y16354523D01*
X39491904Y16306904D01*
X39396666Y16306904D01*
X39301428Y16354523D01*
X39253809Y16402142D01*
X39206190Y16497380D01*
X39158571Y16687857D01*
X39110952Y16783095D01*
X39063333Y16830714D01*
X38968095Y16878333D01*
X38872857Y16878333D01*
X38777619Y16830714D01*
X38730000Y16783095D01*
X38682380Y16687857D01*
X38682380Y16449761D01*
X38730000Y16306904D01*
X38682380Y15973571D02*
X39682380Y15735476D01*
X38968095Y15545000D01*
X39682380Y15354523D01*
X38682380Y15116428D01*
X39015714Y14306904D02*
X39682380Y14306904D01*
X38634761Y14545000D02*
X39349047Y14783095D01*
X39349047Y14164047D01*
G04 #@! TO.C,SW5*
X39634761Y2273333D02*
X39682380Y2130476D01*
X39682380Y1892380D01*
X39634761Y1797142D01*
X39587142Y1749523D01*
X39491904Y1701904D01*
X39396666Y1701904D01*
X39301428Y1749523D01*
X39253809Y1797142D01*
X39206190Y1892380D01*
X39158571Y2082857D01*
X39110952Y2178095D01*
X39063333Y2225714D01*
X38968095Y2273333D01*
X38872857Y2273333D01*
X38777619Y2225714D01*
X38730000Y2178095D01*
X38682380Y2082857D01*
X38682380Y1844761D01*
X38730000Y1701904D01*
X38682380Y1368571D02*
X39682380Y1130476D01*
X38968095Y940000D01*
X39682380Y749523D01*
X38682380Y511428D01*
X38682380Y-345714D02*
X38682380Y130476D01*
X39158571Y178095D01*
X39110952Y130476D01*
X39063333Y35238D01*
X39063333Y-202857D01*
X39110952Y-298095D01*
X39158571Y-345714D01*
X39253809Y-393333D01*
X39491904Y-393333D01*
X39587142Y-345714D01*
X39634761Y-298095D01*
X39682380Y-202857D01*
X39682380Y35238D01*
X39634761Y130476D01*
X39587142Y178095D01*
G04 #@! TO.C,U3*
X25431904Y24852619D02*
X25431904Y24043095D01*
X25384285Y23947857D01*
X25336666Y23900238D01*
X25241428Y23852619D01*
X25050952Y23852619D01*
X24955714Y23900238D01*
X24908095Y23947857D01*
X24860476Y24043095D01*
X24860476Y24852619D01*
X24479523Y24852619D02*
X23860476Y24852619D01*
X24193809Y24471666D01*
X24050952Y24471666D01*
X23955714Y24424047D01*
X23908095Y24376428D01*
X23860476Y24281190D01*
X23860476Y24043095D01*
X23908095Y23947857D01*
X23955714Y23900238D01*
X24050952Y23852619D01*
X24336666Y23852619D01*
X24431904Y23900238D01*
X24479523Y23947857D01*
X17360476Y27852619D02*
X16693809Y26852619D01*
X16693809Y27852619D02*
X17360476Y26852619D01*
X15979523Y27376428D02*
X15836666Y27328809D01*
X15789047Y27281190D01*
X15741428Y27185952D01*
X15741428Y27043095D01*
X15789047Y26947857D01*
X15836666Y26900238D01*
X15931904Y26852619D01*
X16312857Y26852619D01*
X16312857Y27852619D01*
X15979523Y27852619D01*
X15884285Y27805000D01*
X15836666Y27757380D01*
X15789047Y27662142D01*
X15789047Y27566904D01*
X15836666Y27471666D01*
X15884285Y27424047D01*
X15979523Y27376428D01*
X16312857Y27376428D01*
X14931904Y26900238D02*
X15027142Y26852619D01*
X15217619Y26852619D01*
X15312857Y26900238D01*
X15360476Y26995476D01*
X15360476Y27376428D01*
X15312857Y27471666D01*
X15217619Y27519285D01*
X15027142Y27519285D01*
X14931904Y27471666D01*
X14884285Y27376428D01*
X14884285Y27281190D01*
X15360476Y27185952D01*
X14074761Y26900238D02*
X14170000Y26852619D01*
X14360476Y26852619D01*
X14455714Y26900238D01*
X14503333Y26995476D01*
X14503333Y27376428D01*
X14455714Y27471666D01*
X14360476Y27519285D01*
X14170000Y27519285D01*
X14074761Y27471666D01*
X14027142Y27376428D01*
X14027142Y27281190D01*
X14503333Y27185952D01*
X2955714Y852619D02*
X2622380Y-147380D01*
X2289047Y852619D01*
X2050952Y852619D02*
X1431904Y852619D01*
X1765238Y471666D01*
X1622380Y471666D01*
X1527142Y424047D01*
X1479523Y376428D01*
X1431904Y281190D01*
X1431904Y43095D01*
X1479523Y-52142D01*
X1527142Y-99761D01*
X1622380Y-147380D01*
X1908095Y-147380D01*
X2003333Y-99761D01*
X2050952Y-52142D01*
X1003333Y-52142D02*
X955714Y-99761D01*
X1003333Y-147380D01*
X1050952Y-99761D01*
X1003333Y-52142D01*
X1003333Y-147380D01*
X622380Y852619D02*
X3333Y852619D01*
X336666Y471666D01*
X193809Y471666D01*
X98571Y424047D01*
X50952Y376428D01*
X3333Y281190D01*
X3333Y43095D01*
X50952Y-52142D01*
X98571Y-99761D01*
X193809Y-147380D01*
X479523Y-147380D01*
X574761Y-99761D01*
X622380Y-52142D01*
X-425238Y-147380D02*
X-425238Y852619D01*
X-901428Y-147380D02*
X-901428Y852619D01*
X-1472857Y-147380D01*
X-1472857Y852619D01*
X2431904Y18805000D02*
X2527142Y18852619D01*
X2670000Y18852619D01*
X2812857Y18805000D01*
X2908095Y18709761D01*
X2955714Y18614523D01*
X3003333Y18424047D01*
X3003333Y18281190D01*
X2955714Y18090714D01*
X2908095Y17995476D01*
X2812857Y17900238D01*
X2670000Y17852619D01*
X2574761Y17852619D01*
X2431904Y17900238D01*
X2384285Y17947857D01*
X2384285Y18281190D01*
X2574761Y18281190D01*
X1955714Y17852619D02*
X1955714Y18852619D01*
X1384285Y17852619D01*
X1384285Y18852619D01*
X908095Y17852619D02*
X908095Y18852619D01*
X670000Y18852619D01*
X527142Y18805000D01*
X431904Y18709761D01*
X384285Y18614523D01*
X336666Y18424047D01*
X336666Y18281190D01*
X384285Y18090714D01*
X431904Y17995476D01*
X527142Y17900238D01*
X670000Y17852619D01*
X908095Y17852619D01*
X2217619Y7852619D02*
X2550952Y8328809D01*
X2789047Y7852619D02*
X2789047Y8852619D01*
X2408095Y8852619D01*
X2312857Y8805000D01*
X2265238Y8757380D01*
X2217619Y8662142D01*
X2217619Y8519285D01*
X2265238Y8424047D01*
X2312857Y8376428D01*
X2408095Y8328809D01*
X2789047Y8328809D01*
X1836666Y7900238D02*
X1693809Y7852619D01*
X1455714Y7852619D01*
X1360476Y7900238D01*
X1312857Y7947857D01*
X1265238Y8043095D01*
X1265238Y8138333D01*
X1312857Y8233571D01*
X1360476Y8281190D01*
X1455714Y8328809D01*
X1646190Y8376428D01*
X1741428Y8424047D01*
X1789047Y8471666D01*
X1836666Y8566904D01*
X1836666Y8662142D01*
X1789047Y8757380D01*
X1741428Y8805000D01*
X1646190Y8852619D01*
X1408095Y8852619D01*
X1265238Y8805000D01*
X979523Y8852619D02*
X408095Y8852619D01*
X693809Y7852619D02*
X693809Y8852619D01*
X2717619Y1852619D02*
X2717619Y2852619D01*
X2479523Y2852619D01*
X2336666Y2805000D01*
X2241428Y2709761D01*
X2193809Y2614523D01*
X2146190Y2424047D01*
X2146190Y2281190D01*
X2193809Y2090714D01*
X2241428Y1995476D01*
X2336666Y1900238D01*
X2479523Y1852619D01*
X2717619Y1852619D01*
X1527142Y2852619D02*
X1336666Y2852619D01*
X1241428Y2805000D01*
X1146190Y2709761D01*
X1098571Y2519285D01*
X1098571Y2185952D01*
X1146190Y1995476D01*
X1241428Y1900238D01*
X1336666Y1852619D01*
X1527142Y1852619D01*
X1622380Y1900238D01*
X1717619Y1995476D01*
X1765238Y2185952D01*
X1765238Y2519285D01*
X1717619Y2709761D01*
X1622380Y2805000D01*
X1527142Y2852619D01*
X670000Y2852619D02*
X670000Y2043095D01*
X622380Y1947857D01*
X574761Y1900238D01*
X479523Y1852619D01*
X289047Y1852619D01*
X193809Y1900238D01*
X146190Y1947857D01*
X98571Y2043095D01*
X98571Y2852619D01*
X-234761Y2852619D02*
X-806190Y2852619D01*
X-520476Y1852619D02*
X-520476Y2852619D01*
X-901428Y1757380D02*
X-1663333Y1757380D01*
X-2472857Y1852619D02*
X-2139523Y2328809D01*
X-1901428Y1852619D02*
X-1901428Y2852619D01*
X-2282380Y2852619D01*
X-2377619Y2805000D01*
X-2425238Y2757380D01*
X-2472857Y2662142D01*
X-2472857Y2519285D01*
X-2425238Y2424047D01*
X-2377619Y2376428D01*
X-2282380Y2328809D01*
X-1901428Y2328809D01*
X-2806190Y2852619D02*
X-3472857Y1852619D01*
X-3472857Y2852619D02*
X-2806190Y1852619D01*
X2931904Y3852619D02*
X2931904Y4852619D01*
X2693809Y4852619D01*
X2550952Y4805000D01*
X2455714Y4709761D01*
X2408095Y4614523D01*
X2360476Y4424047D01*
X2360476Y4281190D01*
X2408095Y4090714D01*
X2455714Y3995476D01*
X2550952Y3900238D01*
X2693809Y3852619D01*
X2931904Y3852619D01*
X1931904Y3852619D02*
X1931904Y4852619D01*
X1455714Y3852619D02*
X1455714Y4852619D01*
X884285Y3852619D01*
X884285Y4852619D01*
X646190Y3757380D02*
X-115714Y3757380D01*
X-210952Y4852619D02*
X-782380Y4852619D01*
X-496666Y3852619D02*
X-496666Y4852619D01*
X-1020476Y4852619D02*
X-1687142Y3852619D01*
X-1687142Y4852619D02*
X-1020476Y3852619D01*
G04 #@! TO.C,SW3*
X22275333Y36095238D02*
X22132476Y36047619D01*
X21894380Y36047619D01*
X21799142Y36095238D01*
X21751523Y36142857D01*
X21703904Y36238095D01*
X21703904Y36333333D01*
X21751523Y36428571D01*
X21799142Y36476190D01*
X21894380Y36523809D01*
X22084857Y36571428D01*
X22180095Y36619047D01*
X22227714Y36666666D01*
X22275333Y36761904D01*
X22275333Y36857142D01*
X22227714Y36952380D01*
X22180095Y37000000D01*
X22084857Y37047619D01*
X21846761Y37047619D01*
X21703904Y37000000D01*
X21370571Y37047619D02*
X21132476Y36047619D01*
X20942000Y36761904D01*
X20751523Y36047619D01*
X20513428Y37047619D01*
X20227714Y37047619D02*
X19608666Y37047619D01*
X19942000Y36666666D01*
X19799142Y36666666D01*
X19703904Y36619047D01*
X19656285Y36571428D01*
X19608666Y36476190D01*
X19608666Y36238095D01*
X19656285Y36142857D01*
X19703904Y36095238D01*
X19799142Y36047619D01*
X20084857Y36047619D01*
X20180095Y36095238D01*
X20227714Y36142857D01*
X15778095Y37733333D02*
X15301904Y37733333D01*
X15873333Y37447619D02*
X15540000Y38447619D01*
X15206666Y37447619D01*
G04 #@! TO.C,J3*
X-28876666Y-10672380D02*
X-28876666Y-11386666D01*
X-28829047Y-11529523D01*
X-28733809Y-11624761D01*
X-28590952Y-11672380D01*
X-28495714Y-11672380D01*
X-29257619Y-10672380D02*
X-29876666Y-10672380D01*
X-29543333Y-11053333D01*
X-29686190Y-11053333D01*
X-29781428Y-11100952D01*
X-29829047Y-11148571D01*
X-29876666Y-11243809D01*
X-29876666Y-11481904D01*
X-29829047Y-11577142D01*
X-29781428Y-11624761D01*
X-29686190Y-11672380D01*
X-29400476Y-11672380D01*
X-29305238Y-11624761D01*
X-29257619Y-11577142D01*
G04 #@! TO.C,J4*
X-11096666Y-512380D02*
X-11096666Y-1226666D01*
X-11049047Y-1369523D01*
X-10953809Y-1464761D01*
X-10810952Y-1512380D01*
X-10715714Y-1512380D01*
X-12001428Y-845714D02*
X-12001428Y-1512380D01*
X-11763333Y-464761D02*
X-11525238Y-1179047D01*
X-12144285Y-1179047D01*
G04 #@! TD*
M02*
