G04 #@! TF.GenerationSoftware,KiCad,Pcbnew,(5.0.0)*
G04 #@! TF.CreationDate,2018-08-26T02:27:25+09:00*
G04 #@! TF.ProjectId,core,636F72652E6B696361645F7063620000,rev?*
G04 #@! TF.SameCoordinates,Original*
G04 #@! TF.FileFunction,Paste,Top*
G04 #@! TF.FilePolarity,Positive*
%FSLAX46Y46*%
G04 Gerber Fmt 4.6, Leading zero omitted, Abs format (unit mm)*
G04 Created by KiCad (PCBNEW (5.0.0)) date 08/26/18 02:27:25*
%MOMM*%
%LPD*%
G01*
G04 APERTURE LIST*
%ADD10C,0.100000*%
%ADD11C,0.950000*%
%ADD12C,1.425000*%
G04 APERTURE END LIST*
D10*
G04 #@! TO.C,D1*
G36*
X1185779Y-40166144D02*
X1208834Y-40169563D01*
X1231443Y-40175227D01*
X1253387Y-40183079D01*
X1274457Y-40193044D01*
X1294448Y-40205026D01*
X1313168Y-40218910D01*
X1330438Y-40234562D01*
X1346090Y-40251832D01*
X1359974Y-40270552D01*
X1371956Y-40290543D01*
X1381921Y-40311613D01*
X1389773Y-40333557D01*
X1395437Y-40356166D01*
X1398856Y-40379221D01*
X1400000Y-40402500D01*
X1400000Y-40877500D01*
X1398856Y-40900779D01*
X1395437Y-40923834D01*
X1389773Y-40946443D01*
X1381921Y-40968387D01*
X1371956Y-40989457D01*
X1359974Y-41009448D01*
X1346090Y-41028168D01*
X1330438Y-41045438D01*
X1313168Y-41061090D01*
X1294448Y-41074974D01*
X1274457Y-41086956D01*
X1253387Y-41096921D01*
X1231443Y-41104773D01*
X1208834Y-41110437D01*
X1185779Y-41113856D01*
X1162500Y-41115000D01*
X587500Y-41115000D01*
X564221Y-41113856D01*
X541166Y-41110437D01*
X518557Y-41104773D01*
X496613Y-41096921D01*
X475543Y-41086956D01*
X455552Y-41074974D01*
X436832Y-41061090D01*
X419562Y-41045438D01*
X403910Y-41028168D01*
X390026Y-41009448D01*
X378044Y-40989457D01*
X368079Y-40968387D01*
X360227Y-40946443D01*
X354563Y-40923834D01*
X351144Y-40900779D01*
X350000Y-40877500D01*
X350000Y-40402500D01*
X351144Y-40379221D01*
X354563Y-40356166D01*
X360227Y-40333557D01*
X368079Y-40311613D01*
X378044Y-40290543D01*
X390026Y-40270552D01*
X403910Y-40251832D01*
X419562Y-40234562D01*
X436832Y-40218910D01*
X455552Y-40205026D01*
X475543Y-40193044D01*
X496613Y-40183079D01*
X518557Y-40175227D01*
X541166Y-40169563D01*
X564221Y-40166144D01*
X587500Y-40165000D01*
X1162500Y-40165000D01*
X1185779Y-40166144D01*
X1185779Y-40166144D01*
G37*
D11*
X875000Y-40640000D03*
D10*
G36*
X-564221Y-40166144D02*
X-541166Y-40169563D01*
X-518557Y-40175227D01*
X-496613Y-40183079D01*
X-475543Y-40193044D01*
X-455552Y-40205026D01*
X-436832Y-40218910D01*
X-419562Y-40234562D01*
X-403910Y-40251832D01*
X-390026Y-40270552D01*
X-378044Y-40290543D01*
X-368079Y-40311613D01*
X-360227Y-40333557D01*
X-354563Y-40356166D01*
X-351144Y-40379221D01*
X-350000Y-40402500D01*
X-350000Y-40877500D01*
X-351144Y-40900779D01*
X-354563Y-40923834D01*
X-360227Y-40946443D01*
X-368079Y-40968387D01*
X-378044Y-40989457D01*
X-390026Y-41009448D01*
X-403910Y-41028168D01*
X-419562Y-41045438D01*
X-436832Y-41061090D01*
X-455552Y-41074974D01*
X-475543Y-41086956D01*
X-496613Y-41096921D01*
X-518557Y-41104773D01*
X-541166Y-41110437D01*
X-564221Y-41113856D01*
X-587500Y-41115000D01*
X-1162500Y-41115000D01*
X-1185779Y-41113856D01*
X-1208834Y-41110437D01*
X-1231443Y-41104773D01*
X-1253387Y-41096921D01*
X-1274457Y-41086956D01*
X-1294448Y-41074974D01*
X-1313168Y-41061090D01*
X-1330438Y-41045438D01*
X-1346090Y-41028168D01*
X-1359974Y-41009448D01*
X-1371956Y-40989457D01*
X-1381921Y-40968387D01*
X-1389773Y-40946443D01*
X-1395437Y-40923834D01*
X-1398856Y-40900779D01*
X-1400000Y-40877500D01*
X-1400000Y-40402500D01*
X-1398856Y-40379221D01*
X-1395437Y-40356166D01*
X-1389773Y-40333557D01*
X-1381921Y-40311613D01*
X-1371956Y-40290543D01*
X-1359974Y-40270552D01*
X-1346090Y-40251832D01*
X-1330438Y-40234562D01*
X-1313168Y-40218910D01*
X-1294448Y-40205026D01*
X-1274457Y-40193044D01*
X-1253387Y-40183079D01*
X-1231443Y-40175227D01*
X-1208834Y-40169563D01*
X-1185779Y-40166144D01*
X-1162500Y-40165000D01*
X-587500Y-40165000D01*
X-564221Y-40166144D01*
X-564221Y-40166144D01*
G37*
D11*
X-875000Y-40640000D03*
G04 #@! TD*
D10*
G04 #@! TO.C,R1*
G36*
X9812004Y-39766204D02*
X9836273Y-39769804D01*
X9860071Y-39775765D01*
X9883171Y-39784030D01*
X9905349Y-39794520D01*
X9926393Y-39807133D01*
X9946098Y-39821747D01*
X9964277Y-39838223D01*
X9980753Y-39856402D01*
X9995367Y-39876107D01*
X10007980Y-39897151D01*
X10018470Y-39919329D01*
X10026735Y-39942429D01*
X10032696Y-39966227D01*
X10036296Y-39990496D01*
X10037500Y-40015000D01*
X10037500Y-41265000D01*
X10036296Y-41289504D01*
X10032696Y-41313773D01*
X10026735Y-41337571D01*
X10018470Y-41360671D01*
X10007980Y-41382849D01*
X9995367Y-41403893D01*
X9980753Y-41423598D01*
X9964277Y-41441777D01*
X9946098Y-41458253D01*
X9926393Y-41472867D01*
X9905349Y-41485480D01*
X9883171Y-41495970D01*
X9860071Y-41504235D01*
X9836273Y-41510196D01*
X9812004Y-41513796D01*
X9787500Y-41515000D01*
X8862500Y-41515000D01*
X8837996Y-41513796D01*
X8813727Y-41510196D01*
X8789929Y-41504235D01*
X8766829Y-41495970D01*
X8744651Y-41485480D01*
X8723607Y-41472867D01*
X8703902Y-41458253D01*
X8685723Y-41441777D01*
X8669247Y-41423598D01*
X8654633Y-41403893D01*
X8642020Y-41382849D01*
X8631530Y-41360671D01*
X8623265Y-41337571D01*
X8617304Y-41313773D01*
X8613704Y-41289504D01*
X8612500Y-41265000D01*
X8612500Y-40015000D01*
X8613704Y-39990496D01*
X8617304Y-39966227D01*
X8623265Y-39942429D01*
X8631530Y-39919329D01*
X8642020Y-39897151D01*
X8654633Y-39876107D01*
X8669247Y-39856402D01*
X8685723Y-39838223D01*
X8703902Y-39821747D01*
X8723607Y-39807133D01*
X8744651Y-39794520D01*
X8766829Y-39784030D01*
X8789929Y-39775765D01*
X8813727Y-39769804D01*
X8837996Y-39766204D01*
X8862500Y-39765000D01*
X9787500Y-39765000D01*
X9812004Y-39766204D01*
X9812004Y-39766204D01*
G37*
D12*
X9325000Y-40640000D03*
D10*
G36*
X6837004Y-39766204D02*
X6861273Y-39769804D01*
X6885071Y-39775765D01*
X6908171Y-39784030D01*
X6930349Y-39794520D01*
X6951393Y-39807133D01*
X6971098Y-39821747D01*
X6989277Y-39838223D01*
X7005753Y-39856402D01*
X7020367Y-39876107D01*
X7032980Y-39897151D01*
X7043470Y-39919329D01*
X7051735Y-39942429D01*
X7057696Y-39966227D01*
X7061296Y-39990496D01*
X7062500Y-40015000D01*
X7062500Y-41265000D01*
X7061296Y-41289504D01*
X7057696Y-41313773D01*
X7051735Y-41337571D01*
X7043470Y-41360671D01*
X7032980Y-41382849D01*
X7020367Y-41403893D01*
X7005753Y-41423598D01*
X6989277Y-41441777D01*
X6971098Y-41458253D01*
X6951393Y-41472867D01*
X6930349Y-41485480D01*
X6908171Y-41495970D01*
X6885071Y-41504235D01*
X6861273Y-41510196D01*
X6837004Y-41513796D01*
X6812500Y-41515000D01*
X5887500Y-41515000D01*
X5862996Y-41513796D01*
X5838727Y-41510196D01*
X5814929Y-41504235D01*
X5791829Y-41495970D01*
X5769651Y-41485480D01*
X5748607Y-41472867D01*
X5728902Y-41458253D01*
X5710723Y-41441777D01*
X5694247Y-41423598D01*
X5679633Y-41403893D01*
X5667020Y-41382849D01*
X5656530Y-41360671D01*
X5648265Y-41337571D01*
X5642304Y-41313773D01*
X5638704Y-41289504D01*
X5637500Y-41265000D01*
X5637500Y-40015000D01*
X5638704Y-39990496D01*
X5642304Y-39966227D01*
X5648265Y-39942429D01*
X5656530Y-39919329D01*
X5667020Y-39897151D01*
X5679633Y-39876107D01*
X5694247Y-39856402D01*
X5710723Y-39838223D01*
X5728902Y-39821747D01*
X5748607Y-39807133D01*
X5769651Y-39794520D01*
X5791829Y-39784030D01*
X5814929Y-39775765D01*
X5838727Y-39769804D01*
X5862996Y-39766204D01*
X5887500Y-39765000D01*
X6812500Y-39765000D01*
X6837004Y-39766204D01*
X6837004Y-39766204D01*
G37*
D12*
X6350000Y-40640000D03*
G04 #@! TD*
M02*
