G04 #@! TF.GenerationSoftware,KiCad,Pcbnew,(5.0.0)*
G04 #@! TF.CreationDate,2018-08-26T23:56:50+09:00*
G04 #@! TF.ProjectId,imu,696D752E6B696361645F706362000000,rev?*
G04 #@! TF.SameCoordinates,Original*
G04 #@! TF.FileFunction,Copper,L2,Bot,Signal*
G04 #@! TF.FilePolarity,Positive*
%FSLAX46Y46*%
G04 Gerber Fmt 4.6, Leading zero omitted, Abs format (unit mm)*
G04 Created by KiCad (PCBNEW (5.0.0)) date 08/26/18 23:56:50*
%MOMM*%
%LPD*%
G01*
G04 APERTURE LIST*
G04 #@! TA.AperFunction,ComponentPad*
%ADD10R,2.000000X2.000000*%
G04 #@! TD*
G04 #@! TA.AperFunction,ComponentPad*
%ADD11C,2.000000*%
G04 #@! TD*
G04 #@! TA.AperFunction,ComponentPad*
%ADD12R,1.600000X1.600000*%
G04 #@! TD*
G04 #@! TA.AperFunction,ComponentPad*
%ADD13O,1.600000X1.600000*%
G04 #@! TD*
G04 #@! TA.AperFunction,ComponentPad*
%ADD14R,3.000000X3.000000*%
G04 #@! TD*
G04 #@! TA.AperFunction,ComponentPad*
%ADD15C,3.000000*%
G04 #@! TD*
G04 #@! TA.AperFunction,ComponentPad*
%ADD16R,1.700000X1.700000*%
G04 #@! TD*
G04 #@! TA.AperFunction,ComponentPad*
%ADD17O,1.700000X1.700000*%
G04 #@! TD*
G04 #@! TA.AperFunction,ViaPad*
%ADD18C,0.800000*%
G04 #@! TD*
G04 #@! TA.AperFunction,Conductor*
%ADD19C,0.500000*%
G04 #@! TD*
G04 #@! TA.AperFunction,Conductor*
%ADD20C,1.000000*%
G04 #@! TD*
G04 #@! TA.AperFunction,Conductor*
%ADD21C,0.250000*%
G04 #@! TD*
G04 #@! TA.AperFunction,Conductor*
%ADD22C,0.254000*%
G04 #@! TD*
G04 APERTURE END LIST*
D10*
G04 #@! TO.P,U1,1*
G04 #@! TO.N,Net-(U1-Pad1)*
X10160000Y8890000D03*
D11*
G04 #@! TO.P,U1,2*
G04 #@! TO.N,/GY91_VCC*
X7620000Y8890000D03*
G04 #@! TO.P,U1,3*
G04 #@! TO.N,/GY91_GND*
X5080000Y8890000D03*
G04 #@! TO.P,U1,4*
G04 #@! TO.N,/GY91_SCL*
X2540000Y8890000D03*
G04 #@! TO.P,U1,5*
G04 #@! TO.N,/GY91_SDA*
X0Y8890000D03*
G04 #@! TO.P,U1,6*
G04 #@! TO.N,Net-(U1-Pad6)*
X-2540000Y8890000D03*
G04 #@! TO.P,U1,7*
G04 #@! TO.N,Net-(U1-Pad7)*
X-5080000Y8890000D03*
G04 #@! TO.P,U1,8*
G04 #@! TO.N,Net-(U1-Pad8)*
X-7620000Y8890000D03*
G04 #@! TD*
D12*
G04 #@! TO.P,U2,1*
G04 #@! TO.N,Net-(U2-Pad1)*
X17780000Y-9525000D03*
D13*
G04 #@! TO.P,U2,9*
G04 #@! TO.N,/5Vin*
X35560000Y-1905000D03*
G04 #@! TO.P,U2,2*
G04 #@! TO.N,Net-(U2-Pad2)*
X20320000Y-9525000D03*
G04 #@! TO.P,U2,10*
G04 #@! TO.N,/DrogueIn*
X33020000Y-1905000D03*
G04 #@! TO.P,U2,3*
G04 #@! TO.N,Net-(U2-Pad3)*
X22860000Y-9525000D03*
G04 #@! TO.P,U2,11*
G04 #@! TO.N,/DrogueOut*
X30480000Y-1905000D03*
G04 #@! TO.P,U2,4*
G04 #@! TO.N,/GND*
X25400000Y-9525000D03*
G04 #@! TO.P,U2,12*
X27940000Y-1905000D03*
G04 #@! TO.P,U2,5*
X27940000Y-9525000D03*
G04 #@! TO.P,U2,13*
X25400000Y-1905000D03*
G04 #@! TO.P,U2,6*
G04 #@! TO.N,Net-(U2-Pad6)*
X30480000Y-9525000D03*
G04 #@! TO.P,U2,14*
G04 #@! TO.N,/MainOut*
X22860000Y-1905000D03*
G04 #@! TO.P,U2,7*
G04 #@! TO.N,Net-(U2-Pad7)*
X33020000Y-9525000D03*
G04 #@! TO.P,U2,15*
G04 #@! TO.N,/MainIn*
X20320000Y-1905000D03*
G04 #@! TO.P,U2,8*
G04 #@! TO.N,/9Vin*
X35560000Y-9525000D03*
G04 #@! TO.P,U2,16*
G04 #@! TO.N,/5Vin*
X17780000Y-1905000D03*
G04 #@! TD*
D14*
G04 #@! TO.P,J1,1*
G04 #@! TO.N,/MainIn*
X-31750000Y13335000D03*
D15*
G04 #@! TO.P,J1,2*
G04 #@! TO.N,/DrogueIn*
X-31750000Y8255000D03*
G04 #@! TD*
D14*
G04 #@! TO.P,J2,1*
G04 #@! TO.N,/9Vin*
X13970000Y-26670000D03*
D15*
G04 #@! TO.P,J2,2*
G04 #@! TO.N,/5Vin*
X19050000Y-26670000D03*
G04 #@! TO.P,J2,3*
G04 #@! TO.N,/GND*
X24130000Y-26670000D03*
G04 #@! TD*
D16*
G04 #@! TO.P,J3,1*
G04 #@! TO.N,/GY91_VCC*
X-15875000Y-10160000D03*
D17*
G04 #@! TO.P,J3,2*
G04 #@! TO.N,/GY91_GND*
X-15875000Y-7620000D03*
G04 #@! TO.P,J3,3*
G04 #@! TO.N,/GY91_SCL*
X-15875000Y-5080000D03*
G04 #@! TO.P,J3,4*
G04 #@! TO.N,/GY91_SDA*
X-15875000Y-2540000D03*
G04 #@! TD*
D15*
G04 #@! TO.P,J4,2*
G04 #@! TO.N,/GND*
X-3175000Y-14605000D03*
D14*
G04 #@! TO.P,J4,1*
G04 #@! TO.N,/MainOut*
X-8255000Y-14605000D03*
G04 #@! TD*
G04 #@! TO.P,J5,1*
G04 #@! TO.N,/DrogueOut*
X3175000Y-14605000D03*
D15*
G04 #@! TO.P,J5,2*
G04 #@! TO.N,/GND*
X8255000Y-14605000D03*
G04 #@! TD*
D18*
G04 #@! TO.N,/5Vin*
X-635000Y-36195000D03*
G04 #@! TO.N,/DrogueIn*
X13335000Y12065000D03*
G04 #@! TO.N,/GND*
X10160000Y-41275000D03*
X10160000Y-38735000D03*
G04 #@! TO.N,/9Vin*
X-3175000Y-40005000D03*
G04 #@! TD*
D19*
G04 #@! TO.N,/5Vin*
X19050000Y-26670000D02*
X10160000Y-35560000D01*
X10160000Y-35560000D02*
X0Y-35560000D01*
X0Y-35560000D02*
X-635000Y-36195000D01*
D20*
G04 #@! TO.N,/9Vin*
X35560000Y-10160000D02*
X35560000Y-9525000D01*
D21*
G04 #@! TO.N,/DrogueIn*
X13335000Y12065000D02*
X27940000Y12065000D01*
X27940000Y12065000D02*
X30480000Y12065000D01*
X33020000Y9525000D02*
X33020000Y-1905000D01*
X30480000Y12065000D02*
X33020000Y9525000D01*
D19*
G04 #@! TO.N,/9Vin*
X13970000Y-29772476D02*
X9452476Y-34290000D01*
X13970000Y-26670000D02*
X13970000Y-29772476D01*
X9452476Y-34290000D02*
X-635000Y-34290000D01*
X-635000Y-34290000D02*
X-3175000Y-36830000D01*
X-3175000Y-36830000D02*
X-3175000Y-40005000D01*
D20*
G04 #@! TO.N,/5Vin*
X13970000Y-5715000D02*
X17780000Y-1905000D01*
X13970000Y-19468680D02*
X13970000Y-5715000D01*
X19050000Y-24548680D02*
X13970000Y-19468680D01*
X19050000Y-26670000D02*
X19050000Y-24548680D01*
D19*
X35560000Y-3175000D02*
X35560000Y-1905000D01*
X34925000Y-3810000D02*
X35560000Y-3175000D01*
X18553630Y-3810000D02*
X34925000Y-3810000D01*
X17780000Y-1905000D02*
X17780000Y-3036370D01*
X17780000Y-3036370D02*
X18553630Y-3810000D01*
G04 #@! TO.N,/GY91_VCC*
X-14525000Y-10160000D02*
X-15875000Y-10160000D01*
X-5080000Y-10160000D02*
X-15875000Y-10160000D01*
X0Y-5080000D02*
X-5080000Y-10160000D01*
X0Y-5080000D02*
X7620000Y2540000D01*
X7620000Y2540000D02*
X7620000Y8890000D01*
G04 #@! TO.N,/GY91_GND*
X-15875000Y-7620000D02*
X-5715000Y-7620000D01*
X5080000Y3175000D02*
X5080000Y8890000D01*
X-5715000Y-7620000D02*
X5080000Y3175000D01*
D21*
G04 #@! TO.N,/GY91_SCL*
X-15025001Y-4230001D02*
X-13970000Y-3175000D01*
X-15875000Y-5080000D02*
X-15025001Y-4230001D01*
X-13970000Y-3175000D02*
X-13970000Y3175000D01*
X-13970000Y3175000D02*
X-12065000Y5080000D01*
X-12065000Y5080000D02*
X0Y5080000D01*
X2540000Y7620000D02*
X2540000Y8890000D01*
X0Y5080000D02*
X2540000Y7620000D01*
G04 #@! TO.N,/GY91_SDA*
X-15875000Y-2540000D02*
X-15875000Y5080000D01*
X-15875000Y5080000D02*
X-13970000Y6985000D01*
X-1905000Y6985000D02*
X0Y8890000D01*
X-13970000Y6985000D02*
X-1905000Y6985000D01*
G04 #@! TD*
D22*
G04 #@! TO.N,/GND*
G36*
X3857949Y44096558D02*
X6466365Y43790140D01*
X9052018Y43329565D01*
X11605804Y42716455D01*
X14118734Y41952969D01*
X16581961Y41041793D01*
X18986814Y39986137D01*
X21324826Y38789715D01*
X23587768Y37456740D01*
X25767673Y35991905D01*
X27856867Y34400366D01*
X29847995Y32687726D01*
X31734048Y30860013D01*
X33508386Y28923663D01*
X35164763Y26885492D01*
X36697348Y24752674D01*
X38100746Y22532718D01*
X39370016Y20233440D01*
X40500690Y17862933D01*
X41488787Y15429542D01*
X42330830Y12941834D01*
X43023854Y10408566D01*
X43565419Y7838656D01*
X43953618Y5241152D01*
X44187086Y2625197D01*
X44265000Y0D01*
X44204336Y-2316651D01*
X43989137Y-4934172D01*
X43619081Y-7534323D01*
X43095470Y-10107951D01*
X42420149Y-12645996D01*
X41595494Y-15139522D01*
X40624409Y-17579751D01*
X39510311Y-19958094D01*
X38257124Y-22266178D01*
X36869259Y-24495877D01*
X35351601Y-26639342D01*
X33709493Y-28689027D01*
X31948716Y-30637718D01*
X30075469Y-32478552D01*
X28096346Y-34205052D01*
X26018314Y-35811137D01*
X23848689Y-37291155D01*
X21595108Y-38639896D01*
X19265505Y-39852610D01*
X16868080Y-40925030D01*
X14411274Y-41853380D01*
X11903736Y-42634391D01*
X9354292Y-43265315D01*
X6771918Y-43743929D01*
X4165704Y-44068550D01*
X1544826Y-44238035D01*
X-1081490Y-44251786D01*
X-3704000Y-44109756D01*
X-6313470Y-43812445D01*
X-8900714Y-43360898D01*
X-11456625Y-42756707D01*
X-13972205Y-42001997D01*
X-16438597Y-41099425D01*
X-18847120Y-40052169D01*
X-21189295Y-38863916D01*
X-23456876Y-37538849D01*
X-25641881Y-36081632D01*
X-27736618Y-34497395D01*
X-29733712Y-32791715D01*
X-31626133Y-30970598D01*
X-33407220Y-29040453D01*
X-35070701Y-27008076D01*
X-36610722Y-24880621D01*
X-38021860Y-22665577D01*
X-39299148Y-20370743D01*
X-39685417Y-19568134D01*
X-38654514Y-19568134D01*
X-38548350Y-20514608D01*
X-38260370Y-21422436D01*
X-37801544Y-22257038D01*
X-37189347Y-22986626D01*
X-36447099Y-23583409D01*
X-35603070Y-24024656D01*
X-34689411Y-24293561D01*
X-33740921Y-24379880D01*
X-32793730Y-24280326D01*
X-31883914Y-23998691D01*
X-31046129Y-23545702D01*
X-30312285Y-22938614D01*
X-29710334Y-22200550D01*
X-29263205Y-21359622D01*
X-29154629Y-21000000D01*
X-10723909Y-21000000D01*
X-10710000Y-21069926D01*
X-10709999Y-32930069D01*
X-10723909Y-33000000D01*
X-10668805Y-33277028D01*
X-10511881Y-33511881D01*
X-10277028Y-33668805D01*
X-10069926Y-33710000D01*
X-10069925Y-33710000D01*
X-10000000Y-33723909D01*
X-9930074Y-33710000D01*
X-1311836Y-33710000D01*
X-1322423Y-33725844D01*
X-3739153Y-36142575D01*
X-3813049Y-36191951D01*
X-4008652Y-36484691D01*
X-4060000Y-36742836D01*
X-4060000Y-36742839D01*
X-4077337Y-36830000D01*
X-4060000Y-36917161D01*
X-4059999Y-39436991D01*
X-4210000Y-39799126D01*
X-4210000Y-40210874D01*
X-4052431Y-40591280D01*
X-3761280Y-40882431D01*
X-3380874Y-41040000D01*
X-2969126Y-41040000D01*
X-2588720Y-40882431D01*
X-2297569Y-40591280D01*
X-2140000Y-40210874D01*
X-2140000Y-39799126D01*
X-2290000Y-39436993D01*
X-2290000Y-37196578D01*
X-1618537Y-36525116D01*
X-1512431Y-36781280D01*
X-1221280Y-37072431D01*
X-840874Y-37230000D01*
X-429126Y-37230000D01*
X-48720Y-37072431D01*
X242431Y-36781280D01*
X381722Y-36445000D01*
X10072839Y-36445000D01*
X10160000Y-36462337D01*
X10247161Y-36445000D01*
X10247165Y-36445000D01*
X10505310Y-36393652D01*
X10798049Y-36198049D01*
X10847425Y-36124153D01*
X18300942Y-28670637D01*
X18625322Y-28805000D01*
X19474678Y-28805000D01*
X20259380Y-28479966D01*
X20555376Y-28183970D01*
X22795635Y-28183970D01*
X22955418Y-28502739D01*
X23746187Y-28812723D01*
X24595387Y-28796497D01*
X25304582Y-28502739D01*
X25464365Y-28183970D01*
X24130000Y-26849605D01*
X22795635Y-28183970D01*
X20555376Y-28183970D01*
X20859966Y-27879380D01*
X21185000Y-27094678D01*
X21185000Y-26286187D01*
X21987277Y-26286187D01*
X22003503Y-27135387D01*
X22297261Y-27844582D01*
X22616030Y-28004365D01*
X23950395Y-26670000D01*
X24309605Y-26670000D01*
X25643970Y-28004365D01*
X25962739Y-27844582D01*
X26272723Y-27053813D01*
X26256497Y-26204613D01*
X25962739Y-25495418D01*
X25643970Y-25335635D01*
X24309605Y-26670000D01*
X23950395Y-26670000D01*
X22616030Y-25335635D01*
X22297261Y-25495418D01*
X21987277Y-26286187D01*
X21185000Y-26286187D01*
X21185000Y-26245322D01*
X20859966Y-25460620D01*
X20555376Y-25156030D01*
X22795635Y-25156030D01*
X24130000Y-26490395D01*
X25464365Y-25156030D01*
X25304582Y-24837261D01*
X24513813Y-24527277D01*
X23664613Y-24543503D01*
X22955418Y-24837261D01*
X22795635Y-25156030D01*
X20555376Y-25156030D01*
X20259380Y-24860034D01*
X20185000Y-24829225D01*
X20185000Y-24660463D01*
X20207235Y-24548680D01*
X20119146Y-24105825D01*
X19868289Y-23730391D01*
X19773521Y-23667069D01*
X15674586Y-19568134D01*
X28895466Y-19568134D01*
X29001630Y-20514608D01*
X29289610Y-21422436D01*
X29748436Y-22257038D01*
X30360633Y-22986626D01*
X31102881Y-23583409D01*
X31946910Y-24024656D01*
X32860569Y-24293561D01*
X33809059Y-24379880D01*
X34756250Y-24280326D01*
X35666066Y-23998691D01*
X36503851Y-23545702D01*
X37237695Y-22938614D01*
X37839646Y-22200550D01*
X38286775Y-21359622D01*
X38562051Y-20447863D01*
X38654990Y-19499999D01*
X38653087Y-19363741D01*
X38533719Y-18418842D01*
X38233092Y-17515124D01*
X37762657Y-16687009D01*
X37140333Y-15966040D01*
X36389825Y-15379679D01*
X35539718Y-14950259D01*
X34622393Y-14694137D01*
X33672791Y-14621069D01*
X32727082Y-14733838D01*
X31821287Y-15028149D01*
X30989908Y-15492791D01*
X30264612Y-16110066D01*
X29673025Y-16856463D01*
X29237681Y-17703551D01*
X28975161Y-18619066D01*
X28895466Y-19568134D01*
X15674586Y-19568134D01*
X15105000Y-18998549D01*
X15105000Y-13651150D01*
X22046166Y-13651150D01*
X22051917Y-14383401D01*
X22294547Y-15074310D01*
X22747893Y-15649376D01*
X23363071Y-16046592D01*
X24073747Y-16223125D01*
X24803289Y-16159939D01*
X25473032Y-15863849D01*
X26010757Y-15366782D01*
X26358481Y-14722335D01*
X26478711Y-13999999D01*
X26478436Y-13964972D01*
X26346875Y-13244613D01*
X25989071Y-12605708D01*
X25443605Y-12117148D01*
X24769294Y-11831614D01*
X24038849Y-11779896D01*
X23331034Y-11967570D01*
X22722171Y-12374399D01*
X22277914Y-12956516D01*
X22046166Y-13651150D01*
X15105000Y-13651150D01*
X15105000Y-8725000D01*
X16332560Y-8725000D01*
X16332560Y-10325000D01*
X16381843Y-10572765D01*
X16522191Y-10782809D01*
X16732235Y-10923157D01*
X16980000Y-10972440D01*
X18580000Y-10972440D01*
X18827765Y-10923157D01*
X19037809Y-10782809D01*
X19178157Y-10572765D01*
X19204785Y-10438894D01*
X19285423Y-10559577D01*
X19760091Y-10876740D01*
X20178667Y-10960000D01*
X20461333Y-10960000D01*
X20879909Y-10876740D01*
X21354577Y-10559577D01*
X21590000Y-10207242D01*
X21825423Y-10559577D01*
X22300091Y-10876740D01*
X22718667Y-10960000D01*
X23001333Y-10960000D01*
X23419909Y-10876740D01*
X23894577Y-10559577D01*
X24150947Y-10175892D01*
X24247611Y-10380134D01*
X24662577Y-10756041D01*
X25050961Y-10916904D01*
X25273000Y-10794915D01*
X25273000Y-9652000D01*
X25527000Y-9652000D01*
X25527000Y-10794915D01*
X25749039Y-10916904D01*
X26137423Y-10756041D01*
X26552389Y-10380134D01*
X26670000Y-10131633D01*
X26787611Y-10380134D01*
X27202577Y-10756041D01*
X27590961Y-10916904D01*
X27813000Y-10794915D01*
X27813000Y-9652000D01*
X25527000Y-9652000D01*
X25273000Y-9652000D01*
X25253000Y-9652000D01*
X25253000Y-9398000D01*
X25273000Y-9398000D01*
X25273000Y-8255085D01*
X25527000Y-8255085D01*
X25527000Y-9398000D01*
X27813000Y-9398000D01*
X27813000Y-8255085D01*
X28067000Y-8255085D01*
X28067000Y-9398000D01*
X28087000Y-9398000D01*
X28087000Y-9652000D01*
X28067000Y-9652000D01*
X28067000Y-10794915D01*
X28289039Y-10916904D01*
X28677423Y-10756041D01*
X29092389Y-10380134D01*
X29189053Y-10175892D01*
X29445423Y-10559577D01*
X29920091Y-10876740D01*
X30338667Y-10960000D01*
X30621333Y-10960000D01*
X31039909Y-10876740D01*
X31514577Y-10559577D01*
X31750000Y-10207242D01*
X31985423Y-10559577D01*
X32460091Y-10876740D01*
X32878667Y-10960000D01*
X33161333Y-10960000D01*
X33579909Y-10876740D01*
X34054577Y-10559577D01*
X34290000Y-10207242D01*
X34463944Y-10467567D01*
X34490854Y-10602854D01*
X34741711Y-10978289D01*
X35117145Y-11229146D01*
X35560000Y-11317235D01*
X36002854Y-11229146D01*
X36378289Y-10978289D01*
X36629146Y-10602855D01*
X36656056Y-10467567D01*
X36911740Y-10084909D01*
X37023113Y-9525000D01*
X36911740Y-8965091D01*
X36594577Y-8490423D01*
X36119909Y-8173260D01*
X35701333Y-8090000D01*
X35418667Y-8090000D01*
X35000091Y-8173260D01*
X34525423Y-8490423D01*
X34290000Y-8842758D01*
X34054577Y-8490423D01*
X33579909Y-8173260D01*
X33161333Y-8090000D01*
X32878667Y-8090000D01*
X32460091Y-8173260D01*
X31985423Y-8490423D01*
X31750000Y-8842758D01*
X31514577Y-8490423D01*
X31039909Y-8173260D01*
X30621333Y-8090000D01*
X30338667Y-8090000D01*
X29920091Y-8173260D01*
X29445423Y-8490423D01*
X29189053Y-8874108D01*
X29092389Y-8669866D01*
X28677423Y-8293959D01*
X28289039Y-8133096D01*
X28067000Y-8255085D01*
X27813000Y-8255085D01*
X27590961Y-8133096D01*
X27202577Y-8293959D01*
X26787611Y-8669866D01*
X26670000Y-8918367D01*
X26552389Y-8669866D01*
X26137423Y-8293959D01*
X25749039Y-8133096D01*
X25527000Y-8255085D01*
X25273000Y-8255085D01*
X25050961Y-8133096D01*
X24662577Y-8293959D01*
X24247611Y-8669866D01*
X24150947Y-8874108D01*
X23894577Y-8490423D01*
X23419909Y-8173260D01*
X23001333Y-8090000D01*
X22718667Y-8090000D01*
X22300091Y-8173260D01*
X21825423Y-8490423D01*
X21590000Y-8842758D01*
X21354577Y-8490423D01*
X20879909Y-8173260D01*
X20461333Y-8090000D01*
X20178667Y-8090000D01*
X19760091Y-8173260D01*
X19285423Y-8490423D01*
X19204785Y-8611106D01*
X19178157Y-8477235D01*
X19037809Y-8267191D01*
X18827765Y-8126843D01*
X18580000Y-8077560D01*
X16980000Y-8077560D01*
X16732235Y-8126843D01*
X16522191Y-8267191D01*
X16381843Y-8477235D01*
X16332560Y-8725000D01*
X15105000Y-8725000D01*
X15105000Y-6185131D01*
X17391092Y-3899040D01*
X17866207Y-4374156D01*
X17915581Y-4448049D01*
X17989474Y-4497423D01*
X17989475Y-4497424D01*
X18017046Y-4515846D01*
X18208320Y-4643652D01*
X18466465Y-4695000D01*
X18466470Y-4695000D01*
X18553629Y-4712337D01*
X18640789Y-4695000D01*
X34837839Y-4695000D01*
X34925000Y-4712337D01*
X35012161Y-4695000D01*
X35012165Y-4695000D01*
X35270310Y-4643652D01*
X35563049Y-4448049D01*
X35612425Y-4374154D01*
X36124156Y-3862423D01*
X36198049Y-3813049D01*
X36313897Y-3639672D01*
X36393652Y-3520310D01*
X36403353Y-3471538D01*
X36445000Y-3262165D01*
X36445000Y-3262161D01*
X36462337Y-3175000D01*
X36445000Y-3087839D01*
X36445000Y-3039521D01*
X36594577Y-2939577D01*
X36911740Y-2464909D01*
X37023113Y-1905000D01*
X36911740Y-1345091D01*
X36594577Y-870423D01*
X36119909Y-553260D01*
X35701333Y-470000D01*
X35418667Y-470000D01*
X35000091Y-553260D01*
X34525423Y-870423D01*
X34290000Y-1222758D01*
X34054577Y-870423D01*
X33780000Y-686957D01*
X33780000Y9450154D01*
X33794888Y9525001D01*
X33780000Y9599848D01*
X33780000Y9599852D01*
X33735904Y9821537D01*
X33690158Y9890000D01*
X33610329Y10009474D01*
X33610327Y10009476D01*
X33567929Y10072929D01*
X33504476Y10115327D01*
X31070331Y12549470D01*
X31027929Y12612929D01*
X30776537Y12780904D01*
X30554852Y12825000D01*
X30554847Y12825000D01*
X30480000Y12839888D01*
X30405153Y12825000D01*
X14038711Y12825000D01*
X13921280Y12942431D01*
X13540874Y13100000D01*
X13129126Y13100000D01*
X12748720Y12942431D01*
X12457569Y12651280D01*
X12300000Y12270874D01*
X12300000Y11859126D01*
X12457569Y11478720D01*
X12748720Y11187569D01*
X13129126Y11030000D01*
X13540874Y11030000D01*
X13921280Y11187569D01*
X14038711Y11305000D01*
X30165199Y11305000D01*
X32260000Y9210197D01*
X32260001Y-686956D01*
X31985423Y-870423D01*
X31750000Y-1222758D01*
X31514577Y-870423D01*
X31039909Y-553260D01*
X30621333Y-470000D01*
X30338667Y-470000D01*
X29920091Y-553260D01*
X29445423Y-870423D01*
X29189053Y-1254108D01*
X29092389Y-1049866D01*
X28677423Y-673959D01*
X28289039Y-513096D01*
X28067000Y-635085D01*
X28067000Y-1778000D01*
X28087000Y-1778000D01*
X28087000Y-2032000D01*
X28067000Y-2032000D01*
X28067000Y-2052000D01*
X27813000Y-2052000D01*
X27813000Y-2032000D01*
X25527000Y-2032000D01*
X25527000Y-2052000D01*
X25273000Y-2052000D01*
X25273000Y-2032000D01*
X25253000Y-2032000D01*
X25253000Y-1778000D01*
X25273000Y-1778000D01*
X25273000Y-635085D01*
X25527000Y-635085D01*
X25527000Y-1778000D01*
X27813000Y-1778000D01*
X27813000Y-635085D01*
X27590961Y-513096D01*
X27202577Y-673959D01*
X26787611Y-1049866D01*
X26670000Y-1298367D01*
X26552389Y-1049866D01*
X26137423Y-673959D01*
X25749039Y-513096D01*
X25527000Y-635085D01*
X25273000Y-635085D01*
X25050961Y-513096D01*
X24662577Y-673959D01*
X24247611Y-1049866D01*
X24150947Y-1254108D01*
X23894577Y-870423D01*
X23419909Y-553260D01*
X23001333Y-470000D01*
X22718667Y-470000D01*
X22300091Y-553260D01*
X21825423Y-870423D01*
X21590000Y-1222758D01*
X21354577Y-870423D01*
X20879909Y-553260D01*
X20461333Y-470000D01*
X20178667Y-470000D01*
X19760091Y-553260D01*
X19285423Y-870423D01*
X19050000Y-1222758D01*
X18814577Y-870423D01*
X18339909Y-553260D01*
X17921333Y-470000D01*
X17638667Y-470000D01*
X17220091Y-553260D01*
X16745423Y-870423D01*
X16428260Y-1345091D01*
X16352151Y-1727717D01*
X13246480Y-4833389D01*
X13151712Y-4896711D01*
X12966085Y-5174522D01*
X12900854Y-5272146D01*
X12812765Y-5715000D01*
X12835001Y-5826788D01*
X12835000Y-19356897D01*
X12812765Y-19468680D01*
X12835000Y-19580462D01*
X12900854Y-19911534D01*
X13151711Y-20286969D01*
X13246482Y-20350293D01*
X17798421Y-24902233D01*
X17240034Y-25460620D01*
X16915000Y-26245322D01*
X16915000Y-27094678D01*
X17049363Y-27419058D01*
X16072502Y-28395919D01*
X16117440Y-28170000D01*
X16117440Y-25170000D01*
X16068157Y-24922235D01*
X15927809Y-24712191D01*
X15717765Y-24571843D01*
X15470000Y-24522560D01*
X12470000Y-24522560D01*
X12222235Y-24571843D01*
X12012191Y-24712191D01*
X11871843Y-24922235D01*
X11822560Y-25170000D01*
X11822560Y-28170000D01*
X11871843Y-28417765D01*
X12012191Y-28627809D01*
X12222235Y-28768157D01*
X12470000Y-28817440D01*
X13085001Y-28817440D01*
X13085001Y-29405896D01*
X10710000Y-31780898D01*
X10710000Y-21069926D01*
X10723909Y-21000000D01*
X10668805Y-20722972D01*
X10511881Y-20488119D01*
X10277028Y-20331195D01*
X10069926Y-20290000D01*
X10000000Y-20276091D01*
X9930075Y-20290000D01*
X-9930075Y-20290000D01*
X-10000000Y-20276091D01*
X-10069926Y-20290000D01*
X-10277028Y-20331195D01*
X-10511881Y-20488119D01*
X-10668805Y-20722972D01*
X-10723909Y-21000000D01*
X-29154629Y-21000000D01*
X-28987929Y-20447863D01*
X-28894990Y-19499999D01*
X-28896893Y-19363741D01*
X-29016261Y-18418842D01*
X-29316888Y-17515124D01*
X-29787323Y-16687009D01*
X-30409647Y-15966040D01*
X-31160155Y-15379679D01*
X-32010262Y-14950259D01*
X-32927587Y-14694137D01*
X-33877189Y-14621069D01*
X-34822898Y-14733838D01*
X-35728693Y-15028149D01*
X-36560072Y-15492791D01*
X-37285368Y-16110066D01*
X-37876955Y-16856463D01*
X-38312299Y-17703551D01*
X-38574819Y-18619066D01*
X-38654514Y-19568134D01*
X-39685417Y-19568134D01*
X-40438090Y-18004198D01*
X-41434675Y-15574271D01*
X-42093106Y-13651150D01*
X-26451256Y-13651150D01*
X-26445505Y-14383401D01*
X-26202875Y-15074310D01*
X-25749529Y-15649376D01*
X-25134351Y-16046592D01*
X-24423675Y-16223125D01*
X-23694133Y-16159939D01*
X-23024390Y-15863849D01*
X-22486665Y-15366782D01*
X-22138941Y-14722335D01*
X-22018711Y-13999999D01*
X-22018986Y-13964972D01*
X-22150547Y-13244613D01*
X-22228734Y-13105000D01*
X-10402440Y-13105000D01*
X-10402440Y-16105000D01*
X-10353157Y-16352765D01*
X-10212809Y-16562809D01*
X-10002765Y-16703157D01*
X-9755000Y-16752440D01*
X-6755000Y-16752440D01*
X-6507235Y-16703157D01*
X-6297191Y-16562809D01*
X-6156843Y-16352765D01*
X-6110339Y-16118970D01*
X-4509365Y-16118970D01*
X-4349582Y-16437739D01*
X-3558813Y-16747723D01*
X-2709613Y-16731497D01*
X-2000418Y-16437739D01*
X-1840635Y-16118970D01*
X-3175000Y-14784605D01*
X-4509365Y-16118970D01*
X-6110339Y-16118970D01*
X-6107560Y-16105000D01*
X-6107560Y-14221187D01*
X-5317723Y-14221187D01*
X-5301497Y-15070387D01*
X-5007739Y-15779582D01*
X-4688970Y-15939365D01*
X-3354605Y-14605000D01*
X-2995395Y-14605000D01*
X-1661030Y-15939365D01*
X-1342261Y-15779582D01*
X-1032277Y-14988813D01*
X-1048503Y-14139613D01*
X-1342261Y-13430418D01*
X-1661030Y-13270635D01*
X-2995395Y-14605000D01*
X-3354605Y-14605000D01*
X-4688970Y-13270635D01*
X-5007739Y-13430418D01*
X-5317723Y-14221187D01*
X-6107560Y-14221187D01*
X-6107560Y-13105000D01*
X-6110338Y-13091030D01*
X-4509365Y-13091030D01*
X-3175000Y-14425395D01*
X-1854605Y-13105000D01*
X1027560Y-13105000D01*
X1027560Y-16105000D01*
X1076843Y-16352765D01*
X1217191Y-16562809D01*
X1427235Y-16703157D01*
X1675000Y-16752440D01*
X4675000Y-16752440D01*
X4922765Y-16703157D01*
X5132809Y-16562809D01*
X5273157Y-16352765D01*
X5319661Y-16118970D01*
X6920635Y-16118970D01*
X7080418Y-16437739D01*
X7871187Y-16747723D01*
X8720387Y-16731497D01*
X9429582Y-16437739D01*
X9589365Y-16118970D01*
X8255000Y-14784605D01*
X6920635Y-16118970D01*
X5319661Y-16118970D01*
X5322440Y-16105000D01*
X5322440Y-14221187D01*
X6112277Y-14221187D01*
X6128503Y-15070387D01*
X6422261Y-15779582D01*
X6741030Y-15939365D01*
X8075395Y-14605000D01*
X8434605Y-14605000D01*
X9768970Y-15939365D01*
X10087739Y-15779582D01*
X10397723Y-14988813D01*
X10381497Y-14139613D01*
X10087739Y-13430418D01*
X9768970Y-13270635D01*
X8434605Y-14605000D01*
X8075395Y-14605000D01*
X6741030Y-13270635D01*
X6422261Y-13430418D01*
X6112277Y-14221187D01*
X5322440Y-14221187D01*
X5322440Y-13105000D01*
X5319662Y-13091030D01*
X6920635Y-13091030D01*
X8255000Y-14425395D01*
X9589365Y-13091030D01*
X9429582Y-12772261D01*
X8638813Y-12462277D01*
X7789613Y-12478503D01*
X7080418Y-12772261D01*
X6920635Y-13091030D01*
X5319662Y-13091030D01*
X5273157Y-12857235D01*
X5132809Y-12647191D01*
X4922765Y-12506843D01*
X4675000Y-12457560D01*
X1675000Y-12457560D01*
X1427235Y-12506843D01*
X1217191Y-12647191D01*
X1076843Y-12857235D01*
X1027560Y-13105000D01*
X-1854605Y-13105000D01*
X-1840635Y-13091030D01*
X-2000418Y-12772261D01*
X-2791187Y-12462277D01*
X-3640387Y-12478503D01*
X-4349582Y-12772261D01*
X-4509365Y-13091030D01*
X-6110338Y-13091030D01*
X-6156843Y-12857235D01*
X-6297191Y-12647191D01*
X-6507235Y-12506843D01*
X-6755000Y-12457560D01*
X-9755000Y-12457560D01*
X-10002765Y-12506843D01*
X-10212809Y-12647191D01*
X-10353157Y-12857235D01*
X-10402440Y-13105000D01*
X-22228734Y-13105000D01*
X-22508351Y-12605708D01*
X-23053817Y-12117148D01*
X-23728128Y-11831614D01*
X-24458573Y-11779896D01*
X-25166388Y-11967570D01*
X-25775251Y-12374399D01*
X-26219508Y-12956516D01*
X-26451256Y-13651150D01*
X-42093106Y-13651150D01*
X-42285397Y-13089517D01*
X-42987259Y-10558683D01*
X-43537791Y-7990680D01*
X-43935055Y-5394546D01*
X-44177653Y-2779422D01*
X-44185595Y-2540000D01*
X-17389092Y-2540000D01*
X-17273839Y-3119418D01*
X-16945625Y-3610625D01*
X-16647239Y-3810000D01*
X-16945625Y-4009375D01*
X-17273839Y-4500582D01*
X-17389092Y-5080000D01*
X-17273839Y-5659418D01*
X-16945625Y-6150625D01*
X-16647239Y-6350000D01*
X-16945625Y-6549375D01*
X-17273839Y-7040582D01*
X-17389092Y-7620000D01*
X-17273839Y-8199418D01*
X-16945625Y-8690625D01*
X-16927381Y-8702816D01*
X-16972765Y-8711843D01*
X-17182809Y-8852191D01*
X-17323157Y-9062235D01*
X-17372440Y-9310000D01*
X-17372440Y-11010000D01*
X-17323157Y-11257765D01*
X-17182809Y-11467809D01*
X-16972765Y-11608157D01*
X-16725000Y-11657440D01*
X-15025000Y-11657440D01*
X-14777235Y-11608157D01*
X-14567191Y-11467809D01*
X-14426843Y-11257765D01*
X-14384522Y-11045000D01*
X-5167161Y-11045000D01*
X-5080000Y-11062337D01*
X-4992839Y-11045000D01*
X-4992835Y-11045000D01*
X-4734690Y-10993652D01*
X-4441951Y-10798049D01*
X-4392575Y-10724153D01*
X687424Y-5644155D01*
X687426Y-5644152D01*
X5646256Y-685322D01*
X6795000Y-685322D01*
X6795000Y-1534678D01*
X7120034Y-2319380D01*
X7720620Y-2919966D01*
X8505322Y-3245000D01*
X9354678Y-3245000D01*
X10139380Y-2919966D01*
X10739966Y-2319380D01*
X11065000Y-1534678D01*
X11065000Y-685322D01*
X10739966Y99380D01*
X10139380Y699966D01*
X9354678Y1025000D01*
X8505322Y1025000D01*
X7720620Y699966D01*
X7120034Y99380D01*
X6795000Y-685322D01*
X5646256Y-685322D01*
X8184156Y1852578D01*
X8258049Y1901951D01*
X8453652Y2194690D01*
X8505000Y2452835D01*
X8505000Y2452839D01*
X8522337Y2539999D01*
X8505000Y2627159D01*
X8505000Y7486868D01*
X8546153Y7503914D01*
X8610962Y7568723D01*
X8702191Y7432191D01*
X8912235Y7291843D01*
X9160000Y7242560D01*
X11160000Y7242560D01*
X11407765Y7291843D01*
X11617809Y7432191D01*
X11758157Y7642235D01*
X11807440Y7890000D01*
X11807440Y9890000D01*
X11758157Y10137765D01*
X11617809Y10347809D01*
X11407765Y10488157D01*
X11160000Y10537440D01*
X9160000Y10537440D01*
X8912235Y10488157D01*
X8702191Y10347809D01*
X8610962Y10211277D01*
X8546153Y10276086D01*
X7945222Y10525000D01*
X7294778Y10525000D01*
X6693847Y10276086D01*
X6350000Y9932239D01*
X6006153Y10276086D01*
X5405222Y10525000D01*
X4754778Y10525000D01*
X4153847Y10276086D01*
X3810000Y9932239D01*
X3466153Y10276086D01*
X2865222Y10525000D01*
X2214778Y10525000D01*
X1613847Y10276086D01*
X1270000Y9932239D01*
X926153Y10276086D01*
X325222Y10525000D01*
X-325222Y10525000D01*
X-926153Y10276086D01*
X-1270000Y9932239D01*
X-1613847Y10276086D01*
X-2214778Y10525000D01*
X-2865222Y10525000D01*
X-3466153Y10276086D01*
X-3810000Y9932239D01*
X-4153847Y10276086D01*
X-4754778Y10525000D01*
X-5405222Y10525000D01*
X-6006153Y10276086D01*
X-6350000Y9932239D01*
X-6693847Y10276086D01*
X-7294778Y10525000D01*
X-7945222Y10525000D01*
X-8546153Y10276086D01*
X-9006086Y9816153D01*
X-9255000Y9215222D01*
X-9255000Y8564778D01*
X-9006086Y7963847D01*
X-8787239Y7745000D01*
X-13895152Y7745000D01*
X-13970000Y7759888D01*
X-14044848Y7745000D01*
X-14044852Y7745000D01*
X-14218395Y7710480D01*
X-14266538Y7700904D01*
X-14387620Y7619999D01*
X-14517929Y7532929D01*
X-14560329Y7469473D01*
X-16359472Y5670329D01*
X-16422928Y5627929D01*
X-16465328Y5564473D01*
X-16465329Y5564472D01*
X-16590903Y5376537D01*
X-16649888Y5080000D01*
X-16634999Y5005148D01*
X-16635000Y-1261822D01*
X-16945625Y-1469375D01*
X-17273839Y-1960582D01*
X-17389092Y-2540000D01*
X-44185595Y-2540000D01*
X-44264730Y-154514D01*
X-44195980Y2470939D01*
X-43971645Y5087693D01*
X-43592515Y7686537D01*
X-43386846Y8679678D01*
X-33885000Y8679678D01*
X-33885000Y7830322D01*
X-33559966Y7045620D01*
X-32959380Y6445034D01*
X-32174678Y6120000D01*
X-31325322Y6120000D01*
X-30540620Y6445034D01*
X-29940034Y7045620D01*
X-29615000Y7830322D01*
X-29615000Y8679678D01*
X-29940034Y9464380D01*
X-30540620Y10064966D01*
X-31325322Y10390000D01*
X-32174678Y10390000D01*
X-32959380Y10064966D01*
X-33559966Y9464380D01*
X-33885000Y8679678D01*
X-43386846Y8679678D01*
X-43059924Y10258321D01*
X-42375748Y12793992D01*
X-41692837Y14835000D01*
X-33897440Y14835000D01*
X-33897440Y11835000D01*
X-33848157Y11587235D01*
X-33707809Y11377191D01*
X-33497765Y11236843D01*
X-33250000Y11187560D01*
X-30250000Y11187560D01*
X-30002235Y11236843D01*
X-29792191Y11377191D01*
X-29651843Y11587235D01*
X-29602560Y11835000D01*
X-29602560Y14835000D01*
X-29651843Y15082765D01*
X-29792191Y15292809D01*
X-30002235Y15433157D01*
X-30250000Y15482440D01*
X-33250000Y15482440D01*
X-33497765Y15433157D01*
X-33707809Y15292809D01*
X-33848157Y15082765D01*
X-33897440Y14835000D01*
X-41692837Y14835000D01*
X-41542394Y15284625D01*
X-40562796Y17721450D01*
X-39440404Y20095889D01*
X-38179168Y22399585D01*
X-36783528Y24624425D01*
X-35258397Y26762580D01*
X-33978439Y28348849D01*
X-2202545Y28348849D01*
X-2196794Y27616598D01*
X-1954164Y26925689D01*
X-1500818Y26350623D01*
X-885640Y25953407D01*
X-174964Y25776874D01*
X554578Y25840060D01*
X1224321Y26136150D01*
X1762046Y26633217D01*
X2109770Y27277664D01*
X2230000Y28000000D01*
X2229725Y28035027D01*
X2098164Y28755386D01*
X1740360Y29394291D01*
X1194894Y29882851D01*
X520583Y30168385D01*
X-209862Y30220103D01*
X-917677Y30032429D01*
X-1526540Y29625600D01*
X-1970797Y29043483D01*
X-2202545Y28348849D01*
X-33978439Y28348849D01*
X-33609144Y28806521D01*
X-31841576Y30749053D01*
X-29961915Y32583338D01*
X-27976777Y34302918D01*
X-25893151Y35901740D01*
X-23718373Y37374176D01*
X-21460098Y38715041D01*
X-21040010Y38931865D01*
X-4879524Y38931865D01*
X-4773360Y37985391D01*
X-4485380Y37077563D01*
X-4026554Y36242961D01*
X-3414357Y35513373D01*
X-2672109Y34916590D01*
X-1828080Y34475343D01*
X-914421Y34206438D01*
X34069Y34120119D01*
X981260Y34219673D01*
X1891076Y34501308D01*
X2728861Y34954297D01*
X3462705Y35561385D01*
X4064656Y36299449D01*
X4511785Y37140377D01*
X4787061Y38052136D01*
X4880000Y39000000D01*
X4878097Y39136258D01*
X4758729Y40081157D01*
X4458102Y40984875D01*
X3987667Y41812990D01*
X3365343Y42533959D01*
X2614835Y43120320D01*
X1764728Y43549740D01*
X847403Y43805862D01*
X-102199Y43878930D01*
X-1047908Y43766161D01*
X-1953703Y43471850D01*
X-2785082Y43007208D01*
X-3510378Y42389933D01*
X-4101965Y41643536D01*
X-4537309Y40796448D01*
X-4799829Y39880933D01*
X-4879524Y38931865D01*
X-21040010Y38931865D01*
X-19126276Y39919617D01*
X-16725122Y40983661D01*
X-14265091Y41903429D01*
X-11754842Y42675683D01*
X-9203211Y43297704D01*
X-6619182Y43767301D01*
X-4011851Y44082823D01*
X-1390397Y44243158D01*
X1235951Y44247742D01*
X3857949Y44096558D01*
X3857949Y44096558D01*
G37*
X3857949Y44096558D02*
X6466365Y43790140D01*
X9052018Y43329565D01*
X11605804Y42716455D01*
X14118734Y41952969D01*
X16581961Y41041793D01*
X18986814Y39986137D01*
X21324826Y38789715D01*
X23587768Y37456740D01*
X25767673Y35991905D01*
X27856867Y34400366D01*
X29847995Y32687726D01*
X31734048Y30860013D01*
X33508386Y28923663D01*
X35164763Y26885492D01*
X36697348Y24752674D01*
X38100746Y22532718D01*
X39370016Y20233440D01*
X40500690Y17862933D01*
X41488787Y15429542D01*
X42330830Y12941834D01*
X43023854Y10408566D01*
X43565419Y7838656D01*
X43953618Y5241152D01*
X44187086Y2625197D01*
X44265000Y0D01*
X44204336Y-2316651D01*
X43989137Y-4934172D01*
X43619081Y-7534323D01*
X43095470Y-10107951D01*
X42420149Y-12645996D01*
X41595494Y-15139522D01*
X40624409Y-17579751D01*
X39510311Y-19958094D01*
X38257124Y-22266178D01*
X36869259Y-24495877D01*
X35351601Y-26639342D01*
X33709493Y-28689027D01*
X31948716Y-30637718D01*
X30075469Y-32478552D01*
X28096346Y-34205052D01*
X26018314Y-35811137D01*
X23848689Y-37291155D01*
X21595108Y-38639896D01*
X19265505Y-39852610D01*
X16868080Y-40925030D01*
X14411274Y-41853380D01*
X11903736Y-42634391D01*
X9354292Y-43265315D01*
X6771918Y-43743929D01*
X4165704Y-44068550D01*
X1544826Y-44238035D01*
X-1081490Y-44251786D01*
X-3704000Y-44109756D01*
X-6313470Y-43812445D01*
X-8900714Y-43360898D01*
X-11456625Y-42756707D01*
X-13972205Y-42001997D01*
X-16438597Y-41099425D01*
X-18847120Y-40052169D01*
X-21189295Y-38863916D01*
X-23456876Y-37538849D01*
X-25641881Y-36081632D01*
X-27736618Y-34497395D01*
X-29733712Y-32791715D01*
X-31626133Y-30970598D01*
X-33407220Y-29040453D01*
X-35070701Y-27008076D01*
X-36610722Y-24880621D01*
X-38021860Y-22665577D01*
X-39299148Y-20370743D01*
X-39685417Y-19568134D01*
X-38654514Y-19568134D01*
X-38548350Y-20514608D01*
X-38260370Y-21422436D01*
X-37801544Y-22257038D01*
X-37189347Y-22986626D01*
X-36447099Y-23583409D01*
X-35603070Y-24024656D01*
X-34689411Y-24293561D01*
X-33740921Y-24379880D01*
X-32793730Y-24280326D01*
X-31883914Y-23998691D01*
X-31046129Y-23545702D01*
X-30312285Y-22938614D01*
X-29710334Y-22200550D01*
X-29263205Y-21359622D01*
X-29154629Y-21000000D01*
X-10723909Y-21000000D01*
X-10710000Y-21069926D01*
X-10709999Y-32930069D01*
X-10723909Y-33000000D01*
X-10668805Y-33277028D01*
X-10511881Y-33511881D01*
X-10277028Y-33668805D01*
X-10069926Y-33710000D01*
X-10069925Y-33710000D01*
X-10000000Y-33723909D01*
X-9930074Y-33710000D01*
X-1311836Y-33710000D01*
X-1322423Y-33725844D01*
X-3739153Y-36142575D01*
X-3813049Y-36191951D01*
X-4008652Y-36484691D01*
X-4060000Y-36742836D01*
X-4060000Y-36742839D01*
X-4077337Y-36830000D01*
X-4060000Y-36917161D01*
X-4059999Y-39436991D01*
X-4210000Y-39799126D01*
X-4210000Y-40210874D01*
X-4052431Y-40591280D01*
X-3761280Y-40882431D01*
X-3380874Y-41040000D01*
X-2969126Y-41040000D01*
X-2588720Y-40882431D01*
X-2297569Y-40591280D01*
X-2140000Y-40210874D01*
X-2140000Y-39799126D01*
X-2290000Y-39436993D01*
X-2290000Y-37196578D01*
X-1618537Y-36525116D01*
X-1512431Y-36781280D01*
X-1221280Y-37072431D01*
X-840874Y-37230000D01*
X-429126Y-37230000D01*
X-48720Y-37072431D01*
X242431Y-36781280D01*
X381722Y-36445000D01*
X10072839Y-36445000D01*
X10160000Y-36462337D01*
X10247161Y-36445000D01*
X10247165Y-36445000D01*
X10505310Y-36393652D01*
X10798049Y-36198049D01*
X10847425Y-36124153D01*
X18300942Y-28670637D01*
X18625322Y-28805000D01*
X19474678Y-28805000D01*
X20259380Y-28479966D01*
X20555376Y-28183970D01*
X22795635Y-28183970D01*
X22955418Y-28502739D01*
X23746187Y-28812723D01*
X24595387Y-28796497D01*
X25304582Y-28502739D01*
X25464365Y-28183970D01*
X24130000Y-26849605D01*
X22795635Y-28183970D01*
X20555376Y-28183970D01*
X20859966Y-27879380D01*
X21185000Y-27094678D01*
X21185000Y-26286187D01*
X21987277Y-26286187D01*
X22003503Y-27135387D01*
X22297261Y-27844582D01*
X22616030Y-28004365D01*
X23950395Y-26670000D01*
X24309605Y-26670000D01*
X25643970Y-28004365D01*
X25962739Y-27844582D01*
X26272723Y-27053813D01*
X26256497Y-26204613D01*
X25962739Y-25495418D01*
X25643970Y-25335635D01*
X24309605Y-26670000D01*
X23950395Y-26670000D01*
X22616030Y-25335635D01*
X22297261Y-25495418D01*
X21987277Y-26286187D01*
X21185000Y-26286187D01*
X21185000Y-26245322D01*
X20859966Y-25460620D01*
X20555376Y-25156030D01*
X22795635Y-25156030D01*
X24130000Y-26490395D01*
X25464365Y-25156030D01*
X25304582Y-24837261D01*
X24513813Y-24527277D01*
X23664613Y-24543503D01*
X22955418Y-24837261D01*
X22795635Y-25156030D01*
X20555376Y-25156030D01*
X20259380Y-24860034D01*
X20185000Y-24829225D01*
X20185000Y-24660463D01*
X20207235Y-24548680D01*
X20119146Y-24105825D01*
X19868289Y-23730391D01*
X19773521Y-23667069D01*
X15674586Y-19568134D01*
X28895466Y-19568134D01*
X29001630Y-20514608D01*
X29289610Y-21422436D01*
X29748436Y-22257038D01*
X30360633Y-22986626D01*
X31102881Y-23583409D01*
X31946910Y-24024656D01*
X32860569Y-24293561D01*
X33809059Y-24379880D01*
X34756250Y-24280326D01*
X35666066Y-23998691D01*
X36503851Y-23545702D01*
X37237695Y-22938614D01*
X37839646Y-22200550D01*
X38286775Y-21359622D01*
X38562051Y-20447863D01*
X38654990Y-19499999D01*
X38653087Y-19363741D01*
X38533719Y-18418842D01*
X38233092Y-17515124D01*
X37762657Y-16687009D01*
X37140333Y-15966040D01*
X36389825Y-15379679D01*
X35539718Y-14950259D01*
X34622393Y-14694137D01*
X33672791Y-14621069D01*
X32727082Y-14733838D01*
X31821287Y-15028149D01*
X30989908Y-15492791D01*
X30264612Y-16110066D01*
X29673025Y-16856463D01*
X29237681Y-17703551D01*
X28975161Y-18619066D01*
X28895466Y-19568134D01*
X15674586Y-19568134D01*
X15105000Y-18998549D01*
X15105000Y-13651150D01*
X22046166Y-13651150D01*
X22051917Y-14383401D01*
X22294547Y-15074310D01*
X22747893Y-15649376D01*
X23363071Y-16046592D01*
X24073747Y-16223125D01*
X24803289Y-16159939D01*
X25473032Y-15863849D01*
X26010757Y-15366782D01*
X26358481Y-14722335D01*
X26478711Y-13999999D01*
X26478436Y-13964972D01*
X26346875Y-13244613D01*
X25989071Y-12605708D01*
X25443605Y-12117148D01*
X24769294Y-11831614D01*
X24038849Y-11779896D01*
X23331034Y-11967570D01*
X22722171Y-12374399D01*
X22277914Y-12956516D01*
X22046166Y-13651150D01*
X15105000Y-13651150D01*
X15105000Y-8725000D01*
X16332560Y-8725000D01*
X16332560Y-10325000D01*
X16381843Y-10572765D01*
X16522191Y-10782809D01*
X16732235Y-10923157D01*
X16980000Y-10972440D01*
X18580000Y-10972440D01*
X18827765Y-10923157D01*
X19037809Y-10782809D01*
X19178157Y-10572765D01*
X19204785Y-10438894D01*
X19285423Y-10559577D01*
X19760091Y-10876740D01*
X20178667Y-10960000D01*
X20461333Y-10960000D01*
X20879909Y-10876740D01*
X21354577Y-10559577D01*
X21590000Y-10207242D01*
X21825423Y-10559577D01*
X22300091Y-10876740D01*
X22718667Y-10960000D01*
X23001333Y-10960000D01*
X23419909Y-10876740D01*
X23894577Y-10559577D01*
X24150947Y-10175892D01*
X24247611Y-10380134D01*
X24662577Y-10756041D01*
X25050961Y-10916904D01*
X25273000Y-10794915D01*
X25273000Y-9652000D01*
X25527000Y-9652000D01*
X25527000Y-10794915D01*
X25749039Y-10916904D01*
X26137423Y-10756041D01*
X26552389Y-10380134D01*
X26670000Y-10131633D01*
X26787611Y-10380134D01*
X27202577Y-10756041D01*
X27590961Y-10916904D01*
X27813000Y-10794915D01*
X27813000Y-9652000D01*
X25527000Y-9652000D01*
X25273000Y-9652000D01*
X25253000Y-9652000D01*
X25253000Y-9398000D01*
X25273000Y-9398000D01*
X25273000Y-8255085D01*
X25527000Y-8255085D01*
X25527000Y-9398000D01*
X27813000Y-9398000D01*
X27813000Y-8255085D01*
X28067000Y-8255085D01*
X28067000Y-9398000D01*
X28087000Y-9398000D01*
X28087000Y-9652000D01*
X28067000Y-9652000D01*
X28067000Y-10794915D01*
X28289039Y-10916904D01*
X28677423Y-10756041D01*
X29092389Y-10380134D01*
X29189053Y-10175892D01*
X29445423Y-10559577D01*
X29920091Y-10876740D01*
X30338667Y-10960000D01*
X30621333Y-10960000D01*
X31039909Y-10876740D01*
X31514577Y-10559577D01*
X31750000Y-10207242D01*
X31985423Y-10559577D01*
X32460091Y-10876740D01*
X32878667Y-10960000D01*
X33161333Y-10960000D01*
X33579909Y-10876740D01*
X34054577Y-10559577D01*
X34290000Y-10207242D01*
X34463944Y-10467567D01*
X34490854Y-10602854D01*
X34741711Y-10978289D01*
X35117145Y-11229146D01*
X35560000Y-11317235D01*
X36002854Y-11229146D01*
X36378289Y-10978289D01*
X36629146Y-10602855D01*
X36656056Y-10467567D01*
X36911740Y-10084909D01*
X37023113Y-9525000D01*
X36911740Y-8965091D01*
X36594577Y-8490423D01*
X36119909Y-8173260D01*
X35701333Y-8090000D01*
X35418667Y-8090000D01*
X35000091Y-8173260D01*
X34525423Y-8490423D01*
X34290000Y-8842758D01*
X34054577Y-8490423D01*
X33579909Y-8173260D01*
X33161333Y-8090000D01*
X32878667Y-8090000D01*
X32460091Y-8173260D01*
X31985423Y-8490423D01*
X31750000Y-8842758D01*
X31514577Y-8490423D01*
X31039909Y-8173260D01*
X30621333Y-8090000D01*
X30338667Y-8090000D01*
X29920091Y-8173260D01*
X29445423Y-8490423D01*
X29189053Y-8874108D01*
X29092389Y-8669866D01*
X28677423Y-8293959D01*
X28289039Y-8133096D01*
X28067000Y-8255085D01*
X27813000Y-8255085D01*
X27590961Y-8133096D01*
X27202577Y-8293959D01*
X26787611Y-8669866D01*
X26670000Y-8918367D01*
X26552389Y-8669866D01*
X26137423Y-8293959D01*
X25749039Y-8133096D01*
X25527000Y-8255085D01*
X25273000Y-8255085D01*
X25050961Y-8133096D01*
X24662577Y-8293959D01*
X24247611Y-8669866D01*
X24150947Y-8874108D01*
X23894577Y-8490423D01*
X23419909Y-8173260D01*
X23001333Y-8090000D01*
X22718667Y-8090000D01*
X22300091Y-8173260D01*
X21825423Y-8490423D01*
X21590000Y-8842758D01*
X21354577Y-8490423D01*
X20879909Y-8173260D01*
X20461333Y-8090000D01*
X20178667Y-8090000D01*
X19760091Y-8173260D01*
X19285423Y-8490423D01*
X19204785Y-8611106D01*
X19178157Y-8477235D01*
X19037809Y-8267191D01*
X18827765Y-8126843D01*
X18580000Y-8077560D01*
X16980000Y-8077560D01*
X16732235Y-8126843D01*
X16522191Y-8267191D01*
X16381843Y-8477235D01*
X16332560Y-8725000D01*
X15105000Y-8725000D01*
X15105000Y-6185131D01*
X17391092Y-3899040D01*
X17866207Y-4374156D01*
X17915581Y-4448049D01*
X17989474Y-4497423D01*
X17989475Y-4497424D01*
X18017046Y-4515846D01*
X18208320Y-4643652D01*
X18466465Y-4695000D01*
X18466470Y-4695000D01*
X18553629Y-4712337D01*
X18640789Y-4695000D01*
X34837839Y-4695000D01*
X34925000Y-4712337D01*
X35012161Y-4695000D01*
X35012165Y-4695000D01*
X35270310Y-4643652D01*
X35563049Y-4448049D01*
X35612425Y-4374154D01*
X36124156Y-3862423D01*
X36198049Y-3813049D01*
X36313897Y-3639672D01*
X36393652Y-3520310D01*
X36403353Y-3471538D01*
X36445000Y-3262165D01*
X36445000Y-3262161D01*
X36462337Y-3175000D01*
X36445000Y-3087839D01*
X36445000Y-3039521D01*
X36594577Y-2939577D01*
X36911740Y-2464909D01*
X37023113Y-1905000D01*
X36911740Y-1345091D01*
X36594577Y-870423D01*
X36119909Y-553260D01*
X35701333Y-470000D01*
X35418667Y-470000D01*
X35000091Y-553260D01*
X34525423Y-870423D01*
X34290000Y-1222758D01*
X34054577Y-870423D01*
X33780000Y-686957D01*
X33780000Y9450154D01*
X33794888Y9525001D01*
X33780000Y9599848D01*
X33780000Y9599852D01*
X33735904Y9821537D01*
X33690158Y9890000D01*
X33610329Y10009474D01*
X33610327Y10009476D01*
X33567929Y10072929D01*
X33504476Y10115327D01*
X31070331Y12549470D01*
X31027929Y12612929D01*
X30776537Y12780904D01*
X30554852Y12825000D01*
X30554847Y12825000D01*
X30480000Y12839888D01*
X30405153Y12825000D01*
X14038711Y12825000D01*
X13921280Y12942431D01*
X13540874Y13100000D01*
X13129126Y13100000D01*
X12748720Y12942431D01*
X12457569Y12651280D01*
X12300000Y12270874D01*
X12300000Y11859126D01*
X12457569Y11478720D01*
X12748720Y11187569D01*
X13129126Y11030000D01*
X13540874Y11030000D01*
X13921280Y11187569D01*
X14038711Y11305000D01*
X30165199Y11305000D01*
X32260000Y9210197D01*
X32260001Y-686956D01*
X31985423Y-870423D01*
X31750000Y-1222758D01*
X31514577Y-870423D01*
X31039909Y-553260D01*
X30621333Y-470000D01*
X30338667Y-470000D01*
X29920091Y-553260D01*
X29445423Y-870423D01*
X29189053Y-1254108D01*
X29092389Y-1049866D01*
X28677423Y-673959D01*
X28289039Y-513096D01*
X28067000Y-635085D01*
X28067000Y-1778000D01*
X28087000Y-1778000D01*
X28087000Y-2032000D01*
X28067000Y-2032000D01*
X28067000Y-2052000D01*
X27813000Y-2052000D01*
X27813000Y-2032000D01*
X25527000Y-2032000D01*
X25527000Y-2052000D01*
X25273000Y-2052000D01*
X25273000Y-2032000D01*
X25253000Y-2032000D01*
X25253000Y-1778000D01*
X25273000Y-1778000D01*
X25273000Y-635085D01*
X25527000Y-635085D01*
X25527000Y-1778000D01*
X27813000Y-1778000D01*
X27813000Y-635085D01*
X27590961Y-513096D01*
X27202577Y-673959D01*
X26787611Y-1049866D01*
X26670000Y-1298367D01*
X26552389Y-1049866D01*
X26137423Y-673959D01*
X25749039Y-513096D01*
X25527000Y-635085D01*
X25273000Y-635085D01*
X25050961Y-513096D01*
X24662577Y-673959D01*
X24247611Y-1049866D01*
X24150947Y-1254108D01*
X23894577Y-870423D01*
X23419909Y-553260D01*
X23001333Y-470000D01*
X22718667Y-470000D01*
X22300091Y-553260D01*
X21825423Y-870423D01*
X21590000Y-1222758D01*
X21354577Y-870423D01*
X20879909Y-553260D01*
X20461333Y-470000D01*
X20178667Y-470000D01*
X19760091Y-553260D01*
X19285423Y-870423D01*
X19050000Y-1222758D01*
X18814577Y-870423D01*
X18339909Y-553260D01*
X17921333Y-470000D01*
X17638667Y-470000D01*
X17220091Y-553260D01*
X16745423Y-870423D01*
X16428260Y-1345091D01*
X16352151Y-1727717D01*
X13246480Y-4833389D01*
X13151712Y-4896711D01*
X12966085Y-5174522D01*
X12900854Y-5272146D01*
X12812765Y-5715000D01*
X12835001Y-5826788D01*
X12835000Y-19356897D01*
X12812765Y-19468680D01*
X12835000Y-19580462D01*
X12900854Y-19911534D01*
X13151711Y-20286969D01*
X13246482Y-20350293D01*
X17798421Y-24902233D01*
X17240034Y-25460620D01*
X16915000Y-26245322D01*
X16915000Y-27094678D01*
X17049363Y-27419058D01*
X16072502Y-28395919D01*
X16117440Y-28170000D01*
X16117440Y-25170000D01*
X16068157Y-24922235D01*
X15927809Y-24712191D01*
X15717765Y-24571843D01*
X15470000Y-24522560D01*
X12470000Y-24522560D01*
X12222235Y-24571843D01*
X12012191Y-24712191D01*
X11871843Y-24922235D01*
X11822560Y-25170000D01*
X11822560Y-28170000D01*
X11871843Y-28417765D01*
X12012191Y-28627809D01*
X12222235Y-28768157D01*
X12470000Y-28817440D01*
X13085001Y-28817440D01*
X13085001Y-29405896D01*
X10710000Y-31780898D01*
X10710000Y-21069926D01*
X10723909Y-21000000D01*
X10668805Y-20722972D01*
X10511881Y-20488119D01*
X10277028Y-20331195D01*
X10069926Y-20290000D01*
X10000000Y-20276091D01*
X9930075Y-20290000D01*
X-9930075Y-20290000D01*
X-10000000Y-20276091D01*
X-10069926Y-20290000D01*
X-10277028Y-20331195D01*
X-10511881Y-20488119D01*
X-10668805Y-20722972D01*
X-10723909Y-21000000D01*
X-29154629Y-21000000D01*
X-28987929Y-20447863D01*
X-28894990Y-19499999D01*
X-28896893Y-19363741D01*
X-29016261Y-18418842D01*
X-29316888Y-17515124D01*
X-29787323Y-16687009D01*
X-30409647Y-15966040D01*
X-31160155Y-15379679D01*
X-32010262Y-14950259D01*
X-32927587Y-14694137D01*
X-33877189Y-14621069D01*
X-34822898Y-14733838D01*
X-35728693Y-15028149D01*
X-36560072Y-15492791D01*
X-37285368Y-16110066D01*
X-37876955Y-16856463D01*
X-38312299Y-17703551D01*
X-38574819Y-18619066D01*
X-38654514Y-19568134D01*
X-39685417Y-19568134D01*
X-40438090Y-18004198D01*
X-41434675Y-15574271D01*
X-42093106Y-13651150D01*
X-26451256Y-13651150D01*
X-26445505Y-14383401D01*
X-26202875Y-15074310D01*
X-25749529Y-15649376D01*
X-25134351Y-16046592D01*
X-24423675Y-16223125D01*
X-23694133Y-16159939D01*
X-23024390Y-15863849D01*
X-22486665Y-15366782D01*
X-22138941Y-14722335D01*
X-22018711Y-13999999D01*
X-22018986Y-13964972D01*
X-22150547Y-13244613D01*
X-22228734Y-13105000D01*
X-10402440Y-13105000D01*
X-10402440Y-16105000D01*
X-10353157Y-16352765D01*
X-10212809Y-16562809D01*
X-10002765Y-16703157D01*
X-9755000Y-16752440D01*
X-6755000Y-16752440D01*
X-6507235Y-16703157D01*
X-6297191Y-16562809D01*
X-6156843Y-16352765D01*
X-6110339Y-16118970D01*
X-4509365Y-16118970D01*
X-4349582Y-16437739D01*
X-3558813Y-16747723D01*
X-2709613Y-16731497D01*
X-2000418Y-16437739D01*
X-1840635Y-16118970D01*
X-3175000Y-14784605D01*
X-4509365Y-16118970D01*
X-6110339Y-16118970D01*
X-6107560Y-16105000D01*
X-6107560Y-14221187D01*
X-5317723Y-14221187D01*
X-5301497Y-15070387D01*
X-5007739Y-15779582D01*
X-4688970Y-15939365D01*
X-3354605Y-14605000D01*
X-2995395Y-14605000D01*
X-1661030Y-15939365D01*
X-1342261Y-15779582D01*
X-1032277Y-14988813D01*
X-1048503Y-14139613D01*
X-1342261Y-13430418D01*
X-1661030Y-13270635D01*
X-2995395Y-14605000D01*
X-3354605Y-14605000D01*
X-4688970Y-13270635D01*
X-5007739Y-13430418D01*
X-5317723Y-14221187D01*
X-6107560Y-14221187D01*
X-6107560Y-13105000D01*
X-6110338Y-13091030D01*
X-4509365Y-13091030D01*
X-3175000Y-14425395D01*
X-1854605Y-13105000D01*
X1027560Y-13105000D01*
X1027560Y-16105000D01*
X1076843Y-16352765D01*
X1217191Y-16562809D01*
X1427235Y-16703157D01*
X1675000Y-16752440D01*
X4675000Y-16752440D01*
X4922765Y-16703157D01*
X5132809Y-16562809D01*
X5273157Y-16352765D01*
X5319661Y-16118970D01*
X6920635Y-16118970D01*
X7080418Y-16437739D01*
X7871187Y-16747723D01*
X8720387Y-16731497D01*
X9429582Y-16437739D01*
X9589365Y-16118970D01*
X8255000Y-14784605D01*
X6920635Y-16118970D01*
X5319661Y-16118970D01*
X5322440Y-16105000D01*
X5322440Y-14221187D01*
X6112277Y-14221187D01*
X6128503Y-15070387D01*
X6422261Y-15779582D01*
X6741030Y-15939365D01*
X8075395Y-14605000D01*
X8434605Y-14605000D01*
X9768970Y-15939365D01*
X10087739Y-15779582D01*
X10397723Y-14988813D01*
X10381497Y-14139613D01*
X10087739Y-13430418D01*
X9768970Y-13270635D01*
X8434605Y-14605000D01*
X8075395Y-14605000D01*
X6741030Y-13270635D01*
X6422261Y-13430418D01*
X6112277Y-14221187D01*
X5322440Y-14221187D01*
X5322440Y-13105000D01*
X5319662Y-13091030D01*
X6920635Y-13091030D01*
X8255000Y-14425395D01*
X9589365Y-13091030D01*
X9429582Y-12772261D01*
X8638813Y-12462277D01*
X7789613Y-12478503D01*
X7080418Y-12772261D01*
X6920635Y-13091030D01*
X5319662Y-13091030D01*
X5273157Y-12857235D01*
X5132809Y-12647191D01*
X4922765Y-12506843D01*
X4675000Y-12457560D01*
X1675000Y-12457560D01*
X1427235Y-12506843D01*
X1217191Y-12647191D01*
X1076843Y-12857235D01*
X1027560Y-13105000D01*
X-1854605Y-13105000D01*
X-1840635Y-13091030D01*
X-2000418Y-12772261D01*
X-2791187Y-12462277D01*
X-3640387Y-12478503D01*
X-4349582Y-12772261D01*
X-4509365Y-13091030D01*
X-6110338Y-13091030D01*
X-6156843Y-12857235D01*
X-6297191Y-12647191D01*
X-6507235Y-12506843D01*
X-6755000Y-12457560D01*
X-9755000Y-12457560D01*
X-10002765Y-12506843D01*
X-10212809Y-12647191D01*
X-10353157Y-12857235D01*
X-10402440Y-13105000D01*
X-22228734Y-13105000D01*
X-22508351Y-12605708D01*
X-23053817Y-12117148D01*
X-23728128Y-11831614D01*
X-24458573Y-11779896D01*
X-25166388Y-11967570D01*
X-25775251Y-12374399D01*
X-26219508Y-12956516D01*
X-26451256Y-13651150D01*
X-42093106Y-13651150D01*
X-42285397Y-13089517D01*
X-42987259Y-10558683D01*
X-43537791Y-7990680D01*
X-43935055Y-5394546D01*
X-44177653Y-2779422D01*
X-44185595Y-2540000D01*
X-17389092Y-2540000D01*
X-17273839Y-3119418D01*
X-16945625Y-3610625D01*
X-16647239Y-3810000D01*
X-16945625Y-4009375D01*
X-17273839Y-4500582D01*
X-17389092Y-5080000D01*
X-17273839Y-5659418D01*
X-16945625Y-6150625D01*
X-16647239Y-6350000D01*
X-16945625Y-6549375D01*
X-17273839Y-7040582D01*
X-17389092Y-7620000D01*
X-17273839Y-8199418D01*
X-16945625Y-8690625D01*
X-16927381Y-8702816D01*
X-16972765Y-8711843D01*
X-17182809Y-8852191D01*
X-17323157Y-9062235D01*
X-17372440Y-9310000D01*
X-17372440Y-11010000D01*
X-17323157Y-11257765D01*
X-17182809Y-11467809D01*
X-16972765Y-11608157D01*
X-16725000Y-11657440D01*
X-15025000Y-11657440D01*
X-14777235Y-11608157D01*
X-14567191Y-11467809D01*
X-14426843Y-11257765D01*
X-14384522Y-11045000D01*
X-5167161Y-11045000D01*
X-5080000Y-11062337D01*
X-4992839Y-11045000D01*
X-4992835Y-11045000D01*
X-4734690Y-10993652D01*
X-4441951Y-10798049D01*
X-4392575Y-10724153D01*
X687424Y-5644155D01*
X687426Y-5644152D01*
X5646256Y-685322D01*
X6795000Y-685322D01*
X6795000Y-1534678D01*
X7120034Y-2319380D01*
X7720620Y-2919966D01*
X8505322Y-3245000D01*
X9354678Y-3245000D01*
X10139380Y-2919966D01*
X10739966Y-2319380D01*
X11065000Y-1534678D01*
X11065000Y-685322D01*
X10739966Y99380D01*
X10139380Y699966D01*
X9354678Y1025000D01*
X8505322Y1025000D01*
X7720620Y699966D01*
X7120034Y99380D01*
X6795000Y-685322D01*
X5646256Y-685322D01*
X8184156Y1852578D01*
X8258049Y1901951D01*
X8453652Y2194690D01*
X8505000Y2452835D01*
X8505000Y2452839D01*
X8522337Y2539999D01*
X8505000Y2627159D01*
X8505000Y7486868D01*
X8546153Y7503914D01*
X8610962Y7568723D01*
X8702191Y7432191D01*
X8912235Y7291843D01*
X9160000Y7242560D01*
X11160000Y7242560D01*
X11407765Y7291843D01*
X11617809Y7432191D01*
X11758157Y7642235D01*
X11807440Y7890000D01*
X11807440Y9890000D01*
X11758157Y10137765D01*
X11617809Y10347809D01*
X11407765Y10488157D01*
X11160000Y10537440D01*
X9160000Y10537440D01*
X8912235Y10488157D01*
X8702191Y10347809D01*
X8610962Y10211277D01*
X8546153Y10276086D01*
X7945222Y10525000D01*
X7294778Y10525000D01*
X6693847Y10276086D01*
X6350000Y9932239D01*
X6006153Y10276086D01*
X5405222Y10525000D01*
X4754778Y10525000D01*
X4153847Y10276086D01*
X3810000Y9932239D01*
X3466153Y10276086D01*
X2865222Y10525000D01*
X2214778Y10525000D01*
X1613847Y10276086D01*
X1270000Y9932239D01*
X926153Y10276086D01*
X325222Y10525000D01*
X-325222Y10525000D01*
X-926153Y10276086D01*
X-1270000Y9932239D01*
X-1613847Y10276086D01*
X-2214778Y10525000D01*
X-2865222Y10525000D01*
X-3466153Y10276086D01*
X-3810000Y9932239D01*
X-4153847Y10276086D01*
X-4754778Y10525000D01*
X-5405222Y10525000D01*
X-6006153Y10276086D01*
X-6350000Y9932239D01*
X-6693847Y10276086D01*
X-7294778Y10525000D01*
X-7945222Y10525000D01*
X-8546153Y10276086D01*
X-9006086Y9816153D01*
X-9255000Y9215222D01*
X-9255000Y8564778D01*
X-9006086Y7963847D01*
X-8787239Y7745000D01*
X-13895152Y7745000D01*
X-13970000Y7759888D01*
X-14044848Y7745000D01*
X-14044852Y7745000D01*
X-14218395Y7710480D01*
X-14266538Y7700904D01*
X-14387620Y7619999D01*
X-14517929Y7532929D01*
X-14560329Y7469473D01*
X-16359472Y5670329D01*
X-16422928Y5627929D01*
X-16465328Y5564473D01*
X-16465329Y5564472D01*
X-16590903Y5376537D01*
X-16649888Y5080000D01*
X-16634999Y5005148D01*
X-16635000Y-1261822D01*
X-16945625Y-1469375D01*
X-17273839Y-1960582D01*
X-17389092Y-2540000D01*
X-44185595Y-2540000D01*
X-44264730Y-154514D01*
X-44195980Y2470939D01*
X-43971645Y5087693D01*
X-43592515Y7686537D01*
X-43386846Y8679678D01*
X-33885000Y8679678D01*
X-33885000Y7830322D01*
X-33559966Y7045620D01*
X-32959380Y6445034D01*
X-32174678Y6120000D01*
X-31325322Y6120000D01*
X-30540620Y6445034D01*
X-29940034Y7045620D01*
X-29615000Y7830322D01*
X-29615000Y8679678D01*
X-29940034Y9464380D01*
X-30540620Y10064966D01*
X-31325322Y10390000D01*
X-32174678Y10390000D01*
X-32959380Y10064966D01*
X-33559966Y9464380D01*
X-33885000Y8679678D01*
X-43386846Y8679678D01*
X-43059924Y10258321D01*
X-42375748Y12793992D01*
X-41692837Y14835000D01*
X-33897440Y14835000D01*
X-33897440Y11835000D01*
X-33848157Y11587235D01*
X-33707809Y11377191D01*
X-33497765Y11236843D01*
X-33250000Y11187560D01*
X-30250000Y11187560D01*
X-30002235Y11236843D01*
X-29792191Y11377191D01*
X-29651843Y11587235D01*
X-29602560Y11835000D01*
X-29602560Y14835000D01*
X-29651843Y15082765D01*
X-29792191Y15292809D01*
X-30002235Y15433157D01*
X-30250000Y15482440D01*
X-33250000Y15482440D01*
X-33497765Y15433157D01*
X-33707809Y15292809D01*
X-33848157Y15082765D01*
X-33897440Y14835000D01*
X-41692837Y14835000D01*
X-41542394Y15284625D01*
X-40562796Y17721450D01*
X-39440404Y20095889D01*
X-38179168Y22399585D01*
X-36783528Y24624425D01*
X-35258397Y26762580D01*
X-33978439Y28348849D01*
X-2202545Y28348849D01*
X-2196794Y27616598D01*
X-1954164Y26925689D01*
X-1500818Y26350623D01*
X-885640Y25953407D01*
X-174964Y25776874D01*
X554578Y25840060D01*
X1224321Y26136150D01*
X1762046Y26633217D01*
X2109770Y27277664D01*
X2230000Y28000000D01*
X2229725Y28035027D01*
X2098164Y28755386D01*
X1740360Y29394291D01*
X1194894Y29882851D01*
X520583Y30168385D01*
X-209862Y30220103D01*
X-917677Y30032429D01*
X-1526540Y29625600D01*
X-1970797Y29043483D01*
X-2202545Y28348849D01*
X-33978439Y28348849D01*
X-33609144Y28806521D01*
X-31841576Y30749053D01*
X-29961915Y32583338D01*
X-27976777Y34302918D01*
X-25893151Y35901740D01*
X-23718373Y37374176D01*
X-21460098Y38715041D01*
X-21040010Y38931865D01*
X-4879524Y38931865D01*
X-4773360Y37985391D01*
X-4485380Y37077563D01*
X-4026554Y36242961D01*
X-3414357Y35513373D01*
X-2672109Y34916590D01*
X-1828080Y34475343D01*
X-914421Y34206438D01*
X34069Y34120119D01*
X981260Y34219673D01*
X1891076Y34501308D01*
X2728861Y34954297D01*
X3462705Y35561385D01*
X4064656Y36299449D01*
X4511785Y37140377D01*
X4787061Y38052136D01*
X4880000Y39000000D01*
X4878097Y39136258D01*
X4758729Y40081157D01*
X4458102Y40984875D01*
X3987667Y41812990D01*
X3365343Y42533959D01*
X2614835Y43120320D01*
X1764728Y43549740D01*
X847403Y43805862D01*
X-102199Y43878930D01*
X-1047908Y43766161D01*
X-1953703Y43471850D01*
X-2785082Y43007208D01*
X-3510378Y42389933D01*
X-4101965Y41643536D01*
X-4537309Y40796448D01*
X-4799829Y39880933D01*
X-4879524Y38931865D01*
X-21040010Y38931865D01*
X-19126276Y39919617D01*
X-16725122Y40983661D01*
X-14265091Y41903429D01*
X-11754842Y42675683D01*
X-9203211Y43297704D01*
X-6619182Y43767301D01*
X-4011851Y44082823D01*
X-1390397Y44243158D01*
X1235951Y44247742D01*
X3857949Y44096558D01*
G04 #@! TD*
M02*
