M48
;DRILL file {KiCad (5.0.0)} date 08/26/18 23:56:54
;FORMAT={-:-/ absolute / inch / decimal}
FMAT,2
INCH,TZ
T1C0.0157
T2C0.0315
T3C0.0394
T4C0.0598
%
G90
G05
M72
T1
X-0.125Y-1.575
X-0.025Y-1.425
X0.4Y-1.525
X0.4Y-1.625
X0.525Y0.475
T2
X0.7Y-0.075
X0.7Y-0.375
X0.8Y-0.075
X0.8Y-0.375
X0.9Y-0.075
X0.9Y-0.375
X1.Y-0.075
X1.Y-0.375
X1.1Y-0.075
X1.1Y-0.375
X1.2Y-0.075
X1.2Y-0.375
X1.3Y-0.075
X1.3Y-0.375
X1.4Y-0.075
X1.4Y-0.375
T3
X-0.3Y0.35
X-0.2Y0.35
X-0.1Y0.35
X0.Y0.35
X0.1Y0.35
X0.2Y0.35
X0.3Y0.35
X0.4Y0.35
X-0.625Y-0.1
X-0.625Y-0.2
X-0.625Y-0.3
X-0.625Y-0.4
T4
X0.55Y-1.05
X0.75Y-1.05
X0.95Y-1.05
X-1.25Y0.525
X-1.25Y0.325
X-0.325Y-0.575
X-0.125Y-0.575
X0.125Y-0.575
X0.325Y-0.575
T0
M30
