G04 #@! TF.GenerationSoftware,KiCad,Pcbnew,(5.0.0)*
G04 #@! TF.CreationDate,2018-08-26T23:56:51+09:00*
G04 #@! TF.ProjectId,imu,696D752E6B696361645F706362000000,rev?*
G04 #@! TF.SameCoordinates,Original*
G04 #@! TF.FileFunction,Soldermask,Top*
G04 #@! TF.FilePolarity,Negative*
%FSLAX46Y46*%
G04 Gerber Fmt 4.6, Leading zero omitted, Abs format (unit mm)*
G04 Created by KiCad (PCBNEW (5.0.0)) date 08/26/18 23:56:51*
%MOMM*%
%LPD*%
G01*
G04 APERTURE LIST*
%ADD10R,2.400000X2.400000*%
%ADD11C,2.400000*%
%ADD12C,3.400000*%
%ADD13R,2.000000X2.000000*%
%ADD14O,2.000000X2.000000*%
%ADD15C,0.100000*%
%ADD16C,1.350000*%
%ADD17R,3.400000X3.400000*%
%ADD18R,2.100000X2.100000*%
%ADD19O,2.100000X2.100000*%
%ADD20C,1.825000*%
G04 APERTURE END LIST*
D10*
G04 #@! TO.C,U1*
X10160000Y8890000D03*
D11*
X7620000Y8890000D03*
X5080000Y8890000D03*
X2540000Y8890000D03*
X0Y8890000D03*
X-2540000Y8890000D03*
X-5080000Y8890000D03*
X-7620000Y8890000D03*
D12*
X8930000Y-1110000D03*
X-6390000Y-1110000D03*
G04 #@! TD*
D13*
G04 #@! TO.C,U2*
X17780000Y-9525000D03*
D14*
X35560000Y-1905000D03*
X20320000Y-9525000D03*
X33020000Y-1905000D03*
X22860000Y-9525000D03*
X30480000Y-1905000D03*
X25400000Y-9525000D03*
X27940000Y-1905000D03*
X27940000Y-9525000D03*
X25400000Y-1905000D03*
X30480000Y-9525000D03*
X22860000Y-1905000D03*
X33020000Y-9525000D03*
X20320000Y-1905000D03*
X35560000Y-9525000D03*
X17780000Y-1905000D03*
G04 #@! TD*
D15*
G04 #@! TO.C,D1*
G36*
X1295581Y-40601625D02*
X1328343Y-40606485D01*
X1360471Y-40614533D01*
X1391656Y-40625691D01*
X1421596Y-40639852D01*
X1450005Y-40656879D01*
X1476608Y-40676609D01*
X1501149Y-40698851D01*
X1523391Y-40723392D01*
X1543121Y-40749995D01*
X1560148Y-40778404D01*
X1574309Y-40808344D01*
X1585467Y-40839529D01*
X1593515Y-40871657D01*
X1598375Y-40904419D01*
X1600000Y-40937500D01*
X1600000Y-41612500D01*
X1598375Y-41645581D01*
X1593515Y-41678343D01*
X1585467Y-41710471D01*
X1574309Y-41741656D01*
X1560148Y-41771596D01*
X1543121Y-41800005D01*
X1523391Y-41826608D01*
X1501149Y-41851149D01*
X1476608Y-41873391D01*
X1450005Y-41893121D01*
X1421596Y-41910148D01*
X1391656Y-41924309D01*
X1360471Y-41935467D01*
X1328343Y-41943515D01*
X1295581Y-41948375D01*
X1262500Y-41950000D01*
X487500Y-41950000D01*
X454419Y-41948375D01*
X421657Y-41943515D01*
X389529Y-41935467D01*
X358344Y-41924309D01*
X328404Y-41910148D01*
X299995Y-41893121D01*
X273392Y-41873391D01*
X248851Y-41851149D01*
X226609Y-41826608D01*
X206879Y-41800005D01*
X189852Y-41771596D01*
X175691Y-41741656D01*
X164533Y-41710471D01*
X156485Y-41678343D01*
X151625Y-41645581D01*
X150000Y-41612500D01*
X150000Y-40937500D01*
X151625Y-40904419D01*
X156485Y-40871657D01*
X164533Y-40839529D01*
X175691Y-40808344D01*
X189852Y-40778404D01*
X206879Y-40749995D01*
X226609Y-40723392D01*
X248851Y-40698851D01*
X273392Y-40676609D01*
X299995Y-40656879D01*
X328404Y-40639852D01*
X358344Y-40625691D01*
X389529Y-40614533D01*
X421657Y-40606485D01*
X454419Y-40601625D01*
X487500Y-40600000D01*
X1262500Y-40600000D01*
X1295581Y-40601625D01*
X1295581Y-40601625D01*
G37*
D16*
X875000Y-41275000D03*
D15*
G36*
X-454419Y-40601625D02*
X-421657Y-40606485D01*
X-389529Y-40614533D01*
X-358344Y-40625691D01*
X-328404Y-40639852D01*
X-299995Y-40656879D01*
X-273392Y-40676609D01*
X-248851Y-40698851D01*
X-226609Y-40723392D01*
X-206879Y-40749995D01*
X-189852Y-40778404D01*
X-175691Y-40808344D01*
X-164533Y-40839529D01*
X-156485Y-40871657D01*
X-151625Y-40904419D01*
X-150000Y-40937500D01*
X-150000Y-41612500D01*
X-151625Y-41645581D01*
X-156485Y-41678343D01*
X-164533Y-41710471D01*
X-175691Y-41741656D01*
X-189852Y-41771596D01*
X-206879Y-41800005D01*
X-226609Y-41826608D01*
X-248851Y-41851149D01*
X-273392Y-41873391D01*
X-299995Y-41893121D01*
X-328404Y-41910148D01*
X-358344Y-41924309D01*
X-389529Y-41935467D01*
X-421657Y-41943515D01*
X-454419Y-41948375D01*
X-487500Y-41950000D01*
X-1262500Y-41950000D01*
X-1295581Y-41948375D01*
X-1328343Y-41943515D01*
X-1360471Y-41935467D01*
X-1391656Y-41924309D01*
X-1421596Y-41910148D01*
X-1450005Y-41893121D01*
X-1476608Y-41873391D01*
X-1501149Y-41851149D01*
X-1523391Y-41826608D01*
X-1543121Y-41800005D01*
X-1560148Y-41771596D01*
X-1574309Y-41741656D01*
X-1585467Y-41710471D01*
X-1593515Y-41678343D01*
X-1598375Y-41645581D01*
X-1600000Y-41612500D01*
X-1600000Y-40937500D01*
X-1598375Y-40904419D01*
X-1593515Y-40871657D01*
X-1585467Y-40839529D01*
X-1574309Y-40808344D01*
X-1560148Y-40778404D01*
X-1543121Y-40749995D01*
X-1523391Y-40723392D01*
X-1501149Y-40698851D01*
X-1476608Y-40676609D01*
X-1450005Y-40656879D01*
X-1421596Y-40639852D01*
X-1391656Y-40625691D01*
X-1360471Y-40614533D01*
X-1328343Y-40606485D01*
X-1295581Y-40601625D01*
X-1262500Y-40600000D01*
X-487500Y-40600000D01*
X-454419Y-40601625D01*
X-454419Y-40601625D01*
G37*
D16*
X-875000Y-41275000D03*
G04 #@! TD*
D15*
G04 #@! TO.C,D2*
G36*
X-440419Y-38061625D02*
X-407657Y-38066485D01*
X-375529Y-38074533D01*
X-344344Y-38085691D01*
X-314404Y-38099852D01*
X-285995Y-38116879D01*
X-259392Y-38136609D01*
X-234851Y-38158851D01*
X-212609Y-38183392D01*
X-192879Y-38209995D01*
X-175852Y-38238404D01*
X-161691Y-38268344D01*
X-150533Y-38299529D01*
X-142485Y-38331657D01*
X-137625Y-38364419D01*
X-136000Y-38397500D01*
X-136000Y-39072500D01*
X-137625Y-39105581D01*
X-142485Y-39138343D01*
X-150533Y-39170471D01*
X-161691Y-39201656D01*
X-175852Y-39231596D01*
X-192879Y-39260005D01*
X-212609Y-39286608D01*
X-234851Y-39311149D01*
X-259392Y-39333391D01*
X-285995Y-39353121D01*
X-314404Y-39370148D01*
X-344344Y-39384309D01*
X-375529Y-39395467D01*
X-407657Y-39403515D01*
X-440419Y-39408375D01*
X-473500Y-39410000D01*
X-1248500Y-39410000D01*
X-1281581Y-39408375D01*
X-1314343Y-39403515D01*
X-1346471Y-39395467D01*
X-1377656Y-39384309D01*
X-1407596Y-39370148D01*
X-1436005Y-39353121D01*
X-1462608Y-39333391D01*
X-1487149Y-39311149D01*
X-1509391Y-39286608D01*
X-1529121Y-39260005D01*
X-1546148Y-39231596D01*
X-1560309Y-39201656D01*
X-1571467Y-39170471D01*
X-1579515Y-39138343D01*
X-1584375Y-39105581D01*
X-1586000Y-39072500D01*
X-1586000Y-38397500D01*
X-1584375Y-38364419D01*
X-1579515Y-38331657D01*
X-1571467Y-38299529D01*
X-1560309Y-38268344D01*
X-1546148Y-38238404D01*
X-1529121Y-38209995D01*
X-1509391Y-38183392D01*
X-1487149Y-38158851D01*
X-1462608Y-38136609D01*
X-1436005Y-38116879D01*
X-1407596Y-38099852D01*
X-1377656Y-38085691D01*
X-1346471Y-38074533D01*
X-1314343Y-38066485D01*
X-1281581Y-38061625D01*
X-1248500Y-38060000D01*
X-473500Y-38060000D01*
X-440419Y-38061625D01*
X-440419Y-38061625D01*
G37*
D16*
X-861000Y-38735000D03*
D15*
G36*
X1309581Y-38061625D02*
X1342343Y-38066485D01*
X1374471Y-38074533D01*
X1405656Y-38085691D01*
X1435596Y-38099852D01*
X1464005Y-38116879D01*
X1490608Y-38136609D01*
X1515149Y-38158851D01*
X1537391Y-38183392D01*
X1557121Y-38209995D01*
X1574148Y-38238404D01*
X1588309Y-38268344D01*
X1599467Y-38299529D01*
X1607515Y-38331657D01*
X1612375Y-38364419D01*
X1614000Y-38397500D01*
X1614000Y-39072500D01*
X1612375Y-39105581D01*
X1607515Y-39138343D01*
X1599467Y-39170471D01*
X1588309Y-39201656D01*
X1574148Y-39231596D01*
X1557121Y-39260005D01*
X1537391Y-39286608D01*
X1515149Y-39311149D01*
X1490608Y-39333391D01*
X1464005Y-39353121D01*
X1435596Y-39370148D01*
X1405656Y-39384309D01*
X1374471Y-39395467D01*
X1342343Y-39403515D01*
X1309581Y-39408375D01*
X1276500Y-39410000D01*
X501500Y-39410000D01*
X468419Y-39408375D01*
X435657Y-39403515D01*
X403529Y-39395467D01*
X372344Y-39384309D01*
X342404Y-39370148D01*
X313995Y-39353121D01*
X287392Y-39333391D01*
X262851Y-39311149D01*
X240609Y-39286608D01*
X220879Y-39260005D01*
X203852Y-39231596D01*
X189691Y-39201656D01*
X178533Y-39170471D01*
X170485Y-39138343D01*
X165625Y-39105581D01*
X164000Y-39072500D01*
X164000Y-38397500D01*
X165625Y-38364419D01*
X170485Y-38331657D01*
X178533Y-38299529D01*
X189691Y-38268344D01*
X203852Y-38238404D01*
X220879Y-38209995D01*
X240609Y-38183392D01*
X262851Y-38158851D01*
X287392Y-38136609D01*
X313995Y-38116879D01*
X342404Y-38099852D01*
X372344Y-38085691D01*
X403529Y-38074533D01*
X435657Y-38066485D01*
X468419Y-38061625D01*
X501500Y-38060000D01*
X1276500Y-38060000D01*
X1309581Y-38061625D01*
X1309581Y-38061625D01*
G37*
D16*
X889000Y-38735000D03*
G04 #@! TD*
D17*
G04 #@! TO.C,J1*
X-31750000Y13335000D03*
D12*
X-31750000Y8255000D03*
G04 #@! TD*
D17*
G04 #@! TO.C,J2*
X13970000Y-26670000D03*
D12*
X19050000Y-26670000D03*
X24130000Y-26670000D03*
G04 #@! TD*
D18*
G04 #@! TO.C,J3*
X-15875000Y-10160000D03*
D19*
X-15875000Y-7620000D03*
X-15875000Y-5080000D03*
X-15875000Y-2540000D03*
G04 #@! TD*
D12*
G04 #@! TO.C,J4*
X-3175000Y-14605000D03*
D17*
X-8255000Y-14605000D03*
G04 #@! TD*
G04 #@! TO.C,J5*
X3175000Y-14605000D03*
D12*
X8255000Y-14605000D03*
G04 #@! TD*
D15*
G04 #@! TO.C,R1*
G36*
X5268707Y-40201542D02*
X5299787Y-40206152D01*
X5330266Y-40213787D01*
X5359850Y-40224372D01*
X5388254Y-40237806D01*
X5415204Y-40253959D01*
X5440442Y-40272677D01*
X5463723Y-40293777D01*
X5484823Y-40317058D01*
X5503541Y-40342296D01*
X5519694Y-40369246D01*
X5533128Y-40397650D01*
X5543713Y-40427234D01*
X5551348Y-40457713D01*
X5555958Y-40488793D01*
X5557500Y-40520176D01*
X5557500Y-42029824D01*
X5555958Y-42061207D01*
X5551348Y-42092287D01*
X5543713Y-42122766D01*
X5533128Y-42152350D01*
X5519694Y-42180754D01*
X5503541Y-42207704D01*
X5484823Y-42232942D01*
X5463723Y-42256223D01*
X5440442Y-42277323D01*
X5415204Y-42296041D01*
X5388254Y-42312194D01*
X5359850Y-42325628D01*
X5330266Y-42336213D01*
X5299787Y-42343848D01*
X5268707Y-42348458D01*
X5237324Y-42350000D01*
X4052676Y-42350000D01*
X4021293Y-42348458D01*
X3990213Y-42343848D01*
X3959734Y-42336213D01*
X3930150Y-42325628D01*
X3901746Y-42312194D01*
X3874796Y-42296041D01*
X3849558Y-42277323D01*
X3826277Y-42256223D01*
X3805177Y-42232942D01*
X3786459Y-42207704D01*
X3770306Y-42180754D01*
X3756872Y-42152350D01*
X3746287Y-42122766D01*
X3738652Y-42092287D01*
X3734042Y-42061207D01*
X3732500Y-42029824D01*
X3732500Y-40520176D01*
X3734042Y-40488793D01*
X3738652Y-40457713D01*
X3746287Y-40427234D01*
X3756872Y-40397650D01*
X3770306Y-40369246D01*
X3786459Y-40342296D01*
X3805177Y-40317058D01*
X3826277Y-40293777D01*
X3849558Y-40272677D01*
X3874796Y-40253959D01*
X3901746Y-40237806D01*
X3930150Y-40224372D01*
X3959734Y-40213787D01*
X3990213Y-40206152D01*
X4021293Y-40201542D01*
X4052676Y-40200000D01*
X5237324Y-40200000D01*
X5268707Y-40201542D01*
X5268707Y-40201542D01*
G37*
D20*
X4645000Y-41275000D03*
D15*
G36*
X8243707Y-40201542D02*
X8274787Y-40206152D01*
X8305266Y-40213787D01*
X8334850Y-40224372D01*
X8363254Y-40237806D01*
X8390204Y-40253959D01*
X8415442Y-40272677D01*
X8438723Y-40293777D01*
X8459823Y-40317058D01*
X8478541Y-40342296D01*
X8494694Y-40369246D01*
X8508128Y-40397650D01*
X8518713Y-40427234D01*
X8526348Y-40457713D01*
X8530958Y-40488793D01*
X8532500Y-40520176D01*
X8532500Y-42029824D01*
X8530958Y-42061207D01*
X8526348Y-42092287D01*
X8518713Y-42122766D01*
X8508128Y-42152350D01*
X8494694Y-42180754D01*
X8478541Y-42207704D01*
X8459823Y-42232942D01*
X8438723Y-42256223D01*
X8415442Y-42277323D01*
X8390204Y-42296041D01*
X8363254Y-42312194D01*
X8334850Y-42325628D01*
X8305266Y-42336213D01*
X8274787Y-42343848D01*
X8243707Y-42348458D01*
X8212324Y-42350000D01*
X7027676Y-42350000D01*
X6996293Y-42348458D01*
X6965213Y-42343848D01*
X6934734Y-42336213D01*
X6905150Y-42325628D01*
X6876746Y-42312194D01*
X6849796Y-42296041D01*
X6824558Y-42277323D01*
X6801277Y-42256223D01*
X6780177Y-42232942D01*
X6761459Y-42207704D01*
X6745306Y-42180754D01*
X6731872Y-42152350D01*
X6721287Y-42122766D01*
X6713652Y-42092287D01*
X6709042Y-42061207D01*
X6707500Y-42029824D01*
X6707500Y-40520176D01*
X6709042Y-40488793D01*
X6713652Y-40457713D01*
X6721287Y-40427234D01*
X6731872Y-40397650D01*
X6745306Y-40369246D01*
X6761459Y-40342296D01*
X6780177Y-40317058D01*
X6801277Y-40293777D01*
X6824558Y-40272677D01*
X6849796Y-40253959D01*
X6876746Y-40237806D01*
X6905150Y-40224372D01*
X6934734Y-40213787D01*
X6965213Y-40206152D01*
X6996293Y-40201542D01*
X7027676Y-40200000D01*
X8212324Y-40200000D01*
X8243707Y-40201542D01*
X8243707Y-40201542D01*
G37*
D20*
X7620000Y-41275000D03*
G04 #@! TD*
D15*
G04 #@! TO.C,R2*
G36*
X8243707Y-37661542D02*
X8274787Y-37666152D01*
X8305266Y-37673787D01*
X8334850Y-37684372D01*
X8363254Y-37697806D01*
X8390204Y-37713959D01*
X8415442Y-37732677D01*
X8438723Y-37753777D01*
X8459823Y-37777058D01*
X8478541Y-37802296D01*
X8494694Y-37829246D01*
X8508128Y-37857650D01*
X8518713Y-37887234D01*
X8526348Y-37917713D01*
X8530958Y-37948793D01*
X8532500Y-37980176D01*
X8532500Y-39489824D01*
X8530958Y-39521207D01*
X8526348Y-39552287D01*
X8518713Y-39582766D01*
X8508128Y-39612350D01*
X8494694Y-39640754D01*
X8478541Y-39667704D01*
X8459823Y-39692942D01*
X8438723Y-39716223D01*
X8415442Y-39737323D01*
X8390204Y-39756041D01*
X8363254Y-39772194D01*
X8334850Y-39785628D01*
X8305266Y-39796213D01*
X8274787Y-39803848D01*
X8243707Y-39808458D01*
X8212324Y-39810000D01*
X7027676Y-39810000D01*
X6996293Y-39808458D01*
X6965213Y-39803848D01*
X6934734Y-39796213D01*
X6905150Y-39785628D01*
X6876746Y-39772194D01*
X6849796Y-39756041D01*
X6824558Y-39737323D01*
X6801277Y-39716223D01*
X6780177Y-39692942D01*
X6761459Y-39667704D01*
X6745306Y-39640754D01*
X6731872Y-39612350D01*
X6721287Y-39582766D01*
X6713652Y-39552287D01*
X6709042Y-39521207D01*
X6707500Y-39489824D01*
X6707500Y-37980176D01*
X6709042Y-37948793D01*
X6713652Y-37917713D01*
X6721287Y-37887234D01*
X6731872Y-37857650D01*
X6745306Y-37829246D01*
X6761459Y-37802296D01*
X6780177Y-37777058D01*
X6801277Y-37753777D01*
X6824558Y-37732677D01*
X6849796Y-37713959D01*
X6876746Y-37697806D01*
X6905150Y-37684372D01*
X6934734Y-37673787D01*
X6965213Y-37666152D01*
X6996293Y-37661542D01*
X7027676Y-37660000D01*
X8212324Y-37660000D01*
X8243707Y-37661542D01*
X8243707Y-37661542D01*
G37*
D20*
X7620000Y-38735000D03*
D15*
G36*
X5268707Y-37661542D02*
X5299787Y-37666152D01*
X5330266Y-37673787D01*
X5359850Y-37684372D01*
X5388254Y-37697806D01*
X5415204Y-37713959D01*
X5440442Y-37732677D01*
X5463723Y-37753777D01*
X5484823Y-37777058D01*
X5503541Y-37802296D01*
X5519694Y-37829246D01*
X5533128Y-37857650D01*
X5543713Y-37887234D01*
X5551348Y-37917713D01*
X5555958Y-37948793D01*
X5557500Y-37980176D01*
X5557500Y-39489824D01*
X5555958Y-39521207D01*
X5551348Y-39552287D01*
X5543713Y-39582766D01*
X5533128Y-39612350D01*
X5519694Y-39640754D01*
X5503541Y-39667704D01*
X5484823Y-39692942D01*
X5463723Y-39716223D01*
X5440442Y-39737323D01*
X5415204Y-39756041D01*
X5388254Y-39772194D01*
X5359850Y-39785628D01*
X5330266Y-39796213D01*
X5299787Y-39803848D01*
X5268707Y-39808458D01*
X5237324Y-39810000D01*
X4052676Y-39810000D01*
X4021293Y-39808458D01*
X3990213Y-39803848D01*
X3959734Y-39796213D01*
X3930150Y-39785628D01*
X3901746Y-39772194D01*
X3874796Y-39756041D01*
X3849558Y-39737323D01*
X3826277Y-39716223D01*
X3805177Y-39692942D01*
X3786459Y-39667704D01*
X3770306Y-39640754D01*
X3756872Y-39612350D01*
X3746287Y-39582766D01*
X3738652Y-39552287D01*
X3734042Y-39521207D01*
X3732500Y-39489824D01*
X3732500Y-37980176D01*
X3734042Y-37948793D01*
X3738652Y-37917713D01*
X3746287Y-37887234D01*
X3756872Y-37857650D01*
X3770306Y-37829246D01*
X3786459Y-37802296D01*
X3805177Y-37777058D01*
X3826277Y-37753777D01*
X3849558Y-37732677D01*
X3874796Y-37713959D01*
X3901746Y-37697806D01*
X3930150Y-37684372D01*
X3959734Y-37673787D01*
X3990213Y-37666152D01*
X4021293Y-37661542D01*
X4052676Y-37660000D01*
X5237324Y-37660000D01*
X5268707Y-37661542D01*
X5268707Y-37661542D01*
G37*
D20*
X4645000Y-38735000D03*
G04 #@! TD*
M02*
