G04 #@! TF.GenerationSoftware,KiCad,Pcbnew,(5.0.0)*
G04 #@! TF.CreationDate,2018-08-26T23:56:50+09:00*
G04 #@! TF.ProjectId,imu,696D752E6B696361645F706362000000,rev?*
G04 #@! TF.SameCoordinates,Original*
G04 #@! TF.FileFunction,Copper,L1,Top,Signal*
G04 #@! TF.FilePolarity,Positive*
%FSLAX46Y46*%
G04 Gerber Fmt 4.6, Leading zero omitted, Abs format (unit mm)*
G04 Created by KiCad (PCBNEW (5.0.0)) date 08/26/18 23:56:50*
%MOMM*%
%LPD*%
G01*
G04 APERTURE LIST*
G04 #@! TA.AperFunction,ComponentPad*
%ADD10R,2.000000X2.000000*%
G04 #@! TD*
G04 #@! TA.AperFunction,ComponentPad*
%ADD11C,2.000000*%
G04 #@! TD*
G04 #@! TA.AperFunction,ComponentPad*
%ADD12R,1.600000X1.600000*%
G04 #@! TD*
G04 #@! TA.AperFunction,ComponentPad*
%ADD13O,1.600000X1.600000*%
G04 #@! TD*
G04 #@! TA.AperFunction,Conductor*
%ADD14C,0.100000*%
G04 #@! TD*
G04 #@! TA.AperFunction,SMDPad,CuDef*
%ADD15C,0.950000*%
G04 #@! TD*
G04 #@! TA.AperFunction,ComponentPad*
%ADD16R,3.000000X3.000000*%
G04 #@! TD*
G04 #@! TA.AperFunction,ComponentPad*
%ADD17C,3.000000*%
G04 #@! TD*
G04 #@! TA.AperFunction,ComponentPad*
%ADD18R,1.700000X1.700000*%
G04 #@! TD*
G04 #@! TA.AperFunction,ComponentPad*
%ADD19O,1.700000X1.700000*%
G04 #@! TD*
G04 #@! TA.AperFunction,SMDPad,CuDef*
%ADD20C,1.425000*%
G04 #@! TD*
G04 #@! TA.AperFunction,ViaPad*
%ADD21C,0.800000*%
G04 #@! TD*
G04 #@! TA.AperFunction,Conductor*
%ADD22C,0.500000*%
G04 #@! TD*
G04 #@! TA.AperFunction,Conductor*
%ADD23C,0.250000*%
G04 #@! TD*
G04 #@! TA.AperFunction,Conductor*
%ADD24C,1.000000*%
G04 #@! TD*
G04 APERTURE END LIST*
D10*
G04 #@! TO.P,U1,1*
G04 #@! TO.N,Net-(U1-Pad1)*
X10160000Y8890000D03*
D11*
G04 #@! TO.P,U1,2*
G04 #@! TO.N,/GY91_VCC*
X7620000Y8890000D03*
G04 #@! TO.P,U1,3*
G04 #@! TO.N,/GY91_GND*
X5080000Y8890000D03*
G04 #@! TO.P,U1,4*
G04 #@! TO.N,/GY91_SCL*
X2540000Y8890000D03*
G04 #@! TO.P,U1,5*
G04 #@! TO.N,/GY91_SDA*
X0Y8890000D03*
G04 #@! TO.P,U1,6*
G04 #@! TO.N,Net-(U1-Pad6)*
X-2540000Y8890000D03*
G04 #@! TO.P,U1,7*
G04 #@! TO.N,Net-(U1-Pad7)*
X-5080000Y8890000D03*
G04 #@! TO.P,U1,8*
G04 #@! TO.N,Net-(U1-Pad8)*
X-7620000Y8890000D03*
G04 #@! TD*
D12*
G04 #@! TO.P,U2,1*
G04 #@! TO.N,Net-(U2-Pad1)*
X17780000Y-9525000D03*
D13*
G04 #@! TO.P,U2,9*
G04 #@! TO.N,/5Vin*
X35560000Y-1905000D03*
G04 #@! TO.P,U2,2*
G04 #@! TO.N,Net-(U2-Pad2)*
X20320000Y-9525000D03*
G04 #@! TO.P,U2,10*
G04 #@! TO.N,/DrogueIn*
X33020000Y-1905000D03*
G04 #@! TO.P,U2,3*
G04 #@! TO.N,Net-(U2-Pad3)*
X22860000Y-9525000D03*
G04 #@! TO.P,U2,11*
G04 #@! TO.N,/DrogueOut*
X30480000Y-1905000D03*
G04 #@! TO.P,U2,4*
G04 #@! TO.N,/GND*
X25400000Y-9525000D03*
G04 #@! TO.P,U2,12*
X27940000Y-1905000D03*
G04 #@! TO.P,U2,5*
X27940000Y-9525000D03*
G04 #@! TO.P,U2,13*
X25400000Y-1905000D03*
G04 #@! TO.P,U2,6*
G04 #@! TO.N,Net-(U2-Pad6)*
X30480000Y-9525000D03*
G04 #@! TO.P,U2,14*
G04 #@! TO.N,/MainOut*
X22860000Y-1905000D03*
G04 #@! TO.P,U2,7*
G04 #@! TO.N,Net-(U2-Pad7)*
X33020000Y-9525000D03*
G04 #@! TO.P,U2,15*
G04 #@! TO.N,/MainIn*
X20320000Y-1905000D03*
G04 #@! TO.P,U2,8*
G04 #@! TO.N,/9Vin*
X35560000Y-9525000D03*
G04 #@! TO.P,U2,16*
G04 #@! TO.N,/5Vin*
X17780000Y-1905000D03*
G04 #@! TD*
D14*
G04 #@! TO.N,Net-(D1-Pad1)*
G04 #@! TO.C,D1*
G36*
X1185779Y-40801144D02*
X1208834Y-40804563D01*
X1231443Y-40810227D01*
X1253387Y-40818079D01*
X1274457Y-40828044D01*
X1294448Y-40840026D01*
X1313168Y-40853910D01*
X1330438Y-40869562D01*
X1346090Y-40886832D01*
X1359974Y-40905552D01*
X1371956Y-40925543D01*
X1381921Y-40946613D01*
X1389773Y-40968557D01*
X1395437Y-40991166D01*
X1398856Y-41014221D01*
X1400000Y-41037500D01*
X1400000Y-41512500D01*
X1398856Y-41535779D01*
X1395437Y-41558834D01*
X1389773Y-41581443D01*
X1381921Y-41603387D01*
X1371956Y-41624457D01*
X1359974Y-41644448D01*
X1346090Y-41663168D01*
X1330438Y-41680438D01*
X1313168Y-41696090D01*
X1294448Y-41709974D01*
X1274457Y-41721956D01*
X1253387Y-41731921D01*
X1231443Y-41739773D01*
X1208834Y-41745437D01*
X1185779Y-41748856D01*
X1162500Y-41750000D01*
X587500Y-41750000D01*
X564221Y-41748856D01*
X541166Y-41745437D01*
X518557Y-41739773D01*
X496613Y-41731921D01*
X475543Y-41721956D01*
X455552Y-41709974D01*
X436832Y-41696090D01*
X419562Y-41680438D01*
X403910Y-41663168D01*
X390026Y-41644448D01*
X378044Y-41624457D01*
X368079Y-41603387D01*
X360227Y-41581443D01*
X354563Y-41558834D01*
X351144Y-41535779D01*
X350000Y-41512500D01*
X350000Y-41037500D01*
X351144Y-41014221D01*
X354563Y-40991166D01*
X360227Y-40968557D01*
X368079Y-40946613D01*
X378044Y-40925543D01*
X390026Y-40905552D01*
X403910Y-40886832D01*
X419562Y-40869562D01*
X436832Y-40853910D01*
X455552Y-40840026D01*
X475543Y-40828044D01*
X496613Y-40818079D01*
X518557Y-40810227D01*
X541166Y-40804563D01*
X564221Y-40801144D01*
X587500Y-40800000D01*
X1162500Y-40800000D01*
X1185779Y-40801144D01*
X1185779Y-40801144D01*
G37*
D15*
G04 #@! TD*
G04 #@! TO.P,D1,1*
G04 #@! TO.N,Net-(D1-Pad1)*
X875000Y-41275000D03*
D14*
G04 #@! TO.N,/9Vin*
G04 #@! TO.C,D1*
G36*
X-564221Y-40801144D02*
X-541166Y-40804563D01*
X-518557Y-40810227D01*
X-496613Y-40818079D01*
X-475543Y-40828044D01*
X-455552Y-40840026D01*
X-436832Y-40853910D01*
X-419562Y-40869562D01*
X-403910Y-40886832D01*
X-390026Y-40905552D01*
X-378044Y-40925543D01*
X-368079Y-40946613D01*
X-360227Y-40968557D01*
X-354563Y-40991166D01*
X-351144Y-41014221D01*
X-350000Y-41037500D01*
X-350000Y-41512500D01*
X-351144Y-41535779D01*
X-354563Y-41558834D01*
X-360227Y-41581443D01*
X-368079Y-41603387D01*
X-378044Y-41624457D01*
X-390026Y-41644448D01*
X-403910Y-41663168D01*
X-419562Y-41680438D01*
X-436832Y-41696090D01*
X-455552Y-41709974D01*
X-475543Y-41721956D01*
X-496613Y-41731921D01*
X-518557Y-41739773D01*
X-541166Y-41745437D01*
X-564221Y-41748856D01*
X-587500Y-41750000D01*
X-1162500Y-41750000D01*
X-1185779Y-41748856D01*
X-1208834Y-41745437D01*
X-1231443Y-41739773D01*
X-1253387Y-41731921D01*
X-1274457Y-41721956D01*
X-1294448Y-41709974D01*
X-1313168Y-41696090D01*
X-1330438Y-41680438D01*
X-1346090Y-41663168D01*
X-1359974Y-41644448D01*
X-1371956Y-41624457D01*
X-1381921Y-41603387D01*
X-1389773Y-41581443D01*
X-1395437Y-41558834D01*
X-1398856Y-41535779D01*
X-1400000Y-41512500D01*
X-1400000Y-41037500D01*
X-1398856Y-41014221D01*
X-1395437Y-40991166D01*
X-1389773Y-40968557D01*
X-1381921Y-40946613D01*
X-1371956Y-40925543D01*
X-1359974Y-40905552D01*
X-1346090Y-40886832D01*
X-1330438Y-40869562D01*
X-1313168Y-40853910D01*
X-1294448Y-40840026D01*
X-1274457Y-40828044D01*
X-1253387Y-40818079D01*
X-1231443Y-40810227D01*
X-1208834Y-40804563D01*
X-1185779Y-40801144D01*
X-1162500Y-40800000D01*
X-587500Y-40800000D01*
X-564221Y-40801144D01*
X-564221Y-40801144D01*
G37*
D15*
G04 #@! TD*
G04 #@! TO.P,D1,2*
G04 #@! TO.N,/9Vin*
X-875000Y-41275000D03*
D14*
G04 #@! TO.N,/5Vin*
G04 #@! TO.C,D2*
G36*
X-550221Y-38261144D02*
X-527166Y-38264563D01*
X-504557Y-38270227D01*
X-482613Y-38278079D01*
X-461543Y-38288044D01*
X-441552Y-38300026D01*
X-422832Y-38313910D01*
X-405562Y-38329562D01*
X-389910Y-38346832D01*
X-376026Y-38365552D01*
X-364044Y-38385543D01*
X-354079Y-38406613D01*
X-346227Y-38428557D01*
X-340563Y-38451166D01*
X-337144Y-38474221D01*
X-336000Y-38497500D01*
X-336000Y-38972500D01*
X-337144Y-38995779D01*
X-340563Y-39018834D01*
X-346227Y-39041443D01*
X-354079Y-39063387D01*
X-364044Y-39084457D01*
X-376026Y-39104448D01*
X-389910Y-39123168D01*
X-405562Y-39140438D01*
X-422832Y-39156090D01*
X-441552Y-39169974D01*
X-461543Y-39181956D01*
X-482613Y-39191921D01*
X-504557Y-39199773D01*
X-527166Y-39205437D01*
X-550221Y-39208856D01*
X-573500Y-39210000D01*
X-1148500Y-39210000D01*
X-1171779Y-39208856D01*
X-1194834Y-39205437D01*
X-1217443Y-39199773D01*
X-1239387Y-39191921D01*
X-1260457Y-39181956D01*
X-1280448Y-39169974D01*
X-1299168Y-39156090D01*
X-1316438Y-39140438D01*
X-1332090Y-39123168D01*
X-1345974Y-39104448D01*
X-1357956Y-39084457D01*
X-1367921Y-39063387D01*
X-1375773Y-39041443D01*
X-1381437Y-39018834D01*
X-1384856Y-38995779D01*
X-1386000Y-38972500D01*
X-1386000Y-38497500D01*
X-1384856Y-38474221D01*
X-1381437Y-38451166D01*
X-1375773Y-38428557D01*
X-1367921Y-38406613D01*
X-1357956Y-38385543D01*
X-1345974Y-38365552D01*
X-1332090Y-38346832D01*
X-1316438Y-38329562D01*
X-1299168Y-38313910D01*
X-1280448Y-38300026D01*
X-1260457Y-38288044D01*
X-1239387Y-38278079D01*
X-1217443Y-38270227D01*
X-1194834Y-38264563D01*
X-1171779Y-38261144D01*
X-1148500Y-38260000D01*
X-573500Y-38260000D01*
X-550221Y-38261144D01*
X-550221Y-38261144D01*
G37*
D15*
G04 #@! TD*
G04 #@! TO.P,D2,2*
G04 #@! TO.N,/5Vin*
X-861000Y-38735000D03*
D14*
G04 #@! TO.N,Net-(D2-Pad1)*
G04 #@! TO.C,D2*
G36*
X1199779Y-38261144D02*
X1222834Y-38264563D01*
X1245443Y-38270227D01*
X1267387Y-38278079D01*
X1288457Y-38288044D01*
X1308448Y-38300026D01*
X1327168Y-38313910D01*
X1344438Y-38329562D01*
X1360090Y-38346832D01*
X1373974Y-38365552D01*
X1385956Y-38385543D01*
X1395921Y-38406613D01*
X1403773Y-38428557D01*
X1409437Y-38451166D01*
X1412856Y-38474221D01*
X1414000Y-38497500D01*
X1414000Y-38972500D01*
X1412856Y-38995779D01*
X1409437Y-39018834D01*
X1403773Y-39041443D01*
X1395921Y-39063387D01*
X1385956Y-39084457D01*
X1373974Y-39104448D01*
X1360090Y-39123168D01*
X1344438Y-39140438D01*
X1327168Y-39156090D01*
X1308448Y-39169974D01*
X1288457Y-39181956D01*
X1267387Y-39191921D01*
X1245443Y-39199773D01*
X1222834Y-39205437D01*
X1199779Y-39208856D01*
X1176500Y-39210000D01*
X601500Y-39210000D01*
X578221Y-39208856D01*
X555166Y-39205437D01*
X532557Y-39199773D01*
X510613Y-39191921D01*
X489543Y-39181956D01*
X469552Y-39169974D01*
X450832Y-39156090D01*
X433562Y-39140438D01*
X417910Y-39123168D01*
X404026Y-39104448D01*
X392044Y-39084457D01*
X382079Y-39063387D01*
X374227Y-39041443D01*
X368563Y-39018834D01*
X365144Y-38995779D01*
X364000Y-38972500D01*
X364000Y-38497500D01*
X365144Y-38474221D01*
X368563Y-38451166D01*
X374227Y-38428557D01*
X382079Y-38406613D01*
X392044Y-38385543D01*
X404026Y-38365552D01*
X417910Y-38346832D01*
X433562Y-38329562D01*
X450832Y-38313910D01*
X469552Y-38300026D01*
X489543Y-38288044D01*
X510613Y-38278079D01*
X532557Y-38270227D01*
X555166Y-38264563D01*
X578221Y-38261144D01*
X601500Y-38260000D01*
X1176500Y-38260000D01*
X1199779Y-38261144D01*
X1199779Y-38261144D01*
G37*
D15*
G04 #@! TD*
G04 #@! TO.P,D2,1*
G04 #@! TO.N,Net-(D2-Pad1)*
X889000Y-38735000D03*
D16*
G04 #@! TO.P,J1,1*
G04 #@! TO.N,/MainIn*
X-31750000Y13335000D03*
D17*
G04 #@! TO.P,J1,2*
G04 #@! TO.N,/DrogueIn*
X-31750000Y8255000D03*
G04 #@! TD*
D16*
G04 #@! TO.P,J2,1*
G04 #@! TO.N,/9Vin*
X13970000Y-26670000D03*
D17*
G04 #@! TO.P,J2,2*
G04 #@! TO.N,/5Vin*
X19050000Y-26670000D03*
G04 #@! TO.P,J2,3*
G04 #@! TO.N,/GND*
X24130000Y-26670000D03*
G04 #@! TD*
D18*
G04 #@! TO.P,J3,1*
G04 #@! TO.N,/GY91_VCC*
X-15875000Y-10160000D03*
D19*
G04 #@! TO.P,J3,2*
G04 #@! TO.N,/GY91_GND*
X-15875000Y-7620000D03*
G04 #@! TO.P,J3,3*
G04 #@! TO.N,/GY91_SCL*
X-15875000Y-5080000D03*
G04 #@! TO.P,J3,4*
G04 #@! TO.N,/GY91_SDA*
X-15875000Y-2540000D03*
G04 #@! TD*
D17*
G04 #@! TO.P,J4,2*
G04 #@! TO.N,/GND*
X-3175000Y-14605000D03*
D16*
G04 #@! TO.P,J4,1*
G04 #@! TO.N,/MainOut*
X-8255000Y-14605000D03*
G04 #@! TD*
G04 #@! TO.P,J5,1*
G04 #@! TO.N,/DrogueOut*
X3175000Y-14605000D03*
D17*
G04 #@! TO.P,J5,2*
G04 #@! TO.N,/GND*
X8255000Y-14605000D03*
G04 #@! TD*
D14*
G04 #@! TO.N,Net-(D1-Pad1)*
G04 #@! TO.C,R1*
G36*
X5132004Y-40401204D02*
X5156273Y-40404804D01*
X5180071Y-40410765D01*
X5203171Y-40419030D01*
X5225349Y-40429520D01*
X5246393Y-40442133D01*
X5266098Y-40456747D01*
X5284277Y-40473223D01*
X5300753Y-40491402D01*
X5315367Y-40511107D01*
X5327980Y-40532151D01*
X5338470Y-40554329D01*
X5346735Y-40577429D01*
X5352696Y-40601227D01*
X5356296Y-40625496D01*
X5357500Y-40650000D01*
X5357500Y-41900000D01*
X5356296Y-41924504D01*
X5352696Y-41948773D01*
X5346735Y-41972571D01*
X5338470Y-41995671D01*
X5327980Y-42017849D01*
X5315367Y-42038893D01*
X5300753Y-42058598D01*
X5284277Y-42076777D01*
X5266098Y-42093253D01*
X5246393Y-42107867D01*
X5225349Y-42120480D01*
X5203171Y-42130970D01*
X5180071Y-42139235D01*
X5156273Y-42145196D01*
X5132004Y-42148796D01*
X5107500Y-42150000D01*
X4182500Y-42150000D01*
X4157996Y-42148796D01*
X4133727Y-42145196D01*
X4109929Y-42139235D01*
X4086829Y-42130970D01*
X4064651Y-42120480D01*
X4043607Y-42107867D01*
X4023902Y-42093253D01*
X4005723Y-42076777D01*
X3989247Y-42058598D01*
X3974633Y-42038893D01*
X3962020Y-42017849D01*
X3951530Y-41995671D01*
X3943265Y-41972571D01*
X3937304Y-41948773D01*
X3933704Y-41924504D01*
X3932500Y-41900000D01*
X3932500Y-40650000D01*
X3933704Y-40625496D01*
X3937304Y-40601227D01*
X3943265Y-40577429D01*
X3951530Y-40554329D01*
X3962020Y-40532151D01*
X3974633Y-40511107D01*
X3989247Y-40491402D01*
X4005723Y-40473223D01*
X4023902Y-40456747D01*
X4043607Y-40442133D01*
X4064651Y-40429520D01*
X4086829Y-40419030D01*
X4109929Y-40410765D01*
X4133727Y-40404804D01*
X4157996Y-40401204D01*
X4182500Y-40400000D01*
X5107500Y-40400000D01*
X5132004Y-40401204D01*
X5132004Y-40401204D01*
G37*
D20*
G04 #@! TD*
G04 #@! TO.P,R1,1*
G04 #@! TO.N,Net-(D1-Pad1)*
X4645000Y-41275000D03*
D14*
G04 #@! TO.N,/GND*
G04 #@! TO.C,R1*
G36*
X8107004Y-40401204D02*
X8131273Y-40404804D01*
X8155071Y-40410765D01*
X8178171Y-40419030D01*
X8200349Y-40429520D01*
X8221393Y-40442133D01*
X8241098Y-40456747D01*
X8259277Y-40473223D01*
X8275753Y-40491402D01*
X8290367Y-40511107D01*
X8302980Y-40532151D01*
X8313470Y-40554329D01*
X8321735Y-40577429D01*
X8327696Y-40601227D01*
X8331296Y-40625496D01*
X8332500Y-40650000D01*
X8332500Y-41900000D01*
X8331296Y-41924504D01*
X8327696Y-41948773D01*
X8321735Y-41972571D01*
X8313470Y-41995671D01*
X8302980Y-42017849D01*
X8290367Y-42038893D01*
X8275753Y-42058598D01*
X8259277Y-42076777D01*
X8241098Y-42093253D01*
X8221393Y-42107867D01*
X8200349Y-42120480D01*
X8178171Y-42130970D01*
X8155071Y-42139235D01*
X8131273Y-42145196D01*
X8107004Y-42148796D01*
X8082500Y-42150000D01*
X7157500Y-42150000D01*
X7132996Y-42148796D01*
X7108727Y-42145196D01*
X7084929Y-42139235D01*
X7061829Y-42130970D01*
X7039651Y-42120480D01*
X7018607Y-42107867D01*
X6998902Y-42093253D01*
X6980723Y-42076777D01*
X6964247Y-42058598D01*
X6949633Y-42038893D01*
X6937020Y-42017849D01*
X6926530Y-41995671D01*
X6918265Y-41972571D01*
X6912304Y-41948773D01*
X6908704Y-41924504D01*
X6907500Y-41900000D01*
X6907500Y-40650000D01*
X6908704Y-40625496D01*
X6912304Y-40601227D01*
X6918265Y-40577429D01*
X6926530Y-40554329D01*
X6937020Y-40532151D01*
X6949633Y-40511107D01*
X6964247Y-40491402D01*
X6980723Y-40473223D01*
X6998902Y-40456747D01*
X7018607Y-40442133D01*
X7039651Y-40429520D01*
X7061829Y-40419030D01*
X7084929Y-40410765D01*
X7108727Y-40404804D01*
X7132996Y-40401204D01*
X7157500Y-40400000D01*
X8082500Y-40400000D01*
X8107004Y-40401204D01*
X8107004Y-40401204D01*
G37*
D20*
G04 #@! TD*
G04 #@! TO.P,R1,2*
G04 #@! TO.N,/GND*
X7620000Y-41275000D03*
D14*
G04 #@! TO.N,/GND*
G04 #@! TO.C,R2*
G36*
X8107004Y-37861204D02*
X8131273Y-37864804D01*
X8155071Y-37870765D01*
X8178171Y-37879030D01*
X8200349Y-37889520D01*
X8221393Y-37902133D01*
X8241098Y-37916747D01*
X8259277Y-37933223D01*
X8275753Y-37951402D01*
X8290367Y-37971107D01*
X8302980Y-37992151D01*
X8313470Y-38014329D01*
X8321735Y-38037429D01*
X8327696Y-38061227D01*
X8331296Y-38085496D01*
X8332500Y-38110000D01*
X8332500Y-39360000D01*
X8331296Y-39384504D01*
X8327696Y-39408773D01*
X8321735Y-39432571D01*
X8313470Y-39455671D01*
X8302980Y-39477849D01*
X8290367Y-39498893D01*
X8275753Y-39518598D01*
X8259277Y-39536777D01*
X8241098Y-39553253D01*
X8221393Y-39567867D01*
X8200349Y-39580480D01*
X8178171Y-39590970D01*
X8155071Y-39599235D01*
X8131273Y-39605196D01*
X8107004Y-39608796D01*
X8082500Y-39610000D01*
X7157500Y-39610000D01*
X7132996Y-39608796D01*
X7108727Y-39605196D01*
X7084929Y-39599235D01*
X7061829Y-39590970D01*
X7039651Y-39580480D01*
X7018607Y-39567867D01*
X6998902Y-39553253D01*
X6980723Y-39536777D01*
X6964247Y-39518598D01*
X6949633Y-39498893D01*
X6937020Y-39477849D01*
X6926530Y-39455671D01*
X6918265Y-39432571D01*
X6912304Y-39408773D01*
X6908704Y-39384504D01*
X6907500Y-39360000D01*
X6907500Y-38110000D01*
X6908704Y-38085496D01*
X6912304Y-38061227D01*
X6918265Y-38037429D01*
X6926530Y-38014329D01*
X6937020Y-37992151D01*
X6949633Y-37971107D01*
X6964247Y-37951402D01*
X6980723Y-37933223D01*
X6998902Y-37916747D01*
X7018607Y-37902133D01*
X7039651Y-37889520D01*
X7061829Y-37879030D01*
X7084929Y-37870765D01*
X7108727Y-37864804D01*
X7132996Y-37861204D01*
X7157500Y-37860000D01*
X8082500Y-37860000D01*
X8107004Y-37861204D01*
X8107004Y-37861204D01*
G37*
D20*
G04 #@! TD*
G04 #@! TO.P,R2,2*
G04 #@! TO.N,/GND*
X7620000Y-38735000D03*
D14*
G04 #@! TO.N,Net-(D2-Pad1)*
G04 #@! TO.C,R2*
G36*
X5132004Y-37861204D02*
X5156273Y-37864804D01*
X5180071Y-37870765D01*
X5203171Y-37879030D01*
X5225349Y-37889520D01*
X5246393Y-37902133D01*
X5266098Y-37916747D01*
X5284277Y-37933223D01*
X5300753Y-37951402D01*
X5315367Y-37971107D01*
X5327980Y-37992151D01*
X5338470Y-38014329D01*
X5346735Y-38037429D01*
X5352696Y-38061227D01*
X5356296Y-38085496D01*
X5357500Y-38110000D01*
X5357500Y-39360000D01*
X5356296Y-39384504D01*
X5352696Y-39408773D01*
X5346735Y-39432571D01*
X5338470Y-39455671D01*
X5327980Y-39477849D01*
X5315367Y-39498893D01*
X5300753Y-39518598D01*
X5284277Y-39536777D01*
X5266098Y-39553253D01*
X5246393Y-39567867D01*
X5225349Y-39580480D01*
X5203171Y-39590970D01*
X5180071Y-39599235D01*
X5156273Y-39605196D01*
X5132004Y-39608796D01*
X5107500Y-39610000D01*
X4182500Y-39610000D01*
X4157996Y-39608796D01*
X4133727Y-39605196D01*
X4109929Y-39599235D01*
X4086829Y-39590970D01*
X4064651Y-39580480D01*
X4043607Y-39567867D01*
X4023902Y-39553253D01*
X4005723Y-39536777D01*
X3989247Y-39518598D01*
X3974633Y-39498893D01*
X3962020Y-39477849D01*
X3951530Y-39455671D01*
X3943265Y-39432571D01*
X3937304Y-39408773D01*
X3933704Y-39384504D01*
X3932500Y-39360000D01*
X3932500Y-38110000D01*
X3933704Y-38085496D01*
X3937304Y-38061227D01*
X3943265Y-38037429D01*
X3951530Y-38014329D01*
X3962020Y-37992151D01*
X3974633Y-37971107D01*
X3989247Y-37951402D01*
X4005723Y-37933223D01*
X4023902Y-37916747D01*
X4043607Y-37902133D01*
X4064651Y-37889520D01*
X4086829Y-37879030D01*
X4109929Y-37870765D01*
X4133727Y-37864804D01*
X4157996Y-37861204D01*
X4182500Y-37860000D01*
X5107500Y-37860000D01*
X5132004Y-37861204D01*
X5132004Y-37861204D01*
G37*
D20*
G04 #@! TD*
G04 #@! TO.P,R2,1*
G04 #@! TO.N,Net-(D2-Pad1)*
X4645000Y-38735000D03*
D21*
G04 #@! TO.N,/5Vin*
X-635000Y-36195000D03*
G04 #@! TO.N,/DrogueIn*
X13335000Y12065000D03*
G04 #@! TO.N,/GND*
X10160000Y-41275000D03*
X10160000Y-38735000D03*
G04 #@! TO.N,/9Vin*
X-3175000Y-40005000D03*
G04 #@! TD*
D22*
G04 #@! TO.N,/5Vin*
X-635000Y-38509000D02*
X-861000Y-38735000D01*
X-635000Y-36195000D02*
X-635000Y-38509000D01*
D23*
G04 #@! TO.N,/DrogueIn*
X-31750000Y8255000D02*
X-27940000Y12065000D01*
X-27940000Y12065000D02*
X13335000Y12065000D01*
D24*
G04 #@! TO.N,/DrogueOut*
X25400000Y-6985000D02*
X30480000Y-1905000D01*
X6350000Y-6985000D02*
X25400000Y-6985000D01*
X3175000Y-14605000D02*
X3175000Y-10160000D01*
X3175000Y-10160000D02*
X6350000Y-6985000D01*
D23*
G04 #@! TO.N,/GND*
X7620000Y-41275000D02*
X10160000Y-41275000D01*
X7620000Y-38735000D02*
X10160000Y-38735000D01*
D24*
G04 #@! TO.N,/MainOut*
X20320000Y-4445000D02*
X22860000Y-1905000D01*
X-5080000Y-4445000D02*
X20320000Y-4445000D01*
X-8255000Y-14605000D02*
X-8255000Y-7620000D01*
X-8255000Y-7620000D02*
X-5080000Y-4445000D01*
D23*
G04 #@! TO.N,/MainIn*
X-31750000Y13335000D02*
X15240000Y13335000D01*
X20320000Y10795000D02*
X20320000Y-1905000D01*
X15240000Y13335000D02*
X17780000Y13335000D01*
X17780000Y13335000D02*
X20320000Y10795000D01*
D22*
G04 #@! TO.N,/9Vin*
X-3175000Y-40005000D02*
X-1905000Y-41275000D01*
X-1905000Y-41275000D02*
X-875000Y-41275000D01*
D24*
X13970000Y-24170000D02*
X19090000Y-19050000D01*
X13970000Y-26670000D02*
X13970000Y-24170000D01*
X26035000Y-19050000D02*
X35560000Y-9525000D01*
X19090000Y-19050000D02*
X26035000Y-19050000D01*
D23*
G04 #@! TO.N,Net-(D1-Pad1)*
X875000Y-41275000D02*
X4645000Y-41275000D01*
G04 #@! TO.N,Net-(D2-Pad1)*
X889000Y-38735000D02*
X4645000Y-38735000D01*
G04 #@! TD*
M02*
